<?xml version="1.0" encoding="UTF-8" standalone="no"?><svg xmlns="http://www.w3.org/2000/svg" xmlns:xlink="http://www.w3.org/1999/xlink" contentScriptType="application/ecmascript" contentStyleType="text/css" height="221px" preserveAspectRatio="none" style="width:274px;height:221px;background:#FFFFFF;" version="1.1" viewBox="0 0 274 221" width="274px" zoomAndPan="magnify"><defs><filter height="300%" id="f5d5sww1idhri" width="300%" x="-1" y="-1"><feGaussianBlur result="blurOut" stdDeviation="2.0"/><feColorMatrix in="blurOut" result="blurOut2" type="matrix" values="0 0 0 0 0 0 0 0 0 0 0 0 0 0 0 0 0 0 .4 0"/><feOffset dx="4.0" dy="4.0" in="blurOut2" result="blurOut3"/><feBlend in="SourceGraphic" in2="blurOut3" mode="normal"/></filter></defs><g><!--MD5=[a60570e4b426f702ccbb0d459e3b9417]
cluster models--><polygon fill="#FFFFFF" filter="url(#f5d5sww1idhri)" points="16,6,73,6,80,29.6094,257,29.6094,257,214,16,214,16,6" style="stroke:#000000;stroke-width:1.5;"/><line style="stroke:#000000;stroke-width:1.5;" x1="16" x2="80" y1="29.6094" y2="29.6094"/><text fill="#000000" font-family="sans-serif" font-size="14" font-weight="bold" lengthAdjust="spacing" textLength="51" x="20" y="22.5332">models</text><!--MD5=[1e8c54f5ac0ec684c0f71587f512d7a6]
class SecretWord--><rect codeLine="2" fill="#FEFECE" filter="url(#f5d5sww1idhri)" height="48" id="SecretWord" style="stroke:#A80036;stroke-width:1.5;" width="96" x="32" y="42"/><ellipse cx="47" cy="58" fill="#ADD1B2" rx="11" ry="11" style="stroke:#A80036;stroke-width:1.0;"/><path d="M45.5,59 L45.5,61 L49.5,61 L49.5,60 L49.5,59.5156 L50.125,59 L50.5,59 L50.875,59 L51.5,59.5156 L51.5,60 L51.5,63 L43.5,63 L43.0156,63 L42.5,62.375 L42.5,62 L42.5,61.625 L43.0156,61 L43.5,61 L43.5,61 L43.5,55 L43.5,55 L43.0156,55 L42.5,54.375 L42.5,54 L42.5,53.625 L43.0156,53 L43.5,53 L51.5,53 L51.5,56 L51.5,56.4844 L50.875,57 L50.5,57 L50.125,57 L49.5,56.4844 L49.5,56 L49.5,55 L45.5,55 L45.5,57 L46.5,57 L46.5,56.5156 L46.5,56.5156 L47.125,56 L47.5,56 L47.875,56 L48.5,56.5156 L48.5,57 L48.5,59 L48.5,59.4844 L47.875,60 L47.875,60 L47.5,60 L47.125,60 L46.5,59.4844 L46.5,59.4844 L46.5,59 L45.5,59 Z " fill="#000000"/><text fill="#000000" font-family="sans-serif" font-size="12" lengthAdjust="spacing" textLength="64" x="61" y="62.9102">SecretWord</text><line style="stroke:#A80036;stroke-width:1.5;" x1="33" x2="127" y1="74" y2="74"/><line style="stroke:#A80036;stroke-width:1.5;" x1="33" x2="127" y1="82" y2="82"/><!--MD5=[c54c4e70bb5b58d383db4b14ab39349c]
class WordBD--><rect codeLine="3" fill="#FEFECE" filter="url(#f5d5sww1idhri)" height="48" id="WordBD" style="stroke:#A80036;stroke-width:1.5;" width="78" x="163" y="42"/><ellipse cx="178" cy="58" fill="#B4A7E5" rx="11" ry="11" style="stroke:#A80036;stroke-width:1.0;"/><path d="M179,55 L179,61 L181,61 L181.4844,61 L182,61.625 L182,62 L182,62.375 L181.4844,63 L181,63 L175,63 L174.5156,63 L174,62.375 L174,62 L174,61.625 L174.5156,61 L175,61 L177,61 L177,55 L175,55 L174.5156,55 L174,54.375 L174,54 L174,53.625 L174.5156,53 L175,53 L181,53 L181.4844,53 L182,53.625 L182,54 L182,54.375 L181.4844,55 L181,55 L179,55 Z " fill="#000000"/><text fill="#000000" font-family="sans-serif" font-size="12" font-style="italic" lengthAdjust="spacing" textLength="46" x="192" y="62.9102">WordBD</text><line style="stroke:#A80036;stroke-width:1.5;" x1="164" x2="240" y1="74" y2="74"/><line style="stroke:#A80036;stroke-width:1.5;" x1="164" x2="240" y1="82" y2="82"/><!--MD5=[2cb47ba637a0d19583e6199456f6ad0b]
class Player--><rect codeLine="4" fill="#FEFECE" filter="url(#f5d5sww1idhri)" height="48" id="Player" style="stroke:#A80036;stroke-width:1.5;" width="66" x="47" y="150"/><ellipse cx="62" cy="166" fill="#ADD1B2" rx="11" ry="11" style="stroke:#A80036;stroke-width:1.0;"/><path d="M60.5,167 L60.5,169 L64.5,169 L64.5,168 L64.5,167.5156 L65.125,167 L65.5,167 L65.875,167 L66.5,167.5156 L66.5,168 L66.5,171 L58.5,171 L58.0156,171 L57.5,170.375 L57.5,170 L57.5,169.625 L58.0156,169 L58.5,169 L58.5,169 L58.5,163 L58.5,163 L58.0156,163 L57.5,162.375 L57.5,162 L57.5,161.625 L58.0156,161 L58.5,161 L66.5,161 L66.5,164 L66.5,164.4844 L65.875,165 L65.5,165 L65.125,165 L64.5,164.4844 L64.5,164 L64.5,163 L60.5,163 L60.5,165 L61.5,165 L61.5,164.5156 L61.5,164.5156 L62.125,164 L62.5,164 L62.875,164 L63.5,164.5156 L63.5,165 L63.5,167 L63.5,167.4844 L62.875,168 L62.875,168 L62.5,168 L62.125,168 L61.5,167.4844 L61.5,167.4844 L61.5,167 L60.5,167 Z " fill="#000000"/><text fill="#000000" font-family="sans-serif" font-size="12" lengthAdjust="spacing" textLength="34" x="76" y="170.9102">Player</text><line style="stroke:#A80036;stroke-width:1.5;" x1="48" x2="112" y1="182" y2="182"/><line style="stroke:#A80036;stroke-width:1.5;" x1="48" x2="112" y1="190" y2="190"/><!--MD5=[dd91eae41778c45e12552e5329e240e8]
class Turn--><rect codeLine="5" fill="#FEFECE" filter="url(#f5d5sww1idhri)" height="48" id="Turn" style="stroke:#A80036;stroke-width:1.5;" width="57" x="148.5" y="150"/><ellipse cx="163.5" cy="166" fill="#ADD1B2" rx="11" ry="11" style="stroke:#A80036;stroke-width:1.0;"/><path d="M162,167 L162,169 L166,169 L166,168 L166,167.5156 L166.625,167 L167,167 L167.375,167 L168,167.5156 L168,168 L168,171 L160,171 L159.5156,171 L159,170.375 L159,170 L159,169.625 L159.5156,169 L160,169 L160,169 L160,163 L160,163 L159.5156,163 L159,162.375 L159,162 L159,161.625 L159.5156,161 L160,161 L168,161 L168,164 L168,164.4844 L167.375,165 L167,165 L166.625,165 L166,164.4844 L166,164 L166,163 L162,163 L162,165 L163,165 L163,164.5156 L163,164.5156 L163.625,164 L164,164 L164.375,164 L165,164.5156 L165,165 L165,167 L165,167.4844 L164.375,168 L164.375,168 L164,168 L163.625,168 L163,167.4844 L163,167.4844 L163,167 L162,167 Z " fill="#000000"/><text fill="#000000" font-family="sans-serif" font-size="12" lengthAdjust="spacing" textLength="25" x="177.5" y="170.9102">Turn</text><line style="stroke:#A80036;stroke-width:1.5;" x1="149.5" x2="204.5" y1="182" y2="182"/><line style="stroke:#A80036;stroke-width:1.5;" x1="149.5" x2="204.5" y1="190" y2="190"/><!--MD5=[b58a4a3983ca7cdfe243d2d35f45fe9d]
link SecretWord to WordBD--><!--MD5=[7d39e56888970c1b236fc6dbde8b6528]
link SecretWord to Player--><!--MD5=[2809e98817c5cee3490d4f47bc742af6]
link Player to Turn--><!--MD5=[81c4f3db22c84e92e2a2d88775e73862]
@startuml
package models{
entity SecretWord
interface WordBD
entity Player
entity Turn
}
@enduml

PlantUML version 1.2021.11(Sat Oct 02 15:26:11 CEST 2021)
(GPL source distribution)
Java Runtime: OpenJDK Runtime Environment
JVM: OpenJDK 64-Bit Server VM
Default Encoding: Cp1252
Language: es
Country: ES
--></g></svg>