<?xml version="1.0" encoding="UTF-8" standalone="no"?><svg xmlns="http://www.w3.org/2000/svg" xmlns:xlink="http://www.w3.org/1999/xlink" contentScriptType="application/ecmascript" contentStyleType="text/css" height="180px" preserveAspectRatio="none" style="width:443px;height:180px;background:#FFFFFF;" version="1.1" viewBox="0 0 443 180" width="443px" zoomAndPan="magnify"><defs><filter height="300%" id="f8tl0lpl52b72" width="300%" x="-1" y="-1"><feGaussianBlur result="blurOut" stdDeviation="2.0"/><feColorMatrix in="blurOut" result="blurOut2" type="matrix" values="0 0 0 0 0 0 0 0 0 0 0 0 0 0 0 0 0 0 .4 0"/><feOffset dx="4.0" dy="4.0" in="blurOut2" result="blurOut3"/><feBlend in="SourceGraphic" in2="blurOut3" mode="normal"/></filter></defs><g><!--MD5=[d8eca564858595245321772129d300af]
entity player--><ellipse cx="26" cy="55.5" fill="#FEFECE" filter="url(#f8tl0lpl52b72)" rx="8" ry="8" style="stroke:#A80036;stroke-width:1.5;"/><path d="M26,63.5 L26,90.5 M13,71.5 L39,71.5 M26,90.5 L13,105.5 M26,90.5 L39,105.5 " fill="none" filter="url(#f8tl0lpl52b72)" style="stroke:#A80036;stroke-width:1.5;"/><text fill="#000000" font-family="sans-serif" font-size="14" lengthAdjust="spacing" textLength="40" x="6" y="125.5332">Player</text><ellipse cx="156.1985" cy="21.4517" fill="#FEFECE" filter="url(#f8tl0lpl52b72)" rx="32.6985" ry="15.4517" style="stroke:#A80036;stroke-width:1.5;"/><text fill="#000000" font-family="sans-serif" font-size="14" lengthAdjust="spacing" textLength="30" x="141.1985" y="25.1802">Start</text><ellipse cx="156.0928" cy="87.4872" fill="#FEFECE" filter="url(#f8tl0lpl52b72)" rx="49.0928" ry="15.4872" style="stroke:#A80036;stroke-width:1.5;"/><text fill="#000000" font-family="sans-serif" font-size="14" lengthAdjust="spacing" textLength="53" x="127.1382" y="91.8807">Propose</text><ellipse cx="156.0247" cy="153.4555" fill="#FEFECE" filter="url(#f8tl0lpl52b72)" rx="44.0247" ry="15.4555" style="stroke:#A80036;stroke-width:1.5;"/><text fill="#000000" font-family="sans-serif" font-size="14" lengthAdjust="spacing" textLength="46" x="132.3075" y="157.4018">Restart</text><ellipse cx="369.6463" cy="54.5942" fill="#FEFECE" filter="url(#f8tl0lpl52b72)" rx="61.6463" ry="15.5942" style="stroke:#A80036;stroke-width:1.5;"/><text fill="#000000" font-family="sans-serif" font-size="14" lengthAdjust="spacing" textLength="70" x="331.6463" y="59.1108">showBoard</text><!--MD5=[64e70d79db25e8ae051f313485646b2f]
link player to start--><path d="M46.04,77.29 C55.09,72.46 66.08,66.64 76,61.5 C93.32,52.52 112.87,42.62 128.2,34.91 " fill="none" id="player-to-start" style="stroke:#A80036;stroke-width:1.0;"/><polygon fill="#A80036" points="132.81,32.59,122.9737,33.0875,128.3494,34.8489,126.588,40.2246,132.81,32.59" style="stroke:#A80036;stroke-width:1.0;"/><!--MD5=[25136bf3a8f99246bc143d24ed2b12ea]
link start to showBoard--><path d="M187.3,26.23 C219.55,31.26 271.33,39.34 311.29,45.57 " fill="none" id="start-to-showBoard" style="stroke:#A80036;stroke-width:1.0;stroke-dasharray:7.0,7.0;"/><polygon fill="#A80036" points="316.6,46.4,308.3245,41.06,311.6598,45.629,307.0908,48.9643,316.6,46.4" style="stroke:#A80036;stroke-width:1.0;"/><text fill="#000000" font-family="sans-serif" font-size="13" lengthAdjust="spacing" textLength="41" x="236" y="30.9951">include</text><!--MD5=[350dfe9a8010bf61e192c7e919e7c565]
link player to propose--><path d="M46.16,87.5 C60.89,87.5 81.98,87.5 101.68,87.5 " fill="none" id="player-to-propose" style="stroke:#A80036;stroke-width:1.0;"/><polygon fill="#A80036" points="106.92,87.5,97.92,83.5,101.92,87.5,97.92,91.5,106.92,87.5" style="stroke:#A80036;stroke-width:1.0;"/><!--MD5=[a6aede63a3189dbd4d1028ad47ab6002]
link propose to showBoard--><path d="M200.31,80.74 C232.45,75.73 276.57,68.84 311.56,63.38 " fill="none" id="propose-to-showBoard" style="stroke:#A80036;stroke-width:1.0;stroke-dasharray:7.0,7.0;"/><polygon fill="#A80036" points="316.66,62.59,307.1508,60.0257,311.7198,63.361,308.3845,67.93,316.66,62.59" style="stroke:#A80036;stroke-width:1.0;"/><text fill="#000000" font-family="sans-serif" font-size="13" lengthAdjust="spacing" textLength="41" x="236" y="65.9951">include</text><!--MD5=[b6d8396160b261cafb53a36112d6b35c]
link player to restart--><path d="M46.16,97.38 C67.22,108.24 101.28,125.8 125.69,138.39 " fill="none" id="player-to-restart" style="stroke:#A80036;stroke-width:1.0;"/><polygon fill="#A80036" points="130.44,140.83,124.2864,133.1402,125.9997,138.5313,120.6086,140.2446,130.44,140.83" style="stroke:#A80036;stroke-width:1.0;"/><!--MD5=[93d37f138c22be6e04e1b52f5db2cffb]
@startuml
'https://plantuml.com/use-case-diagram

left to right direction
actor Player as player
usecase "Start" as start
usecase "Propose" as propose
usecase "Restart" as restart
usecase "showBoard" as showBoard
player - -> start
start ..> showBoard :include
player - -> propose
propose ..> showBoard :include
player - -> restart
@enduml

@startuml

left to right direction
actor Player as player
usecase "Start" as start
usecase "Propose" as propose
usecase "Restart" as restart
usecase "showBoard" as showBoard
player - -> start
start ..> showBoard :include
player - -> propose
propose ..> showBoard :include
player - -> restart
@enduml

PlantUML version 1.2021.11(Sat Oct 02 15:26:11 CEST 2021)
(GPL source distribution)
Java Runtime: OpenJDK Runtime Environment
JVM: OpenJDK 64-Bit Server VM
Default Encoding: Cp1252
Language: es
Country: ES
--></g></svg>