<?xml version="1.0" encoding="UTF-8" standalone="no"?><svg xmlns="http://www.w3.org/2000/svg" xmlns:xlink="http://www.w3.org/1999/xlink" contentScriptType="application/ecmascript" contentStyleType="text/css" height="501px" preserveAspectRatio="none" style="width:693px;height:501px;background:#FFFFFF;" version="1.1" viewBox="0 0 693 501" width="693px" zoomAndPan="magnify"><defs><filter height="300%" id="f1gy3eixgb1qwt" width="300%" x="-1" y="-1"><feGaussianBlur result="blurOut" stdDeviation="2.0"/><feColorMatrix in="blurOut" result="blurOut2" type="matrix" values="0 0 0 0 0 0 0 0 0 0 0 0 0 0 0 0 0 0 .4 0"/><feOffset dx="4.0" dy="4.0" in="blurOut2" result="blurOut3"/><feBlend in="SourceGraphic" in2="blurOut3" mode="normal"/></filter></defs><g><!--MD5=[d7ec263f7daf4a6472ede7f2d3e0d6e7]
class Hanged--><rect fill="#FEFECE" filter="url(#f1gy3eixgb1qwt)" height="48" id="Hanged" style="stroke:#A80036;stroke-width:1.5;" width="76" x="233.5" y="7"/><ellipse cx="248.5" cy="23" fill="#ADD1B2" rx="11" ry="11" style="stroke:#A80036;stroke-width:1.0;"/><path d="M250.5,19.5 Q250.7031,19 250.9375,18.75 Q251.1719,18.5 251.4375,18.5 Q251.9063,18.5 252.2031,18.7813 Q252.5,19.0625 252.5,19.7188 L252.5,21.2813 Q252.5,21.9375 252.2188,22.2188 Q251.9375,22.5 251.5,22.5 Q251.1094,22.5 250.8594,22.3281 Q250.6094,22.1563 250.5,21.7031 Q250.4531,21.3906 250.2813,21.2188 Q249.9688,20.8906 249.4063,20.7031 Q248.8438,20.5 248.2813,20.5 Q247.5781,20.5 246.9844,20.7813 Q246.4063,21.0625 245.9531,21.6875 Q245.5,22.3125 245.5,23.1719 L245.5,24.0938 Q245.5,25.125 246.3438,25.8125 Q247.1875,26.5 248.6875,26.5 Q249.5781,26.5 250.2031,26.2969 Q250.5625,26.1875 250.9688,25.8281 Q251.2344,25.625 251.375,25.5625 Q251.5156,25.5 251.6875,25.5 Q252.0156,25.5 252.25,25.7656 Q252.5,26.0156 252.5,26.375 Q252.5,26.7188 252.1563,27.125 Q251.6563,27.7188 250.8594,28.0469 Q249.8125,28.5 248.5313,28.5 Q247.0313,28.5 245.8281,27.9063 Q244.8594,27.4375 244.1719,26.4219 Q243.5,25.4063 243.5,24.2031 L243.5,23.1094 Q243.5,21.8594 244.0938,20.7656 Q244.7031,19.6719 245.75,19.0938 Q246.8125,18.5 248,18.5 Q248.7188,18.5 249.3438,18.75 Q249.9688,19 250.5,19.5 Z " fill="#000000"/><text fill="#000000" font-family="sans-serif" font-size="12" lengthAdjust="spacing" textLength="44" x="262.5" y="27.9102">Hanged</text><line style="stroke:#A80036;stroke-width:1.5;" x1="234.5" x2="308.5" y1="39" y2="39"/><line style="stroke:#A80036;stroke-width:1.5;" x1="234.5" x2="308.5" y1="47" y2="47"/><!--MD5=[dd91eae41778c45e12552e5329e240e8]
class Turn--><rect fill="#FEFECE" filter="url(#f1gy3eixgb1qwt)" height="48" id="Turn" style="stroke:#A80036;stroke-width:1.5;" width="57" x="202" y="115"/><ellipse cx="217" cy="131" fill="#ADD1B2" rx="11" ry="11" style="stroke:#A80036;stroke-width:1.0;"/><path d="M219,127.5 Q219.2031,127 219.4375,126.75 Q219.6719,126.5 219.9375,126.5 Q220.4063,126.5 220.7031,126.7813 Q221,127.0625 221,127.7188 L221,129.2813 Q221,129.9375 220.7188,130.2188 Q220.4375,130.5 220,130.5 Q219.6094,130.5 219.3594,130.3281 Q219.1094,130.1563 219,129.7031 Q218.9531,129.3906 218.7813,129.2188 Q218.4688,128.8906 217.9063,128.7031 Q217.3438,128.5 216.7813,128.5 Q216.0781,128.5 215.4844,128.7813 Q214.9063,129.0625 214.4531,129.6875 Q214,130.3125 214,131.1719 L214,132.0938 Q214,133.125 214.8438,133.8125 Q215.6875,134.5 217.1875,134.5 Q218.0781,134.5 218.7031,134.2969 Q219.0625,134.1875 219.4688,133.8281 Q219.7344,133.625 219.875,133.5625 Q220.0156,133.5 220.1875,133.5 Q220.5156,133.5 220.75,133.7656 Q221,134.0156 221,134.375 Q221,134.7188 220.6563,135.125 Q220.1563,135.7188 219.3594,136.0469 Q218.3125,136.5 217.0313,136.5 Q215.5313,136.5 214.3281,135.9063 Q213.3594,135.4375 212.6719,134.4219 Q212,133.4063 212,132.2031 L212,131.1094 Q212,129.8594 212.5938,128.7656 Q213.2031,127.6719 214.25,127.0938 Q215.3125,126.5 216.5,126.5 Q217.2188,126.5 217.8438,126.75 Q218.4688,127 219,127.5 Z " fill="#000000"/><text fill="#000000" font-family="sans-serif" font-size="12" lengthAdjust="spacing" textLength="25" x="231" y="135.9102">Turn</text><line style="stroke:#A80036;stroke-width:1.5;" x1="203" x2="258" y1="147" y2="147"/><line style="stroke:#A80036;stroke-width:1.5;" x1="203" x2="258" y1="155" y2="155"/><!--MD5=[2cb47ba637a0d19583e6199456f6ad0b]
class Player--><rect fill="#FEFECE" filter="url(#f1gy3eixgb1qwt)" height="48" id="Player" style="stroke:#A80036;stroke-width:1.5;" width="66" x="180.5" y="223"/><ellipse cx="195.5" cy="239" fill="#ADD1B2" rx="11" ry="11" style="stroke:#A80036;stroke-width:1.0;"/><path d="M197.5,235.5 Q197.7031,235 197.9375,234.75 Q198.1719,234.5 198.4375,234.5 Q198.9063,234.5 199.2031,234.7813 Q199.5,235.0625 199.5,235.7188 L199.5,237.2813 Q199.5,237.9375 199.2188,238.2188 Q198.9375,238.5 198.5,238.5 Q198.1094,238.5 197.8594,238.3281 Q197.6094,238.1563 197.5,237.7031 Q197.4531,237.3906 197.2813,237.2188 Q196.9688,236.8906 196.4063,236.7031 Q195.8438,236.5 195.2813,236.5 Q194.5781,236.5 193.9844,236.7813 Q193.4063,237.0625 192.9531,237.6875 Q192.5,238.3125 192.5,239.1719 L192.5,240.0938 Q192.5,241.125 193.3438,241.8125 Q194.1875,242.5 195.6875,242.5 Q196.5781,242.5 197.2031,242.2969 Q197.5625,242.1875 197.9688,241.8281 Q198.2344,241.625 198.375,241.5625 Q198.5156,241.5 198.6875,241.5 Q199.0156,241.5 199.25,241.7656 Q199.5,242.0156 199.5,242.375 Q199.5,242.7188 199.1563,243.125 Q198.6563,243.7188 197.8594,244.0469 Q196.8125,244.5 195.5313,244.5 Q194.0313,244.5 192.8281,243.9063 Q191.8594,243.4375 191.1719,242.4219 Q190.5,241.4063 190.5,240.2031 L190.5,239.1094 Q190.5,237.8594 191.0938,236.7656 Q191.7031,235.6719 192.75,235.0938 Q193.8125,234.5 195,234.5 Q195.7188,234.5 196.3438,234.75 Q196.9688,235 197.5,235.5 Z " fill="#000000"/><text fill="#000000" font-family="sans-serif" font-size="12" lengthAdjust="spacing" textLength="34" x="209.5" y="243.9102">Player</text><line style="stroke:#A80036;stroke-width:1.5;" x1="181.5" x2="245.5" y1="255" y2="255"/><line style="stroke:#A80036;stroke-width:1.5;" x1="181.5" x2="245.5" y1="263" y2="263"/><!--MD5=[099e1a61fb1247a2fb1eecef03d4d7bd]
class BoardPaper--><rect fill="#FEFECE" filter="url(#f1gy3eixgb1qwt)" height="48" id="BoardPaper" style="stroke:#A80036;stroke-width:1.5;" width="98" x="292.5" y="223"/><ellipse cx="307.5" cy="239" fill="#ADD1B2" rx="11" ry="11" style="stroke:#A80036;stroke-width:1.0;"/><path d="M309.5,235.5 Q309.7031,235 309.9375,234.75 Q310.1719,234.5 310.4375,234.5 Q310.9063,234.5 311.2031,234.7813 Q311.5,235.0625 311.5,235.7188 L311.5,237.2813 Q311.5,237.9375 311.2188,238.2188 Q310.9375,238.5 310.5,238.5 Q310.1094,238.5 309.8594,238.3281 Q309.6094,238.1563 309.5,237.7031 Q309.4531,237.3906 309.2813,237.2188 Q308.9688,236.8906 308.4063,236.7031 Q307.8438,236.5 307.2813,236.5 Q306.5781,236.5 305.9844,236.7813 Q305.4063,237.0625 304.9531,237.6875 Q304.5,238.3125 304.5,239.1719 L304.5,240.0938 Q304.5,241.125 305.3438,241.8125 Q306.1875,242.5 307.6875,242.5 Q308.5781,242.5 309.2031,242.2969 Q309.5625,242.1875 309.9688,241.8281 Q310.2344,241.625 310.375,241.5625 Q310.5156,241.5 310.6875,241.5 Q311.0156,241.5 311.25,241.7656 Q311.5,242.0156 311.5,242.375 Q311.5,242.7188 311.1563,243.125 Q310.6563,243.7188 309.8594,244.0469 Q308.8125,244.5 307.5313,244.5 Q306.0313,244.5 304.8281,243.9063 Q303.8594,243.4375 303.1719,242.4219 Q302.5,241.4063 302.5,240.2031 L302.5,239.1094 Q302.5,237.8594 303.0938,236.7656 Q303.7031,235.6719 304.75,235.0938 Q305.8125,234.5 307,234.5 Q307.7188,234.5 308.3438,234.75 Q308.9688,235 309.5,235.5 Z " fill="#000000"/><text fill="#000000" font-family="sans-serif" font-size="12" lengthAdjust="spacing" textLength="66" x="321.5" y="243.9102">BoardPaper</text><line style="stroke:#A80036;stroke-width:1.5;" x1="293.5" x2="389.5" y1="255" y2="255"/><line style="stroke:#A80036;stroke-width:1.5;" x1="293.5" x2="389.5" y1="263" y2="263"/><!--MD5=[acd04681fe4e78431fb408d1ad443a63]
class ProposedChar--><rect fill="#FEFECE" filter="url(#f1gy3eixgb1qwt)" height="48" id="ProposedChar" style="stroke:#A80036;stroke-width:1.5;" width="113" x="157" y="331"/><ellipse cx="172" cy="347" fill="#ADD1B2" rx="11" ry="11" style="stroke:#A80036;stroke-width:1.0;"/><path d="M174,343.5 Q174.2031,343 174.4375,342.75 Q174.6719,342.5 174.9375,342.5 Q175.4063,342.5 175.7031,342.7813 Q176,343.0625 176,343.7188 L176,345.2813 Q176,345.9375 175.7188,346.2188 Q175.4375,346.5 175,346.5 Q174.6094,346.5 174.3594,346.3281 Q174.1094,346.1563 174,345.7031 Q173.9531,345.3906 173.7813,345.2188 Q173.4688,344.8906 172.9063,344.7031 Q172.3438,344.5 171.7813,344.5 Q171.0781,344.5 170.4844,344.7813 Q169.9063,345.0625 169.4531,345.6875 Q169,346.3125 169,347.1719 L169,348.0938 Q169,349.125 169.8438,349.8125 Q170.6875,350.5 172.1875,350.5 Q173.0781,350.5 173.7031,350.2969 Q174.0625,350.1875 174.4688,349.8281 Q174.7344,349.625 174.875,349.5625 Q175.0156,349.5 175.1875,349.5 Q175.5156,349.5 175.75,349.7656 Q176,350.0156 176,350.375 Q176,350.7188 175.6563,351.125 Q175.1563,351.7188 174.3594,352.0469 Q173.3125,352.5 172.0313,352.5 Q170.5313,352.5 169.3281,351.9063 Q168.3594,351.4375 167.6719,350.4219 Q167,349.4063 167,348.2031 L167,347.1094 Q167,345.8594 167.5938,344.7656 Q168.2031,343.6719 169.25,343.0938 Q170.3125,342.5 171.5,342.5 Q172.2188,342.5 172.8438,342.75 Q173.4688,343 174,343.5 Z " fill="#000000"/><text fill="#000000" font-family="sans-serif" font-size="12" lengthAdjust="spacing" textLength="81" x="186" y="351.9102">ProposedChar</text><line style="stroke:#A80036;stroke-width:1.5;" x1="158" x2="269" y1="363" y2="363"/><line style="stroke:#A80036;stroke-width:1.5;" x1="158" x2="269" y1="371" y2="371"/><!--MD5=[7548fcd528851361d063f8551be16fc3]
class ProposedWord--><rect fill="#FEFECE" filter="url(#f1gy3eixgb1qwt)" height="48" id="ProposedWord" style="stroke:#A80036;stroke-width:1.5;" width="115" x="7" y="331"/><ellipse cx="22" cy="347" fill="#ADD1B2" rx="11" ry="11" style="stroke:#A80036;stroke-width:1.0;"/><path d="M24,343.5 Q24.2031,343 24.4375,342.75 Q24.6719,342.5 24.9375,342.5 Q25.4063,342.5 25.7031,342.7813 Q26,343.0625 26,343.7188 L26,345.2813 Q26,345.9375 25.7188,346.2188 Q25.4375,346.5 25,346.5 Q24.6094,346.5 24.3594,346.3281 Q24.1094,346.1563 24,345.7031 Q23.9531,345.3906 23.7813,345.2188 Q23.4688,344.8906 22.9063,344.7031 Q22.3438,344.5 21.7813,344.5 Q21.0781,344.5 20.4844,344.7813 Q19.9063,345.0625 19.4531,345.6875 Q19,346.3125 19,347.1719 L19,348.0938 Q19,349.125 19.8438,349.8125 Q20.6875,350.5 22.1875,350.5 Q23.0781,350.5 23.7031,350.2969 Q24.0625,350.1875 24.4688,349.8281 Q24.7344,349.625 24.875,349.5625 Q25.0156,349.5 25.1875,349.5 Q25.5156,349.5 25.75,349.7656 Q26,350.0156 26,350.375 Q26,350.7188 25.6563,351.125 Q25.1563,351.7188 24.3594,352.0469 Q23.3125,352.5 22.0313,352.5 Q20.5313,352.5 19.3281,351.9063 Q18.3594,351.4375 17.6719,350.4219 Q17,349.4063 17,348.2031 L17,347.1094 Q17,345.8594 17.5938,344.7656 Q18.2031,343.6719 19.25,343.0938 Q20.3125,342.5 21.5,342.5 Q22.2188,342.5 22.8438,342.75 Q23.4688,343 24,343.5 Z " fill="#000000"/><text fill="#000000" font-family="sans-serif" font-size="12" lengthAdjust="spacing" textLength="83" x="36" y="351.9102">ProposedWord</text><line style="stroke:#A80036;stroke-width:1.5;" x1="8" x2="121" y1="363" y2="363"/><line style="stroke:#A80036;stroke-width:1.5;" x1="8" x2="121" y1="371" y2="371"/><!--MD5=[1e8c54f5ac0ec684c0f71587f512d7a6]
class SecretWord--><rect fill="#FEFECE" filter="url(#f1gy3eixgb1qwt)" height="48" id="SecretWord" style="stroke:#A80036;stroke-width:1.5;" width="96" x="305.5" y="331"/><ellipse cx="320.5" cy="347" fill="#ADD1B2" rx="11" ry="11" style="stroke:#A80036;stroke-width:1.0;"/><path d="M322.5,343.5 Q322.7031,343 322.9375,342.75 Q323.1719,342.5 323.4375,342.5 Q323.9063,342.5 324.2031,342.7813 Q324.5,343.0625 324.5,343.7188 L324.5,345.2813 Q324.5,345.9375 324.2188,346.2188 Q323.9375,346.5 323.5,346.5 Q323.1094,346.5 322.8594,346.3281 Q322.6094,346.1563 322.5,345.7031 Q322.4531,345.3906 322.2813,345.2188 Q321.9688,344.8906 321.4063,344.7031 Q320.8438,344.5 320.2813,344.5 Q319.5781,344.5 318.9844,344.7813 Q318.4063,345.0625 317.9531,345.6875 Q317.5,346.3125 317.5,347.1719 L317.5,348.0938 Q317.5,349.125 318.3438,349.8125 Q319.1875,350.5 320.6875,350.5 Q321.5781,350.5 322.2031,350.2969 Q322.5625,350.1875 322.9688,349.8281 Q323.2344,349.625 323.375,349.5625 Q323.5156,349.5 323.6875,349.5 Q324.0156,349.5 324.25,349.7656 Q324.5,350.0156 324.5,350.375 Q324.5,350.7188 324.1563,351.125 Q323.6563,351.7188 322.8594,352.0469 Q321.8125,352.5 320.5313,352.5 Q319.0313,352.5 317.8281,351.9063 Q316.8594,351.4375 316.1719,350.4219 Q315.5,349.4063 315.5,348.2031 L315.5,347.1094 Q315.5,345.8594 316.0938,344.7656 Q316.7031,343.6719 317.75,343.0938 Q318.8125,342.5 320,342.5 Q320.7188,342.5 321.3438,342.75 Q321.9688,343 322.5,343.5 Z " fill="#000000"/><text fill="#000000" font-family="sans-serif" font-size="12" lengthAdjust="spacing" textLength="64" x="334.5" y="351.9102">SecretWord</text><line style="stroke:#A80036;stroke-width:1.5;" x1="306.5" x2="400.5" y1="363" y2="363"/><line style="stroke:#A80036;stroke-width:1.5;" x1="306.5" x2="400.5" y1="371" y2="371"/><!--MD5=[7dc9f4e9588c839c0e53a881b84874c2]
class HangedPart--><rect fill="#FEFECE" filter="url(#f1gy3eixgb1qwt)" height="48" id="HangedPart" style="stroke:#A80036;stroke-width:1.5;" width="98" x="436.5" y="331"/><ellipse cx="451.5" cy="347" fill="#ADD1B2" rx="11" ry="11" style="stroke:#A80036;stroke-width:1.0;"/><path d="M453.5,343.5 Q453.7031,343 453.9375,342.75 Q454.1719,342.5 454.4375,342.5 Q454.9063,342.5 455.2031,342.7813 Q455.5,343.0625 455.5,343.7188 L455.5,345.2813 Q455.5,345.9375 455.2188,346.2188 Q454.9375,346.5 454.5,346.5 Q454.1094,346.5 453.8594,346.3281 Q453.6094,346.1563 453.5,345.7031 Q453.4531,345.3906 453.2813,345.2188 Q452.9688,344.8906 452.4063,344.7031 Q451.8438,344.5 451.2813,344.5 Q450.5781,344.5 449.9844,344.7813 Q449.4063,345.0625 448.9531,345.6875 Q448.5,346.3125 448.5,347.1719 L448.5,348.0938 Q448.5,349.125 449.3438,349.8125 Q450.1875,350.5 451.6875,350.5 Q452.5781,350.5 453.2031,350.2969 Q453.5625,350.1875 453.9688,349.8281 Q454.2344,349.625 454.375,349.5625 Q454.5156,349.5 454.6875,349.5 Q455.0156,349.5 455.25,349.7656 Q455.5,350.0156 455.5,350.375 Q455.5,350.7188 455.1563,351.125 Q454.6563,351.7188 453.8594,352.0469 Q452.8125,352.5 451.5313,352.5 Q450.0313,352.5 448.8281,351.9063 Q447.8594,351.4375 447.1719,350.4219 Q446.5,349.4063 446.5,348.2031 L446.5,347.1094 Q446.5,345.8594 447.0938,344.7656 Q447.7031,343.6719 448.75,343.0938 Q449.8125,342.5 451,342.5 Q451.7188,342.5 452.3438,342.75 Q452.9688,343 453.5,343.5 Z " fill="#000000"/><text fill="#000000" font-family="sans-serif" font-size="12" lengthAdjust="spacing" textLength="66" x="465.5" y="351.9102">HangedPart</text><line style="stroke:#A80036;stroke-width:1.5;" x1="437.5" x2="533.5" y1="363" y2="363"/><line style="stroke:#A80036;stroke-width:1.5;" x1="437.5" x2="533.5" y1="371" y2="371"/><!--MD5=[2741598bdf59a7d7e0d5c97658fd3022]
class Result--><rect fill="#FEFECE" filter="url(#f1gy3eixgb1qwt)" height="48" id="Result" style="stroke:#A80036;stroke-width:1.5;" width="68" x="569.5" y="331"/><ellipse cx="584.5" cy="347" fill="#ADD1B2" rx="11" ry="11" style="stroke:#A80036;stroke-width:1.0;"/><path d="M586.5,343.5 Q586.7031,343 586.9375,342.75 Q587.1719,342.5 587.4375,342.5 Q587.9063,342.5 588.2031,342.7813 Q588.5,343.0625 588.5,343.7188 L588.5,345.2813 Q588.5,345.9375 588.2188,346.2188 Q587.9375,346.5 587.5,346.5 Q587.1094,346.5 586.8594,346.3281 Q586.6094,346.1563 586.5,345.7031 Q586.4531,345.3906 586.2813,345.2188 Q585.9688,344.8906 585.4063,344.7031 Q584.8438,344.5 584.2813,344.5 Q583.5781,344.5 582.9844,344.7813 Q582.4063,345.0625 581.9531,345.6875 Q581.5,346.3125 581.5,347.1719 L581.5,348.0938 Q581.5,349.125 582.3438,349.8125 Q583.1875,350.5 584.6875,350.5 Q585.5781,350.5 586.2031,350.2969 Q586.5625,350.1875 586.9688,349.8281 Q587.2344,349.625 587.375,349.5625 Q587.5156,349.5 587.6875,349.5 Q588.0156,349.5 588.25,349.7656 Q588.5,350.0156 588.5,350.375 Q588.5,350.7188 588.1563,351.125 Q587.6563,351.7188 586.8594,352.0469 Q585.8125,352.5 584.5313,352.5 Q583.0313,352.5 581.8281,351.9063 Q580.8594,351.4375 580.1719,350.4219 Q579.5,349.4063 579.5,348.2031 L579.5,347.1094 Q579.5,345.8594 580.0938,344.7656 Q580.7031,343.6719 581.75,343.0938 Q582.8125,342.5 584,342.5 Q584.7188,342.5 585.3438,342.75 Q585.9688,343 586.5,343.5 Z " fill="#000000"/><text fill="#000000" font-family="sans-serif" font-size="12" lengthAdjust="spacing" textLength="36" x="598.5" y="351.9102">Result</text><line style="stroke:#A80036;stroke-width:1.5;" x1="570.5" x2="636.5" y1="363" y2="363"/><line style="stroke:#A80036;stroke-width:1.5;" x1="570.5" x2="636.5" y1="371" y2="371"/><!--MD5=[5655c84227694af7943d3c60ac6af392]
class Win--><rect fill="#FEFECE" filter="url(#f1gy3eixgb1qwt)" height="48" id="Win" style="stroke:#A80036;stroke-width:1.5;" width="53" x="531" y="439"/><ellipse cx="546" cy="455" fill="#ADD1B2" rx="11" ry="11" style="stroke:#A80036;stroke-width:1.0;"/><path d="M548,451.5 Q548.2031,451 548.4375,450.75 Q548.6719,450.5 548.9375,450.5 Q549.4063,450.5 549.7031,450.7813 Q550,451.0625 550,451.7188 L550,453.2813 Q550,453.9375 549.7188,454.2188 Q549.4375,454.5 549,454.5 Q548.6094,454.5 548.3594,454.3281 Q548.1094,454.1563 548,453.7031 Q547.9531,453.3906 547.7813,453.2188 Q547.4688,452.8906 546.9063,452.7031 Q546.3438,452.5 545.7813,452.5 Q545.0781,452.5 544.4844,452.7813 Q543.9063,453.0625 543.4531,453.6875 Q543,454.3125 543,455.1719 L543,456.0938 Q543,457.125 543.8438,457.8125 Q544.6875,458.5 546.1875,458.5 Q547.0781,458.5 547.7031,458.2969 Q548.0625,458.1875 548.4688,457.8281 Q548.7344,457.625 548.875,457.5625 Q549.0156,457.5 549.1875,457.5 Q549.5156,457.5 549.75,457.7656 Q550,458.0156 550,458.375 Q550,458.7188 549.6563,459.125 Q549.1563,459.7188 548.3594,460.0469 Q547.3125,460.5 546.0313,460.5 Q544.5313,460.5 543.3281,459.9063 Q542.3594,459.4375 541.6719,458.4219 Q541,457.4063 541,456.2031 L541,455.1094 Q541,453.8594 541.5938,452.7656 Q542.2031,451.6719 543.25,451.0938 Q544.3125,450.5 545.5,450.5 Q546.2188,450.5 546.8438,450.75 Q547.4688,451 548,451.5 Z " fill="#000000"/><text fill="#000000" font-family="sans-serif" font-size="12" lengthAdjust="spacing" textLength="21" x="560" y="459.9102">Win</text><line style="stroke:#A80036;stroke-width:1.5;" x1="532" x2="583" y1="471" y2="471"/><line style="stroke:#A80036;stroke-width:1.5;" x1="532" x2="583" y1="479" y2="479"/><!--MD5=[af45e2a459c00980f608f9df78473555]
class Lose--><rect fill="#FEFECE" filter="url(#f1gy3eixgb1qwt)" height="48" id="Lose" style="stroke:#A80036;stroke-width:1.5;" width="60" x="619.5" y="439"/><ellipse cx="634.5" cy="455" fill="#ADD1B2" rx="11" ry="11" style="stroke:#A80036;stroke-width:1.0;"/><path d="M636.5,451.5 Q636.7031,451 636.9375,450.75 Q637.1719,450.5 637.4375,450.5 Q637.9063,450.5 638.2031,450.7813 Q638.5,451.0625 638.5,451.7188 L638.5,453.2813 Q638.5,453.9375 638.2188,454.2188 Q637.9375,454.5 637.5,454.5 Q637.1094,454.5 636.8594,454.3281 Q636.6094,454.1563 636.5,453.7031 Q636.4531,453.3906 636.2813,453.2188 Q635.9688,452.8906 635.4063,452.7031 Q634.8438,452.5 634.2813,452.5 Q633.5781,452.5 632.9844,452.7813 Q632.4063,453.0625 631.9531,453.6875 Q631.5,454.3125 631.5,455.1719 L631.5,456.0938 Q631.5,457.125 632.3438,457.8125 Q633.1875,458.5 634.6875,458.5 Q635.5781,458.5 636.2031,458.2969 Q636.5625,458.1875 636.9688,457.8281 Q637.2344,457.625 637.375,457.5625 Q637.5156,457.5 637.6875,457.5 Q638.0156,457.5 638.25,457.7656 Q638.5,458.0156 638.5,458.375 Q638.5,458.7188 638.1563,459.125 Q637.6563,459.7188 636.8594,460.0469 Q635.8125,460.5 634.5313,460.5 Q633.0313,460.5 631.8281,459.9063 Q630.8594,459.4375 630.1719,458.4219 Q629.5,457.4063 629.5,456.2031 L629.5,455.1094 Q629.5,453.8594 630.0938,452.7656 Q630.7031,451.6719 631.75,451.0938 Q632.8125,450.5 634,450.5 Q634.7188,450.5 635.3438,450.75 Q635.9688,451 636.5,451.5 Z " fill="#000000"/><text fill="#000000" font-family="sans-serif" font-size="12" lengthAdjust="spacing" textLength="28" x="648.5" y="459.9102">Lose</text><line style="stroke:#A80036;stroke-width:1.5;" x1="620.5" x2="678.5" y1="471" y2="471"/><line style="stroke:#A80036;stroke-width:1.5;" x1="620.5" x2="678.5" y1="479" y2="479"/><!--MD5=[e90afb27da7daae0eb5b444323018d1d]
link Hanged to Turn--><path codeLine="1" d="M258.264,66.1892 C258.264,66.1892 248.59,91.23 244.21,102.54 " fill="none" id="Hanged-Turn" style="stroke:#A80036;stroke-width:1.0;"/><polygon fill="#A80036" points="239.52,114.68,246.5045,107.7362,241.3285,110.0185,239.0462,104.8425,239.52,114.68" style="stroke:#A80036;stroke-width:1.0;"/><line style="stroke:#A80036;stroke-width:1.0;" x1="241.3285" x2="244.21" y1="110.0185" y2="102.555"/><polygon fill="#A80036" points="262.6,55,256.7023,59.1493,258.264,66.1892,264.1617,62.04,262.6,55" style="stroke:#A80036;stroke-width:1.0;"/><!--MD5=[d81713d91ad05be3b975338c4816ee0b]
link Turn to Player--><path codeLine="2" d="M224.9121,174.849 C224.9121,174.849 221.09,198.68 219.34,209.58 " fill="none" id="Turn-Player" style="stroke:#A80036;stroke-width:1.0;"/><polygon fill="#A80036" points="217.24,222.68,222.6145,214.4269,218.0317,217.7431,214.7155,213.1602,217.24,222.68" style="stroke:#A80036;stroke-width:1.0;"/><line style="stroke:#A80036;stroke-width:1.0;" x1="218.0317" x2="219.3" y1="217.7431" y2="209.84"/><polygon fill="#A80036" points="226.81,163,221.9114,168.2918,224.9121,174.849,229.8107,169.5571,226.81,163" style="stroke:#A80036;stroke-width:1.0;"/><text fill="#000000" font-family="sans-serif" font-size="13" lengthAdjust="spacing" textLength="22" x="193.4704" y="212.34">1..n</text><!--MD5=[16d7e3e7476f96649197208e6f04a604]
link Hanged to BoardPaper--><path codeLine="3" d="M282.8514,66.7151 C282.8514,66.7151 316.87,170.7 329.82,210.28 " fill="none" id="Hanged-BoardPaper" style="stroke:#A80036;stroke-width:1.0;"/><polygon fill="#A80036" points="333.88,222.72,334.8832,212.9224,332.3253,217.9679,327.2798,215.41,333.88,222.72" style="stroke:#A80036;stroke-width:1.0;"/><line style="stroke:#A80036;stroke-width:1.0;" x1="332.3253" x2="329.845" y1="217.9679" y2="210.365"/><polygon fill="#A80036" points="279.12,55.31,277.184,62.2564,282.8514,66.7151,284.7874,59.7688,279.12,55.31" style="stroke:#A80036;stroke-width:1.0;"/><!--MD5=[c4c6eaa071259028f4924ef6b29381e9]
link Player to ProposedChar--><path codeLine="4" d="M213.5,271 C213.5,287 213.5,308.45 213.5,325.53 " fill="none" id="Player-to-ProposedChar" style="stroke:#A80036;stroke-width:1.0;"/><polygon fill="#A80036" points="213.5,330.68,217.5,321.68,213.5,325.68,209.5,321.68,213.5,330.68" style="stroke:#A80036;stroke-width:1.0;"/><text fill="#000000" font-family="sans-serif" font-size="13" lengthAdjust="spacing" textLength="22" x="188.8188" y="320.34">0..9</text><!--MD5=[44bd0b9b180a9b719cd52166550804d4]
link Player to ProposedWord--><path codeLine="5" d="M181.17,271 C157.62,287.75 125.7,310.46 101.2,327.89 " fill="none" id="Player-to-ProposedWord" style="stroke:#A80036;stroke-width:1.0;"/><polygon fill="#A80036" points="97.02,330.86,106.6712,328.8966,101.0925,327.9592,102.0299,322.3806,97.02,330.86" style="stroke:#A80036;stroke-width:1.0;"/><text fill="#000000" font-family="sans-serif" font-size="13" lengthAdjust="spacing" textLength="22" x="80.5345" y="320.1643">0..1</text><!--MD5=[008fbc63679112eb6e4439ba755bcc9d]
link BoardPaper to SecretWord--><path codeLine="6" d="M345.4454,282.9243 C345.4454,282.9243 348.17,306.94 349.39,317.72 " fill="none" id="BoardPaper-SecretWord" style="stroke:#A80036;stroke-width:1.0;"/><polygon fill="#A80036" points="350.86,330.68,353.8257,321.2883,350.2994,325.7115,345.8761,322.1852,350.86,330.68" style="stroke:#A80036;stroke-width:1.0;"/><line style="stroke:#A80036;stroke-width:1.0;" x1="350.2994" x2="349.4" y1="325.7115" y2="317.76"/><polygon fill="#A80036" points="344.1,271,340.7979,277.4106,345.4454,282.9243,348.7475,276.5137,344.1,271" style="stroke:#A80036;stroke-width:1.0;"/><!--MD5=[bcf256a31dad66655b9105611d15d49c]
link BoardPaper to ProposedChar--><path codeLine="7" d="M304.4909,278.6576 C304.4909,278.6576 268.25,308.66 251.94,322.16 " fill="none" id="BoardPaper-ProposedChar" style="stroke:#A80036;stroke-width:1.0;"/><polygon fill="#A80036" points="241.66,330.68,251.1419,328.0166,245.5096,327.4894,246.0368,321.8571,241.66,330.68" style="stroke:#A80036;stroke-width:1.0;"/><line style="stroke:#A80036;stroke-width:1.0;" x1="245.5096" x2="251.675" y1="327.4894" y2="322.385"/><polygon fill="#FFFFFF" points="313.73,271,306.5579,271.7491,304.4909,278.6576,311.6629,277.9085,313.73,271" style="stroke:#A80036;stroke-width:1.0;"/><!--MD5=[4e35d5b56c2ed85cdeffd3df6c5495ce]
link BoardPaper to ProposedWord--><path codeLine="8" d="M281.0931,271.1201 C281.0931,271.1201 179.48,310 134.64,327.16 " fill="none" id="BoardPaper-ProposedWord" style="stroke:#A80036;stroke-width:1.0;"/><polygon fill="#A80036" points="122.35,331.86,132.185,332.382,127.0203,330.0743,129.3279,324.9096,122.35,331.86" style="stroke:#A80036;stroke-width:1.0;"/><line style="stroke:#A80036;stroke-width:1.0;" x1="127.0203" x2="134.495" y1="330.0743" y2="327.22"/><polygon fill="#FFFFFF" points="292.3,266.83,285.2665,265.2394,281.0931,271.1201,288.1265,272.7107,292.3,266.83" style="stroke:#A80036;stroke-width:1.0;"/><!--MD5=[1b3707729faad140efc1e7c009cd0544]
link BoardPaper to HangedPart--><path codeLine="9" d="M372.75,271 C395.42,287.69 426.14,310.3 449.79,327.71 " fill="none" id="BoardPaper-to-HangedPart" style="stroke:#A80036;stroke-width:1.0;stroke-dasharray:7.0,7.0;"/><polygon fill="#A80036" points="453.82,330.68,448.9514,322.1186,449.7962,327.7121,444.2027,328.5568,453.82,330.68" style="stroke:#A80036;stroke-width:1.0;"/><text fill="#000000" font-family="sans-serif" font-size="13" lengthAdjust="spacing" textLength="29" x="413.5636" y="320.34">0..10</text><!--MD5=[1516ce814b73105df6635539dd3e3aff]
link BoardPaper to Result--><path codeLine="10" d="M401.7137,271.0645 C401.7137,271.0645 501.74,310.17 551.5,331 C553.41,331.8 555.36,332.62 557.33,333.46 " fill="none" id="BoardPaper-Result" style="stroke:#A80036;stroke-width:1.0;"/><polygon fill="#A80036" points="569.46,338.71,562.7832,331.4698,564.8697,336.7278,559.6117,338.8143,569.46,338.71" style="stroke:#A80036;stroke-width:1.0;"/><line style="stroke:#A80036;stroke-width:1.0;" x1="564.8697" x2="557.525" y1="336.7278" y2="333.55"/><polygon fill="#A80036" points="390.52,266.74,394.6753,272.6335,401.7137,271.0645,397.5583,265.171,390.52,266.74" style="stroke:#A80036;stroke-width:1.0;"/><!--MD5=[6ced6f23167f7f7560482c58dc4ec83d]
reverse link Result to Win--><path codeLine="11" d="M585.46,397.57 C579.4,411.54 572.85,426.62 567.62,438.68 " fill="none" id="Result-backto-Win" style="stroke:#A80036;stroke-width:1.0;"/><polygon fill="none" points="579.14,394.56,593.52,379,591.98,400.13,579.14,394.56" style="stroke:#A80036;stroke-width:1.0;"/><!--MD5=[c4e974edae568e2d988c70f8cb8fcb0d]
reverse link Result to Lose--><path codeLine="12" d="M621.54,397.57 C627.6,411.54 634.15,426.62 639.38,438.68 " fill="none" id="Result-backto-Lose" style="stroke:#A80036;stroke-width:1.0;"/><polygon fill="none" points="615.02,400.13,613.48,379,627.86,394.56,615.02,400.13" style="stroke:#A80036;stroke-width:1.0;"/><!--MD5=[f18fda2ec1f7f095cbd683da55033227]
@startuml
Hanged *- -> Turn
Turn *- -> "1..n" Player
Hanged *- -> BoardPaper
Player - -> "0..9" ProposedChar
Player - -> "0..1" ProposedWord
BoardPaper *- -> SecretWord
BoardPaper o- -> ProposedChar
BoardPaper o- -> ProposedWord
BoardPaper ..> "0..10" HangedPart
BoardPaper *- -> Result
Result <|- - Win
Result <|- - Lose
@enduml

PlantUML version 1.2021.7(Sun May 23 14:40:07 CEST 2021)
(GPL source distribution)
Java Runtime: OpenJDK Runtime Environment
JVM: OpenJDK 64-Bit Server VM
Default Encoding: Cp1252
Language: es
Country: ES
--></g></svg>