<?xml version="1.0" encoding="UTF-8" standalone="no"?><svg xmlns="http://www.w3.org/2000/svg" xmlns:xlink="http://www.w3.org/1999/xlink" contentScriptType="application/ecmascript" contentStyleType="text/css" height="532px" preserveAspectRatio="none" style="width:527px;height:532px;background:#FFFFFF;" version="1.1" viewBox="0 0 527 532" width="527px" zoomAndPan="magnify"><defs><filter height="300%" id="f19k99r0vfqenm" width="300%" x="-1" y="-1"><feGaussianBlur result="blurOut" stdDeviation="2.0"/><feColorMatrix in="blurOut" result="blurOut2" type="matrix" values="0 0 0 0 0 0 0 0 0 0 0 0 0 0 0 0 0 0 .4 0"/><feOffset dx="4.0" dy="4.0" in="blurOut2" result="blurOut3"/><feBlend in="SourceGraphic" in2="blurOut3" mode="normal"/></filter></defs><g><!--MD5=[d7ec263f7daf4a6472ede7f2d3e0d6e7]
class Hanged--><rect codeLine="2" fill="#FEFECE" filter="url(#f19k99r0vfqenm)" height="61.8359" id="Hanged" style="stroke:#A80036;stroke-width:1.5;" width="79" x="341" y="7"/><ellipse cx="357.35" cy="23" fill="#ADD1B2" rx="11" ry="11" style="stroke:#A80036;stroke-width:1.0;"/><path d="M359.35,19.5 Q359.5531,19 359.7875,18.75 Q360.0219,18.5 360.2875,18.5 Q360.7563,18.5 361.0531,18.7813 Q361.35,19.0625 361.35,19.7188 L361.35,21.2813 Q361.35,21.9375 361.0688,22.2188 Q360.7875,22.5 360.35,22.5 Q359.9594,22.5 359.7094,22.3281 Q359.4594,22.1563 359.35,21.7031 Q359.3031,21.3906 359.1313,21.2188 Q358.8188,20.8906 358.2563,20.7031 Q357.6938,20.5 357.1313,20.5 Q356.4281,20.5 355.8344,20.7813 Q355.2563,21.0625 354.8031,21.6875 Q354.35,22.3125 354.35,23.1719 L354.35,24.0938 Q354.35,25.125 355.1938,25.8125 Q356.0375,26.5 357.5375,26.5 Q358.4281,26.5 359.0531,26.2969 Q359.4125,26.1875 359.8188,25.8281 Q360.0844,25.625 360.225,25.5625 Q360.3656,25.5 360.5375,25.5 Q360.8656,25.5 361.1,25.7656 Q361.35,26.0156 361.35,26.375 Q361.35,26.7188 361.0063,27.125 Q360.5063,27.7188 359.7094,28.0469 Q358.6625,28.5 357.3813,28.5 Q355.8813,28.5 354.6781,27.9063 Q353.7094,27.4375 353.0219,26.4219 Q352.35,25.4063 352.35,24.2031 L352.35,23.1094 Q352.35,21.8594 352.9438,20.7656 Q353.5531,19.6719 354.6,19.0938 Q355.6625,18.5 356.85,18.5 Q357.5688,18.5 358.1938,18.75 Q358.8188,19 359.35,19.5 Z " fill="#000000"/><text fill="#000000" font-family="sans-serif" font-size="12" lengthAdjust="spacing" textLength="44" x="371.65" y="27.9102">Hanged</text><line style="stroke:#A80036;stroke-width:1.5;" x1="342" x2="419" y1="39" y2="39"/><line style="stroke:#A80036;stroke-width:1.5;" x1="342" x2="419" y1="47" y2="47"/><ellipse cx="352" cy="58" fill="#84BE84" rx="3" ry="3" style="stroke:#038048;stroke-width:1.0;"/><text fill="#000000" font-family="sans-serif" font-size="11" lengthAdjust="spacing" textLength="53" x="361" y="62.4189">run() : void</text><!--MD5=[dd91eae41778c45e12552e5329e240e8]
class Turn--><rect codeLine="6" fill="#FEFECE" filter="url(#f19k99r0vfqenm)" height="89.5078" id="Turn" style="stroke:#A80036;stroke-width:1.5;" width="124" x="389.5" y="129"/><ellipse cx="434.75" cy="145" fill="#ADD1B2" rx="11" ry="11" style="stroke:#A80036;stroke-width:1.0;"/><path d="M436.75,141.5 Q436.9531,141 437.1875,140.75 Q437.4219,140.5 437.6875,140.5 Q438.1563,140.5 438.4531,140.7813 Q438.75,141.0625 438.75,141.7188 L438.75,143.2813 Q438.75,143.9375 438.4688,144.2188 Q438.1875,144.5 437.75,144.5 Q437.3594,144.5 437.1094,144.3281 Q436.8594,144.1563 436.75,143.7031 Q436.7031,143.3906 436.5313,143.2188 Q436.2188,142.8906 435.6563,142.7031 Q435.0938,142.5 434.5313,142.5 Q433.8281,142.5 433.2344,142.7813 Q432.6563,143.0625 432.2031,143.6875 Q431.75,144.3125 431.75,145.1719 L431.75,146.0938 Q431.75,147.125 432.5938,147.8125 Q433.4375,148.5 434.9375,148.5 Q435.8281,148.5 436.4531,148.2969 Q436.8125,148.1875 437.2188,147.8281 Q437.4844,147.625 437.625,147.5625 Q437.7656,147.5 437.9375,147.5 Q438.2656,147.5 438.5,147.7656 Q438.75,148.0156 438.75,148.375 Q438.75,148.7188 438.4063,149.125 Q437.9063,149.7188 437.1094,150.0469 Q436.0625,150.5 434.7813,150.5 Q433.2813,150.5 432.0781,149.9063 Q431.1094,149.4375 430.4219,148.4219 Q429.75,147.4063 429.75,146.2031 L429.75,145.1094 Q429.75,143.8594 430.3438,142.7656 Q430.9531,141.6719 432,141.0938 Q433.0625,140.5 434.25,140.5 Q434.9688,140.5 435.5938,140.75 Q436.2188,141 436.75,141.5 Z " fill="#000000"/><text fill="#000000" font-family="sans-serif" font-size="12" lengthAdjust="spacing" textLength="25" x="455.25" y="149.9102">Turn</text><line style="stroke:#A80036;stroke-width:1.5;" x1="390.5" x2="512.5" y1="161" y2="161"/><rect fill="none" height="6" style="stroke:#C82930;stroke-width:1.0;" width="6" x="397.5" y="169"/><text fill="#000000" font-family="sans-serif" font-size="11" lengthAdjust="spacing" textLength="81" x="409.5" y="176.4189">players[] : Player</text><line style="stroke:#A80036;stroke-width:1.5;" x1="390.5" x2="512.5" y1="182.8359" y2="182.8359"/><ellipse cx="400.5" cy="193.8359" fill="#84BE84" rx="3" ry="3" style="stroke:#038048;stroke-width:1.0;"/><text fill="#000000" font-family="sans-serif" font-size="11" lengthAdjust="spacing" textLength="58" x="409.5" y="198.2549">next() : void</text><ellipse cx="400.5" cy="207.6719" fill="#84BE84" rx="3" ry="3" style="stroke:#038048;stroke-width:1.0;"/><text fill="#000000" font-family="sans-serif" font-size="11" lengthAdjust="spacing" textLength="98" x="409.5" y="212.0908">getCurrent() : Player</text><!--MD5=[099e1a61fb1247a2fb1eecef03d4d7bd]
class BoardPaper--><rect codeLine="12" fill="#FEFECE" filter="url(#f19k99r0vfqenm)" height="131.0156" id="BoardPaper" style="stroke:#A80036;stroke-width:1.5;" width="176" x="209.5" y="279"/><ellipse cx="260.25" cy="295" fill="#ADD1B2" rx="11" ry="11" style="stroke:#A80036;stroke-width:1.0;"/><path d="M262.25,291.5 Q262.4531,291 262.6875,290.75 Q262.9219,290.5 263.1875,290.5 Q263.6563,290.5 263.9531,290.7813 Q264.25,291.0625 264.25,291.7188 L264.25,293.2813 Q264.25,293.9375 263.9688,294.2188 Q263.6875,294.5 263.25,294.5 Q262.8594,294.5 262.6094,294.3281 Q262.3594,294.1563 262.25,293.7031 Q262.2031,293.3906 262.0313,293.2188 Q261.7188,292.8906 261.1563,292.7031 Q260.5938,292.5 260.0313,292.5 Q259.3281,292.5 258.7344,292.7813 Q258.1563,293.0625 257.7031,293.6875 Q257.25,294.3125 257.25,295.1719 L257.25,296.0938 Q257.25,297.125 258.0938,297.8125 Q258.9375,298.5 260.4375,298.5 Q261.3281,298.5 261.9531,298.2969 Q262.3125,298.1875 262.7188,297.8281 Q262.9844,297.625 263.125,297.5625 Q263.2656,297.5 263.4375,297.5 Q263.7656,297.5 264,297.7656 Q264.25,298.0156 264.25,298.375 Q264.25,298.7188 263.9063,299.125 Q263.4063,299.7188 262.6094,300.0469 Q261.5625,300.5 260.2813,300.5 Q258.7813,300.5 257.5781,299.9063 Q256.6094,299.4375 255.9219,298.4219 Q255.25,297.4063 255.25,296.2031 L255.25,295.1094 Q255.25,293.8594 255.8438,292.7656 Q256.4531,291.6719 257.5,291.0938 Q258.5625,290.5 259.75,290.5 Q260.4688,290.5 261.0938,290.75 Q261.7188,291 262.25,291.5 Z " fill="#000000"/><text fill="#000000" font-family="sans-serif" font-size="12" lengthAdjust="spacing" textLength="66" x="280.75" y="299.9102">BoardPaper</text><line style="stroke:#A80036;stroke-width:1.5;" x1="210.5" x2="384.5" y1="311" y2="311"/><rect fill="none" height="6" style="stroke:#C82930;stroke-width:1.0;" width="6" x="217.5" y="319"/><text fill="#000000" font-family="sans-serif" font-size="11" lengthAdjust="spacing" textLength="124" x="229.5" y="326.4189">secretWord : SecretWord</text><rect fill="none" height="6" style="stroke:#C82930;stroke-width:1.0;" width="6" x="217.5" y="332.8359"/><text fill="#000000" font-family="sans-serif" font-size="11" lengthAdjust="spacing" textLength="150" x="229.5" y="340.2549">proposedChar : ProposedWord</text><rect fill="none" height="6" style="stroke:#C82930;stroke-width:1.0;" width="6" x="217.5" y="346.6719"/><text fill="#000000" font-family="sans-serif" font-size="11" lengthAdjust="spacing" textLength="150" x="229.5" y="354.0908">proposedWord : ProposedChar</text><rect fill="none" height="6" style="stroke:#C82930;stroke-width:1.0;" width="6" x="217.5" y="360.5078"/><text fill="#000000" font-family="sans-serif" font-size="11" lengthAdjust="spacing" textLength="87" x="229.5" y="367.9268">hangedParts[] : int</text><line style="stroke:#A80036;stroke-width:1.5;" x1="210.5" x2="384.5" y1="374.3438" y2="374.3438"/><ellipse cx="220.5" cy="385.3438" fill="#84BE84" rx="3" ry="3" style="stroke:#038048;stroke-width:1.0;"/><text fill="#000000" font-family="sans-serif" font-size="11" lengthAdjust="spacing" textLength="86" x="229.5" y="389.7627">getAttempts() : int</text><ellipse cx="220.5" cy="399.1797" fill="#84BE84" rx="3" ry="3" style="stroke:#038048;stroke-width:1.0;"/><text fill="#000000" font-family="sans-serif" font-size="11" lengthAdjust="spacing" textLength="97" x="229.5" y="403.5986">isWinner() : boolean</text><!--MD5=[1e8c54f5ac0ec684c0f71587f512d7a6]
class SecretWord--><rect codeLine="22" fill="#FEFECE" filter="url(#f19k99r0vfqenm)" height="48" id="SecretWord" style="stroke:#A80036;stroke-width:1.5;" width="96" x="75.5" y="470"/><ellipse cx="90.5" cy="486" fill="#ADD1B2" rx="11" ry="11" style="stroke:#A80036;stroke-width:1.0;"/><path d="M92.5,482.5 Q92.7031,482 92.9375,481.75 Q93.1719,481.5 93.4375,481.5 Q93.9063,481.5 94.2031,481.7813 Q94.5,482.0625 94.5,482.7188 L94.5,484.2813 Q94.5,484.9375 94.2188,485.2188 Q93.9375,485.5 93.5,485.5 Q93.1094,485.5 92.8594,485.3281 Q92.6094,485.1563 92.5,484.7031 Q92.4531,484.3906 92.2813,484.2188 Q91.9688,483.8906 91.4063,483.7031 Q90.8438,483.5 90.2813,483.5 Q89.5781,483.5 88.9844,483.7813 Q88.4063,484.0625 87.9531,484.6875 Q87.5,485.3125 87.5,486.1719 L87.5,487.0938 Q87.5,488.125 88.3438,488.8125 Q89.1875,489.5 90.6875,489.5 Q91.5781,489.5 92.2031,489.2969 Q92.5625,489.1875 92.9688,488.8281 Q93.2344,488.625 93.375,488.5625 Q93.5156,488.5 93.6875,488.5 Q94.0156,488.5 94.25,488.7656 Q94.5,489.0156 94.5,489.375 Q94.5,489.7188 94.1563,490.125 Q93.6563,490.7188 92.8594,491.0469 Q91.8125,491.5 90.5313,491.5 Q89.0313,491.5 87.8281,490.9063 Q86.8594,490.4375 86.1719,489.4219 Q85.5,488.4063 85.5,487.2031 L85.5,486.1094 Q85.5,484.8594 86.0938,483.7656 Q86.7031,482.6719 87.75,482.0938 Q88.8125,481.5 90,481.5 Q90.7188,481.5 91.3438,481.75 Q91.9688,482 92.5,482.5 Z " fill="#000000"/><text fill="#000000" font-family="sans-serif" font-size="12" lengthAdjust="spacing" textLength="64" x="104.5" y="490.9102">SecretWord</text><line style="stroke:#A80036;stroke-width:1.5;" x1="76.5" x2="170.5" y1="502" y2="502"/><line style="stroke:#A80036;stroke-width:1.5;" x1="76.5" x2="170.5" y1="510" y2="510"/><!--MD5=[07513b2cfa2016c46090541be20532fe]
class Word--><rect codeLine="25" fill="#FEFECE" filter="url(#f19k99r0vfqenm)" height="103.3438" id="Word" style="stroke:#A80036;stroke-width:1.5;" width="167" x="7" y="293"/><ellipse cx="71.75" cy="309" fill="#A9DCDF" rx="11" ry="11" style="stroke:#A80036;stroke-width:1.0;"/><path d="M73.5,310.5 L70.2031,310.5 L69.7656,311.5 L69.7656,311.5 L70.2344,311.5 L70.75,312.125 L70.75,312.5 L70.75,312.875 L70.2344,313.5 L69.7656,313.5 L67.875,313.5 L67.2656,313.5 L66.75,312.875 L66.75,312.5 L66.75,312.125 L67.2656,311.5 L67.875,311.5 L70.1875,305.5 L69.3125,305.5 L68.2656,305.5 L67.75,304.875 L67.75,304.5 L67.75,304.125 L68.2656,303.5 L69.3125,303.5 L72.9844,303.5 L75.6719,311.5 L76.2344,311.5 L76.2344,311.5 L76.75,312.125 L76.75,312.5 L76.75,312.875 L76.2344,313.5 L75.6719,313.5 L73.7813,313.5 L73.2656,313.5 L72.75,312.875 L72.75,312.5 L72.75,312.125 L73.2656,311.5 L73.7813,311.5 L73.7813,311.5 L73.5,310.5 Z M72.9531,308.5 L71.75,304.9219 L70.7188,308.5 L72.9531,308.5 Z " fill="#000000"/><text fill="#000000" font-family="sans-serif" font-size="12" font-style="italic" lengthAdjust="spacing" textLength="29" x="92.25" y="313.9102">Word</text><line style="stroke:#A80036;stroke-width:1.5;" x1="8" x2="173" y1="325" y2="325"/><rect fill="none" height="6" style="stroke:#C82930;stroke-width:1.0;" width="6" x="15" y="333"/><text fill="#000000" font-family="sans-serif" font-size="11" lengthAdjust="spacing" textLength="65" x="27" y="340.4189">chars[] : char</text><line style="stroke:#A80036;stroke-width:1.5;" x1="8" x2="173" y1="346.8359" y2="346.8359"/><ellipse cx="18" cy="357.8359" fill="#84BE84" rx="3" ry="3" style="stroke:#038048;stroke-width:1.0;"/><text fill="#000000" font-family="sans-serif" font-size="11" lengthAdjust="spacing" text-decoration="underline" textLength="141" x="27" y="362.2549">isValid(String input) : boolean</text><ellipse cx="18" cy="371.6719" fill="#84BE84" rx="3" ry="3" style="stroke:#038048;stroke-width:1.0;"/><text fill="#000000" font-family="sans-serif" font-size="11" font-style="italic" lengthAdjust="spacing" textLength="100" x="27" y="376.0908">isEquals() : boolean</text><ellipse cx="18" cy="385.5078" fill="#84BE84" rx="3" ry="3" style="stroke:#038048;stroke-width:1.0;"/><text fill="#000000" font-family="sans-serif" font-size="11" font-style="italic" lengthAdjust="spacing" textLength="97" x="27" y="389.9268">clearShow() : String</text><!--MD5=[2cb47ba637a0d19583e6199456f6ad0b]
class Player--><rect codeLine="32" fill="#FEFECE" filter="url(#f19k99r0vfqenm)" height="75.6719" id="Player" style="stroke:#A80036;stroke-width:1.5;" width="89" x="421" y="306.5"/><ellipse cx="446.35" cy="322.5" fill="#ADD1B2" rx="11" ry="11" style="stroke:#A80036;stroke-width:1.0;"/><path d="M448.35,319 Q448.5531,318.5 448.7875,318.25 Q449.0219,318 449.2875,318 Q449.7563,318 450.0531,318.2813 Q450.35,318.5625 450.35,319.2188 L450.35,320.7813 Q450.35,321.4375 450.0688,321.7188 Q449.7875,322 449.35,322 Q448.9594,322 448.7094,321.8281 Q448.4594,321.6563 448.35,321.2031 Q448.3031,320.8906 448.1313,320.7188 Q447.8188,320.3906 447.2563,320.2031 Q446.6938,320 446.1313,320 Q445.4281,320 444.8344,320.2813 Q444.2563,320.5625 443.8031,321.1875 Q443.35,321.8125 443.35,322.6719 L443.35,323.5938 Q443.35,324.625 444.1938,325.3125 Q445.0375,326 446.5375,326 Q447.4281,326 448.0531,325.7969 Q448.4125,325.6875 448.8188,325.3281 Q449.0844,325.125 449.225,325.0625 Q449.3656,325 449.5375,325 Q449.8656,325 450.1,325.2656 Q450.35,325.5156 450.35,325.875 Q450.35,326.2188 450.0063,326.625 Q449.5063,327.2188 448.7094,327.5469 Q447.6625,328 446.3813,328 Q444.8813,328 443.6781,327.4063 Q442.7094,326.9375 442.0219,325.9219 Q441.35,324.9063 441.35,323.7031 L441.35,322.6094 Q441.35,321.3594 441.9438,320.2656 Q442.5531,319.1719 443.6,318.5938 Q444.6625,318 445.85,318 Q446.5688,318 447.1938,318.25 Q447.8188,318.5 448.35,319 Z " fill="#000000"/><text fill="#000000" font-family="sans-serif" font-size="12" lengthAdjust="spacing" textLength="34" x="462.65" y="327.4102">Player</text><line style="stroke:#A80036;stroke-width:1.5;" x1="422" x2="509" y1="338.5" y2="338.5"/><rect fill="none" height="6" style="stroke:#C82930;stroke-width:1.0;" width="6" x="429" y="346.5"/><text fill="#000000" font-family="sans-serif" font-size="11" lengthAdjust="spacing" textLength="63" x="441" y="353.9189">name : String</text><line style="stroke:#A80036;stroke-width:1.5;" x1="422" x2="509" y1="360.3359" y2="360.3359"/><ellipse cx="432" cy="371.3359" fill="#84BE84" rx="3" ry="3" style="stroke:#038048;stroke-width:1.0;"/><text fill="#000000" font-family="sans-serif" font-size="11" lengthAdjust="spacing" textLength="28" x="441" y="375.7549">play()</text><!--MD5=[acd04681fe4e78431fb408d1ad443a63]
class ProposedChar--><rect fill="#FEFECE" filter="url(#f19k99r0vfqenm)" height="48" id="ProposedChar" style="stroke:#A80036;stroke-width:1.5;" width="113" x="373" y="470"/><ellipse cx="388" cy="486" fill="#ADD1B2" rx="11" ry="11" style="stroke:#A80036;stroke-width:1.0;"/><path d="M390,482.5 Q390.2031,482 390.4375,481.75 Q390.6719,481.5 390.9375,481.5 Q391.4063,481.5 391.7031,481.7813 Q392,482.0625 392,482.7188 L392,484.2813 Q392,484.9375 391.7188,485.2188 Q391.4375,485.5 391,485.5 Q390.6094,485.5 390.3594,485.3281 Q390.1094,485.1563 390,484.7031 Q389.9531,484.3906 389.7813,484.2188 Q389.4688,483.8906 388.9063,483.7031 Q388.3438,483.5 387.7813,483.5 Q387.0781,483.5 386.4844,483.7813 Q385.9063,484.0625 385.4531,484.6875 Q385,485.3125 385,486.1719 L385,487.0938 Q385,488.125 385.8438,488.8125 Q386.6875,489.5 388.1875,489.5 Q389.0781,489.5 389.7031,489.2969 Q390.0625,489.1875 390.4688,488.8281 Q390.7344,488.625 390.875,488.5625 Q391.0156,488.5 391.1875,488.5 Q391.5156,488.5 391.75,488.7656 Q392,489.0156 392,489.375 Q392,489.7188 391.6563,490.125 Q391.1563,490.7188 390.3594,491.0469 Q389.3125,491.5 388.0313,491.5 Q386.5313,491.5 385.3281,490.9063 Q384.3594,490.4375 383.6719,489.4219 Q383,488.4063 383,487.2031 L383,486.1094 Q383,484.8594 383.5938,483.7656 Q384.2031,482.6719 385.25,482.0938 Q386.3125,481.5 387.5,481.5 Q388.2188,481.5 388.8438,481.75 Q389.4688,482 390,482.5 Z " fill="#000000"/><text fill="#000000" font-family="sans-serif" font-size="12" lengthAdjust="spacing" textLength="81" x="402" y="490.9102">ProposedChar</text><line style="stroke:#A80036;stroke-width:1.5;" x1="374" x2="485" y1="502" y2="502"/><line style="stroke:#A80036;stroke-width:1.5;" x1="374" x2="485" y1="510" y2="510"/><!--MD5=[7548fcd528851361d063f8551be16fc3]
class ProposedWord--><rect fill="#FEFECE" filter="url(#f19k99r0vfqenm)" height="48" id="ProposedWord" style="stroke:#A80036;stroke-width:1.5;" width="115" x="223" y="470"/><ellipse cx="238" cy="486" fill="#ADD1B2" rx="11" ry="11" style="stroke:#A80036;stroke-width:1.0;"/><path d="M240,482.5 Q240.2031,482 240.4375,481.75 Q240.6719,481.5 240.9375,481.5 Q241.4063,481.5 241.7031,481.7813 Q242,482.0625 242,482.7188 L242,484.2813 Q242,484.9375 241.7188,485.2188 Q241.4375,485.5 241,485.5 Q240.6094,485.5 240.3594,485.3281 Q240.1094,485.1563 240,484.7031 Q239.9531,484.3906 239.7813,484.2188 Q239.4688,483.8906 238.9063,483.7031 Q238.3438,483.5 237.7813,483.5 Q237.0781,483.5 236.4844,483.7813 Q235.9063,484.0625 235.4531,484.6875 Q235,485.3125 235,486.1719 L235,487.0938 Q235,488.125 235.8438,488.8125 Q236.6875,489.5 238.1875,489.5 Q239.0781,489.5 239.7031,489.2969 Q240.0625,489.1875 240.4688,488.8281 Q240.7344,488.625 240.875,488.5625 Q241.0156,488.5 241.1875,488.5 Q241.5156,488.5 241.75,488.7656 Q242,489.0156 242,489.375 Q242,489.7188 241.6563,490.125 Q241.1563,490.7188 240.3594,491.0469 Q239.3125,491.5 238.0313,491.5 Q236.5313,491.5 235.3281,490.9063 Q234.3594,490.4375 233.6719,489.4219 Q233,488.4063 233,487.2031 L233,486.1094 Q233,484.8594 233.5938,483.7656 Q234.2031,482.6719 235.25,482.0938 Q236.3125,481.5 237.5,481.5 Q238.2188,481.5 238.8438,481.75 Q239.4688,482 240,482.5 Z " fill="#000000"/><text fill="#000000" font-family="sans-serif" font-size="12" lengthAdjust="spacing" textLength="83" x="252" y="490.9102">ProposedWord</text><line style="stroke:#A80036;stroke-width:1.5;" x1="224" x2="337" y1="502" y2="502"/><line style="stroke:#A80036;stroke-width:1.5;" x1="224" x2="337" y1="510" y2="510"/><!--MD5=[7ff0a52c509d9d569fc0b9dcb70aa6c3]
reverse link Word to SecretWord--><path codeLine="37" d="M106.24,415.85 C110.6,435.35 115.04,455.17 118.32,469.84 " fill="none" id="Word-backto-SecretWord" style="stroke:#A80036;stroke-width:1.0;"/><polygon fill="none" points="99.39,417.31,101.86,396.26,113.05,414.25,99.39,417.31" style="stroke:#A80036;stroke-width:1.0;"/><!--MD5=[3885fcd414882a10c933b601f37f5444]
reverse link Word to ProposedChar--><path codeLine="38" d="M183.91,405.7 C186.79,407.18 189.65,408.62 192.5,410 C224.83,425.63 313.71,455.52 372.95,474.84 " fill="none" id="Word-backto-ProposedChar" style="stroke:#A80036;stroke-width:1.0;"/><polygon fill="none" points="180.46,411.79,166.29,396.03,187.19,399.51,180.46,411.79" style="stroke:#A80036;stroke-width:1.0;"/><!--MD5=[fb4716de87831dad7a0e2e9212b3c14a]
reverse link Word to ProposedWord--><path codeLine="39" d="M171.48,408.37 C199.65,430.24 229.5,453.41 250.83,469.97 " fill="none" id="Word-backto-ProposedWord" style="stroke:#A80036;stroke-width:1.0;"/><polygon fill="none" points="167.13,413.85,155.62,396.05,175.71,402.79,167.13,413.85" style="stroke:#A80036;stroke-width:1.0;"/><!--MD5=[e90afb27da7daae0eb5b444323018d1d]
link Hanged to Turn--><path codeLine="41" d="M402.0483,79.6735 C402.0483,79.6735 415.51,105.08 421.98,117.29 " fill="none" id="Hanged-Turn" style="stroke:#A80036;stroke-width:1.0;"/><polygon fill="#A80036" points="428.07,128.78,427.3908,118.9546,425.729,124.3619,420.3218,122.7001,428.07,128.78" style="stroke:#A80036;stroke-width:1.0;"/><line style="stroke:#A80036;stroke-width:1.0;" x1="425.729" x2="421.99" y1="124.3619" y2="117.3"/><polygon fill="#A80036" points="396.43,69.07,395.7046,76.2445,402.0483,79.6735,402.7737,72.499,396.43,69.07" style="stroke:#A80036;stroke-width:1.0;"/><!--MD5=[d81713d91ad05be3b975338c4816ee0b]
link Turn to Player--><path codeLine="42" d="M456.1689,231.2292 C456.1689,231.2292 459.74,274.17 461.33,293.31 " fill="none" id="Turn-Player" style="stroke:#A80036;stroke-width:1.0;"/><polygon fill="#A80036" points="462.41,306.36,465.6547,297.061,461.998,301.377,457.6819,297.7202,462.41,306.36" style="stroke:#A80036;stroke-width:1.0;"/><line style="stroke:#A80036;stroke-width:1.0;" x1="461.998" x2="461.335" y1="301.377" y2="293.405"/><polygon fill="#A80036" points="455.18,219.27,451.6881,225.5792,456.1689,231.2292,459.6608,224.92,455.18,219.27" style="stroke:#A80036;stroke-width:1.0;"/><text fill="#000000" font-family="sans-serif" font-size="13" lengthAdjust="spacing" textLength="22" x="437.9002" y="295.697">1..n</text><!--MD5=[16d7e3e7476f96649197208e6f04a604]
link Hanged to BoardPaper--><path codeLine="43" d="M369.1582,80.6087 C369.1582,80.6087 334.6,207.4 318.67,265.82 " fill="none" id="Hanged-BoardPaper" style="stroke:#A80036;stroke-width:1.0;"/><polygon fill="#A80036" points="315.16,278.72,321.3915,271.0932,316.4784,273.8969,313.6746,268.9838,315.16,278.72" style="stroke:#A80036;stroke-width:1.0;"/><line style="stroke:#A80036;stroke-width:1.0;" x1="316.4784" x2="318.58" y1="273.8969" y2="266.18"/><polygon fill="#A80036" points="372.31,69.03,366.8745,73.7687,369.1582,80.6087,374.5936,75.87,372.31,69.03" style="stroke:#A80036;stroke-width:1.0;"/><!--MD5=[c4c6eaa071259028f4924ef6b29381e9]
link Player to ProposedChar--><path codeLine="44" d="M456.42,382.72 C450.22,408.11 442.14,441.23 436.45,464.52 " fill="none" id="Player-to-ProposedChar" style="stroke:#A80036;stroke-width:1.0;"/><polygon fill="#A80036" points="435.2,469.63,441.2203,461.8354,436.3858,464.7726,433.4485,459.9381,435.2,469.63" style="stroke:#A80036;stroke-width:1.0;"/><text fill="#000000" font-family="sans-serif" font-size="13" lengthAdjust="spacing" textLength="22" x="411.9081" y="459.2778">0..9</text><!--MD5=[44bd0b9b180a9b719cd52166550804d4]
link Player to ProposedWord--><path codeLine="45" d="M432.34,382.69 C423.35,392 413.37,401.7 403.5,410 C378.45,431.08 347.95,451.68 323.6,467.09 " fill="none" id="Player-to-ProposedWord" style="stroke:#A80036;stroke-width:1.0;"/><polygon fill="#A80036" points="319.12,469.91,328.8652,468.4848,323.3471,467.2395,324.5924,461.7214,319.12,469.91" style="stroke:#A80036;stroke-width:1.0;"/><text fill="#000000" font-family="sans-serif" font-size="13" lengthAdjust="spacing" textLength="22" x="304.1976" y="459.2271">0..1</text><!--MD5=[008fbc63679112eb6e4439ba755bcc9d]
link BoardPaper to SecretWord--><path codeLine="47" d="M212.0309,417.9649 C212.0309,417.9649 175.98,448.51 161.2,461.04 " fill="none" id="BoardPaper-SecretWord" style="stroke:#A80036;stroke-width:1.0;"/><polygon fill="#A80036" points="150.98,469.71,160.4301,466.936,154.7921,466.4746,155.2535,460.8366,150.98,469.71" style="stroke:#A80036;stroke-width:1.0;"/><line style="stroke:#A80036;stroke-width:1.0;" x1="154.7921" x2="160.895" y1="466.4746" y2="461.3"/><polygon fill="#A80036" points="221.18,410.2,214.0171,411.0327,212.0309,417.9649,219.1937,417.1322,221.18,410.2" style="stroke:#A80036;stroke-width:1.0;"/><!--MD5=[bcf256a31dad66655b9105611d15d49c]
link BoardPaper to ProposedChar--><path codeLine="48" d="M363.4042,419.1405 C363.4042,419.1405 389.14,447.9 399.8,459.81 " fill="none" id="BoardPaper-ProposedChar" style="stroke:#A80036;stroke-width:1.0;"/><polygon fill="#A80036" points="408.65,469.71,405.627,460.3366,405.3149,465.9848,399.6667,465.6727,408.65,469.71" style="stroke:#A80036;stroke-width:1.0;"/><line style="stroke:#A80036;stroke-width:1.0;" x1="405.3149" x2="399.98" y1="465.9848" y2="460.015"/><polygon fill="#FFFFFF" points="355.4,410.2,356.422,417.3383,363.4042,419.1405,362.3823,412.0022,355.4,410.2" style="stroke:#A80036;stroke-width:1.0;"/><!--MD5=[4e35d5b56c2ed85cdeffd3df6c5495ce]
link BoardPaper to ProposedWord--><path codeLine="49" d="M288.67,422.1215 C288.67,422.1215 285.87,446.42 284.69,456.66 " fill="none" id="BoardPaper-ProposedWord" style="stroke:#A80036;stroke-width:1.0;"/><polygon fill="#A80036" points="283.18,469.71,288.1824,461.2261,283.7515,464.7428,280.2348,460.3118,283.18,469.71" style="stroke:#A80036;stroke-width:1.0;"/><line style="stroke:#A80036;stroke-width:1.0;" x1="283.7515" x2="284.67" y1="464.7428" y2="456.79"/><polygon fill="#FFFFFF" points="290.04,410.2,285.3812,415.7041,288.67,422.1215,293.3289,416.6174,290.04,410.2" style="stroke:#A80036;stroke-width:1.0;"/><!--MD5=[e060beb3828dcbec49f808f8cf80e6f7]
@startuml

class Hanged{
+ run() : void
}

class Turn{
- players[] : Player
+ next() : void
+getCurrent() : Player
}

class BoardPaper{
 - secretWord : SecretWord
 - proposedChar : ProposedWord
 - proposedWord : ProposedChar
 - hangedParts[] : int
 + getAttempts() : int
 +isWinner() : boolean

}

class SecretWord{
}

abstract class Word{
- chars[] : char
+ {static} isValid(String input) : boolean
+ {abstract} isEquals() : boolean
+  {abstract} clearShow() : String
}

class Player{
- name : String
+ play()
}

Word <|- - SecretWord
Word <|- -ProposedChar
Word <|- - ProposedWord

Hanged *- -> Turn
Turn *- -> "1..n" Player
Hanged *- -> BoardPaper
Player - -> "0..9" ProposedChar
Player - -> "0..1" ProposedWord

BoardPaper *- -> SecretWord
BoardPaper o- -> ProposedChar
BoardPaper o- -> ProposedWord


@enduml

PlantUML version 1.2021.7(Sun May 23 14:40:07 CEST 2021)
(GPL source distribution)
Java Runtime: OpenJDK Runtime Environment
JVM: OpenJDK 64-Bit Server VM
Default Encoding: Cp1252
Language: es
Country: ES
--></g></svg>