<?xml version="1.0" encoding="UTF-8" standalone="no"?><svg xmlns="http://www.w3.org/2000/svg" xmlns:xlink="http://www.w3.org/1999/xlink" contentScriptType="application/ecmascript" contentStyleType="text/css" height="341px" preserveAspectRatio="none" style="width:474px;height:341px;background:#FFFFFF;" version="1.1" viewBox="0 0 474 341" width="474px" zoomAndPan="magnify"><defs><filter height="300%" id="f11i5mgzm090q0" width="300%" x="-1" y="-1"><feGaussianBlur result="blurOut" stdDeviation="2.0"/><feColorMatrix in="blurOut" result="blurOut2" type="matrix" values="0 0 0 0 0 0 0 0 0 0 0 0 0 0 0 0 0 0 .4 0"/><feOffset dx="4.0" dy="4.0" in="blurOut2" result="blurOut3"/><feBlend in="SourceGraphic" in2="blurOut3" mode="normal"/></filter></defs><g><rect fill="#FEFECE" filter="url(#f11i5mgzm090q0)" height="35.0938" style="stroke:#A80036;stroke-width:1.5;" width="61" x="318" y="7"/><text fill="#000000" font-family="sans-serif" font-size="12" lengthAdjust="spacing" textLength="47" x="325" y="21.457">:Hanged</text><line style="stroke:#A80036;stroke-width:1.5;" x1="319" x2="378" y1="26.0938" y2="26.0938"/><rect fill="#FEFECE" filter="url(#f11i5mgzm090q0)" height="35.0938" style="stroke:#A80036;stroke-width:1.5;" width="42" x="278.5" y="102"/><text fill="#000000" font-family="sans-serif" font-size="12" lengthAdjust="spacing" textLength="28" x="285.5" y="116.457">:Turn</text><line style="stroke:#A80036;stroke-width:1.5;" x1="279.5" x2="319.5" y1="121.0938" y2="121.0938"/><rect fill="#FEFECE" filter="url(#f11i5mgzm090q0)" height="35.0938" style="stroke:#A80036;stroke-width:1.5;" width="51" x="272" y="197"/><text fill="#000000" font-family="sans-serif" font-size="12" lengthAdjust="spacing" textLength="37" x="279" y="211.457">:Player</text><line style="stroke:#A80036;stroke-width:1.5;" x1="273" x2="322" y1="216.0938" y2="216.0938"/><rect fill="#FEFECE" filter="url(#f11i5mgzm090q0)" height="35.0938" style="stroke:#A80036;stroke-width:1.5;" width="83" x="357" y="102"/><text fill="#000000" font-family="sans-serif" font-size="12" lengthAdjust="spacing" textLength="69" x="364" y="116.457">:BoardPaper</text><line style="stroke:#A80036;stroke-width:1.5;" x1="358" x2="439" y1="121.0938" y2="121.0938"/><rect fill="#FEFECE" filter="url(#f11i5mgzm090q0)" height="35.0938" style="stroke:#A80036;stroke-width:1.5;" width="81" x="358" y="197"/><text fill="#000000" font-family="sans-serif" font-size="12" lengthAdjust="spacing" textLength="67" x="365" y="211.457">:SecretWord</text><line style="stroke:#A80036;stroke-width:1.5;" x1="359" x2="438" y1="216.0938" y2="216.0938"/><rect fill="#FEFECE" filter="url(#f11i5mgzm090q0)" height="35.0938" style="stroke:#A80036;stroke-width:1.5;" width="100" x="344.5" y="292"/><text fill="#000000" font-family="sans-serif" font-size="12" lengthAdjust="spacing" textLength="86" x="351.5" y="306.457">:ProposedWord</text><line style="stroke:#A80036;stroke-width:1.5;" x1="345.5" x2="443.5" y1="311.0938" y2="311.0938"/><path d="M6,201.5 L6,227.8516 A0,0 0 0 0 6,227.8516 L237,227.8516 A0,0 0 0 0 237,227.8516 L237,219.5 L271.65,214.5 L237,211.5 L237,211.5 L227,201.5 L6,201.5 A0,0 0 0 0 6,201.5 " fill="#FBFB77" filter="url(#f11i5mgzm090q0)" style="stroke:#A80036;stroke-width:1.0;"/><path d="M227,201.5 L227,211.5 L237,211.5 L227,201.5 " fill="#FBFB77" style="stroke:#A80036;stroke-width:1.0;"/><text fill="#000000" font-family="sans-serif" font-size="13" lengthAdjust="spacing" textLength="210" x="12" y="219.9951">"puede haber varios objetos usuario"</text><!--MD5=[e90afb27da7daae0eb5b444323018d1d]
link Hanged to Turn--><path codeLine="10" d="M334.1532,52.7502 C334.1532,52.7502 320.54,78.56 314.48,90.07 " fill="none" id="Hanged-Turn" style="stroke:#A80036;stroke-width:1.0;"/><polygon fill="#A80036" points="308.35,101.7,316.0833,95.6011,310.6801,97.2761,309.0051,91.873,308.35,101.7" style="stroke:#A80036;stroke-width:1.0;"/><line style="stroke:#A80036;stroke-width:1.0;" x1="310.6801" x2="314.405" y1="97.2761" y2="90.2"/><polygon fill="#A80036" points="339.74,42.13,333.4066,45.5778,334.1532,52.7502,340.4867,49.3023,339.74,42.13" style="stroke:#A80036;stroke-width:1.0;"/><!--MD5=[d81713d91ad05be3b975338c4816ee0b]
link Turn to Player--><path codeLine="11" d="M298.8895,149.1274 C298.8895,149.1274 298.37,172.95 298.14,183.65 " fill="none" id="Turn-Player" style="stroke:#A80036;stroke-width:1.0;"/><polygon fill="#A80036" points="297.86,196.7,302.047,187.7855,297.9644,191.7011,294.0487,187.6185,297.86,196.7" style="stroke:#A80036;stroke-width:1.0;"/><line style="stroke:#A80036;stroke-width:1.0;" x1="297.9644" x2="298.14" y1="191.7011" y2="183.705"/><polygon fill="#A80036" points="299.14,137.13,295.0156,143.0452,298.8895,149.1274,303.0139,143.2122,299.14,137.13" style="stroke:#A80036;stroke-width:1.0;"/><!--MD5=[44bd0b9b180a9b719cd52166550804d4]
link Player to ProposedWord--><path codeLine="13" d="M314.84,232.13 C331.15,247.77 355.62,271.23 373.13,288.02 " fill="none" id="Player-to-ProposedWord" style="stroke:#A80036;stroke-width:1.0;"/><polygon fill="#A80036" points="376.98,291.7,373.2411,282.5884,373.3668,288.2439,367.7113,288.3696,376.98,291.7" style="stroke:#A80036;stroke-width:1.0;"/><!--MD5=[16d7e3e7476f96649197208e6f04a604]
link Hanged to BoardPaper--><path codeLine="14" d="M363.1261,52.6973 C363.1261,52.6973 377.03,78.56 383.21,90.07 " fill="none" id="Hanged-BoardPaper" style="stroke:#A80036;stroke-width:1.0;"/><polygon fill="#A80036" points="389.47,101.7,388.7279,91.8791,387.1008,97.2969,381.683,95.6698,389.47,101.7" style="stroke:#A80036;stroke-width:1.0;"/><line style="stroke:#A80036;stroke-width:1.0;" x1="387.1008" x2="383.315" y1="97.2969" y2="90.255"/><polygon fill="#A80036" points="357.44,42.13,356.7606,49.309,363.1261,52.6973,363.8055,45.5183,357.44,42.13" style="stroke:#A80036;stroke-width:1.0;"/><!--MD5=[008fbc63679112eb6e4439ba755bcc9d]
link BoardPaper to SecretWord--><path codeLine="15" d="M398.5,149.13 C398.5,149.13 398.5,172.95 398.5,183.65 " fill="none" id="BoardPaper-SecretWord" style="stroke:#A80036;stroke-width:1.0;"/><polygon fill="#A80036" points="398.5,196.7,402.5,187.7,398.5,191.7,394.5,187.7,398.5,196.7" style="stroke:#A80036;stroke-width:1.0;"/><line style="stroke:#A80036;stroke-width:1.0;" x1="398.5" x2="398.5" y1="191.7" y2="183.7"/><polygon fill="#A80036" points="398.5,137.13,394.5,143.13,398.5,149.13,402.5,143.13,398.5,137.13" style="stroke:#A80036;stroke-width:1.0;"/><!--MD5=[4e35d5b56c2ed85cdeffd3df6c5495ce]
link BoardPaper to ProposedWord--><path codeLine="16" d="M425.4516,145.9037 C425.4516,145.9037 467.32,201.46 456.5,232 C449.77,251 436.08,268.73 423.27,282.33 " fill="none" id="BoardPaper-ProposedWord" style="stroke:#A80036;stroke-width:1.0;"/><polygon fill="#A80036" points="413.78,291.88,422.9641,288.323,417.3073,288.3362,417.2941,282.6794,413.78,291.88" style="stroke:#A80036;stroke-width:1.0;"/><line style="stroke:#A80036;stroke-width:1.0;" x1="417.3073" x2="422.945" y1="288.3362" y2="282.66"/><polygon fill="#FFFFFF" points="417.18,137.21,418.4179,144.3141,425.4516,145.9037,424.2137,138.7997,417.18,137.21" style="stroke:#A80036;stroke-width:1.0;"/><!--MD5=[01eb832a24843268e44ea4a53bc0565d]
@startuml
Object ":Hanged" as Hanged
Object ":Turn" as Turn
Object ":Player" as Player
Object ":BoardPaper" as BoardPaper
Object ":SecretWord" as SecretWord
Object ":ProposedWord" as ProposedWord



Hanged *- -> Turn
Turn *- -> Player
note left: "puede haber varios objetos usuario"
Player - -> ProposedWord
Hanged *- -> BoardPaper
BoardPaper *- -> SecretWord
BoardPaper o- -> ProposedWord

@enduml

PlantUML version 1.2021.7(Sun May 23 14:40:07 CEST 2021)
(GPL source distribution)
Java Runtime: OpenJDK Runtime Environment
JVM: OpenJDK 64-Bit Server VM
Default Encoding: Cp1252
Language: es
Country: ES
--></g></svg>