<?xml version="1.0" encoding="UTF-8" standalone="no"?><svg xmlns="http://www.w3.org/2000/svg" xmlns:xlink="http://www.w3.org/1999/xlink" contentScriptType="application/ecmascript" contentStyleType="text/css" height="626px" preserveAspectRatio="none" style="width:559px;height:626px;background:#FFFFFF;" version="1.1" viewBox="0 0 559 626" width="559px" zoomAndPan="magnify"><defs><filter height="300%" id="f1isp7dv8qzd3x" width="300%" x="-1" y="-1"><feGaussianBlur result="blurOut" stdDeviation="2.0"/><feColorMatrix in="blurOut" result="blurOut2" type="matrix" values="0 0 0 0 0 0 0 0 0 0 0 0 0 0 0 0 0 0 .4 0"/><feOffset dx="4.0" dy="4.0" in="blurOut2" result="blurOut3"/><feBlend in="SourceGraphic" in2="blurOut3" mode="normal"/></filter></defs><g><rect fill="#FEFECE" filter="url(#f1isp7dv8qzd3x)" height="35.0938" style="stroke:#A80036;stroke-width:1.5;" width="61" x="376" y="7"/><text fill="#000000" font-family="sans-serif" font-size="12" lengthAdjust="spacing" textLength="47" x="383" y="21.457">:Hanged</text><line style="stroke:#A80036;stroke-width:1.5;" x1="377" x2="436" y1="26.0938" y2="26.0938"/><rect fill="#FEFECE" filter="url(#f1isp7dv8qzd3x)" height="35.0938" style="stroke:#A80036;stroke-width:1.5;" width="42" x="296.5" y="482"/><text fill="#000000" font-family="sans-serif" font-size="12" lengthAdjust="spacing" textLength="28" x="303.5" y="496.457">:Turn</text><line style="stroke:#A80036;stroke-width:1.5;" x1="297.5" x2="337.5" y1="501.0938" y2="501.0938"/><rect fill="#FEFECE" filter="url(#f1isp7dv8qzd3x)" height="35.0938" style="stroke:#A80036;stroke-width:1.5;" width="96" x="358.5" y="197"/><text fill="#000000" font-family="sans-serif" font-size="12" lengthAdjust="spacing" textLength="82" x="365.5" y="211.457">:StartController</text><line style="stroke:#A80036;stroke-width:1.5;" x1="359.5" x2="453.5" y1="216.0938" y2="216.0938"/><rect fill="#FEFECE" filter="url(#f1isp7dv8qzd3x)" height="35.0938" style="stroke:#A80036;stroke-width:1.5;" width="47" x="383" y="292"/><text fill="#000000" font-family="sans-serif" font-size="12" lengthAdjust="spacing" textLength="33" x="390" y="306.457">:Logic</text><line style="stroke:#A80036;stroke-width:1.5;" x1="384" x2="429" y1="311.0938" y2="311.0938"/><rect fill="#FEFECE" filter="url(#f1isp7dv8qzd3x)" height="35.0938" style="stroke:#A80036;stroke-width:1.5;" width="51" x="381" y="387"/><text fill="#000000" font-family="sans-serif" font-size="12" lengthAdjust="spacing" textLength="37" x="388" y="401.457">:Game</text><line style="stroke:#A80036;stroke-width:1.5;" x1="382" x2="431" y1="406.0938" y2="406.0938"/><rect fill="#FEFECE" filter="url(#f1isp7dv8qzd3x)" height="35.0938" style="stroke:#A80036;stroke-width:1.5;" width="45" x="384" y="482"/><text fill="#000000" font-family="sans-serif" font-size="12" lengthAdjust="spacing" textLength="31" x="391" y="496.457">:State</text><line style="stroke:#A80036;stroke-width:1.5;" x1="385" x2="428" y1="501.0938" y2="501.0938"/><rect fill="#FEFECE" filter="url(#f1isp7dv8qzd3x)" height="35.0938" style="stroke:#A80036;stroke-width:1.5;" width="51" x="272" y="577"/><text fill="#000000" font-family="sans-serif" font-size="12" lengthAdjust="spacing" textLength="37" x="279" y="591.457">:Player</text><line style="stroke:#A80036;stroke-width:1.5;" x1="273" x2="322" y1="596.0938" y2="596.0938"/><rect fill="#FEFECE" filter="url(#f1isp7dv8qzd3x)" height="35.0938" style="stroke:#A80036;stroke-width:1.5;" width="68" x="416.5" y="102"/><text fill="#000000" font-family="sans-serif" font-size="12" lengthAdjust="spacing" textLength="54" x="423.5" y="116.457">:StartView</text><line style="stroke:#A80036;stroke-width:1.5;" x1="417.5" x2="483.5" y1="121.0938" y2="121.0938"/><rect fill="#FEFECE" filter="url(#f1isp7dv8qzd3x)" height="35.0938" style="stroke:#A80036;stroke-width:1.5;" width="81" x="464" y="482"/><text fill="#000000" font-family="sans-serif" font-size="12" lengthAdjust="spacing" textLength="67" x="471" y="496.457">:SecretWord</text><line style="stroke:#A80036;stroke-width:1.5;" x1="465" x2="544" y1="501.0938" y2="501.0938"/><rect fill="#FEFECE" filter="url(#f1isp7dv8qzd3x)" height="35.0938" style="stroke:#A80036;stroke-width:1.5;" width="117" x="358" y="577"/><text fill="#000000" font-family="sans-serif" font-size="12" lengthAdjust="spacing" textLength="103" x="365" y="591.457">:StateValue.START</text><line style="stroke:#A80036;stroke-width:1.5;" x1="359" x2="474" y1="596.0938" y2="596.0938"/><path d="M6,581.5 L6,607.8516 A0,0 0 0 0 6,607.8516 L237,607.8516 A0,0 0 0 0 237,607.8516 L237,599.5 L271.98,594.5 L237,591.5 L237,591.5 L227,581.5 L6,581.5 A0,0 0 0 0 6,581.5 " fill="#FBFB77" filter="url(#f1isp7dv8qzd3x)" style="stroke:#A80036;stroke-width:1.0;"/><path d="M227,581.5 L227,591.5 L237,591.5 L227,581.5 " fill="#FBFB77" style="stroke:#A80036;stroke-width:1.0;"/><text fill="#000000" font-family="sans-serif" font-size="13" lengthAdjust="spacing" textLength="210" x="12" y="599.9951">"puede haber varios objetos usuario"</text><!--MD5=[f1cb4e6fa6bd7af669cc2a470cfde15b]
link Hanged to StartView--><path codeLine="14" d="M414.37,42.13 C421.64,57.5 432.49,80.44 440.41,97.16 " fill="none" id="Hanged-to-StartView" style="stroke:#A80036;stroke-width:1.0;"/><polygon fill="#A80036" points="442.55,101.7,442.3416,91.8533,440.4231,97.1749,435.1015,95.2564,442.55,101.7" style="stroke:#A80036;stroke-width:1.0;"/><!--MD5=[e5ad1e2aff9497a546065452fb0fd181]
link Hanged to StartController--><path codeLine="15" d="M404.25,42.17 C402.28,57.65 399.58,81.33 398.5,102 C397.69,117.53 397.69,121.47 398.5,137 C399.46,155.41 401.71,176.21 403.58,191.47 " fill="none" id="Hanged-to-StartController" style="stroke:#A80036;stroke-width:1.0;"/><polygon fill="#A80036" points="404.25,196.83,407.1161,187.4074,403.6368,191.8677,399.1765,188.3885,404.25,196.83" style="stroke:#A80036;stroke-width:1.0;"/><!--MD5=[3ad0bd69ff7a093d2131bc46b011fe78]
link StartView to StartController--><path codeLine="16" d="M442.63,137.13 C435.36,152.5 424.51,175.44 416.59,192.16 " fill="none" id="StartView-to-StartController" style="stroke:#A80036;stroke-width:1.0;stroke-dasharray:7.0,7.0;"/><polygon fill="#A80036" points="414.45,196.7,421.8985,190.2564,416.5769,192.1749,414.6584,186.8533,414.45,196.7" style="stroke:#A80036;stroke-width:1.0;"/><!--MD5=[c7298b5cfde90c937ee2efdc549090c1]
link StartController to Logic--><path codeLine="17" d="M406.5,244.13 C406.5,244.13 406.5,267.95 406.5,278.65 " fill="none" id="StartController-Logic" style="stroke:#A80036;stroke-width:1.0;"/><polygon fill="#A80036" points="406.5,291.7,410.5,282.7,406.5,286.7,402.5,282.7,406.5,291.7" style="stroke:#A80036;stroke-width:1.0;"/><line style="stroke:#A80036;stroke-width:1.0;" x1="406.5" x2="406.5" y1="286.7" y2="278.7"/><polygon fill="#FFFFFF" points="406.5,232.13,402.5,238.13,406.5,244.13,410.5,238.13,406.5,232.13" style="stroke:#A80036;stroke-width:1.0;"/><!--MD5=[6741a2aa1692821dc3ed1fc83dbb2896]
link Logic to Game--><path codeLine="18" d="M406.5,339.13 C406.5,339.13 406.5,362.95 406.5,373.65 " fill="none" id="Logic-Game" style="stroke:#A80036;stroke-width:1.0;"/><polygon fill="#A80036" points="406.5,386.7,410.5,377.7,406.5,381.7,402.5,377.7,406.5,386.7" style="stroke:#A80036;stroke-width:1.0;"/><line style="stroke:#A80036;stroke-width:1.0;" x1="406.5" x2="406.5" y1="381.7" y2="373.7"/><polygon fill="#A80036" points="406.5,327.13,402.5,333.13,406.5,339.13,410.5,333.13,406.5,327.13" style="stroke:#A80036;stroke-width:1.0;"/><!--MD5=[b9f1e39ad85d50fe6f3a071a4341c320]
link Game to Turn--><path codeLine="19" d="M382.298,430.8043 C382.298,430.8043 354.69,459.63 342.64,472.23 " fill="none" id="Game-Turn" style="stroke:#A80036;stroke-width:1.0;"/><polygon fill="#A80036" points="333.57,481.7,342.6804,477.9583,337.025,478.0857,336.8976,472.4303,333.57,481.7" style="stroke:#A80036;stroke-width:1.0;"/><line style="stroke:#A80036;stroke-width:1.0;" x1="337.025" x2="342.56" y1="478.0857" y2="472.315"/><polygon fill="#A80036" points="390.59,422.13,383.5526,423.7031,382.298,430.8043,389.3354,429.2311,390.59,422.13" style="stroke:#A80036;stroke-width:1.0;"/><!--MD5=[f6bf945722e30f83fc6f64ad9c21e270]
link Game to State--><path codeLine="20" d="M406.5,434.13 C406.5,434.13 406.5,457.95 406.5,468.65 " fill="none" id="Game-State" style="stroke:#A80036;stroke-width:1.0;"/><polygon fill="#A80036" points="406.5,481.7,410.5,472.7,406.5,476.7,402.5,472.7,406.5,481.7" style="stroke:#A80036;stroke-width:1.0;"/><line style="stroke:#A80036;stroke-width:1.0;" x1="406.5" x2="406.5" y1="476.7" y2="468.7"/><polygon fill="#A80036" points="406.5,422.13,402.5,428.13,406.5,434.13,410.5,428.13,406.5,422.13" style="stroke:#A80036;stroke-width:1.0;"/><!--MD5=[b316d152e17edf25a09e2c3be670efbe]
link Game to SecretWord--><path codeLine="21" d="M432.7328,430.3815 C432.7328,430.3815 463.62,459.71 477.11,472.51 " fill="none" id="Game-SecretWord" style="stroke:#A80036;stroke-width:1.0;"/><polygon fill="#A80036" points="486.8,481.7,483.0159,472.6071,483.1697,478.2619,477.5149,478.4157,486.8,481.7" style="stroke:#A80036;stroke-width:1.0;"/><line style="stroke:#A80036;stroke-width:1.0;" x1="483.1697" x2="477.37" y1="478.2619" y2="472.755"/><polygon fill="#A80036" points="424.02,422.13,425.6259,429.16,432.7328,430.3815,431.1269,423.3515,424.02,422.13" style="stroke:#A80036;stroke-width:1.0;"/><!--MD5=[04ee8f1a549f099cd30b455604f649af]
link State to StateValue--><path codeLine="22" d="M408.29,517.13 C409.91,532.24 412.32,554.66 414.11,571.3 " fill="none" id="State-to-StateValue" style="stroke:#A80036;stroke-width:1.0;"/><polygon fill="#A80036" points="414.69,576.7,417.716,567.3275,414.1614,571.728,409.7609,568.1733,414.69,576.7" style="stroke:#A80036;stroke-width:1.0;"/><!--MD5=[d81713d91ad05be3b975338c4816ee0b]
link Turn to Player--><path codeLine="23" d="M311.402,528.8629 C311.402,528.8629 306.22,552.95 303.92,563.65 " fill="none" id="Turn-Player" style="stroke:#A80036;stroke-width:1.0;"/><polygon fill="#A80036" points="301.11,576.7,306.9113,568.741,302.1603,571.8116,299.0897,567.0606,301.11,576.7" style="stroke:#A80036;stroke-width:1.0;"/><line style="stroke:#A80036;stroke-width:1.0;" x1="302.1603" x2="303.845" y1="571.8116" y2="563.995"/><polygon fill="#A80036" points="313.92,517.13,308.7501,522.1571,311.402,528.8629,316.572,523.8357,313.92,517.13" style="stroke:#A80036;stroke-width:1.0;"/><!--MD5=[339a7c52ebfe2eac317a0bb5feb9e167]
@startuml
Object ":Hanged" as Hanged
Object ":Turn" as Turn
Object ":StartController" as StartController
Object ":Logic" as Logic
Object ":Game" as Game
Object ":State" as State
Object ":Player" as Player
Object ":StartView" as StartView
Object ":SecretWord" as SecretWord
Object ":StateValue.START" as StateValue



Hanged - -> StartView
Hanged - -> StartController
StartView ..> StartController
StartController o- -> Logic
Logic *- -> Game
Game *- -> Turn
Game *- -> State
Game *- -> SecretWord
State - -> StateValue
Turn *- -> Player
note left: "puede haber varios objetos usuario"

@enduml

PlantUML version 1.2021.7(Sun May 23 14:40:07 CEST 2021)
(GPL source distribution)
Java Runtime: OpenJDK Runtime Environment
JVM: OpenJDK 64-Bit Server VM
Default Encoding: Cp1252
Language: es
Country: ES
--></g></svg>