<?xml version="1.0" encoding="UTF-8" standalone="no"?><svg xmlns="http://www.w3.org/2000/svg" xmlns:xlink="http://www.w3.org/1999/xlink" contentScriptType="application/ecmascript" contentStyleType="text/css" height="800.31px" preserveAspectRatio="none" style="width:634px;height:800px;background:#FFFFFF;" version="1.1" viewBox="0 0 634 800" width="634.92px" zoomAndPan="magnify"><defs><filter height="300%" id="fh8aglg1ek81x" width="300%" x="-1" y="-1"><feGaussianBlur result="blurOut" stdDeviation="2.22"/><feColorMatrix in="blurOut" result="blurOut2" type="matrix" values="0 0 0 0 0 0 0 0 0 0 0 0 0 0 0 0 0 0 .4 0"/><feOffset dx="4.44" dy="4.44" in="blurOut2" result="blurOut3"/><feBlend in="SourceGraphic" in2="blurOut3" mode="normal"/></filter></defs><g><rect fill="#FEFECE" filter="url(#fh8aglg1ek81x)" height="38.9541" style="stroke:#A80036;stroke-width:1.665;" width="67.71" x="438.45" y="7.77"/><text fill="#000000" font-family="sans-serif" font-size="13.32" lengthAdjust="spacing" textLength="52.17" x="446.22" y="23.8173">:Hanged</text><line style="stroke:#A80036;stroke-width:1.665;" x1="439.56" x2="505.05" y1="28.9641" y2="28.9641"/><rect fill="#FEFECE" filter="url(#fh8aglg1ek81x)" height="38.9541" style="stroke:#A80036;stroke-width:1.665;" width="46.62" x="306.915" y="535.02"/><text fill="#000000" font-family="sans-serif" font-size="13.32" lengthAdjust="spacing" textLength="31.08" x="314.685" y="551.0673">:Turn</text><line style="stroke:#A80036;stroke-width:1.665;" x1="308.025" x2="352.425" y1="556.2141" y2="556.2141"/><rect fill="#FEFECE" filter="url(#fh8aglg1ek81x)" height="38.9541" style="stroke:#A80036;stroke-width:1.665;" width="106.56" x="419.025" y="218.67"/><text fill="#000000" font-family="sans-serif" font-size="13.32" lengthAdjust="spacing" textLength="91.02" x="426.795" y="234.7173">:StartController</text><line style="stroke:#A80036;stroke-width:1.665;" x1="420.135" x2="524.475" y1="239.8641" y2="239.8641"/><rect fill="#FEFECE" filter="url(#fh8aglg1ek81x)" height="38.9541" style="stroke:#A80036;stroke-width:1.665;" width="52.17" x="446.22" y="324.12"/><text fill="#000000" font-family="sans-serif" font-size="13.32" lengthAdjust="spacing" textLength="36.63" x="453.99" y="340.1673">:Logic</text><line style="stroke:#A80036;stroke-width:1.665;" x1="447.33" x2="497.28" y1="345.3141" y2="345.3141"/><rect fill="#FEFECE" filter="url(#fh8aglg1ek81x)" height="38.9541" style="stroke:#A80036;stroke-width:1.665;" width="56.61" x="444" y="429.57"/><text fill="#000000" font-family="sans-serif" font-size="13.32" lengthAdjust="spacing" textLength="41.07" x="451.77" y="445.6173">:Game</text><line style="stroke:#A80036;stroke-width:1.665;" x1="445.11" x2="499.5" y1="450.7641" y2="450.7641"/><rect fill="#FEFECE" filter="url(#fh8aglg1ek81x)" height="38.9541" style="stroke:#A80036;stroke-width:1.665;" width="49.95" x="392.94" y="535.02"/><text fill="#000000" font-family="sans-serif" font-size="13.32" lengthAdjust="spacing" textLength="34.41" x="400.71" y="551.0673">:State</text><line style="stroke:#A80036;stroke-width:1.665;" x1="394.05" x2="441.78" y1="556.2141" y2="556.2141"/><rect fill="#FEFECE" filter="url(#fh8aglg1ek81x)" height="38.9541" style="stroke:#A80036;stroke-width:1.665;" width="56.61" x="301.92" y="640.47"/><text fill="#000000" font-family="sans-serif" font-size="13.32" lengthAdjust="spacing" textLength="41.07" x="309.69" y="656.5173">:Player</text><line style="stroke:#A80036;stroke-width:1.665;" x1="303.03" x2="357.42" y1="661.6641" y2="661.6641"/><rect fill="#FEFECE" filter="url(#fh8aglg1ek81x)" height="38.9541" style="stroke:#A80036;stroke-width:1.665;" width="75.48" x="483.405" y="113.22"/><text fill="#000000" font-family="sans-serif" font-size="13.32" lengthAdjust="spacing" textLength="59.94" x="491.175" y="129.2673">:StartView</text><line style="stroke:#A80036;stroke-width:1.665;" x1="484.515" x2="557.775" y1="134.4141" y2="134.4141"/><rect fill="#FEFECE" filter="url(#fh8aglg1ek81x)" height="38.9541" style="stroke:#A80036;stroke-width:1.665;" width="89.91" x="481.74" y="535.02"/><text fill="#000000" font-family="sans-serif" font-size="13.32" lengthAdjust="spacing" textLength="74.37" x="489.51" y="551.0673">:SecretWord</text><line style="stroke:#A80036;stroke-width:1.665;" x1="482.85" x2="570.54" y1="556.2141" y2="556.2141"/><rect fill="#FEFECE" filter="url(#fh8aglg1ek81x)" height="38.9541" style="stroke:#A80036;stroke-width:1.665;" width="111" x="424.575" y="745.92"/><text fill="#000000" font-family="sans-serif" font-size="13.32" lengthAdjust="spacing" textLength="95.46" x="432.345" y="761.9673">:ProposedWord</text><line style="stroke:#A80036;stroke-width:1.665;" x1="425.685" x2="534.465" y1="767.1141" y2="767.1141"/><rect fill="#FEFECE" filter="url(#fh8aglg1ek81x)" height="38.9541" style="stroke:#A80036;stroke-width:1.665;" width="129.87" x="397.38" y="640.47"/><text fill="#000000" font-family="sans-serif" font-size="13.32" lengthAdjust="spacing" textLength="114.33" x="405.15" y="656.5173">:StateValue.START</text><line style="stroke:#A80036;stroke-width:1.665;" x1="398.49" x2="526.14" y1="661.6641" y2="661.6641"/><path d="M6.66,645.465 L6.66,674.7152 A0,0 0 0 0 6.66,674.7152 L263.07,674.7152 A0,0 0 0 0 263.07,674.7152 L263.07,665.445 L301.5315,659.895 L263.07,656.565 L263.07,656.565 L251.97,645.465 L6.66,645.465 A0,0 0 0 0 6.66,645.465 " fill="#FBFB77" filter="url(#fh8aglg1ek81x)" style="stroke:#A80036;stroke-width:1.11;"/><path d="M251.97,645.465 L251.97,656.565 L263.07,656.565 L251.97,645.465 " fill="#FBFB77" style="stroke:#A80036;stroke-width:1.11;"/><text fill="#000000" font-family="sans-serif" font-size="14.43" lengthAdjust="spacing" textLength="233.1" x="13.32" y="665.9946">"puede haber varios objetos usuario"</text><!--MD5=[f1cb4e6fa6bd7af669cc2a470cfde15b]
link Hanged to StartView--><path codeLine="15" d="M481.0407,46.7643 C489.1104,63.825 501.1539,89.2884 509.9451,107.8476 " fill="none" id="Hanged-to-StartView" style="stroke:#A80036;stroke-width:1.11;"/><polygon fill="#A80036" points="512.3205,112.887,512.0892,101.9572,509.9596,107.8642,504.0527,105.7346,512.3205,112.887" style="stroke:#A80036;stroke-width:1.11;"/><!--MD5=[e5ad1e2aff9497a546065452fb0fd181]
link Hanged to StartController--><path codeLine="16" d="M469.8075,46.8087 C467.6208,63.9915 464.6238,90.2763 463.425,113.22 C462.5259,130.4583 462.5259,134.8317 463.425,152.07 C464.4906,172.5051 466.9881,195.5931 469.0638,212.5317 " fill="none" id="Hanged-to-StartController" style="stroke:#A80036;stroke-width:1.11;"/><polygon fill="#A80036" points="469.8075,218.4813,472.9889,208.0222,469.1269,212.9732,464.1759,209.1112,469.8075,218.4813" style="stroke:#A80036;stroke-width:1.11;"/><!--MD5=[3ad0bd69ff7a093d2131bc46b011fe78]
link StartView to StartController--><path codeLine="17" d="M512.4093,152.2143 C504.3396,169.275 492.2961,194.7384 483.5049,213.2976 " fill="none" id="StartView-to-StartController" style="stroke:#A80036;stroke-width:1.11;stroke-dasharray:7.0,7.0;"/><polygon fill="#A80036" points="481.1295,218.337,489.3973,211.1846,483.4904,213.3142,481.3608,207.4072,481.1295,218.337" style="stroke:#A80036;stroke-width:1.11;"/><!--MD5=[c7298b5cfde90c937ee2efdc549090c1]
link StartController to Logic--><path codeLine="18" d="M472.305,270.9843 C472.305,270.9843 472.305,297.4245 472.305,309.3015 " fill="none" id="StartController-Logic" style="stroke:#A80036;stroke-width:1.11;"/><polygon fill="#A80036" points="472.305,323.787,476.745,313.797,472.305,318.237,467.865,313.797,472.305,323.787" style="stroke:#A80036;stroke-width:1.11;"/><line style="stroke:#A80036;stroke-width:1.11;" x1="472.305" x2="472.305" y1="318.237" y2="309.357"/><polygon fill="#FFFFFF" points="472.305,257.6643,467.865,264.3243,472.305,270.9843,476.745,264.3243,472.305,257.6643" style="stroke:#A80036;stroke-width:1.11;"/><!--MD5=[6741a2aa1692821dc3ed1fc83dbb2896]
link Logic to Game--><path codeLine="19" d="M472.305,376.4343 C472.305,376.4343 472.305,402.8745 472.305,414.7515 " fill="none" id="Logic-Game" style="stroke:#A80036;stroke-width:1.11;"/><polygon fill="#A80036" points="472.305,429.237,476.745,419.247,472.305,423.687,467.865,419.247,472.305,429.237" style="stroke:#A80036;stroke-width:1.11;"/><line style="stroke:#A80036;stroke-width:1.11;" x1="472.305" x2="472.305" y1="423.687" y2="414.807"/><polygon fill="#A80036" points="472.305,363.1143,467.865,369.7743,472.305,376.4343,476.745,369.7743,472.305,363.1143" style="stroke:#A80036;stroke-width:1.11;"/><!--MD5=[b9f1e39ad85d50fe6f3a071a4341c320]
link Game to Turn--><path codeLine="20" d="M436.1339,476.3961 C436.1339,476.3961 386.8017,512.2206 365.6895,527.5719 " fill="none" id="Game-Turn" style="stroke:#A80036;stroke-width:1.11;"/><polygon fill="#A80036" points="353.9901,536.0745,364.6814,533.792,358.4794,532.8112,359.4602,526.6092,353.9901,536.0745" style="stroke:#A80036;stroke-width:1.11;"/><line style="stroke:#A80036;stroke-width:1.11;" x1="358.4794" x2="365.6618" y1="532.8112" y2="527.583"/><polygon fill="#A80036" points="446.9082,468.5643,438.9105,468.8888,436.1339,476.3961,444.1317,476.0716,446.9082,468.5643" style="stroke:#A80036;stroke-width:1.11;"/><!--MD5=[f6bf945722e30f83fc6f64ad9c21e270]
link Game to State--><path codeLine="21" d="M456.3801,480.3527 C456.3801,480.3527 441.2694,509.0016 434.5428,521.7777 " fill="none" id="Game-State" style="stroke:#A80036;stroke-width:1.11;"/><polygon fill="#A80036" points="427.7385,534.687,436.3224,527.9172,430.3249,529.7765,428.4656,523.779,427.7385,534.687" style="stroke:#A80036;stroke-width:1.11;"/><line style="stroke:#A80036;stroke-width:1.11;" x1="430.3249" x2="434.4596" y1="529.7765" y2="521.922"/><polygon fill="#A80036" points="462.5814,468.5643,455.5513,472.3914,456.3801,480.3527,463.4102,476.5256,462.5814,468.5643" style="stroke:#A80036;stroke-width:1.11;"/><!--MD5=[b316d152e17edf25a09e2c3be670efbe]
link Game to SecretWord--><path codeLine="22" d="M488.2299,480.3527 C488.2299,480.3527 503.3406,509.0016 510.0672,521.7777 " fill="none" id="Game-SecretWord" style="stroke:#A80036;stroke-width:1.11;"/><polygon fill="#A80036" points="516.8715,534.687,516.1444,523.779,514.2851,529.7765,508.2876,527.9172,516.8715,534.687" style="stroke:#A80036;stroke-width:1.11;"/><line style="stroke:#A80036;stroke-width:1.11;" x1="514.2851" x2="510.1505" y1="529.7765" y2="521.922"/><polygon fill="#A80036" points="482.0286,468.5643,481.1998,476.5256,488.2299,480.3527,489.0587,472.3914,482.0286,468.5643" style="stroke:#A80036;stroke-width:1.11;"/><!--MD5=[04ee8f1a549f099cd30b455604f649af]
link State to StateValue--><path codeLine="23" d="M425.8515,574.0143 C433.1331,590.9307 443.9556,616.1055 451.9254,634.6203 " fill="none" id="State-to-StateValue" style="stroke:#A80036;stroke-width:1.11;"/><polygon fill="#A80036" points="454.3008,640.137,454.4466,629.2057,452.1145,635.0357,446.2845,632.7037,454.3008,640.137" style="stroke:#A80036;stroke-width:1.11;"/><!--MD5=[d81713d91ad05be3b975338c4816ee0b]
link Turn to Player--><path codeLine="24" d="M330.225,587.3343 C330.225,587.3343 330.225,613.7745 330.225,625.6515 " fill="none" id="Turn-Player" style="stroke:#A80036;stroke-width:1.11;"/><polygon fill="#A80036" points="330.225,640.137,334.665,630.147,330.225,634.587,325.785,630.147,330.225,640.137" style="stroke:#A80036;stroke-width:1.11;"/><line style="stroke:#A80036;stroke-width:1.11;" x1="330.225" x2="330.225" y1="634.587" y2="625.707"/><polygon fill="#A80036" points="330.225,574.0143,325.785,580.6743,330.225,587.3343,334.665,580.6743,330.225,574.0143" style="stroke:#A80036;stroke-width:1.11;"/><!--MD5=[44bd0b9b180a9b719cd52166550804d4]
link Player to ProposedWord--><path codeLine="26" d="M357.0204,679.4643 C382.6392,697.1133 421.2894,723.7422 448.4178,742.4346 " fill="none" id="Player-to-ProposedWord" style="stroke:#A80036;stroke-width:1.11;"/><polygon fill="#A80036" points="453.0132,745.587,447.2964,736.2686,448.4398,742.4428,442.2656,743.5861,453.0132,745.587" style="stroke:#A80036;stroke-width:1.11;"/><!--MD5=[061dab6af36f4ee83b50e80489ddcb27]
link Game to ProposedWord--><path codeLine="27" d="M513.0018,467.0227 C513.0018,467.0227 575.0133,503.7846 591.075,535.02 C627.8049,606.4263 556.554,691.8741 512.0541,735.5082 " fill="none" id="Game-ProposedWord" style="stroke:#A80036;stroke-width:1.11;"/><polygon fill="#A80036" points="501.3981,745.6647,511.6904,741.9793,505.413,741.8328,505.5594,735.5554,501.3981,745.6647" style="stroke:#A80036;stroke-width:1.11;"/><line style="stroke:#A80036;stroke-width:1.11;" x1="505.413" x2="511.8432" y1="741.8328" y2="735.708"/><polygon fill="#FFFFFF" points="500.9874,461.2716,505.0776,468.152,513.0018,467.0227,508.9117,460.1423,500.9874,461.2716" style="stroke:#A80036;stroke-width:1.11;"/><!--MD5=[1f0e33a872618df2a60c63d6963ed74a]
@startuml
Object ":Hanged" as Hanged
Object ":Turn" as Turn
Object ":StartController" as StartController
Object ":Logic" as Logic
Object ":Game" as Game
Object ":State" as State
Object ":Player" as Player
Object ":StartView" as StartView
Object ":SecretWord" as SecretWord
Object ":ProposedWord" as ProposedWord
Object ":StateValue.START" as StateValue



Hanged - -> StartView
Hanged - -> StartController
StartView ..> StartController
StartController o- -> Logic
Logic *- -> Game
Game *- -> Turn
Game *- -> State
Game *- -> SecretWord
State - -> StateValue
Turn *- -> Player
note left: "puede haber varios objetos usuario"
Player - -> ProposedWord
Game o- -> ProposedWord

@enduml

PlantUML version 1.2021.7(Sun May 23 14:40:07 CEST 2021)
(GPL source distribution)
Java Runtime: OpenJDK Runtime Environment
JVM: OpenJDK 64-Bit Server VM
Default Encoding: Cp1252
Language: es
Country: ES
--></g></svg>