<?xml version="1.0" encoding="UTF-8" standalone="no"?><svg xmlns="http://www.w3.org/2000/svg" xmlns:xlink="http://www.w3.org/1999/xlink" contentScriptType="application/ecmascript" contentStyleType="text/css" height="800.31px" preserveAspectRatio="none" style="width:556px;height:800px;background:#FFFFFF;" version="1.1" viewBox="0 0 556 800" width="556.11px" zoomAndPan="magnify"><defs><filter height="300%" id="f1ftrnwnl9m6gd" width="300%" x="-1" y="-1"><feGaussianBlur result="blurOut" stdDeviation="2.22"/><feColorMatrix in="blurOut" result="blurOut2" type="matrix" values="0 0 0 0 0 0 0 0 0 0 0 0 0 0 0 0 0 0 .4 0"/><feOffset dx="4.44" dy="4.44" in="blurOut2" result="blurOut3"/><feBlend in="SourceGraphic" in2="blurOut3" mode="normal"/></filter></defs><g><rect fill="#FEFECE" filter="url(#f1ftrnwnl9m6gd)" height="38.9541" style="stroke:#A80036;stroke-width:1.665;" width="67.71" x="362.97" y="7.77"/><text fill="#000000" font-family="sans-serif" font-size="13.32" lengthAdjust="spacing" textLength="52.17" x="370.74" y="23.8173">:Hanged</text><line style="stroke:#A80036;stroke-width:1.665;" x1="364.08" x2="429.57" y1="28.9641" y2="28.9641"/><rect fill="#FEFECE" filter="url(#f1ftrnwnl9m6gd)" height="38.9541" style="stroke:#A80036;stroke-width:1.665;" width="46.62" x="231.435" y="535.02"/><text fill="#000000" font-family="sans-serif" font-size="13.32" lengthAdjust="spacing" textLength="31.08" x="239.205" y="551.0673">:Turn</text><line style="stroke:#A80036;stroke-width:1.665;" x1="232.545" x2="276.945" y1="556.2141" y2="556.2141"/><rect fill="#FEFECE" filter="url(#f1ftrnwnl9m6gd)" height="38.9541" style="stroke:#A80036;stroke-width:1.665;" width="106.56" x="343.545" y="218.67"/><text fill="#000000" font-family="sans-serif" font-size="13.32" lengthAdjust="spacing" textLength="91.02" x="351.315" y="234.7173">:StartController</text><line style="stroke:#A80036;stroke-width:1.665;" x1="344.655" x2="448.995" y1="239.8641" y2="239.8641"/><rect fill="#FEFECE" filter="url(#f1ftrnwnl9m6gd)" height="38.9541" style="stroke:#A80036;stroke-width:1.665;" width="52.17" x="370.74" y="324.12"/><text fill="#000000" font-family="sans-serif" font-size="13.32" lengthAdjust="spacing" textLength="36.63" x="378.51" y="340.1673">:Logic</text><line style="stroke:#A80036;stroke-width:1.665;" x1="371.85" x2="421.8" y1="345.3141" y2="345.3141"/><rect fill="#FEFECE" filter="url(#f1ftrnwnl9m6gd)" height="38.9541" style="stroke:#A80036;stroke-width:1.665;" width="56.61" x="368.52" y="429.57"/><text fill="#000000" font-family="sans-serif" font-size="13.32" lengthAdjust="spacing" textLength="41.07" x="376.29" y="445.6173">:Game</text><line style="stroke:#A80036;stroke-width:1.665;" x1="369.63" x2="424.02" y1="450.7641" y2="450.7641"/><rect fill="#FEFECE" filter="url(#f1ftrnwnl9m6gd)" height="38.9541" style="stroke:#A80036;stroke-width:1.665;" width="49.95" x="317.46" y="535.02"/><text fill="#000000" font-family="sans-serif" font-size="13.32" lengthAdjust="spacing" textLength="34.41" x="325.23" y="551.0673">:State</text><line style="stroke:#A80036;stroke-width:1.665;" x1="318.57" x2="366.3" y1="556.2141" y2="556.2141"/><rect fill="#FEFECE" filter="url(#f1ftrnwnl9m6gd)" height="38.9541" style="stroke:#A80036;stroke-width:1.665;" width="56.61" x="301.92" y="640.47"/><text fill="#000000" font-family="sans-serif" font-size="13.32" lengthAdjust="spacing" textLength="41.07" x="309.69" y="656.5173">:Player</text><line style="stroke:#A80036;stroke-width:1.665;" x1="303.03" x2="357.42" y1="661.6641" y2="661.6641"/><rect fill="#FEFECE" filter="url(#f1ftrnwnl9m6gd)" height="38.9541" style="stroke:#A80036;stroke-width:1.665;" width="75.48" x="407.925" y="113.22"/><text fill="#000000" font-family="sans-serif" font-size="13.32" lengthAdjust="spacing" textLength="59.94" x="415.695" y="129.2673">:StartView</text><line style="stroke:#A80036;stroke-width:1.665;" x1="409.035" x2="482.295" y1="134.4141" y2="134.4141"/><rect fill="#FEFECE" filter="url(#f1ftrnwnl9m6gd)" height="38.9541" style="stroke:#A80036;stroke-width:1.665;" width="89.91" x="406.26" y="535.02"/><text fill="#000000" font-family="sans-serif" font-size="13.32" lengthAdjust="spacing" textLength="74.37" x="414.03" y="551.0673">:SecretWord</text><line style="stroke:#A80036;stroke-width:1.665;" x1="407.37" x2="495.06" y1="556.2141" y2="556.2141"/><rect fill="#FEFECE" filter="url(#f1ftrnwnl9m6gd)" height="38.9541" style="stroke:#A80036;stroke-width:1.665;" width="111" x="424.575" y="745.92"/><text fill="#000000" font-family="sans-serif" font-size="13.32" lengthAdjust="spacing" textLength="95.46" x="432.345" y="761.9673">:ProposedWord</text><line style="stroke:#A80036;stroke-width:1.665;" x1="425.685" x2="534.465" y1="767.1141" y2="767.1141"/><path d="M6.66,645.465 L6.66,674.7152 A0,0 0 0 0 6.66,674.7152 L263.07,674.7152 A0,0 0 0 0 263.07,674.7152 L263.07,665.445 L301.5315,659.895 L263.07,656.565 L263.07,656.565 L251.97,645.465 L6.66,645.465 A0,0 0 0 0 6.66,645.465 " fill="#FBFB77" filter="url(#f1ftrnwnl9m6gd)" style="stroke:#A80036;stroke-width:1.11;"/><path d="M251.97,645.465 L251.97,656.565 L263.07,656.565 L251.97,645.465 " fill="#FBFB77" style="stroke:#A80036;stroke-width:1.11;"/><text fill="#000000" font-family="sans-serif" font-size="14.43" lengthAdjust="spacing" textLength="233.1" x="13.32" y="665.9946">"puede haber varios objetos usuario"</text><!--MD5=[f1cb4e6fa6bd7af669cc2a470cfde15b]
link Hanged to StartView--><path codeLine="14" d="M405.5607,46.7643 C413.6304,63.825 425.6739,89.2884 434.4651,107.8476 " fill="none" id="Hanged-to-StartView" style="stroke:#A80036;stroke-width:1.11;"/><polygon fill="#A80036" points="436.8405,112.887,436.6092,101.9572,434.4796,107.8642,428.5727,105.7346,436.8405,112.887" style="stroke:#A80036;stroke-width:1.11;"/><!--MD5=[e5ad1e2aff9497a546065452fb0fd181]
link Hanged to StartController--><path codeLine="15" d="M394.3275,46.8087 C392.1408,63.9915 389.1438,90.2763 387.945,113.22 C387.0459,130.4583 387.0459,134.8317 387.945,152.07 C389.0106,172.5051 391.5081,195.5931 393.5838,212.5317 " fill="none" id="Hanged-to-StartController" style="stroke:#A80036;stroke-width:1.11;"/><polygon fill="#A80036" points="394.3275,218.4813,397.5089,208.0222,393.6469,212.9732,388.6959,209.1112,394.3275,218.4813" style="stroke:#A80036;stroke-width:1.11;"/><!--MD5=[3ad0bd69ff7a093d2131bc46b011fe78]
link StartView to StartController--><path codeLine="16" d="M436.9293,152.2143 C428.8596,169.275 416.8161,194.7384 408.0249,213.2976 " fill="none" id="StartView-to-StartController" style="stroke:#A80036;stroke-width:1.11;stroke-dasharray:7.0,7.0;"/><polygon fill="#A80036" points="405.6495,218.337,413.9173,211.1846,408.0104,213.3142,405.8808,207.4072,405.6495,218.337" style="stroke:#A80036;stroke-width:1.11;"/><!--MD5=[c7298b5cfde90c937ee2efdc549090c1]
link StartController to Logic--><path codeLine="17" d="M396.825,270.9843 C396.825,270.9843 396.825,297.4245 396.825,309.3015 " fill="none" id="StartController-Logic" style="stroke:#A80036;stroke-width:1.11;"/><polygon fill="#A80036" points="396.825,323.787,401.265,313.797,396.825,318.237,392.385,313.797,396.825,323.787" style="stroke:#A80036;stroke-width:1.11;"/><line style="stroke:#A80036;stroke-width:1.11;" x1="396.825" x2="396.825" y1="318.237" y2="309.357"/><polygon fill="#FFFFFF" points="396.825,257.6643,392.385,264.3243,396.825,270.9843,401.265,264.3243,396.825,257.6643" style="stroke:#A80036;stroke-width:1.11;"/><!--MD5=[6741a2aa1692821dc3ed1fc83dbb2896]
link Logic to Game--><path codeLine="18" d="M396.825,376.4343 C396.825,376.4343 396.825,402.8745 396.825,414.7515 " fill="none" id="Logic-Game" style="stroke:#A80036;stroke-width:1.11;"/><polygon fill="#A80036" points="396.825,429.237,401.265,419.247,396.825,423.687,392.385,419.247,396.825,429.237" style="stroke:#A80036;stroke-width:1.11;"/><line style="stroke:#A80036;stroke-width:1.11;" x1="396.825" x2="396.825" y1="423.687" y2="414.807"/><polygon fill="#A80036" points="396.825,363.1143,392.385,369.7743,396.825,376.4343,401.265,369.7743,396.825,363.1143" style="stroke:#A80036;stroke-width:1.11;"/><!--MD5=[b9f1e39ad85d50fe6f3a071a4341c320]
link Game to Turn--><path codeLine="19" d="M360.6539,476.3961 C360.6539,476.3961 311.3217,512.2206 290.2095,527.5719 " fill="none" id="Game-Turn" style="stroke:#A80036;stroke-width:1.11;"/><polygon fill="#A80036" points="278.5101,536.0745,289.2014,533.792,282.9994,532.8112,283.9802,526.6092,278.5101,536.0745" style="stroke:#A80036;stroke-width:1.11;"/><line style="stroke:#A80036;stroke-width:1.11;" x1="282.9994" x2="290.1818" y1="532.8112" y2="527.583"/><polygon fill="#A80036" points="371.4282,468.5643,363.4305,468.8888,360.6539,476.3961,368.6517,476.0716,371.4282,468.5643" style="stroke:#A80036;stroke-width:1.11;"/><!--MD5=[f6bf945722e30f83fc6f64ad9c21e270]
link Game to State--><path codeLine="20" d="M380.9001,480.3527 C380.9001,480.3527 365.7894,509.0016 359.0628,521.7777 " fill="none" id="Game-State" style="stroke:#A80036;stroke-width:1.11;"/><polygon fill="#A80036" points="352.2585,534.687,360.8424,527.9172,354.8449,529.7765,352.9856,523.779,352.2585,534.687" style="stroke:#A80036;stroke-width:1.11;"/><line style="stroke:#A80036;stroke-width:1.11;" x1="354.8449" x2="358.9796" y1="529.7765" y2="521.922"/><polygon fill="#A80036" points="387.1014,468.5643,380.0713,472.3914,380.9001,480.3527,387.9302,476.5256,387.1014,468.5643" style="stroke:#A80036;stroke-width:1.11;"/><!--MD5=[b316d152e17edf25a09e2c3be670efbe]
link Game to SecretWord--><path codeLine="21" d="M412.7499,480.3527 C412.7499,480.3527 427.8606,509.0016 434.5872,521.7777 " fill="none" id="Game-SecretWord" style="stroke:#A80036;stroke-width:1.11;"/><polygon fill="#A80036" points="441.3915,534.687,440.6644,523.779,438.8051,529.7765,432.8076,527.9172,441.3915,534.687" style="stroke:#A80036;stroke-width:1.11;"/><line style="stroke:#A80036;stroke-width:1.11;" x1="438.8051" x2="434.6705" y1="529.7765" y2="521.922"/><polygon fill="#A80036" points="406.5486,468.5643,405.7198,476.5256,412.7499,480.3527,413.5787,472.3914,406.5486,468.5643" style="stroke:#A80036;stroke-width:1.11;"/><!--MD5=[d81713d91ad05be3b975338c4816ee0b]
link Turn to Player--><path codeLine="22" d="M276.117,584.7575 C276.117,584.7575 298.1127,614.8623 307.8585,628.1934 " fill="none" id="Turn-Player" style="stroke:#A80036;stroke-width:1.11;"/><polygon fill="#A80036" points="316.5942,640.137,314.2764,629.4533,313.3161,635.6585,307.1109,634.6983,316.5942,640.137" style="stroke:#A80036;stroke-width:1.11;"/><line style="stroke:#A80036;stroke-width:1.11;" x1="313.3161" x2="308.075" y1="635.6585" y2="628.4931"/><polygon fill="#A80036" points="268.2426,574.0143,268.5988,582.0107,276.117,584.7575,275.7609,576.7611,268.2426,574.0143" style="stroke:#A80036;stroke-width:1.11;"/><!--MD5=[44bd0b9b180a9b719cd52166550804d4]
link Player to ProposedWord--><path codeLine="24" d="M357.0204,679.4643 C382.6392,697.1133 421.2894,723.7422 448.4178,742.4346 " fill="none" id="Player-to-ProposedWord" style="stroke:#A80036;stroke-width:1.11;"/><polygon fill="#A80036" points="453.0132,745.587,447.2964,736.2686,448.4398,742.4428,442.2656,743.5861,453.0132,745.587" style="stroke:#A80036;stroke-width:1.11;"/><!--MD5=[061dab6af36f4ee83b50e80489ddcb27]
link Game to ProposedWord--><path codeLine="25" d="M437.5218,467.0227 C437.5218,467.0227 499.5333,503.7846 515.595,535.02 C548.7396,599.4666 517.7373,686.5683 496.392,732.6333 " fill="none" id="Game-ProposedWord" style="stroke:#A80036;stroke-width:1.11;"/><polygon fill="#A80036" points="490.0206,745.7979,498.3632,738.7328,492.4341,740.8002,490.3668,734.8712,490.0206,745.7979" style="stroke:#A80036;stroke-width:1.11;"/><line style="stroke:#A80036;stroke-width:1.11;" x1="492.4341" x2="496.3032" y1="740.8002" y2="732.8109"/><polygon fill="#FFFFFF" points="425.5074,461.2716,429.5976,468.152,437.5218,467.0227,433.4317,460.1423,425.5074,461.2716" style="stroke:#A80036;stroke-width:1.11;"/><!--MD5=[44012c5947c0f1c966611b979b89ab0f]
@startuml
Object ":Hanged" as Hanged
Object ":Turn" as Turn
Object ":StartController" as StartController
Object ":Logic" as Logic
Object ":Game" as Game
Object ":State" as State
Object ":Player" as Player
Object ":StartView" as StartView
Object ":SecretWord" as SecretWord
Object ":ProposedWord" as ProposedWord



Hanged - -> StartView
Hanged - -> StartController
StartView ..> StartController
StartController o- -> Logic
Logic *- -> Game
Game *- -> Turn
Game *- -> State
Game *- -> SecretWord
Turn *- -> Player
note left: "puede haber varios objetos usuario"
Player - -> ProposedWord
Game o- -> ProposedWord

@enduml

PlantUML version 1.2021.7(Sun May 23 14:40:07 CEST 2021)
(GPL source distribution)
Java Runtime: OpenJDK Runtime Environment
JVM: OpenJDK 64-Bit Server VM
Default Encoding: Cp1252
Language: es
Country: ES
--></g></svg>