<?xml version="1.0" encoding="UTF-8" standalone="no"?><svg xmlns="http://www.w3.org/2000/svg" xmlns:xlink="http://www.w3.org/1999/xlink" contentScriptType="application/ecmascript" contentStyleType="text/css" height="561px" preserveAspectRatio="none" style="width:1352px;height:561px;background:#FFFFFF;" version="1.1" viewBox="0 0 1352 561" width="1352px" zoomAndPan="magnify"><defs><filter height="300%" id="f126ssz3ofn5vb" width="300%" x="-1" y="-1"><feGaussianBlur result="blurOut" stdDeviation="2.0"/><feColorMatrix in="blurOut" result="blurOut2" type="matrix" values="0 0 0 0 0 0 0 0 0 0 0 0 0 0 0 0 0 0 .4 0"/><feOffset dx="4.0" dy="4.0" in="blurOut2" result="blurOut3"/><feBlend in="SourceGraphic" in2="blurOut3" mode="normal"/></filter></defs><g><!--MD5=[a70b0d373322012744ecc119c63f921b]
cluster main--><polygon fill="#FFFFFF" filter="url(#f126ssz3ofn5vb)" points="660,6,699,6,706,29.6094,768,29.6094,768,106,660,106,660,6" style="stroke:#000000;stroke-width:1.5;"/><line style="stroke:#000000;stroke-width:1.5;" x1="660" x2="706" y1="29.6094" y2="29.6094"/><text fill="#000000" font-family="sans-serif" font-size="14" font-weight="bold" lengthAdjust="spacing" textLength="33" x="664" y="22.5332">main</text><!--MD5=[e2a75efa8a0f57c2afae8bf75386f79c]
cluster views--><polygon fill="#FFFFFF" filter="url(#f126ssz3ofn5vb)" points="16,130,63,130,70,153.6094,461,153.6094,461,470,16,470,16,130" style="stroke:#000000;stroke-width:1.5;"/><line style="stroke:#000000;stroke-width:1.5;" x1="16" x2="70" y1="153.6094" y2="153.6094"/><text fill="#000000" font-family="sans-serif" font-size="14" font-weight="bold" lengthAdjust="spacing" textLength="41" x="20" y="146.5332">views</text><!--MD5=[4b7a55d430ce43d42ce9ebad9e6b4010]
cluster console--><polygon fill="#FFFFFF" filter="url(#f126ssz3ofn5vb)" points="40,238,102,238,109,261.6094,437,261.6094,437,446,40,446,40,238" style="stroke:#000000;stroke-width:1.5;"/><line style="stroke:#000000;stroke-width:1.5;" x1="40" x2="109" y1="261.6094" y2="261.6094"/><text fill="#000000" font-family="sans-serif" font-size="14" font-weight="bold" lengthAdjust="spacing" textLength="56" x="44" y="254.5332">console</text><!--MD5=[f4e70ef68289585296b9045165e58692]
cluster controllers--><polygon fill="#FFFFFF" filter="url(#f126ssz3ofn5vb)" points="485,130,568,130,575,153.6094,958,153.6094,958,338,485,338,485,130" style="stroke:#000000;stroke-width:1.5;"/><line style="stroke:#000000;stroke-width:1.5;" x1="485" x2="575" y1="153.6094" y2="153.6094"/><text fill="#000000" font-family="sans-serif" font-size="14" font-weight="bold" lengthAdjust="spacing" textLength="77" x="489" y="146.5332">controllers</text><!--MD5=[a60570e4b426f702ccbb0d459e3b9417]
cluster models--><polygon fill="#FFFFFF" filter="url(#f126ssz3ofn5vb)" points="982,130,1039,130,1046,153.6094,1335,153.6094,1335,554,982,554,982,130" style="stroke:#000000;stroke-width:1.5;"/><line style="stroke:#000000;stroke-width:1.5;" x1="982" x2="1046" y1="153.6094" y2="153.6094"/><text fill="#000000" font-family="sans-serif" font-size="14" font-weight="bold" lengthAdjust="spacing" textLength="51" x="986" y="146.5332">models</text><!--MD5=[d7ec263f7daf4a6472ede7f2d3e0d6e7]
class Hanged--><rect codeLine="2" fill="#FEFECE" filter="url(#f126ssz3ofn5vb)" height="48" id="Hanged" style="stroke:#A80036;stroke-width:1.5;" width="76" x="676" y="42"/><ellipse cx="691" cy="58" fill="#ADD1B2" rx="11" ry="11" style="stroke:#A80036;stroke-width:1.0;"/><path d="M693,54.5 Q693.2031,54 693.4375,53.75 Q693.6719,53.5 693.9375,53.5 Q694.4063,53.5 694.7031,53.7813 Q695,54.0625 695,54.7188 L695,56.2813 Q695,56.9375 694.7188,57.2188 Q694.4375,57.5 694,57.5 Q693.6094,57.5 693.3594,57.3281 Q693.1094,57.1563 693,56.7031 Q692.9531,56.3906 692.7813,56.2188 Q692.4688,55.8906 691.9063,55.7031 Q691.3438,55.5 690.7813,55.5 Q690.0781,55.5 689.4844,55.7813 Q688.9063,56.0625 688.4531,56.6875 Q688,57.3125 688,58.1719 L688,59.0938 Q688,60.125 688.8438,60.8125 Q689.6875,61.5 691.1875,61.5 Q692.0781,61.5 692.7031,61.2969 Q693.0625,61.1875 693.4688,60.8281 Q693.7344,60.625 693.875,60.5625 Q694.0156,60.5 694.1875,60.5 Q694.5156,60.5 694.75,60.7656 Q695,61.0156 695,61.375 Q695,61.7188 694.6563,62.125 Q694.1563,62.7188 693.3594,63.0469 Q692.3125,63.5 691.0313,63.5 Q689.5313,63.5 688.3281,62.9063 Q687.3594,62.4375 686.6719,61.4219 Q686,60.4063 686,59.2031 L686,58.1094 Q686,56.8594 686.5938,55.7656 Q687.2031,54.6719 688.25,54.0938 Q689.3125,53.5 690.5,53.5 Q691.2188,53.5 691.8438,53.75 Q692.4688,54 693,54.5 Z " fill="#000000"/><text fill="#000000" font-family="sans-serif" font-size="12" lengthAdjust="spacing" textLength="44" x="705" y="62.9102">Hanged</text><line style="stroke:#A80036;stroke-width:1.5;" x1="677" x2="751" y1="74" y2="74"/><line style="stroke:#A80036;stroke-width:1.5;" x1="677" x2="751" y1="82" y2="82"/><!--MD5=[c045e12321b83266d36d22b9096c24ea]
class View--><rect codeLine="6" fill="#FEFECE" filter="url(#f126ssz3ofn5vb)" height="48" id="View" style="stroke:#A80036;stroke-width:1.5;" width="58" x="339" y="166"/><ellipse cx="354" cy="182" fill="#A9DCDF" rx="11" ry="11" style="stroke:#A80036;stroke-width:1.0;"/><path d="M355.75,183.5 L352.4531,183.5 L352.0156,184.5 L352.0156,184.5 L352.4844,184.5 L353,185.125 L353,185.5 L353,185.875 L352.4844,186.5 L352.0156,186.5 L350.125,186.5 L349.5156,186.5 L349,185.875 L349,185.5 L349,185.125 L349.5156,184.5 L350.125,184.5 L352.4375,178.5 L351.5625,178.5 L350.5156,178.5 L350,177.875 L350,177.5 L350,177.125 L350.5156,176.5 L351.5625,176.5 L355.2344,176.5 L357.9219,184.5 L358.4844,184.5 L358.4844,184.5 L359,185.125 L359,185.5 L359,185.875 L358.4844,186.5 L357.9219,186.5 L356.0313,186.5 L355.5156,186.5 L355,185.875 L355,185.5 L355,185.125 L355.5156,184.5 L356.0313,184.5 L356.0313,184.5 L355.75,183.5 Z M355.2031,181.5 L354,177.9219 L352.9688,181.5 L355.2031,181.5 Z " fill="#000000"/><text fill="#000000" font-family="sans-serif" font-size="12" font-style="italic" lengthAdjust="spacing" textLength="26" x="368" y="186.9102">View</text><line style="stroke:#A80036;stroke-width:1.5;" x1="340" x2="396" y1="198" y2="198"/><line style="stroke:#A80036;stroke-width:1.5;" x1="340" x2="396" y1="206" y2="206"/><!--MD5=[51d729737bd84a4c43136dd336c2eea1]
class ConsoleView--><rect codeLine="8" fill="#FEFECE" filter="url(#f126ssz3ofn5vb)" height="48" id="ConsoleView" style="stroke:#A80036;stroke-width:1.5;" width="105" x="221.5" y="274"/><ellipse cx="236.5" cy="290" fill="#ADD1B2" rx="11" ry="11" style="stroke:#A80036;stroke-width:1.0;"/><path d="M238.5,286.5 Q238.7031,286 238.9375,285.75 Q239.1719,285.5 239.4375,285.5 Q239.9063,285.5 240.2031,285.7813 Q240.5,286.0625 240.5,286.7188 L240.5,288.2813 Q240.5,288.9375 240.2188,289.2188 Q239.9375,289.5 239.5,289.5 Q239.1094,289.5 238.8594,289.3281 Q238.6094,289.1563 238.5,288.7031 Q238.4531,288.3906 238.2813,288.2188 Q237.9688,287.8906 237.4063,287.7031 Q236.8438,287.5 236.2813,287.5 Q235.5781,287.5 234.9844,287.7813 Q234.4063,288.0625 233.9531,288.6875 Q233.5,289.3125 233.5,290.1719 L233.5,291.0938 Q233.5,292.125 234.3438,292.8125 Q235.1875,293.5 236.6875,293.5 Q237.5781,293.5 238.2031,293.2969 Q238.5625,293.1875 238.9688,292.8281 Q239.2344,292.625 239.375,292.5625 Q239.5156,292.5 239.6875,292.5 Q240.0156,292.5 240.25,292.7656 Q240.5,293.0156 240.5,293.375 Q240.5,293.7188 240.1563,294.125 Q239.6563,294.7188 238.8594,295.0469 Q237.8125,295.5 236.5313,295.5 Q235.0313,295.5 233.8281,294.9063 Q232.8594,294.4375 232.1719,293.4219 Q231.5,292.4063 231.5,291.2031 L231.5,290.1094 Q231.5,288.8594 232.0938,287.7656 Q232.7031,286.6719 233.75,286.0938 Q234.8125,285.5 236,285.5 Q236.7188,285.5 237.3438,285.75 Q237.9688,286 238.5,286.5 Z " fill="#000000"/><text fill="#000000" font-family="sans-serif" font-size="12" lengthAdjust="spacing" textLength="73" x="250.5" y="294.9102">ConsoleView</text><line style="stroke:#A80036;stroke-width:1.5;" x1="222.5" x2="325.5" y1="306" y2="306"/><line style="stroke:#A80036;stroke-width:1.5;" x1="222.5" x2="325.5" y1="314" y2="314"/><!--MD5=[443c52daef265809fdf31be84fc8ae4a]
class StartView--><rect codeLine="9" fill="#FEFECE" filter="url(#f126ssz3ofn5vb)" height="48" id="StartView" style="stroke:#A80036;stroke-width:1.5;" width="83" x="56.5" y="382"/><ellipse cx="71.5" cy="398" fill="#ADD1B2" rx="11" ry="11" style="stroke:#A80036;stroke-width:1.0;"/><path d="M73.5,394.5 Q73.7031,394 73.9375,393.75 Q74.1719,393.5 74.4375,393.5 Q74.9063,393.5 75.2031,393.7813 Q75.5,394.0625 75.5,394.7188 L75.5,396.2813 Q75.5,396.9375 75.2188,397.2188 Q74.9375,397.5 74.5,397.5 Q74.1094,397.5 73.8594,397.3281 Q73.6094,397.1563 73.5,396.7031 Q73.4531,396.3906 73.2813,396.2188 Q72.9688,395.8906 72.4063,395.7031 Q71.8438,395.5 71.2813,395.5 Q70.5781,395.5 69.9844,395.7813 Q69.4063,396.0625 68.9531,396.6875 Q68.5,397.3125 68.5,398.1719 L68.5,399.0938 Q68.5,400.125 69.3438,400.8125 Q70.1875,401.5 71.6875,401.5 Q72.5781,401.5 73.2031,401.2969 Q73.5625,401.1875 73.9688,400.8281 Q74.2344,400.625 74.375,400.5625 Q74.5156,400.5 74.6875,400.5 Q75.0156,400.5 75.25,400.7656 Q75.5,401.0156 75.5,401.375 Q75.5,401.7188 75.1563,402.125 Q74.6563,402.7188 73.8594,403.0469 Q72.8125,403.5 71.5313,403.5 Q70.0313,403.5 68.8281,402.9063 Q67.8594,402.4375 67.1719,401.4219 Q66.5,400.4063 66.5,399.2031 L66.5,398.1094 Q66.5,396.8594 67.0938,395.7656 Q67.7031,394.6719 68.75,394.0938 Q69.8125,393.5 71,393.5 Q71.7188,393.5 72.3438,393.75 Q72.9688,394 73.5,394.5 Z " fill="#000000"/><text fill="#000000" font-family="sans-serif" font-size="12" lengthAdjust="spacing" textLength="51" x="85.5" y="402.9102">StartView</text><line style="stroke:#A80036;stroke-width:1.5;" x1="57.5" x2="138.5" y1="414" y2="414"/><line style="stroke:#A80036;stroke-width:1.5;" x1="57.5" x2="138.5" y1="422" y2="422"/><!--MD5=[af548d7eeba3607a103157b84173e841]
class ProposeView--><rect codeLine="10" fill="#FEFECE" filter="url(#f126ssz3ofn5vb)" height="48" id="ProposeView" style="stroke:#A80036;stroke-width:1.5;" width="105" x="174.5" y="382"/><ellipse cx="189.5" cy="398" fill="#ADD1B2" rx="11" ry="11" style="stroke:#A80036;stroke-width:1.0;"/><path d="M191.5,394.5 Q191.7031,394 191.9375,393.75 Q192.1719,393.5 192.4375,393.5 Q192.9063,393.5 193.2031,393.7813 Q193.5,394.0625 193.5,394.7188 L193.5,396.2813 Q193.5,396.9375 193.2188,397.2188 Q192.9375,397.5 192.5,397.5 Q192.1094,397.5 191.8594,397.3281 Q191.6094,397.1563 191.5,396.7031 Q191.4531,396.3906 191.2813,396.2188 Q190.9688,395.8906 190.4063,395.7031 Q189.8438,395.5 189.2813,395.5 Q188.5781,395.5 187.9844,395.7813 Q187.4063,396.0625 186.9531,396.6875 Q186.5,397.3125 186.5,398.1719 L186.5,399.0938 Q186.5,400.125 187.3438,400.8125 Q188.1875,401.5 189.6875,401.5 Q190.5781,401.5 191.2031,401.2969 Q191.5625,401.1875 191.9688,400.8281 Q192.2344,400.625 192.375,400.5625 Q192.5156,400.5 192.6875,400.5 Q193.0156,400.5 193.25,400.7656 Q193.5,401.0156 193.5,401.375 Q193.5,401.7188 193.1563,402.125 Q192.6563,402.7188 191.8594,403.0469 Q190.8125,403.5 189.5313,403.5 Q188.0313,403.5 186.8281,402.9063 Q185.8594,402.4375 185.1719,401.4219 Q184.5,400.4063 184.5,399.2031 L184.5,398.1094 Q184.5,396.8594 185.0938,395.7656 Q185.7031,394.6719 186.75,394.0938 Q187.8125,393.5 189,393.5 Q189.7188,393.5 190.3438,393.75 Q190.9688,394 191.5,394.5 Z " fill="#000000"/><text fill="#000000" font-family="sans-serif" font-size="12" lengthAdjust="spacing" textLength="73" x="203.5" y="402.9102">ProposeView</text><line style="stroke:#A80036;stroke-width:1.5;" x1="175.5" x2="278.5" y1="414" y2="414"/><line style="stroke:#A80036;stroke-width:1.5;" x1="175.5" x2="278.5" y1="422" y2="422"/><!--MD5=[19088a99a8c1f36e582d33ac2f8fc6dd]
class ResumeView--><rect codeLine="11" fill="#FEFECE" filter="url(#f126ssz3ofn5vb)" height="48" id="ResumeView" style="stroke:#A80036;stroke-width:1.5;" width="106" x="315" y="382"/><ellipse cx="330" cy="398" fill="#ADD1B2" rx="11" ry="11" style="stroke:#A80036;stroke-width:1.0;"/><path d="M332,394.5 Q332.2031,394 332.4375,393.75 Q332.6719,393.5 332.9375,393.5 Q333.4063,393.5 333.7031,393.7813 Q334,394.0625 334,394.7188 L334,396.2813 Q334,396.9375 333.7188,397.2188 Q333.4375,397.5 333,397.5 Q332.6094,397.5 332.3594,397.3281 Q332.1094,397.1563 332,396.7031 Q331.9531,396.3906 331.7813,396.2188 Q331.4688,395.8906 330.9063,395.7031 Q330.3438,395.5 329.7813,395.5 Q329.0781,395.5 328.4844,395.7813 Q327.9063,396.0625 327.4531,396.6875 Q327,397.3125 327,398.1719 L327,399.0938 Q327,400.125 327.8438,400.8125 Q328.6875,401.5 330.1875,401.5 Q331.0781,401.5 331.7031,401.2969 Q332.0625,401.1875 332.4688,400.8281 Q332.7344,400.625 332.875,400.5625 Q333.0156,400.5 333.1875,400.5 Q333.5156,400.5 333.75,400.7656 Q334,401.0156 334,401.375 Q334,401.7188 333.6563,402.125 Q333.1563,402.7188 332.3594,403.0469 Q331.3125,403.5 330.0313,403.5 Q328.5313,403.5 327.3281,402.9063 Q326.3594,402.4375 325.6719,401.4219 Q325,400.4063 325,399.2031 L325,398.1094 Q325,396.8594 325.5938,395.7656 Q326.2031,394.6719 327.25,394.0938 Q328.3125,393.5 329.5,393.5 Q330.2188,393.5 330.8438,393.75 Q331.4688,394 332,394.5 Z " fill="#000000"/><text fill="#000000" font-family="sans-serif" font-size="12" lengthAdjust="spacing" textLength="74" x="344" y="402.9102">ResumeView</text><line style="stroke:#A80036;stroke-width:1.5;" x1="316" x2="420" y1="414" y2="414"/><line style="stroke:#A80036;stroke-width:1.5;" x1="316" x2="420" y1="422" y2="422"/><!--MD5=[1d7ba1c7002d54515419844fbd155368]
class Controller--><rect codeLine="16" fill="#FEFECE" filter="url(#f126ssz3ofn5vb)" height="48" id="Controller" style="stroke:#A80036;stroke-width:1.5;" width="86" x="671" y="166"/><ellipse cx="686" cy="182" fill="#A9DCDF" rx="11" ry="11" style="stroke:#A80036;stroke-width:1.0;"/><path d="M687.75,183.5 L684.4531,183.5 L684.0156,184.5 L684.0156,184.5 L684.4844,184.5 L685,185.125 L685,185.5 L685,185.875 L684.4844,186.5 L684.0156,186.5 L682.125,186.5 L681.5156,186.5 L681,185.875 L681,185.5 L681,185.125 L681.5156,184.5 L682.125,184.5 L684.4375,178.5 L683.5625,178.5 L682.5156,178.5 L682,177.875 L682,177.5 L682,177.125 L682.5156,176.5 L683.5625,176.5 L687.2344,176.5 L689.9219,184.5 L690.4844,184.5 L690.4844,184.5 L691,185.125 L691,185.5 L691,185.875 L690.4844,186.5 L689.9219,186.5 L688.0313,186.5 L687.5156,186.5 L687,185.875 L687,185.5 L687,185.125 L687.5156,184.5 L688.0313,184.5 L688.0313,184.5 L687.75,183.5 Z M687.2031,181.5 L686,177.9219 L684.9688,181.5 L687.2031,181.5 Z " fill="#000000"/><text fill="#000000" font-family="sans-serif" font-size="12" font-style="italic" lengthAdjust="spacing" textLength="54" x="700" y="186.9102">Controller</text><line style="stroke:#A80036;stroke-width:1.5;" x1="672" x2="756" y1="198" y2="198"/><line style="stroke:#A80036;stroke-width:1.5;" x1="672" x2="756" y1="206" y2="206"/><!--MD5=[47c371471411cfedeee61b1a5bdaee47]
class StartController--><rect codeLine="17" fill="#FEFECE" filter="url(#f126ssz3ofn5vb)" height="48" id="StartController" style="stroke:#A80036;stroke-width:1.5;" width="111" x="501.5" y="274"/><ellipse cx="516.5" cy="290" fill="#ADD1B2" rx="11" ry="11" style="stroke:#A80036;stroke-width:1.0;"/><path d="M518.5,286.5 Q518.7031,286 518.9375,285.75 Q519.1719,285.5 519.4375,285.5 Q519.9063,285.5 520.2031,285.7813 Q520.5,286.0625 520.5,286.7188 L520.5,288.2813 Q520.5,288.9375 520.2188,289.2188 Q519.9375,289.5 519.5,289.5 Q519.1094,289.5 518.8594,289.3281 Q518.6094,289.1563 518.5,288.7031 Q518.4531,288.3906 518.2813,288.2188 Q517.9688,287.8906 517.4063,287.7031 Q516.8438,287.5 516.2813,287.5 Q515.5781,287.5 514.9844,287.7813 Q514.4063,288.0625 513.9531,288.6875 Q513.5,289.3125 513.5,290.1719 L513.5,291.0938 Q513.5,292.125 514.3438,292.8125 Q515.1875,293.5 516.6875,293.5 Q517.5781,293.5 518.2031,293.2969 Q518.5625,293.1875 518.9688,292.8281 Q519.2344,292.625 519.375,292.5625 Q519.5156,292.5 519.6875,292.5 Q520.0156,292.5 520.25,292.7656 Q520.5,293.0156 520.5,293.375 Q520.5,293.7188 520.1563,294.125 Q519.6563,294.7188 518.8594,295.0469 Q517.8125,295.5 516.5313,295.5 Q515.0313,295.5 513.8281,294.9063 Q512.8594,294.4375 512.1719,293.4219 Q511.5,292.4063 511.5,291.2031 L511.5,290.1094 Q511.5,288.8594 512.0938,287.7656 Q512.7031,286.6719 513.75,286.0938 Q514.8125,285.5 516,285.5 Q516.7188,285.5 517.3438,285.75 Q517.9688,286 518.5,286.5 Z " fill="#000000"/><text fill="#000000" font-family="sans-serif" font-size="12" lengthAdjust="spacing" textLength="79" x="530.5" y="294.9102">StartController</text><line style="stroke:#A80036;stroke-width:1.5;" x1="502.5" x2="611.5" y1="306" y2="306"/><line style="stroke:#A80036;stroke-width:1.5;" x1="502.5" x2="611.5" y1="314" y2="314"/><!--MD5=[0b95e4ee8b160a2b3b0650a9b235c496]
class ProposeController--><rect codeLine="18" fill="#FEFECE" filter="url(#f126ssz3ofn5vb)" height="48" id="ProposeController" style="stroke:#A80036;stroke-width:1.5;" width="133" x="647.5" y="274"/><ellipse cx="662.5" cy="290" fill="#ADD1B2" rx="11" ry="11" style="stroke:#A80036;stroke-width:1.0;"/><path d="M664.5,286.5 Q664.7031,286 664.9375,285.75 Q665.1719,285.5 665.4375,285.5 Q665.9063,285.5 666.2031,285.7813 Q666.5,286.0625 666.5,286.7188 L666.5,288.2813 Q666.5,288.9375 666.2188,289.2188 Q665.9375,289.5 665.5,289.5 Q665.1094,289.5 664.8594,289.3281 Q664.6094,289.1563 664.5,288.7031 Q664.4531,288.3906 664.2813,288.2188 Q663.9688,287.8906 663.4063,287.7031 Q662.8438,287.5 662.2813,287.5 Q661.5781,287.5 660.9844,287.7813 Q660.4063,288.0625 659.9531,288.6875 Q659.5,289.3125 659.5,290.1719 L659.5,291.0938 Q659.5,292.125 660.3438,292.8125 Q661.1875,293.5 662.6875,293.5 Q663.5781,293.5 664.2031,293.2969 Q664.5625,293.1875 664.9688,292.8281 Q665.2344,292.625 665.375,292.5625 Q665.5156,292.5 665.6875,292.5 Q666.0156,292.5 666.25,292.7656 Q666.5,293.0156 666.5,293.375 Q666.5,293.7188 666.1563,294.125 Q665.6563,294.7188 664.8594,295.0469 Q663.8125,295.5 662.5313,295.5 Q661.0313,295.5 659.8281,294.9063 Q658.8594,294.4375 658.1719,293.4219 Q657.5,292.4063 657.5,291.2031 L657.5,290.1094 Q657.5,288.8594 658.0938,287.7656 Q658.7031,286.6719 659.75,286.0938 Q660.8125,285.5 662,285.5 Q662.7188,285.5 663.3438,285.75 Q663.9688,286 664.5,286.5 Z " fill="#000000"/><text fill="#000000" font-family="sans-serif" font-size="12" lengthAdjust="spacing" textLength="101" x="676.5" y="294.9102">ProposeController</text><line style="stroke:#A80036;stroke-width:1.5;" x1="648.5" x2="779.5" y1="306" y2="306"/><line style="stroke:#A80036;stroke-width:1.5;" x1="648.5" x2="779.5" y1="314" y2="314"/><!--MD5=[838266453f24f703931192fe235907f4]
class RestartController--><rect codeLine="19" fill="#FEFECE" filter="url(#f126ssz3ofn5vb)" height="48" id="RestartController" style="stroke:#A80036;stroke-width:1.5;" width="126" x="816" y="274"/><ellipse cx="831" cy="290" fill="#ADD1B2" rx="11" ry="11" style="stroke:#A80036;stroke-width:1.0;"/><path d="M833,286.5 Q833.2031,286 833.4375,285.75 Q833.6719,285.5 833.9375,285.5 Q834.4063,285.5 834.7031,285.7813 Q835,286.0625 835,286.7188 L835,288.2813 Q835,288.9375 834.7188,289.2188 Q834.4375,289.5 834,289.5 Q833.6094,289.5 833.3594,289.3281 Q833.1094,289.1563 833,288.7031 Q832.9531,288.3906 832.7813,288.2188 Q832.4688,287.8906 831.9063,287.7031 Q831.3438,287.5 830.7813,287.5 Q830.0781,287.5 829.4844,287.7813 Q828.9063,288.0625 828.4531,288.6875 Q828,289.3125 828,290.1719 L828,291.0938 Q828,292.125 828.8438,292.8125 Q829.6875,293.5 831.1875,293.5 Q832.0781,293.5 832.7031,293.2969 Q833.0625,293.1875 833.4688,292.8281 Q833.7344,292.625 833.875,292.5625 Q834.0156,292.5 834.1875,292.5 Q834.5156,292.5 834.75,292.7656 Q835,293.0156 835,293.375 Q835,293.7188 834.6563,294.125 Q834.1563,294.7188 833.3594,295.0469 Q832.3125,295.5 831.0313,295.5 Q829.5313,295.5 828.3281,294.9063 Q827.3594,294.4375 826.6719,293.4219 Q826,292.4063 826,291.2031 L826,290.1094 Q826,288.8594 826.5938,287.7656 Q827.2031,286.6719 828.25,286.0938 Q829.3125,285.5 830.5,285.5 Q831.2188,285.5 831.8438,285.75 Q832.4688,286 833,286.5 Z " fill="#000000"/><text fill="#000000" font-family="sans-serif" font-size="12" lengthAdjust="spacing" textLength="94" x="845" y="294.9102">RestartController</text><line style="stroke:#A80036;stroke-width:1.5;" x1="817" x2="941" y1="306" y2="306"/><line style="stroke:#A80036;stroke-width:1.5;" x1="817" x2="941" y1="314" y2="314"/><!--MD5=[202eb055b61e3635d6abeb6d1809ebdd]
class ControllerVisitor--><rect codeLine="20" fill="#FEFECE" filter="url(#f126ssz3ofn5vb)" height="48" id="ControllerVisitor" style="stroke:#A80036;stroke-width:1.5;" width="120" x="509" y="166"/><ellipse cx="524" cy="182" fill="#B4A7E5" rx="11" ry="11" style="stroke:#A80036;stroke-width:1.0;"/><path d="M525,179 L525,185 L527,185 L527.4844,185 L528,185.625 L528,186 L528,186.375 L527.4844,187 L527,187 L521,187 L520.5156,187 L520,186.375 L520,186 L520,185.625 L520.5156,185 L521,185 L523,185 L523,179 L521,179 L520.5156,179 L520,178.375 L520,178 L520,177.625 L520.5156,177 L521,177 L527,177 L527.4844,177 L528,177.625 L528,178 L528,178.375 L527.4844,179 L527,179 L525,179 Z " fill="#000000"/><text fill="#000000" font-family="sans-serif" font-size="12" font-style="italic" lengthAdjust="spacing" textLength="88" x="538" y="186.9102">ControllerVisitor</text><line style="stroke:#A80036;stroke-width:1.5;" x1="510" x2="628" y1="198" y2="198"/><line style="stroke:#A80036;stroke-width:1.5;" x1="510" x2="628" y1="206" y2="206"/><!--MD5=[42fa18dda7351a0ae87d9497de925436]
class Logic--><rect codeLine="26" fill="#FEFECE" filter="url(#f126ssz3ofn5vb)" height="48" id="Logic" style="stroke:#A80036;stroke-width:1.5;" width="62" x="1016" y="166"/><ellipse cx="1031" cy="182" fill="#ADD1B2" rx="11" ry="11" style="stroke:#A80036;stroke-width:1.0;"/><path d="M1033,178.5 Q1033.2031,178 1033.4375,177.75 Q1033.6719,177.5 1033.9375,177.5 Q1034.4063,177.5 1034.7031,177.7813 Q1035,178.0625 1035,178.7188 L1035,180.2813 Q1035,180.9375 1034.7188,181.2188 Q1034.4375,181.5 1034,181.5 Q1033.6094,181.5 1033.3594,181.3281 Q1033.1094,181.1563 1033,180.7031 Q1032.9531,180.3906 1032.7813,180.2188 Q1032.4688,179.8906 1031.9063,179.7031 Q1031.3438,179.5 1030.7813,179.5 Q1030.0781,179.5 1029.4844,179.7813 Q1028.9063,180.0625 1028.4531,180.6875 Q1028,181.3125 1028,182.1719 L1028,183.0938 Q1028,184.125 1028.8438,184.8125 Q1029.6875,185.5 1031.1875,185.5 Q1032.0781,185.5 1032.7031,185.2969 Q1033.0625,185.1875 1033.4688,184.8281 Q1033.7344,184.625 1033.875,184.5625 Q1034.0156,184.5 1034.1875,184.5 Q1034.5156,184.5 1034.75,184.7656 Q1035,185.0156 1035,185.375 Q1035,185.7188 1034.6563,186.125 Q1034.1563,186.7188 1033.3594,187.0469 Q1032.3125,187.5 1031.0313,187.5 Q1029.5313,187.5 1028.3281,186.9063 Q1027.3594,186.4375 1026.6719,185.4219 Q1026,184.4063 1026,183.2031 L1026,182.1094 Q1026,180.8594 1026.5938,179.7656 Q1027.2031,178.6719 1028.25,178.0938 Q1029.3125,177.5 1030.5,177.5 Q1031.2188,177.5 1031.8438,177.75 Q1032.4688,178 1033,178.5 Z " fill="#000000"/><text fill="#000000" font-family="sans-serif" font-size="12" lengthAdjust="spacing" textLength="30" x="1045" y="186.9102">Logic</text><line style="stroke:#A80036;stroke-width:1.5;" x1="1017" x2="1077" y1="198" y2="198"/><line style="stroke:#A80036;stroke-width:1.5;" x1="1017" x2="1077" y1="206" y2="206"/><!--MD5=[5a5a8b3a661705821451d8f0afdb3b5f]
class Secret--><rect codeLine="27" fill="#FEFECE" filter="url(#f126ssz3ofn5vb)" height="48" id="Secret" style="stroke:#A80036;stroke-width:1.5;" width="67" x="1128.5" y="382"/><ellipse cx="1143.5" cy="398" fill="#ADD1B2" rx="11" ry="11" style="stroke:#A80036;stroke-width:1.0;"/><path d="M1145.5,394.5 Q1145.7031,394 1145.9375,393.75 Q1146.1719,393.5 1146.4375,393.5 Q1146.9063,393.5 1147.2031,393.7813 Q1147.5,394.0625 1147.5,394.7188 L1147.5,396.2813 Q1147.5,396.9375 1147.2188,397.2188 Q1146.9375,397.5 1146.5,397.5 Q1146.1094,397.5 1145.8594,397.3281 Q1145.6094,397.1563 1145.5,396.7031 Q1145.4531,396.3906 1145.2813,396.2188 Q1144.9688,395.8906 1144.4063,395.7031 Q1143.8438,395.5 1143.2813,395.5 Q1142.5781,395.5 1141.9844,395.7813 Q1141.4063,396.0625 1140.9531,396.6875 Q1140.5,397.3125 1140.5,398.1719 L1140.5,399.0938 Q1140.5,400.125 1141.3438,400.8125 Q1142.1875,401.5 1143.6875,401.5 Q1144.5781,401.5 1145.2031,401.2969 Q1145.5625,401.1875 1145.9688,400.8281 Q1146.2344,400.625 1146.375,400.5625 Q1146.5156,400.5 1146.6875,400.5 Q1147.0156,400.5 1147.25,400.7656 Q1147.5,401.0156 1147.5,401.375 Q1147.5,401.7188 1147.1563,402.125 Q1146.6563,402.7188 1145.8594,403.0469 Q1144.8125,403.5 1143.5313,403.5 Q1142.0313,403.5 1140.8281,402.9063 Q1139.8594,402.4375 1139.1719,401.4219 Q1138.5,400.4063 1138.5,399.2031 L1138.5,398.1094 Q1138.5,396.8594 1139.0938,395.7656 Q1139.7031,394.6719 1140.75,394.0938 Q1141.8125,393.5 1143,393.5 Q1143.7188,393.5 1144.3438,393.75 Q1144.9688,394 1145.5,394.5 Z " fill="#000000"/><text fill="#000000" font-family="sans-serif" font-size="12" lengthAdjust="spacing" textLength="35" x="1157.5" y="402.9102">Secret</text><line style="stroke:#A80036;stroke-width:1.5;" x1="1129.5" x2="1194.5" y1="414" y2="414"/><line style="stroke:#A80036;stroke-width:1.5;" x1="1129.5" x2="1194.5" y1="422" y2="422"/><!--MD5=[07513b2cfa2016c46090541be20532fe]
class Word--><rect codeLine="28" fill="#FEFECE" filter="url(#f126ssz3ofn5vb)" height="48" id="Word" style="stroke:#A80036;stroke-width:1.5;" width="61" x="1131.5" y="490"/><ellipse cx="1146.5" cy="506" fill="#ADD1B2" rx="11" ry="11" style="stroke:#A80036;stroke-width:1.0;"/><path d="M1148.5,502.5 Q1148.7031,502 1148.9375,501.75 Q1149.1719,501.5 1149.4375,501.5 Q1149.9063,501.5 1150.2031,501.7813 Q1150.5,502.0625 1150.5,502.7188 L1150.5,504.2813 Q1150.5,504.9375 1150.2188,505.2188 Q1149.9375,505.5 1149.5,505.5 Q1149.1094,505.5 1148.8594,505.3281 Q1148.6094,505.1563 1148.5,504.7031 Q1148.4531,504.3906 1148.2813,504.2188 Q1147.9688,503.8906 1147.4063,503.7031 Q1146.8438,503.5 1146.2813,503.5 Q1145.5781,503.5 1144.9844,503.7813 Q1144.4063,504.0625 1143.9531,504.6875 Q1143.5,505.3125 1143.5,506.1719 L1143.5,507.0938 Q1143.5,508.125 1144.3438,508.8125 Q1145.1875,509.5 1146.6875,509.5 Q1147.5781,509.5 1148.2031,509.2969 Q1148.5625,509.1875 1148.9688,508.8281 Q1149.2344,508.625 1149.375,508.5625 Q1149.5156,508.5 1149.6875,508.5 Q1150.0156,508.5 1150.25,508.7656 Q1150.5,509.0156 1150.5,509.375 Q1150.5,509.7188 1150.1563,510.125 Q1149.6563,510.7188 1148.8594,511.0469 Q1147.8125,511.5 1146.5313,511.5 Q1145.0313,511.5 1143.8281,510.9063 Q1142.8594,510.4375 1142.1719,509.4219 Q1141.5,508.4063 1141.5,507.2031 L1141.5,506.1094 Q1141.5,504.8594 1142.0938,503.7656 Q1142.7031,502.6719 1143.75,502.0938 Q1144.8125,501.5 1146,501.5 Q1146.7188,501.5 1147.3438,501.75 Q1147.9688,502 1148.5,502.5 Z " fill="#000000"/><text fill="#000000" font-family="sans-serif" font-size="12" lengthAdjust="spacing" textLength="29" x="1160.5" y="510.9102">Word</text><line style="stroke:#A80036;stroke-width:1.5;" x1="1132.5" x2="1191.5" y1="522" y2="522"/><line style="stroke:#A80036;stroke-width:1.5;" x1="1132.5" x2="1191.5" y1="530" y2="530"/><!--MD5=[7dc9f4e9588c839c0e53a881b84874c2]
class HangedPart--><rect codeLine="29" fill="#FEFECE" filter="url(#f126ssz3ofn5vb)" height="48" id="HangedPart" style="stroke:#A80036;stroke-width:1.5;" width="98" x="998" y="490"/><ellipse cx="1013" cy="506" fill="#EB937F" rx="11" ry="11" style="stroke:#A80036;stroke-width:1.0;"/><path d="M1011.5,507 L1011.5,509 L1015.5,509 L1015.5,508 L1015.5,507.5156 L1016.125,507 L1016.5,507 L1016.875,507 L1017.5,507.5156 L1017.5,508 L1017.5,511 L1009.5,511 L1009.0156,511 L1008.5,510.375 L1008.5,510 L1008.5,509.625 L1009.0156,509 L1009.5,509 L1009.5,509 L1009.5,503 L1009.5,503 L1009.0156,503 L1008.5,502.375 L1008.5,502 L1008.5,501.625 L1009.0156,501 L1009.5,501 L1017.5,501 L1017.5,504 L1017.5,504.4844 L1016.875,505 L1016.5,505 L1016.125,505 L1015.5,504.4844 L1015.5,504 L1015.5,503 L1011.5,503 L1011.5,505 L1012.5,505 L1012.5,504.5156 L1012.5,504.5156 L1013.125,504 L1013.5,504 L1013.875,504 L1014.5,504.5156 L1014.5,505 L1014.5,507 L1014.5,507.4844 L1013.875,508 L1013.875,508 L1013.5,508 L1013.125,508 L1012.5,507.4844 L1012.5,507.4844 L1012.5,507 L1011.5,507 Z " fill="#000000"/><text fill="#000000" font-family="sans-serif" font-size="12" lengthAdjust="spacing" textLength="66" x="1027" y="510.9102">HangedPart</text><line style="stroke:#A80036;stroke-width:1.5;" x1="999" x2="1095" y1="522" y2="522"/><line style="stroke:#A80036;stroke-width:1.5;" x1="999" x2="1095" y1="530" y2="530"/><!--MD5=[dd91eae41778c45e12552e5329e240e8]
class Turn--><rect codeLine="30" fill="#FEFECE" filter="url(#f126ssz3ofn5vb)" height="48" id="Turn" style="stroke:#A80036;stroke-width:1.5;" width="57" x="1018.5" y="274"/><ellipse cx="1033.5" cy="290" fill="#ADD1B2" rx="11" ry="11" style="stroke:#A80036;stroke-width:1.0;"/><path d="M1035.5,286.5 Q1035.7031,286 1035.9375,285.75 Q1036.1719,285.5 1036.4375,285.5 Q1036.9063,285.5 1037.2031,285.7813 Q1037.5,286.0625 1037.5,286.7188 L1037.5,288.2813 Q1037.5,288.9375 1037.2188,289.2188 Q1036.9375,289.5 1036.5,289.5 Q1036.1094,289.5 1035.8594,289.3281 Q1035.6094,289.1563 1035.5,288.7031 Q1035.4531,288.3906 1035.2813,288.2188 Q1034.9688,287.8906 1034.4063,287.7031 Q1033.8438,287.5 1033.2813,287.5 Q1032.5781,287.5 1031.9844,287.7813 Q1031.4063,288.0625 1030.9531,288.6875 Q1030.5,289.3125 1030.5,290.1719 L1030.5,291.0938 Q1030.5,292.125 1031.3438,292.8125 Q1032.1875,293.5 1033.6875,293.5 Q1034.5781,293.5 1035.2031,293.2969 Q1035.5625,293.1875 1035.9688,292.8281 Q1036.2344,292.625 1036.375,292.5625 Q1036.5156,292.5 1036.6875,292.5 Q1037.0156,292.5 1037.25,292.7656 Q1037.5,293.0156 1037.5,293.375 Q1037.5,293.7188 1037.1563,294.125 Q1036.6563,294.7188 1035.8594,295.0469 Q1034.8125,295.5 1033.5313,295.5 Q1032.0313,295.5 1030.8281,294.9063 Q1029.8594,294.4375 1029.1719,293.4219 Q1028.5,292.4063 1028.5,291.2031 L1028.5,290.1094 Q1028.5,288.8594 1029.0938,287.7656 Q1029.7031,286.6719 1030.75,286.0938 Q1031.8125,285.5 1033,285.5 Q1033.7188,285.5 1034.3438,285.75 Q1034.9688,286 1035.5,286.5 Z " fill="#000000"/><text fill="#000000" font-family="sans-serif" font-size="12" lengthAdjust="spacing" textLength="25" x="1047.5" y="294.9102">Turn</text><line style="stroke:#A80036;stroke-width:1.5;" x1="1019.5" x2="1074.5" y1="306" y2="306"/><line style="stroke:#A80036;stroke-width:1.5;" x1="1019.5" x2="1074.5" y1="314" y2="314"/><!--MD5=[2cb47ba637a0d19583e6199456f6ad0b]
class Player--><rect codeLine="31" fill="#FEFECE" filter="url(#f126ssz3ofn5vb)" height="48" id="Player" style="stroke:#A80036;stroke-width:1.5;" width="66" x="1014" y="382"/><ellipse cx="1029" cy="398" fill="#ADD1B2" rx="11" ry="11" style="stroke:#A80036;stroke-width:1.0;"/><path d="M1031,394.5 Q1031.2031,394 1031.4375,393.75 Q1031.6719,393.5 1031.9375,393.5 Q1032.4063,393.5 1032.7031,393.7813 Q1033,394.0625 1033,394.7188 L1033,396.2813 Q1033,396.9375 1032.7188,397.2188 Q1032.4375,397.5 1032,397.5 Q1031.6094,397.5 1031.3594,397.3281 Q1031.1094,397.1563 1031,396.7031 Q1030.9531,396.3906 1030.7813,396.2188 Q1030.4688,395.8906 1029.9063,395.7031 Q1029.3438,395.5 1028.7813,395.5 Q1028.0781,395.5 1027.4844,395.7813 Q1026.9063,396.0625 1026.4531,396.6875 Q1026,397.3125 1026,398.1719 L1026,399.0938 Q1026,400.125 1026.8438,400.8125 Q1027.6875,401.5 1029.1875,401.5 Q1030.0781,401.5 1030.7031,401.2969 Q1031.0625,401.1875 1031.4688,400.8281 Q1031.7344,400.625 1031.875,400.5625 Q1032.0156,400.5 1032.1875,400.5 Q1032.5156,400.5 1032.75,400.7656 Q1033,401.0156 1033,401.375 Q1033,401.7188 1032.6563,402.125 Q1032.1563,402.7188 1031.3594,403.0469 Q1030.3125,403.5 1029.0313,403.5 Q1027.5313,403.5 1026.3281,402.9063 Q1025.3594,402.4375 1024.6719,401.4219 Q1024,400.4063 1024,399.2031 L1024,398.1094 Q1024,396.8594 1024.5938,395.7656 Q1025.2031,394.6719 1026.25,394.0938 Q1027.3125,393.5 1028.5,393.5 Q1029.2188,393.5 1029.8438,393.75 Q1030.4688,394 1031,394.5 Z " fill="#000000"/><text fill="#000000" font-family="sans-serif" font-size="12" lengthAdjust="spacing" textLength="34" x="1043" y="402.9102">Player</text><line style="stroke:#A80036;stroke-width:1.5;" x1="1015" x2="1079" y1="414" y2="414"/><line style="stroke:#A80036;stroke-width:1.5;" x1="1015" x2="1079" y1="422" y2="422"/><!--MD5=[b6dcce5e5ef3c84b0b048d11301373dd]
class Game--><rect codeLine="32" fill="#FEFECE" filter="url(#f126ssz3ofn5vb)" height="48" id="Game" style="stroke:#A80036;stroke-width:1.5;" width="66" x="1129" y="274"/><ellipse cx="1144" cy="290" fill="#ADD1B2" rx="11" ry="11" style="stroke:#A80036;stroke-width:1.0;"/><path d="M1146,286.5 Q1146.2031,286 1146.4375,285.75 Q1146.6719,285.5 1146.9375,285.5 Q1147.4063,285.5 1147.7031,285.7813 Q1148,286.0625 1148,286.7188 L1148,288.2813 Q1148,288.9375 1147.7188,289.2188 Q1147.4375,289.5 1147,289.5 Q1146.6094,289.5 1146.3594,289.3281 Q1146.1094,289.1563 1146,288.7031 Q1145.9531,288.3906 1145.7813,288.2188 Q1145.4688,287.8906 1144.9063,287.7031 Q1144.3438,287.5 1143.7813,287.5 Q1143.0781,287.5 1142.4844,287.7813 Q1141.9063,288.0625 1141.4531,288.6875 Q1141,289.3125 1141,290.1719 L1141,291.0938 Q1141,292.125 1141.8438,292.8125 Q1142.6875,293.5 1144.1875,293.5 Q1145.0781,293.5 1145.7031,293.2969 Q1146.0625,293.1875 1146.4688,292.8281 Q1146.7344,292.625 1146.875,292.5625 Q1147.0156,292.5 1147.1875,292.5 Q1147.5156,292.5 1147.75,292.7656 Q1148,293.0156 1148,293.375 Q1148,293.7188 1147.6563,294.125 Q1147.1563,294.7188 1146.3594,295.0469 Q1145.3125,295.5 1144.0313,295.5 Q1142.5313,295.5 1141.3281,294.9063 Q1140.3594,294.4375 1139.6719,293.4219 Q1139,292.4063 1139,291.2031 L1139,290.1094 Q1139,288.8594 1139.5938,287.7656 Q1140.2031,286.6719 1141.25,286.0938 Q1142.3125,285.5 1143.5,285.5 Q1144.2188,285.5 1144.8438,285.75 Q1145.4688,286 1146,286.5 Z " fill="#000000"/><text fill="#000000" font-family="sans-serif" font-size="12" lengthAdjust="spacing" textLength="34" x="1158" y="294.9102">Game</text><line style="stroke:#A80036;stroke-width:1.5;" x1="1130" x2="1194" y1="306" y2="306"/><line style="stroke:#A80036;stroke-width:1.5;" x1="1130" x2="1194" y1="314" y2="314"/><!--MD5=[60d6b92408f98aed8df94d5c6e04aa63]
class State--><rect codeLine="33" fill="#FEFECE" filter="url(#f126ssz3ofn5vb)" height="48" id="State" style="stroke:#A80036;stroke-width:1.5;" width="60" x="1237" y="382"/><ellipse cx="1252" cy="398" fill="#ADD1B2" rx="11" ry="11" style="stroke:#A80036;stroke-width:1.0;"/><path d="M1254,394.5 Q1254.2031,394 1254.4375,393.75 Q1254.6719,393.5 1254.9375,393.5 Q1255.4063,393.5 1255.7031,393.7813 Q1256,394.0625 1256,394.7188 L1256,396.2813 Q1256,396.9375 1255.7188,397.2188 Q1255.4375,397.5 1255,397.5 Q1254.6094,397.5 1254.3594,397.3281 Q1254.1094,397.1563 1254,396.7031 Q1253.9531,396.3906 1253.7813,396.2188 Q1253.4688,395.8906 1252.9063,395.7031 Q1252.3438,395.5 1251.7813,395.5 Q1251.0781,395.5 1250.4844,395.7813 Q1249.9063,396.0625 1249.4531,396.6875 Q1249,397.3125 1249,398.1719 L1249,399.0938 Q1249,400.125 1249.8438,400.8125 Q1250.6875,401.5 1252.1875,401.5 Q1253.0781,401.5 1253.7031,401.2969 Q1254.0625,401.1875 1254.4688,400.8281 Q1254.7344,400.625 1254.875,400.5625 Q1255.0156,400.5 1255.1875,400.5 Q1255.5156,400.5 1255.75,400.7656 Q1256,401.0156 1256,401.375 Q1256,401.7188 1255.6563,402.125 Q1255.1563,402.7188 1254.3594,403.0469 Q1253.3125,403.5 1252.0313,403.5 Q1250.5313,403.5 1249.3281,402.9063 Q1248.3594,402.4375 1247.6719,401.4219 Q1247,400.4063 1247,399.2031 L1247,398.1094 Q1247,396.8594 1247.5938,395.7656 Q1248.2031,394.6719 1249.25,394.0938 Q1250.3125,393.5 1251.5,393.5 Q1252.2188,393.5 1252.8438,393.75 Q1253.4688,394 1254,394.5 Z " fill="#000000"/><text fill="#000000" font-family="sans-serif" font-size="12" lengthAdjust="spacing" textLength="28" x="1266" y="402.9102">State</text><line style="stroke:#A80036;stroke-width:1.5;" x1="1238" x2="1296" y1="414" y2="414"/><line style="stroke:#A80036;stroke-width:1.5;" x1="1238" x2="1296" y1="422" y2="422"/><!--MD5=[167506e288131cdf3986fedef83acd94]
class StateValue--><rect codeLine="34" fill="#FEFECE" filter="url(#f126ssz3ofn5vb)" height="48" id="StateValue" style="stroke:#A80036;stroke-width:1.5;" width="91" x="1227.5" y="490"/><ellipse cx="1242.5" cy="506" fill="#EB937F" rx="11" ry="11" style="stroke:#A80036;stroke-width:1.0;"/><path d="M1241,507 L1241,509 L1245,509 L1245,508 L1245,507.5156 L1245.625,507 L1246,507 L1246.375,507 L1247,507.5156 L1247,508 L1247,511 L1239,511 L1238.5156,511 L1238,510.375 L1238,510 L1238,509.625 L1238.5156,509 L1239,509 L1239,509 L1239,503 L1239,503 L1238.5156,503 L1238,502.375 L1238,502 L1238,501.625 L1238.5156,501 L1239,501 L1247,501 L1247,504 L1247,504.4844 L1246.375,505 L1246,505 L1245.625,505 L1245,504.4844 L1245,504 L1245,503 L1241,503 L1241,505 L1242,505 L1242,504.5156 L1242,504.5156 L1242.625,504 L1243,504 L1243.375,504 L1244,504.5156 L1244,505 L1244,507 L1244,507.4844 L1243.375,508 L1243.375,508 L1243,508 L1242.625,508 L1242,507.4844 L1242,507.4844 L1242,507 L1241,507 Z " fill="#000000"/><text fill="#000000" font-family="sans-serif" font-size="12" lengthAdjust="spacing" textLength="59" x="1256.5" y="510.9102">StateValue</text><line style="stroke:#A80036;stroke-width:1.5;" x1="1228.5" x2="1317.5" y1="522" y2="522"/><line style="stroke:#A80036;stroke-width:1.5;" x1="1228.5" x2="1317.5" y1="530" y2="530"/><!--MD5=[6741a2aa1692821dc3ed1fc83dbb2896]
link Logic to Game--><path codeLine="37" d="M1084.0722,222.0531 C1084.0722,222.0531 1090.4,227.64 1093,230 C1105.15,241.02 1118.13,253.45 1129.52,264.58 " fill="none" id="Logic-Game" style="stroke:#A80036;stroke-width:1.0;"/><polygon fill="#A80036" points="1139.06,273.96,1135.446,264.7982,1135.4944,270.4548,1129.8377,270.5032,1139.06,273.96" style="stroke:#A80036;stroke-width:1.0;"/><line style="stroke:#A80036;stroke-width:1.0;" x1="1135.4944" x2="1129.79" y1="270.4548" y2="264.845"/><polygon fill="#A80036" points="1074.99,214.21,1076.9167,221.1589,1084.0722,222.0531,1082.1455,215.1042,1074.99,214.21" style="stroke:#A80036;stroke-width:1.0;"/><!--MD5=[98c712d6c16a4ce2e31b2930753001e2]
link Hanged to View--><path codeLine="39" d="M663.8852,74.8133 C663.8852,74.8133 543.93,98.61 485,122 C458.26,132.61 430.23,148.48 408.31,162.11 " fill="none" id="Hanged-View" style="stroke:#A80036;stroke-width:1.0;"/><polygon fill="#A80036" points="397.12,169.2,406.8628,167.7584,401.3426,166.5224,402.5786,161.0022,397.12,169.2" style="stroke:#A80036;stroke-width:1.0;"/><line style="stroke:#A80036;stroke-width:1.0;" x1="401.3426" x2="408.105" y1="166.5224" y2="162.24"/><polygon fill="#A80036" points="675.71,72.77,669.1165,69.8501,663.8852,74.8133,670.4787,77.7332,675.71,72.77" style="stroke:#A80036;stroke-width:1.0;"/><!--MD5=[34ad7eb222c81a08ccc175dd3309ae0c]
link Hanged to Logic--><path codeLine="40" d="M764.3021,72.0395 C764.3021,72.0395 895.24,92.95 958,122 C977.39,130.98 996.63,144.69 1012.23,157.37 " fill="none" id="Hanged-Logic" style="stroke:#A80036;stroke-width:1.0;"/><polygon fill="#A80036" points="1022.4,165.92,1018.0778,157.0702,1018.5702,162.7056,1012.9348,163.1979,1022.4,165.92" style="stroke:#A80036;stroke-width:1.0;"/><line style="stroke:#A80036;stroke-width:1.0;" x1="1018.5702" x2="1012.445" y1="162.7056" y2="157.555"/><polygon fill="#A80036" points="752.39,70.59,757.8629,75.2855,764.3021,72.0395,758.8292,67.344,752.39,70.59" style="stroke:#A80036;stroke-width:1.0;"/><!--MD5=[f3529716a8974626251ce6317d1f6267]
link Hanged to Controller--><path codeLine="41" d="M714,90.23 C714,110.25 714,139.2 714,160.59 " fill="none" id="Hanged-to-Controller" style="stroke:#A80036;stroke-width:1.0;"/><polygon fill="#A80036" points="714,165.85,718,156.85,714,160.85,710,156.85,714,165.85" style="stroke:#A80036;stroke-width:1.0;"/><!--MD5=[a63dd7f30baaeb88fc8dd2ca46e0cc37]
reverse link View to ConsoleView--><path codeLine="43" d="M334.1,229.23 C320.91,244.1 306.23,260.65 294.68,273.68 " fill="none" id="View-backto-ConsoleView" style="stroke:#A80036;stroke-width:1.0;"/><polygon fill="none" points="329.1,224.32,347.6,214,339.57,233.61,329.1,224.32" style="stroke:#A80036;stroke-width:1.0;"/><!--MD5=[2b3d48df6f113d7f7650f0ea2726d5e1]
link ConsoleView to StartView--><path codeLine="44" d="M225.5259,328.1836 C225.5259,328.1836 171.71,360.61 147.76,375.03 " fill="none" id="ConsoleView-StartView" style="stroke:#A80036;stroke-width:1.0;"/><polygon fill="#A80036" points="136.42,381.86,146.1936,380.6448,140.7036,379.2811,142.0673,373.791,136.42,381.86" style="stroke:#A80036;stroke-width:1.0;"/><line style="stroke:#A80036;stroke-width:1.0;" x1="140.7036" x2="147.555" y1="379.2811" y2="375.155"/><polygon fill="#A80036" points="235.81,322,228.6067,321.6638,225.5259,328.1836,232.7292,328.5199,235.81,322" style="stroke:#A80036;stroke-width:1.0;"/><!--MD5=[009b3bb15e28457eebaf81855c3c56af]
link ConsoleView to ProposeView--><path codeLine="45" d="M258.9349,332.9695 C258.9349,332.9695 247.73,358.25 242.61,369.78 " fill="none" id="ConsoleView-ProposeView" style="stroke:#A80036;stroke-width:1.0;"/><polygon fill="#A80036" points="237.34,381.68,244.6453,375.0745,239.3671,377.1094,237.3323,371.8311,237.34,381.68" style="stroke:#A80036;stroke-width:1.0;"/><line style="stroke:#A80036;stroke-width:1.0;" x1="239.3671" x2="242.61" y1="377.1094" y2="369.795"/><polygon fill="#A80036" points="263.8,322,257.7109,325.8631,258.9349,332.9695,265.024,329.1065,263.8,322" style="stroke:#A80036;stroke-width:1.0;"/><!--MD5=[fa8503f33b2b65994679c53598b796d7]
link ConsoleView to ResumeView--><path codeLine="46" d="M302.3625,330.9776 C302.3625,330.9776 327.44,359.26 338.69,371.95 " fill="none" id="ConsoleView-ResumeView" style="stroke:#A80036;stroke-width:1.0;"/><polygon fill="#A80036" points="347.32,381.68,344.3406,372.2926,344.0023,377.9393,338.3555,377.601,347.32,381.68" style="stroke:#A80036;stroke-width:1.0;"/><line style="stroke:#A80036;stroke-width:1.0;" x1="344.0023" x2="338.695" y1="377.9393" y2="371.95"/><polygon fill="#A80036" points="294.4,322,295.3887,329.143,302.3625,330.9776,301.3738,323.8346,294.4,322" style="stroke:#A80036;stroke-width:1.0;"/><!--MD5=[354d6deacb49030493b7fd8cb23ebdce]
reverse link Controller to StartController--><path codeLine="48" d="M652.62,216.78 C644.8,220.85 637.07,225.28 630,230 C611.11,242.61 592.3,260.03 578.5,273.94 " fill="none" id="Controller-backto-StartController" style="stroke:#A80036;stroke-width:1.0;"/><polygon fill="none" points="649.71,210.42,670.76,208.01,655.81,223.02,649.71,210.42" style="stroke:#A80036;stroke-width:1.0;"/><!--MD5=[f447e35400d120693a19fd34f2d8422e]
reverse link Controller to ProposeController--><path codeLine="49" d="M714,234.02 C714,247.58 714,262.04 714,273.68 " fill="none" id="Controller-backto-ProposeController" style="stroke:#A80036;stroke-width:1.0;"/><polygon fill="none" points="707,234,714,214,721,234,707,234" style="stroke:#A80036;stroke-width:1.0;"/><!--MD5=[0093c52fe06068e87ede88549f960621]
reverse link Controller to RestartController--><path codeLine="50" d="M775.72,217.42 C783.39,221.35 790.99,225.57 798,230 C818.22,242.76 838.96,260 854.39,273.8 " fill="none" id="Controller-backto-RestartController" style="stroke:#A80036;stroke-width:1.0;"/><polygon fill="none" points="772.39,223.59,757.42,208.59,778.47,210.98,772.39,223.59" style="stroke:#A80036;stroke-width:1.0;"/><!--MD5=[1839f461b64dd62341b819acde30d7ff]
link Logic to Turn--><path codeLine="53" d="M1047,226 C1047,226 1047,249.68 1047,260.36 " fill="none" id="Logic-Turn" style="stroke:#A80036;stroke-width:1.0;"/><polygon fill="#A80036" points="1047,273.68,1051,264.68,1047,268.68,1043,264.68,1047,273.68" style="stroke:#A80036;stroke-width:1.0;"/><line style="stroke:#A80036;stroke-width:1.0;" x1="1047" x2="1047" y1="268.68" y2="260.68"/><polygon fill="#A80036" points="1047,214,1043,220,1047,226,1051,220,1047,214" style="stroke:#A80036;stroke-width:1.0;"/><!--MD5=[f6bf945722e30f83fc6f64ad9c21e270]
link Game to State--><path codeLine="54" d="M1193.2323,330.5182 C1193.2323,330.5182 1221.75,359.32 1234.54,372.23 " fill="none" id="Game-State" style="stroke:#A80036;stroke-width:1.0;"/><polygon fill="#A80036" points="1243.9,381.68,1240.4074,372.4712,1240.381,378.128,1234.7242,378.1016,1243.9,381.68" style="stroke:#A80036;stroke-width:1.0;"/><line style="stroke:#A80036;stroke-width:1.0;" x1="1240.381" x2="1234.75" y1="378.128" y2="372.44"/><polygon fill="#FFFFFF" points="1184.78,322,1186.1667,329.0765,1193.2323,330.5182,1191.8455,323.4417,1184.78,322" style="stroke:#A80036;stroke-width:1.0;"/><!--MD5=[04ee8f1a549f099cd30b455604f649af]
link State to StateValue--><path codeLine="55" d="M1268.9853,441.9804 C1268.9853,441.9804 1270.32,465.68 1270.93,476.36 " fill="none" id="State-StateValue" style="stroke:#A80036;stroke-width:1.0;"/><polygon fill="#A80036" points="1271.68,489.68,1275.1595,480.4662,1271.3944,484.6882,1267.1725,480.9231,1271.68,489.68" style="stroke:#A80036;stroke-width:1.0;"/><line style="stroke:#A80036;stroke-width:1.0;" x1="1271.3944" x2="1270.945" y1="484.6882" y2="476.7"/><polygon fill="#FFFFFF" points="1268.3,430,1264.6492,436.2187,1268.9853,441.9804,1272.6361,435.7618,1268.3,430" style="stroke:#A80036;stroke-width:1.0;"/><!--MD5=[d81713d91ad05be3b975338c4816ee0b]
link Turn to Player--><path codeLine="57" d="M1047,334 C1047,334 1047,357.68 1047,368.36 " fill="none" id="Turn-Player" style="stroke:#A80036;stroke-width:1.0;"/><polygon fill="#A80036" points="1047,381.68,1051,372.68,1047,376.68,1043,372.68,1047,381.68" style="stroke:#A80036;stroke-width:1.0;"/><line style="stroke:#A80036;stroke-width:1.0;" x1="1047" x2="1047" y1="376.68" y2="368.68"/><polygon fill="#A80036" points="1047,322,1043,328,1047,334,1051,328,1047,322" style="stroke:#A80036;stroke-width:1.0;"/><!--MD5=[13d803242f4ca1b46cacbcbeaa7a0f51]
link Player to HangedPart--><path codeLine="58" d="M1047,430 C1047,446 1047,467.45 1047,484.53 " fill="none" id="Player-to-HangedPart" style="stroke:#A80036;stroke-width:1.0;"/><polygon fill="#A80036" points="1047,489.68,1051,480.68,1047,484.68,1043,480.68,1047,489.68" style="stroke:#A80036;stroke-width:1.0;"/><!--MD5=[d479d4f4c68e65be361623e7e9cae8c8]
link Game to Secret--><path codeLine="60" d="M1162,322 C1162,338 1162,359.45 1162,376.53 " fill="none" id="Game-to-Secret" style="stroke:#A80036;stroke-width:1.0;"/><polygon fill="#A80036" points="1162,381.68,1166,372.68,1162,376.68,1158,372.68,1162,381.68" style="stroke:#A80036;stroke-width:1.0;"/><!--MD5=[0c9a1e5626bad7371a717f8ab43a9499]
link Secret to Word--><path codeLine="62" d="M1162,430 C1162,446 1162,467.45 1162,484.53 " fill="none" id="Secret-to-Word" style="stroke:#A80036;stroke-width:1.0;"/><polygon fill="#A80036" points="1162,489.68,1166,480.68,1162,484.68,1158,480.68,1162,489.68" style="stroke:#A80036;stroke-width:1.0;"/><!--MD5=[67b268a6f962ca8470383c38e440027a]
@startuml
package "main" {
class Hanged
}

package "views"{
abstract class View
    package "console" {
        class ConsoleView
        class StartView
        class ProposeView
        class ResumeView
    }
}

package "controllers"{
abstract class Controller
class StartController
class ProposeController
class RestartController
interface ControllerVisitor

}


package "models" {
class Logic
class Secret
class Word
enum HangedPart
class Turn
class Player
class Game
class State
enum StateValue
}

Logic *- -> Game

Hanged *- -> View
Hanged *- -> Logic
Hanged - -> Controller

View <|- - ConsoleView
ConsoleView *- -> StartView
ConsoleView *- -> ProposeView
ConsoleView *- -> ResumeView

Controller <|- - StartController
Controller <|- - ProposeController
Controller <|- - RestartController


Logic *- -> Turn
Game o- -> State
State o- -> StateValue

Turn *- -> Player
Player - -> HangedPart

Game - -> Secret

Secret - -> Word



@enduml

PlantUML version 1.2021.7(Sun May 23 14:40:07 CEST 2021)
(GPL source distribution)
Java Runtime: OpenJDK Runtime Environment
JVM: OpenJDK 64-Bit Server VM
Default Encoding: Cp1252
Language: es
Country: ES
--></g></svg>