<?xml version="1.0" encoding="UTF-8" standalone="no"?><svg xmlns="http://www.w3.org/2000/svg" xmlns:xlink="http://www.w3.org/1999/xlink" contentScriptType="application/ecmascript" contentStyleType="text/css" height="369px" preserveAspectRatio="none" style="width:699px;height:369px;background:#FFFFFF;" version="1.1" viewBox="0 0 699 369" width="699px" zoomAndPan="magnify"><defs><filter height="300%" id="fiyqz0kko82dn" width="300%" x="-1" y="-1"><feGaussianBlur result="blurOut" stdDeviation="2.0"/><feColorMatrix in="blurOut" result="blurOut2" type="matrix" values="0 0 0 0 0 0 0 0 0 0 0 0 0 0 0 0 0 0 .4 0"/><feOffset dx="4.0" dy="4.0" in="blurOut2" result="blurOut3"/><feBlend in="SourceGraphic" in2="blurOut3" mode="normal"/></filter></defs><g><!--MD5=[a70b0d373322012744ecc119c63f921b]
cluster main--><polygon fill="#FFFFFF" filter="url(#fiyqz0kko82dn)" points="270,6,309,6,316,29.6094,378,29.6094,378,106,270,106,270,6" style="stroke:#000000;stroke-width:1.5;"/><line style="stroke:#000000;stroke-width:1.5;" x1="270" x2="316" y1="29.6094" y2="29.6094"/><text fill="#000000" font-family="sans-serif" font-size="14" font-weight="bold" lengthAdjust="spacing" textLength="33" x="274" y="22.5332">main</text><!--MD5=[e2a75efa8a0f57c2afae8bf75386f79c]
cluster views--><polygon fill="#FFFFFF" filter="url(#fiyqz0kko82dn)" points="16,130,63,130,70,153.6094,317,153.6094,317,362,16,362,16,130" style="stroke:#000000;stroke-width:1.5;"/><line style="stroke:#000000;stroke-width:1.5;" x1="16" x2="70" y1="153.6094" y2="153.6094"/><text fill="#000000" font-family="sans-serif" font-size="14" font-weight="bold" lengthAdjust="spacing" textLength="41" x="20" y="146.5332">views</text><!--MD5=[4b7a55d430ce43d42ce9ebad9e6b4010]
cluster console--><polygon fill="#FFFFFF" filter="url(#fiyqz0kko82dn)" points="40,238,102,238,109,261.6094,293,261.6094,293,338,40,338,40,238" style="stroke:#000000;stroke-width:1.5;"/><line style="stroke:#000000;stroke-width:1.5;" x1="40" x2="109" y1="261.6094" y2="261.6094"/><text fill="#000000" font-family="sans-serif" font-size="14" font-weight="bold" lengthAdjust="spacing" textLength="56" x="44" y="254.5332">console</text><!--MD5=[f4e70ef68289585296b9045165e58692]
cluster controllers--><polygon fill="#FFFFFF" filter="url(#fiyqz0kko82dn)" points="341,130,424,130,431,153.6094,682,153.6094,682,338,341,338,341,130" style="stroke:#000000;stroke-width:1.5;"/><line style="stroke:#000000;stroke-width:1.5;" x1="341" x2="431" y1="153.6094" y2="153.6094"/><text fill="#000000" font-family="sans-serif" font-size="14" font-weight="bold" lengthAdjust="spacing" textLength="77" x="345" y="146.5332">controllers</text><!--MD5=[d7ec263f7daf4a6472ede7f2d3e0d6e7]
class Hanged--><rect codeLine="2" fill="#FEFECE" filter="url(#fiyqz0kko82dn)" height="48" id="Hanged" style="stroke:#A80036;stroke-width:1.5;" width="76" x="286" y="42"/><ellipse cx="301" cy="58" fill="#ADD1B2" rx="11" ry="11" style="stroke:#A80036;stroke-width:1.0;"/><path d="M303,54.5 Q303.2031,54 303.4375,53.75 Q303.6719,53.5 303.9375,53.5 Q304.4063,53.5 304.7031,53.7813 Q305,54.0625 305,54.7188 L305,56.2813 Q305,56.9375 304.7188,57.2188 Q304.4375,57.5 304,57.5 Q303.6094,57.5 303.3594,57.3281 Q303.1094,57.1563 303,56.7031 Q302.9531,56.3906 302.7813,56.2188 Q302.4688,55.8906 301.9063,55.7031 Q301.3438,55.5 300.7813,55.5 Q300.0781,55.5 299.4844,55.7813 Q298.9063,56.0625 298.4531,56.6875 Q298,57.3125 298,58.1719 L298,59.0938 Q298,60.125 298.8438,60.8125 Q299.6875,61.5 301.1875,61.5 Q302.0781,61.5 302.7031,61.2969 Q303.0625,61.1875 303.4688,60.8281 Q303.7344,60.625 303.875,60.5625 Q304.0156,60.5 304.1875,60.5 Q304.5156,60.5 304.75,60.7656 Q305,61.0156 305,61.375 Q305,61.7188 304.6563,62.125 Q304.1563,62.7188 303.3594,63.0469 Q302.3125,63.5 301.0313,63.5 Q299.5313,63.5 298.3281,62.9063 Q297.3594,62.4375 296.6719,61.4219 Q296,60.4063 296,59.2031 L296,58.1094 Q296,56.8594 296.5938,55.7656 Q297.2031,54.6719 298.25,54.0938 Q299.3125,53.5 300.5,53.5 Q301.2188,53.5 301.8438,53.75 Q302.4688,54 303,54.5 Z " fill="#000000"/><text fill="#000000" font-family="sans-serif" font-size="12" lengthAdjust="spacing" textLength="44" x="315" y="62.9102">Hanged</text><line style="stroke:#A80036;stroke-width:1.5;" x1="287" x2="361" y1="74" y2="74"/><line style="stroke:#A80036;stroke-width:1.5;" x1="287" x2="361" y1="82" y2="82"/><!--MD5=[c045e12321b83266d36d22b9096c24ea]
class View--><rect codeLine="6" fill="#FEFECE" filter="url(#fiyqz0kko82dn)" height="48" id="View" style="stroke:#A80036;stroke-width:1.5;" width="58" x="206" y="166"/><ellipse cx="221" cy="182" fill="#A9DCDF" rx="11" ry="11" style="stroke:#A80036;stroke-width:1.0;"/><path d="M222.75,183.5 L219.4531,183.5 L219.0156,184.5 L219.0156,184.5 L219.4844,184.5 L220,185.125 L220,185.5 L220,185.875 L219.4844,186.5 L219.0156,186.5 L217.125,186.5 L216.5156,186.5 L216,185.875 L216,185.5 L216,185.125 L216.5156,184.5 L217.125,184.5 L219.4375,178.5 L218.5625,178.5 L217.5156,178.5 L217,177.875 L217,177.5 L217,177.125 L217.5156,176.5 L218.5625,176.5 L222.2344,176.5 L224.9219,184.5 L225.4844,184.5 L225.4844,184.5 L226,185.125 L226,185.5 L226,185.875 L225.4844,186.5 L224.9219,186.5 L223.0313,186.5 L222.5156,186.5 L222,185.875 L222,185.5 L222,185.125 L222.5156,184.5 L223.0313,184.5 L223.0313,184.5 L222.75,183.5 Z M222.2031,181.5 L221,177.9219 L219.9688,181.5 L222.2031,181.5 Z " fill="#000000"/><text fill="#000000" font-family="sans-serif" font-size="12" font-style="italic" lengthAdjust="spacing" textLength="26" x="235" y="186.9102">View</text><line style="stroke:#A80036;stroke-width:1.5;" x1="207" x2="263" y1="198" y2="198"/><line style="stroke:#A80036;stroke-width:1.5;" x1="207" x2="263" y1="206" y2="206"/><!--MD5=[443c52daef265809fdf31be84fc8ae4a]
class StartView--><rect codeLine="8" fill="#FEFECE" filter="url(#fiyqz0kko82dn)" height="48" id="StartView" style="stroke:#A80036;stroke-width:1.5;" width="83" x="193.5" y="274"/><ellipse cx="208.5" cy="290" fill="#ADD1B2" rx="11" ry="11" style="stroke:#A80036;stroke-width:1.0;"/><path d="M210.5,286.5 Q210.7031,286 210.9375,285.75 Q211.1719,285.5 211.4375,285.5 Q211.9063,285.5 212.2031,285.7813 Q212.5,286.0625 212.5,286.7188 L212.5,288.2813 Q212.5,288.9375 212.2188,289.2188 Q211.9375,289.5 211.5,289.5 Q211.1094,289.5 210.8594,289.3281 Q210.6094,289.1563 210.5,288.7031 Q210.4531,288.3906 210.2813,288.2188 Q209.9688,287.8906 209.4063,287.7031 Q208.8438,287.5 208.2813,287.5 Q207.5781,287.5 206.9844,287.7813 Q206.4063,288.0625 205.9531,288.6875 Q205.5,289.3125 205.5,290.1719 L205.5,291.0938 Q205.5,292.125 206.3438,292.8125 Q207.1875,293.5 208.6875,293.5 Q209.5781,293.5 210.2031,293.2969 Q210.5625,293.1875 210.9688,292.8281 Q211.2344,292.625 211.375,292.5625 Q211.5156,292.5 211.6875,292.5 Q212.0156,292.5 212.25,292.7656 Q212.5,293.0156 212.5,293.375 Q212.5,293.7188 212.1563,294.125 Q211.6563,294.7188 210.8594,295.0469 Q209.8125,295.5 208.5313,295.5 Q207.0313,295.5 205.8281,294.9063 Q204.8594,294.4375 204.1719,293.4219 Q203.5,292.4063 203.5,291.2031 L203.5,290.1094 Q203.5,288.8594 204.0938,287.7656 Q204.7031,286.6719 205.75,286.0938 Q206.8125,285.5 208,285.5 Q208.7188,285.5 209.3438,285.75 Q209.9688,286 210.5,286.5 Z " fill="#000000"/><text fill="#000000" font-family="sans-serif" font-size="12" lengthAdjust="spacing" textLength="51" x="222.5" y="294.9102">StartView</text><line style="stroke:#A80036;stroke-width:1.5;" x1="194.5" x2="275.5" y1="306" y2="306"/><line style="stroke:#A80036;stroke-width:1.5;" x1="194.5" x2="275.5" y1="314" y2="314"/><!--MD5=[0c0ac116796a48fdc4c03542a0d43f99]
class InGameView--><rect codeLine="9" fill="#FEFECE" filter="url(#fiyqz0kko82dn)" height="48" id="InGameView" style="stroke:#A80036;stroke-width:1.5;" width="102" x="56" y="274"/><ellipse cx="71" cy="290" fill="#ADD1B2" rx="11" ry="11" style="stroke:#A80036;stroke-width:1.0;"/><path d="M73,286.5 Q73.2031,286 73.4375,285.75 Q73.6719,285.5 73.9375,285.5 Q74.4063,285.5 74.7031,285.7813 Q75,286.0625 75,286.7188 L75,288.2813 Q75,288.9375 74.7188,289.2188 Q74.4375,289.5 74,289.5 Q73.6094,289.5 73.3594,289.3281 Q73.1094,289.1563 73,288.7031 Q72.9531,288.3906 72.7813,288.2188 Q72.4688,287.8906 71.9063,287.7031 Q71.3438,287.5 70.7813,287.5 Q70.0781,287.5 69.4844,287.7813 Q68.9063,288.0625 68.4531,288.6875 Q68,289.3125 68,290.1719 L68,291.0938 Q68,292.125 68.8438,292.8125 Q69.6875,293.5 71.1875,293.5 Q72.0781,293.5 72.7031,293.2969 Q73.0625,293.1875 73.4688,292.8281 Q73.7344,292.625 73.875,292.5625 Q74.0156,292.5 74.1875,292.5 Q74.5156,292.5 74.75,292.7656 Q75,293.0156 75,293.375 Q75,293.7188 74.6563,294.125 Q74.1563,294.7188 73.3594,295.0469 Q72.3125,295.5 71.0313,295.5 Q69.5313,295.5 68.3281,294.9063 Q67.3594,294.4375 66.6719,293.4219 Q66,292.4063 66,291.2031 L66,290.1094 Q66,288.8594 66.5938,287.7656 Q67.2031,286.6719 68.25,286.0938 Q69.3125,285.5 70.5,285.5 Q71.2188,285.5 71.8438,285.75 Q72.4688,286 73,286.5 Z " fill="#000000"/><text fill="#000000" font-family="sans-serif" font-size="12" lengthAdjust="spacing" textLength="70" x="85" y="294.9102">InGameView</text><line style="stroke:#A80036;stroke-width:1.5;" x1="57" x2="157" y1="306" y2="306"/><line style="stroke:#A80036;stroke-width:1.5;" x1="57" x2="157" y1="314" y2="314"/><!--MD5=[1d7ba1c7002d54515419844fbd155368]
class Controller--><rect codeLine="14" fill="#FEFECE" filter="url(#fiyqz0kko82dn)" height="48" id="Controller" style="stroke:#A80036;stroke-width:1.5;" width="86" x="370" y="166"/><ellipse cx="385" cy="182" fill="#A9DCDF" rx="11" ry="11" style="stroke:#A80036;stroke-width:1.0;"/><path d="M386.75,183.5 L383.4531,183.5 L383.0156,184.5 L383.0156,184.5 L383.4844,184.5 L384,185.125 L384,185.5 L384,185.875 L383.4844,186.5 L383.0156,186.5 L381.125,186.5 L380.5156,186.5 L380,185.875 L380,185.5 L380,185.125 L380.5156,184.5 L381.125,184.5 L383.4375,178.5 L382.5625,178.5 L381.5156,178.5 L381,177.875 L381,177.5 L381,177.125 L381.5156,176.5 L382.5625,176.5 L386.2344,176.5 L388.9219,184.5 L389.4844,184.5 L389.4844,184.5 L390,185.125 L390,185.5 L390,185.875 L389.4844,186.5 L388.9219,186.5 L387.0313,186.5 L386.5156,186.5 L386,185.875 L386,185.5 L386,185.125 L386.5156,184.5 L387.0313,184.5 L387.0313,184.5 L386.75,183.5 Z M386.2031,181.5 L385,177.9219 L383.9688,181.5 L386.2031,181.5 Z " fill="#000000"/><text fill="#000000" font-family="sans-serif" font-size="12" font-style="italic" lengthAdjust="spacing" textLength="54" x="399" y="186.9102">Controller</text><line style="stroke:#A80036;stroke-width:1.5;" x1="371" x2="455" y1="198" y2="198"/><line style="stroke:#A80036;stroke-width:1.5;" x1="371" x2="455" y1="206" y2="206"/><!--MD5=[47c371471411cfedeee61b1a5bdaee47]
class StartController--><rect codeLine="15" fill="#FEFECE" filter="url(#fiyqz0kko82dn)" height="48" id="StartController" style="stroke:#A80036;stroke-width:1.5;" width="111" x="357.5" y="274"/><ellipse cx="372.5" cy="290" fill="#ADD1B2" rx="11" ry="11" style="stroke:#A80036;stroke-width:1.0;"/><path d="M374.5,286.5 Q374.7031,286 374.9375,285.75 Q375.1719,285.5 375.4375,285.5 Q375.9063,285.5 376.2031,285.7813 Q376.5,286.0625 376.5,286.7188 L376.5,288.2813 Q376.5,288.9375 376.2188,289.2188 Q375.9375,289.5 375.5,289.5 Q375.1094,289.5 374.8594,289.3281 Q374.6094,289.1563 374.5,288.7031 Q374.4531,288.3906 374.2813,288.2188 Q373.9688,287.8906 373.4063,287.7031 Q372.8438,287.5 372.2813,287.5 Q371.5781,287.5 370.9844,287.7813 Q370.4063,288.0625 369.9531,288.6875 Q369.5,289.3125 369.5,290.1719 L369.5,291.0938 Q369.5,292.125 370.3438,292.8125 Q371.1875,293.5 372.6875,293.5 Q373.5781,293.5 374.2031,293.2969 Q374.5625,293.1875 374.9688,292.8281 Q375.2344,292.625 375.375,292.5625 Q375.5156,292.5 375.6875,292.5 Q376.0156,292.5 376.25,292.7656 Q376.5,293.0156 376.5,293.375 Q376.5,293.7188 376.1563,294.125 Q375.6563,294.7188 374.8594,295.0469 Q373.8125,295.5 372.5313,295.5 Q371.0313,295.5 369.8281,294.9063 Q368.8594,294.4375 368.1719,293.4219 Q367.5,292.4063 367.5,291.2031 L367.5,290.1094 Q367.5,288.8594 368.0938,287.7656 Q368.7031,286.6719 369.75,286.0938 Q370.8125,285.5 372,285.5 Q372.7188,285.5 373.3438,285.75 Q373.9688,286 374.5,286.5 Z " fill="#000000"/><text fill="#000000" font-family="sans-serif" font-size="12" lengthAdjust="spacing" textLength="79" x="386.5" y="294.9102">StartController</text><line style="stroke:#A80036;stroke-width:1.5;" x1="358.5" x2="467.5" y1="306" y2="306"/><line style="stroke:#A80036;stroke-width:1.5;" x1="358.5" x2="467.5" y1="314" y2="314"/><!--MD5=[4fe5452a9cf14bf2f9c4e434a4263f80]
class ProposeWordController--><rect codeLine="16" fill="#FEFECE" filter="url(#fiyqz0kko82dn)" height="48" id="ProposeWordController" style="stroke:#A80036;stroke-width:1.5;" width="162" x="504" y="274"/><ellipse cx="519" cy="290" fill="#ADD1B2" rx="11" ry="11" style="stroke:#A80036;stroke-width:1.0;"/><path d="M521,286.5 Q521.2031,286 521.4375,285.75 Q521.6719,285.5 521.9375,285.5 Q522.4063,285.5 522.7031,285.7813 Q523,286.0625 523,286.7188 L523,288.2813 Q523,288.9375 522.7188,289.2188 Q522.4375,289.5 522,289.5 Q521.6094,289.5 521.3594,289.3281 Q521.1094,289.1563 521,288.7031 Q520.9531,288.3906 520.7813,288.2188 Q520.4688,287.8906 519.9063,287.7031 Q519.3438,287.5 518.7813,287.5 Q518.0781,287.5 517.4844,287.7813 Q516.9063,288.0625 516.4531,288.6875 Q516,289.3125 516,290.1719 L516,291.0938 Q516,292.125 516.8438,292.8125 Q517.6875,293.5 519.1875,293.5 Q520.0781,293.5 520.7031,293.2969 Q521.0625,293.1875 521.4688,292.8281 Q521.7344,292.625 521.875,292.5625 Q522.0156,292.5 522.1875,292.5 Q522.5156,292.5 522.75,292.7656 Q523,293.0156 523,293.375 Q523,293.7188 522.6563,294.125 Q522.1563,294.7188 521.3594,295.0469 Q520.3125,295.5 519.0313,295.5 Q517.5313,295.5 516.3281,294.9063 Q515.3594,294.4375 514.6719,293.4219 Q514,292.4063 514,291.2031 L514,290.1094 Q514,288.8594 514.5938,287.7656 Q515.2031,286.6719 516.25,286.0938 Q517.3125,285.5 518.5,285.5 Q519.2188,285.5 519.8438,285.75 Q520.4688,286 521,286.5 Z " fill="#000000"/><text fill="#000000" font-family="sans-serif" font-size="12" lengthAdjust="spacing" textLength="130" x="533" y="294.9102">ProposeWordController</text><line style="stroke:#A80036;stroke-width:1.5;" x1="505" x2="665" y1="306" y2="306"/><line style="stroke:#A80036;stroke-width:1.5;" x1="505" x2="665" y1="314" y2="314"/><polygon fill="#FFFFFF" filter="url(#fiyqz0kko82dn)" points="179.5,38.5,236.5,38.5,243.5,62.1094,250.5,62.1094,250.5,93.7188,179.5,93.7188,179.5,38.5" style="stroke:#000000;stroke-width:1.5;"/><line style="stroke:#000000;stroke-width:1.5;" x1="179.5" x2="243.5" y1="62.1094" y2="62.1094"/><text fill="#000000" font-family="sans-serif" font-size="14" font-weight="bold" lengthAdjust="spacing" textLength="51" x="183.5" y="55.0332">models</text><!--MD5=[98c712d6c16a4ce2e31b2930753001e2]
link Hanged to View--><path codeLine="23" d="M299.9794,99.9257 C299.9794,99.9257 271.97,138.32 259.59,155.29 " fill="none" id="Hanged-View" style="stroke:#A80036;stroke-width:1.0;"/><polygon fill="#A80036" points="251.89,165.85,260.4249,160.9351,254.8361,161.8101,253.9611,156.2214,251.89,165.85" style="stroke:#A80036;stroke-width:1.0;"/><line style="stroke:#A80036;stroke-width:1.0;" x1="254.8361" x2="259.545" y1="161.8101" y2="155.35"/><polygon fill="#A80036" points="307.05,90.23,300.2828,92.721,299.9794,99.9257,306.7466,97.4347,307.05,90.23" style="stroke:#A80036;stroke-width:1.0;"/><!--MD5=[f3529716a8974626251ce6317d1f6267]
link Hanged to Controller--><path codeLine="24" d="M348.0206,99.9257 C348.0206,99.9257 376.03,138.32 388.41,155.29 " fill="none" id="Hanged-Controller" style="stroke:#A80036;stroke-width:1.0;"/><polygon fill="#A80036" points="396.11,165.85,394.0389,156.2214,393.1639,161.8101,387.5751,160.9351,396.11,165.85" style="stroke:#A80036;stroke-width:1.0;"/><line style="stroke:#A80036;stroke-width:1.0;" x1="393.1639" x2="388.455" y1="161.8101" y2="155.35"/><polygon fill="#A80036" points="340.95,90.23,341.2534,97.4347,348.0206,99.9257,347.7172,92.721,340.95,90.23" style="stroke:#A80036;stroke-width:1.0;"/><!--MD5=[d97c95d7197a20d753a2598eef0a9990]
reverse link View to StartView--><path codeLine="25" d="M235,234.02 C235,247.58 235,262.04 235,273.68 " fill="none" id="View-backto-StartView" style="stroke:#A80036;stroke-width:1.0;"/><polygon fill="none" points="228,234,235,214,242,234,228,234" style="stroke:#A80036;stroke-width:1.0;"/><!--MD5=[c2498cadc8432f567dbe81f01cb7b226]
reverse link View to InGameView--><path codeLine="26" d="M188.8,220.32 C184.4,223.48 180.06,226.73 176,230 C159.22,243.5 141.83,260.41 128.7,273.86 " fill="none" id="View-backto-InGameView" style="stroke:#A80036;stroke-width:1.0;"/><polygon fill="none" points="185.26,214.27,205.73,208.81,193.13,225.84,185.26,214.27" style="stroke:#A80036;stroke-width:1.0;"/><!--MD5=[354d6deacb49030493b7fd8cb23ebdce]
reverse link Controller to StartController--><path codeLine="28" d="M413,234.02 C413,247.58 413,262.04 413,273.68 " fill="none" id="Controller-backto-StartController" style="stroke:#A80036;stroke-width:1.0;"/><polygon fill="none" points="406,234,413,214,420,234,406,234" style="stroke:#A80036;stroke-width:1.0;"/><!--MD5=[e84fba6f8f6a3326db7b62fd10e48fd5]
reverse link Controller to ProposeWordController--><path codeLine="29" d="M474.1,223.03 C478.15,225.34 482.15,227.68 486,230 C508.75,243.72 533.5,260.47 552.56,273.79 " fill="none" id="Controller-backto-ProposeWordController" style="stroke:#A80036;stroke-width:1.0;"/><polygon fill="none" points="470.37,228.97,456.26,213.16,477.15,216.72,470.37,228.97" style="stroke:#A80036;stroke-width:1.0;"/><!--MD5=[1c86f9f2b7af1adc48710368fa76dd4b]
@startuml
package "main" {
class Hanged
}

package "views"{
abstract class View
    package "console" {
        class StartView
        class InGameView
    }
}

package "controllers"{
abstract class Controller
class StartController
class ProposeWordController
}


package "models" {

}
Hanged *- -> View
Hanged *- -> Controller
View <|- - StartView
View <|- - InGameView

Controller <|- - StartController
Controller <|- - ProposeWordController


@enduml

PlantUML version 1.2021.7(Sun May 23 14:40:07 CEST 2021)
(GPL source distribution)
Java Runtime: OpenJDK Runtime Environment
JVM: OpenJDK 64-Bit Server VM
Default Encoding: Cp1252
Language: es
Country: ES
--></g></svg>