<?xml version="1.0" encoding="UTF-8" standalone="no"?><svg xmlns="http://www.w3.org/2000/svg" xmlns:xlink="http://www.w3.org/1999/xlink" contentScriptType="application/ecmascript" contentStyleType="text/css" height="785.4px" preserveAspectRatio="none" style="width:1958px;height:785px;background:#FFFFFF;" version="1.1" viewBox="0 0 1958 785" width="1958.6px" zoomAndPan="magnify"><defs><filter height="300%" id="fu2vpbcm5ntu9" width="300%" x="-1" y="-1"><feGaussianBlur result="blurOut" stdDeviation="2.7999999999999994"/><feColorMatrix in="blurOut" result="blurOut2" type="matrix" values="0 0 0 0 0 0 0 0 0 0 0 0 0 0 0 0 0 0 .4 0"/><feOffset dx="5.599999999999999" dy="5.599999999999999" in="blurOut2" result="blurOut3"/><feBlend in="SourceGraphic" in2="blurOut3" mode="normal"/></filter></defs><g><!--MD5=[a70b0d373322012744ecc119c63f921b]
cluster main--><polygon fill="#FFFFFF" filter="url(#fu2vpbcm5ntu9)" points="1008,8.4,1062.6,8.4,1072.4,41.4531,1159.2,41.4531,1159.2,148.4,1008,148.4,1008,8.4" style="stroke:#000000;stroke-width:2.0999999999999996;"/><line style="stroke:#000000;stroke-width:2.0999999999999996;" x1="1008" x2="1072.4" y1="41.4531" y2="41.4531"/><text fill="#000000" font-family="sans-serif" font-size="19.6" font-weight="bold" lengthAdjust="spacing" textLength="46.2" x="1013.6" y="31.5465">main</text><!--MD5=[e2a75efa8a0f57c2afae8bf75386f79c]
cluster views--><polygon fill="#FFFFFF" filter="url(#fu2vpbcm5ntu9)" points="22.4,182,88.2,182,98,215.0531,645.4,215.0531,645.4,506.8,22.4,506.8,22.4,182" style="stroke:#000000;stroke-width:2.0999999999999996;"/><line style="stroke:#000000;stroke-width:2.0999999999999996;" x1="22.4" x2="98" y1="215.0531" y2="215.0531"/><text fill="#000000" font-family="sans-serif" font-size="19.6" font-weight="bold" lengthAdjust="spacing" textLength="57.4" x="28" y="205.1465">views</text><!--MD5=[4b7a55d430ce43d42ce9ebad9e6b4010]
cluster console--><polygon fill="#FFFFFF" filter="url(#fu2vpbcm5ntu9)" points="56,333.2,142.8,333.2,152.6,366.2531,611.8,366.2531,611.8,473.2,56,473.2,56,333.2" style="stroke:#000000;stroke-width:2.0999999999999996;"/><line style="stroke:#000000;stroke-width:2.0999999999999996;" x1="56" x2="152.6" y1="366.2531" y2="366.2531"/><text fill="#000000" font-family="sans-serif" font-size="19.6" font-weight="bold" lengthAdjust="spacing" textLength="78.4" x="61.6" y="356.3465">console</text><!--MD5=[f4e70ef68289585296b9045165e58692]
cluster controllers--><polygon fill="#FFFFFF" filter="url(#fu2vpbcm5ntu9)" points="1272.6,333.2,1388.8,333.2,1398.6,366.2531,1934.8,366.2531,1934.8,624.4,1272.6,624.4,1272.6,333.2" style="stroke:#000000;stroke-width:2.0999999999999996;"/><line style="stroke:#000000;stroke-width:2.0999999999999996;" x1="1272.6" x2="1398.6" y1="366.2531" y2="366.2531"/><text fill="#000000" font-family="sans-serif" font-size="19.6" font-weight="bold" lengthAdjust="spacing" textLength="107.8" x="1278.2" y="356.3465">controllers</text><!--MD5=[a60570e4b426f702ccbb0d459e3b9417]
cluster models--><polygon fill="#FFFFFF" filter="url(#fu2vpbcm5ntu9)" points="679,182,758.8,182,768.6,215.0531,1239,215.0531,1239,775.6,679,775.6,679,182" style="stroke:#000000;stroke-width:2.0999999999999996;"/><line style="stroke:#000000;stroke-width:2.0999999999999996;" x1="679" x2="768.6" y1="215.0531" y2="215.0531"/><text fill="#000000" font-family="sans-serif" font-size="19.6" font-weight="bold" lengthAdjust="spacing" textLength="71.4" x="684.6" y="205.1465">models</text><!--MD5=[d7ec263f7daf4a6472ede7f2d3e0d6e7]
class Hanged--><rect codeLine="2" fill="#FEFECE" filter="url(#fu2vpbcm5ntu9)" height="67.2" id="Hanged" style="stroke:#A80036;stroke-width:2.0999999999999996;" width="106.4" x="1030.4" y="58.8"/><ellipse cx="1051.4" cy="81.2" fill="#ADD1B2" rx="15.4" ry="15.4" style="stroke:#A80036;stroke-width:1.3999999999999997;"/><path d="M1054.2,76.3 Q1054.4844,75.6 1054.8125,75.25 Q1055.1406,74.9 1055.5125,74.9 Q1056.1687,74.9 1056.5844,75.2937 Q1057,75.6875 1057,76.6062 L1057,78.7937 Q1057,79.7125 1056.6062,80.1062 Q1056.2125,80.5 1055.6,80.5 Q1055.0531,80.5 1054.7031,80.2594 Q1054.3531,80.0187 1054.2,79.3844 Q1054.1344,78.9469 1053.8937,78.7062 Q1053.4562,78.2469 1052.6687,77.9844 Q1051.8812,77.7 1051.0937,77.7 Q1050.1094,77.7 1049.2781,78.0937 Q1048.4687,78.4875 1047.8344,79.3625 Q1047.2,80.2375 1047.2,81.4406 L1047.2,82.7312 Q1047.2,84.175 1048.3812,85.1375 Q1049.5625,86.1 1051.6625,86.1 Q1052.9094,86.1 1053.7844,85.8156 Q1054.2875,85.6625 1054.8562,85.1594 Q1055.2281,84.875 1055.425,84.7875 Q1055.6219,84.7 1055.8625,84.7 Q1056.3219,84.7 1056.65,85.0719 Q1057,85.4219 1057,85.925 Q1057,86.4062 1056.5187,86.975 Q1055.8187,87.8062 1054.7031,88.2656 Q1053.2375,88.9 1051.4437,88.9 Q1049.3437,88.9 1047.6594,88.0687 Q1046.3031,87.4125 1045.3406,85.9906 Q1044.4,84.5687 1044.4,82.8844 L1044.4,81.3531 Q1044.4,79.6031 1045.2312,78.0719 Q1046.0844,76.5406 1047.55,75.7312 Q1049.0375,74.9 1050.7,74.9 Q1051.7062,74.9 1052.5812,75.25 Q1053.4562,75.6 1054.2,76.3 Z " fill="#000000"/><text fill="#000000" font-family="sans-serif" font-size="16.8" lengthAdjust="spacing" textLength="61.6" x="1071" y="88.0742">Hanged</text><line style="stroke:#A80036;stroke-width:2.0999999999999996;" x1="1031.8" x2="1135.4" y1="103.6" y2="103.6"/><line style="stroke:#A80036;stroke-width:2.0999999999999996;" x1="1031.8" x2="1135.4" y1="114.8" y2="114.8"/><!--MD5=[c045e12321b83266d36d22b9096c24ea]
class View--><rect codeLine="6" fill="#FEFECE" filter="url(#fu2vpbcm5ntu9)" height="67.2" id="View" style="stroke:#A80036;stroke-width:2.0999999999999996;" width="81.2" x="399" y="232.4"/><ellipse cx="420" cy="254.8" fill="#A9DCDF" rx="15.4" ry="15.4" style="stroke:#A80036;stroke-width:1.3999999999999997;"/><path d="M422.45,256.9 L417.8344,256.9 L417.2219,258.3 L417.2219,258.3 L417.8781,258.3 L418.6,259.175 L418.6,259.7 L418.6,260.225 L417.8781,261.1 L417.2219,261.1 L414.575,261.1 L413.7219,261.1 L413,260.225 L413,259.7 L413,259.175 L413.7219,258.3 L414.575,258.3 L417.8125,249.9 L416.5875,249.9 L415.1219,249.9 L414.4,249.025 L414.4,248.5 L414.4,247.975 L415.1219,247.1 L416.5875,247.1 L421.7281,247.1 L425.4906,258.3 L426.2781,258.3 L426.2781,258.3 L427,259.175 L427,259.7 L427,260.225 L426.2781,261.1 L425.4906,261.1 L422.8437,261.1 L422.1219,261.1 L421.4,260.225 L421.4,259.7 L421.4,259.175 L422.1219,258.3 L422.8437,258.3 L422.8437,258.3 L422.45,256.9 Z M421.6844,254.1 L420,249.0906 L418.5562,254.1 L421.6844,254.1 Z " fill="#000000"/><text fill="#000000" font-family="sans-serif" font-size="16.8" font-style="italic" lengthAdjust="spacing" textLength="36.4" x="439.6" y="261.6742">View</text><line style="stroke:#A80036;stroke-width:2.0999999999999996;" x1="400.4" x2="478.8" y1="277.2" y2="277.2"/><line style="stroke:#A80036;stroke-width:2.0999999999999996;" x1="400.4" x2="478.8" y1="288.4" y2="288.4"/><!--MD5=[443c52daef265809fdf31be84fc8ae4a]
class StartView--><rect codeLine="8" fill="#FEFECE" filter="url(#fu2vpbcm5ntu9)" height="67.2" id="StartView" style="stroke:#A80036;stroke-width:2.0999999999999996;" width="116.2" x="472.5" y="383.6"/><ellipse cx="493.5" cy="406" fill="#ADD1B2" rx="15.4" ry="15.4" style="stroke:#A80036;stroke-width:1.3999999999999997;"/><path d="M496.3,401.1 Q496.5844,400.4 496.9125,400.05 Q497.2406,399.7 497.6125,399.7 Q498.2687,399.7 498.6844,400.0937 Q499.1,400.4875 499.1,401.4062 L499.1,403.5937 Q499.1,404.5125 498.7062,404.9062 Q498.3125,405.3 497.7,405.3 Q497.1531,405.3 496.8031,405.0594 Q496.4531,404.8187 496.3,404.1844 Q496.2344,403.7469 495.9937,403.5062 Q495.5562,403.0469 494.7687,402.7844 Q493.9812,402.5 493.1937,402.5 Q492.2094,402.5 491.3781,402.8937 Q490.5687,403.2875 489.9344,404.1625 Q489.3,405.0375 489.3,406.2406 L489.3,407.5312 Q489.3,408.975 490.4812,409.9375 Q491.6625,410.9 493.7625,410.9 Q495.0094,410.9 495.8844,410.6156 Q496.3875,410.4625 496.9562,409.9594 Q497.3281,409.675 497.525,409.5875 Q497.7219,409.5 497.9625,409.5 Q498.4219,409.5 498.75,409.8719 Q499.1,410.2219 499.1,410.725 Q499.1,411.2062 498.6187,411.775 Q497.9187,412.6062 496.8031,413.0656 Q495.3375,413.7 493.5437,413.7 Q491.4437,413.7 489.7594,412.8687 Q488.4031,412.2125 487.4406,410.7906 Q486.5,409.3687 486.5,407.6844 L486.5,406.1531 Q486.5,404.4031 487.3312,402.8719 Q488.1844,401.3406 489.65,400.5312 Q491.1375,399.7 492.8,399.7 Q493.8062,399.7 494.6812,400.05 Q495.5562,400.4 496.3,401.1 Z " fill="#000000"/><text fill="#000000" font-family="sans-serif" font-size="16.8" lengthAdjust="spacing" textLength="71.4" x="513.1" y="412.8742">StartView</text><line style="stroke:#A80036;stroke-width:2.0999999999999996;" x1="473.9" x2="587.3" y1="428.4" y2="428.4"/><line style="stroke:#A80036;stroke-width:2.0999999999999996;" x1="473.9" x2="587.3" y1="439.6" y2="439.6"/><!--MD5=[af548d7eeba3607a103157b84173e841]
class ProposeView--><rect codeLine="9" fill="#FEFECE" filter="url(#fu2vpbcm5ntu9)" height="67.2" id="ProposeView" style="stroke:#A80036;stroke-width:2.0999999999999996;" width="147" x="276.5" y="383.6"/><ellipse cx="297.5" cy="406" fill="#ADD1B2" rx="15.4" ry="15.4" style="stroke:#A80036;stroke-width:1.3999999999999997;"/><path d="M300.3,401.1 Q300.5844,400.4 300.9125,400.05 Q301.2406,399.7 301.6125,399.7 Q302.2687,399.7 302.6844,400.0937 Q303.1,400.4875 303.1,401.4062 L303.1,403.5937 Q303.1,404.5125 302.7062,404.9062 Q302.3125,405.3 301.7,405.3 Q301.1531,405.3 300.8031,405.0594 Q300.4531,404.8187 300.3,404.1844 Q300.2344,403.7469 299.9937,403.5062 Q299.5562,403.0469 298.7687,402.7844 Q297.9812,402.5 297.1937,402.5 Q296.2094,402.5 295.3781,402.8937 Q294.5687,403.2875 293.9344,404.1625 Q293.3,405.0375 293.3,406.2406 L293.3,407.5312 Q293.3,408.975 294.4812,409.9375 Q295.6625,410.9 297.7625,410.9 Q299.0094,410.9 299.8844,410.6156 Q300.3875,410.4625 300.9562,409.9594 Q301.3281,409.675 301.525,409.5875 Q301.7219,409.5 301.9625,409.5 Q302.4219,409.5 302.75,409.8719 Q303.1,410.2219 303.1,410.725 Q303.1,411.2062 302.6187,411.775 Q301.9187,412.6062 300.8031,413.0656 Q299.3375,413.7 297.5437,413.7 Q295.4437,413.7 293.7594,412.8687 Q292.4031,412.2125 291.4406,410.7906 Q290.5,409.3687 290.5,407.6844 L290.5,406.1531 Q290.5,404.4031 291.3312,402.8719 Q292.1844,401.3406 293.65,400.5312 Q295.1375,399.7 296.8,399.7 Q297.8062,399.7 298.6812,400.05 Q299.5562,400.4 300.3,401.1 Z " fill="#000000"/><text fill="#000000" font-family="sans-serif" font-size="16.8" lengthAdjust="spacing" textLength="102.2" x="317.1" y="412.8742">ProposeView</text><line style="stroke:#A80036;stroke-width:2.0999999999999996;" x1="277.9" x2="422.1" y1="428.4" y2="428.4"/><line style="stroke:#A80036;stroke-width:2.0999999999999996;" x1="277.9" x2="422.1" y1="439.6" y2="439.6"/><!--MD5=[19088a99a8c1f36e582d33ac2f8fc6dd]
class ResumeView--><rect codeLine="10" fill="#FEFECE" filter="url(#fu2vpbcm5ntu9)" height="67.2" id="ResumeView" style="stroke:#A80036;stroke-width:2.0999999999999996;" width="148.4" x="78.4" y="383.6"/><ellipse cx="99.4" cy="406" fill="#ADD1B2" rx="15.4" ry="15.4" style="stroke:#A80036;stroke-width:1.3999999999999997;"/><path d="M102.2,401.1 Q102.4844,400.4 102.8125,400.05 Q103.1406,399.7 103.5125,399.7 Q104.1687,399.7 104.5844,400.0937 Q105,400.4875 105,401.4062 L105,403.5937 Q105,404.5125 104.6062,404.9062 Q104.2125,405.3 103.6,405.3 Q103.0531,405.3 102.7031,405.0594 Q102.3531,404.8187 102.2,404.1844 Q102.1344,403.7469 101.8937,403.5062 Q101.4562,403.0469 100.6687,402.7844 Q99.8812,402.5 99.0937,402.5 Q98.1094,402.5 97.2781,402.8937 Q96.4687,403.2875 95.8344,404.1625 Q95.2,405.0375 95.2,406.2406 L95.2,407.5312 Q95.2,408.975 96.3812,409.9375 Q97.5625,410.9 99.6625,410.9 Q100.9094,410.9 101.7844,410.6156 Q102.2875,410.4625 102.8562,409.9594 Q103.2281,409.675 103.425,409.5875 Q103.6219,409.5 103.8625,409.5 Q104.3219,409.5 104.65,409.8719 Q105,410.2219 105,410.725 Q105,411.2062 104.5187,411.775 Q103.8187,412.6062 102.7031,413.0656 Q101.2375,413.7 99.4437,413.7 Q97.3437,413.7 95.6594,412.8687 Q94.3031,412.2125 93.3406,410.7906 Q92.4,409.3687 92.4,407.6844 L92.4,406.1531 Q92.4,404.4031 93.2312,402.8719 Q94.0844,401.3406 95.55,400.5312 Q97.0375,399.7 98.7,399.7 Q99.7062,399.7 100.5812,400.05 Q101.4562,400.4 102.2,401.1 Z " fill="#000000"/><text fill="#000000" font-family="sans-serif" font-size="16.8" lengthAdjust="spacing" textLength="103.6" x="119" y="412.8742">ResumeView</text><line style="stroke:#A80036;stroke-width:2.0999999999999996;" x1="79.8" x2="225.4" y1="428.4" y2="428.4"/><line style="stroke:#A80036;stroke-width:2.0999999999999996;" x1="79.8" x2="225.4" y1="439.6" y2="439.6"/><!--MD5=[1d7ba1c7002d54515419844fbd155368]
class Controller--><rect codeLine="15" fill="#FEFECE" filter="url(#fu2vpbcm5ntu9)" height="67.2" id="Controller" style="stroke:#A80036;stroke-width:2.0999999999999996;" width="120.4" x="1512" y="383.6"/><ellipse cx="1533" cy="406" fill="#A9DCDF" rx="15.4" ry="15.4" style="stroke:#A80036;stroke-width:1.3999999999999997;"/><path d="M1535.45,408.1 L1530.8344,408.1 L1530.2219,409.5 L1530.2219,409.5 L1530.8781,409.5 L1531.6,410.375 L1531.6,410.9 L1531.6,411.425 L1530.8781,412.3 L1530.2219,412.3 L1527.575,412.3 L1526.7219,412.3 L1526,411.425 L1526,410.9 L1526,410.375 L1526.7219,409.5 L1527.575,409.5 L1530.8125,401.1 L1529.5875,401.1 L1528.1219,401.1 L1527.4,400.225 L1527.4,399.7 L1527.4,399.175 L1528.1219,398.3 L1529.5875,398.3 L1534.7281,398.3 L1538.4906,409.5 L1539.2781,409.5 L1539.2781,409.5 L1540,410.375 L1540,410.9 L1540,411.425 L1539.2781,412.3 L1538.4906,412.3 L1535.8437,412.3 L1535.1219,412.3 L1534.4,411.425 L1534.4,410.9 L1534.4,410.375 L1535.1219,409.5 L1535.8437,409.5 L1535.8437,409.5 L1535.45,408.1 Z M1534.6844,405.3 L1533,400.2906 L1531.5562,405.3 L1534.6844,405.3 Z " fill="#000000"/><text fill="#000000" font-family="sans-serif" font-size="16.8" font-style="italic" lengthAdjust="spacing" textLength="75.6" x="1552.6" y="412.8742">Controller</text><line style="stroke:#A80036;stroke-width:2.0999999999999996;" x1="1513.4" x2="1631" y1="428.4" y2="428.4"/><line style="stroke:#A80036;stroke-width:2.0999999999999996;" x1="1513.4" x2="1631" y1="439.6" y2="439.6"/><!--MD5=[47c371471411cfedeee61b1a5bdaee47]
class StartController--><rect codeLine="16" fill="#FEFECE" filter="url(#fu2vpbcm5ntu9)" height="67.2" id="StartController" style="stroke:#A80036;stroke-width:2.0999999999999996;" width="155.4" x="1295.7" y="534.8"/><ellipse cx="1316.7" cy="557.2" fill="#ADD1B2" rx="15.4" ry="15.4" style="stroke:#A80036;stroke-width:1.3999999999999997;"/><path d="M1319.5,552.3 Q1319.7844,551.6 1320.1125,551.25 Q1320.4406,550.9 1320.8125,550.9 Q1321.4687,550.9 1321.8844,551.2937 Q1322.3,551.6875 1322.3,552.6062 L1322.3,554.7937 Q1322.3,555.7125 1321.9062,556.1062 Q1321.5125,556.5 1320.9,556.5 Q1320.3531,556.5 1320.0031,556.2594 Q1319.6531,556.0187 1319.5,555.3844 Q1319.4344,554.9469 1319.1937,554.7062 Q1318.7562,554.2469 1317.9687,553.9844 Q1317.1812,553.7 1316.3937,553.7 Q1315.4094,553.7 1314.5781,554.0937 Q1313.7687,554.4875 1313.1344,555.3625 Q1312.5,556.2375 1312.5,557.4406 L1312.5,558.7312 Q1312.5,560.175 1313.6812,561.1375 Q1314.8625,562.1 1316.9625,562.1 Q1318.2094,562.1 1319.0844,561.8156 Q1319.5875,561.6625 1320.1562,561.1594 Q1320.5281,560.875 1320.725,560.7875 Q1320.9219,560.7 1321.1625,560.7 Q1321.6219,560.7 1321.95,561.0719 Q1322.3,561.4219 1322.3,561.925 Q1322.3,562.4062 1321.8187,562.975 Q1321.1187,563.8062 1320.0031,564.2656 Q1318.5375,564.9 1316.7437,564.9 Q1314.6437,564.9 1312.9594,564.0687 Q1311.6031,563.4125 1310.6406,561.9906 Q1309.7,560.5687 1309.7,558.8844 L1309.7,557.3531 Q1309.7,555.6031 1310.5312,554.0719 Q1311.3844,552.5406 1312.85,551.7312 Q1314.3375,550.9 1316,550.9 Q1317.0062,550.9 1317.8812,551.25 Q1318.7562,551.6 1319.5,552.3 Z " fill="#000000"/><text fill="#000000" font-family="sans-serif" font-size="16.8" lengthAdjust="spacing" textLength="110.6" x="1336.3" y="564.0742">StartController</text><line style="stroke:#A80036;stroke-width:2.0999999999999996;" x1="1297.1" x2="1449.7" y1="579.6" y2="579.6"/><line style="stroke:#A80036;stroke-width:2.0999999999999996;" x1="1297.1" x2="1449.7" y1="590.8" y2="590.8"/><!--MD5=[0b95e4ee8b160a2b3b0650a9b235c496]
class ProposeController--><rect codeLine="17" fill="#FEFECE" filter="url(#fu2vpbcm5ntu9)" height="67.2" id="ProposeController" style="stroke:#A80036;stroke-width:2.0999999999999996;" width="186.2" x="1500.1" y="534.8"/><ellipse cx="1521.1" cy="557.2" fill="#ADD1B2" rx="15.4" ry="15.4" style="stroke:#A80036;stroke-width:1.3999999999999997;"/><path d="M1523.9,552.3 Q1524.1844,551.6 1524.5125,551.25 Q1524.8406,550.9 1525.2125,550.9 Q1525.8687,550.9 1526.2844,551.2937 Q1526.7,551.6875 1526.7,552.6062 L1526.7,554.7937 Q1526.7,555.7125 1526.3062,556.1062 Q1525.9125,556.5 1525.3,556.5 Q1524.7531,556.5 1524.4031,556.2594 Q1524.0531,556.0187 1523.9,555.3844 Q1523.8344,554.9469 1523.5937,554.7062 Q1523.1562,554.2469 1522.3687,553.9844 Q1521.5812,553.7 1520.7937,553.7 Q1519.8094,553.7 1518.9781,554.0937 Q1518.1687,554.4875 1517.5344,555.3625 Q1516.9,556.2375 1516.9,557.4406 L1516.9,558.7312 Q1516.9,560.175 1518.0812,561.1375 Q1519.2625,562.1 1521.3625,562.1 Q1522.6094,562.1 1523.4844,561.8156 Q1523.9875,561.6625 1524.5562,561.1594 Q1524.9281,560.875 1525.125,560.7875 Q1525.3219,560.7 1525.5625,560.7 Q1526.0219,560.7 1526.35,561.0719 Q1526.7,561.4219 1526.7,561.925 Q1526.7,562.4062 1526.2187,562.975 Q1525.5187,563.8062 1524.4031,564.2656 Q1522.9375,564.9 1521.1437,564.9 Q1519.0437,564.9 1517.3594,564.0687 Q1516.0031,563.4125 1515.0406,561.9906 Q1514.1,560.5687 1514.1,558.8844 L1514.1,557.3531 Q1514.1,555.6031 1514.9312,554.0719 Q1515.7844,552.5406 1517.25,551.7312 Q1518.7375,550.9 1520.4,550.9 Q1521.4062,550.9 1522.2812,551.25 Q1523.1562,551.6 1523.9,552.3 Z " fill="#000000"/><text fill="#000000" font-family="sans-serif" font-size="16.8" lengthAdjust="spacing" textLength="141.4" x="1540.7" y="564.0742">ProposeController</text><line style="stroke:#A80036;stroke-width:2.0999999999999996;" x1="1501.5" x2="1684.9" y1="579.6" y2="579.6"/><line style="stroke:#A80036;stroke-width:2.0999999999999996;" x1="1501.5" x2="1684.9" y1="590.8" y2="590.8"/><!--MD5=[838266453f24f703931192fe235907f4]
class RestartController--><rect codeLine="18" fill="#FEFECE" filter="url(#fu2vpbcm5ntu9)" height="67.2" id="RestartController" style="stroke:#A80036;stroke-width:2.0999999999999996;" width="176.4" x="1736" y="534.8"/><ellipse cx="1757" cy="557.2" fill="#ADD1B2" rx="15.4" ry="15.4" style="stroke:#A80036;stroke-width:1.3999999999999997;"/><path d="M1759.8,552.3 Q1760.0844,551.6 1760.4125,551.25 Q1760.7406,550.9 1761.1125,550.9 Q1761.7687,550.9 1762.1844,551.2937 Q1762.6,551.6875 1762.6,552.6062 L1762.6,554.7937 Q1762.6,555.7125 1762.2062,556.1062 Q1761.8125,556.5 1761.2,556.5 Q1760.6531,556.5 1760.3031,556.2594 Q1759.9531,556.0187 1759.8,555.3844 Q1759.7344,554.9469 1759.4937,554.7062 Q1759.0562,554.2469 1758.2687,553.9844 Q1757.4812,553.7 1756.6937,553.7 Q1755.7094,553.7 1754.8781,554.0937 Q1754.0687,554.4875 1753.4344,555.3625 Q1752.8,556.2375 1752.8,557.4406 L1752.8,558.7312 Q1752.8,560.175 1753.9812,561.1375 Q1755.1625,562.1 1757.2625,562.1 Q1758.5094,562.1 1759.3844,561.8156 Q1759.8875,561.6625 1760.4562,561.1594 Q1760.8281,560.875 1761.025,560.7875 Q1761.2219,560.7 1761.4625,560.7 Q1761.9219,560.7 1762.25,561.0719 Q1762.6,561.4219 1762.6,561.925 Q1762.6,562.4062 1762.1187,562.975 Q1761.4187,563.8062 1760.3031,564.2656 Q1758.8375,564.9 1757.0437,564.9 Q1754.9437,564.9 1753.2594,564.0687 Q1751.9031,563.4125 1750.9406,561.9906 Q1750,560.5687 1750,558.8844 L1750,557.3531 Q1750,555.6031 1750.8312,554.0719 Q1751.6844,552.5406 1753.15,551.7312 Q1754.6375,550.9 1756.3,550.9 Q1757.3062,550.9 1758.1812,551.25 Q1759.0562,551.6 1759.8,552.3 Z " fill="#000000"/><text fill="#000000" font-family="sans-serif" font-size="16.8" lengthAdjust="spacing" textLength="131.6" x="1776.6" y="564.0742">RestartController</text><line style="stroke:#A80036;stroke-width:2.0999999999999996;" x1="1737.4" x2="1911" y1="579.6" y2="579.6"/><line style="stroke:#A80036;stroke-width:2.0999999999999996;" x1="1737.4" x2="1911" y1="590.8" y2="590.8"/><!--MD5=[202eb055b61e3635d6abeb6d1809ebdd]
class ControllerVisitor--><rect codeLine="19" fill="#FEFECE" filter="url(#fu2vpbcm5ntu9)" height="67.2" id="ControllerVisitor" style="stroke:#A80036;stroke-width:2.0999999999999996;" width="168" x="1295" y="383.6"/><ellipse cx="1316" cy="406" fill="#B4A7E5" rx="15.4" ry="15.4" style="stroke:#A80036;stroke-width:1.3999999999999997;"/><path d="M1317.4,401.8 L1317.4,410.2 L1320.2,410.2 L1320.8781,410.2 L1321.6,411.075 L1321.6,411.6 L1321.6,412.125 L1320.8781,413 L1320.2,413 L1311.8,413 L1311.1219,413 L1310.4,412.125 L1310.4,411.6 L1310.4,411.075 L1311.1219,410.2 L1311.8,410.2 L1314.6,410.2 L1314.6,401.8 L1311.8,401.8 L1311.1219,401.8 L1310.4,400.925 L1310.4,400.4 L1310.4,399.875 L1311.1219,399 L1311.8,399 L1320.2,399 L1320.8781,399 L1321.6,399.875 L1321.6,400.4 L1321.6,400.925 L1320.8781,401.8 L1320.2,401.8 L1317.4,401.8 Z " fill="#000000"/><text fill="#000000" font-family="sans-serif" font-size="16.8" font-style="italic" lengthAdjust="spacing" textLength="123.2" x="1335.6" y="412.8742">ControllerVisitor</text><line style="stroke:#A80036;stroke-width:2.0999999999999996;" x1="1296.4" x2="1461.6" y1="428.4" y2="428.4"/><line style="stroke:#A80036;stroke-width:2.0999999999999996;" x1="1296.4" x2="1461.6" y1="439.6" y2="439.6"/><!--MD5=[42fa18dda7351a0ae87d9497de925436]
class Logic--><rect codeLine="25" fill="#FEFECE" filter="url(#fu2vpbcm5ntu9)" height="67.2" id="Logic" style="stroke:#A80036;stroke-width:2.0999999999999996;" width="86.8" x="1040.2" y="232.4"/><ellipse cx="1061.2" cy="254.8" fill="#ADD1B2" rx="15.4" ry="15.4" style="stroke:#A80036;stroke-width:1.3999999999999997;"/><path d="M1064,249.9 Q1064.2844,249.2 1064.6125,248.85 Q1064.9406,248.5 1065.3125,248.5 Q1065.9687,248.5 1066.3844,248.8937 Q1066.8,249.2875 1066.8,250.2062 L1066.8,252.3937 Q1066.8,253.3125 1066.4062,253.7062 Q1066.0125,254.1 1065.4,254.1 Q1064.8531,254.1 1064.5031,253.8594 Q1064.1531,253.6187 1064,252.9844 Q1063.9344,252.5469 1063.6937,252.3062 Q1063.2562,251.8469 1062.4687,251.5844 Q1061.6812,251.3 1060.8937,251.3 Q1059.9094,251.3 1059.0781,251.6937 Q1058.2687,252.0875 1057.6344,252.9625 Q1057,253.8375 1057,255.0406 L1057,256.3312 Q1057,257.775 1058.1812,258.7375 Q1059.3625,259.7 1061.4625,259.7 Q1062.7094,259.7 1063.5844,259.4156 Q1064.0875,259.2625 1064.6562,258.7594 Q1065.0281,258.475 1065.225,258.3875 Q1065.4219,258.3 1065.6625,258.3 Q1066.1219,258.3 1066.45,258.6719 Q1066.8,259.0219 1066.8,259.525 Q1066.8,260.0062 1066.3187,260.575 Q1065.6187,261.4062 1064.5031,261.8656 Q1063.0375,262.5 1061.2437,262.5 Q1059.1437,262.5 1057.4594,261.6687 Q1056.1031,261.0125 1055.1406,259.5906 Q1054.2,258.1687 1054.2,256.4844 L1054.2,254.9531 Q1054.2,253.2031 1055.0312,251.6719 Q1055.8844,250.1406 1057.35,249.3312 Q1058.8375,248.5 1060.5,248.5 Q1061.5062,248.5 1062.3812,248.85 Q1063.2562,249.2 1064,249.9 Z " fill="#000000"/><text fill="#000000" font-family="sans-serif" font-size="16.8" lengthAdjust="spacing" textLength="42" x="1080.8" y="261.6742">Logic</text><line style="stroke:#A80036;stroke-width:2.0999999999999996;" x1="1041.6" x2="1125.6" y1="277.2" y2="277.2"/><line style="stroke:#A80036;stroke-width:2.0999999999999996;" x1="1041.6" x2="1125.6" y1="288.4" y2="288.4"/><!--MD5=[aa7c398f85d0e989819e4485701a0990]
class ProposeWord--><rect codeLine="26" fill="#FEFECE" filter="url(#fu2vpbcm5ntu9)" height="67.2" id="ProposeWord" style="stroke:#A80036;stroke-width:2.0999999999999996;" width="151.2" x="701.4" y="686"/><ellipse cx="722.4" cy="708.4" fill="#ADD1B2" rx="15.4" ry="15.4" style="stroke:#A80036;stroke-width:1.3999999999999997;"/><path d="M725.2,703.5 Q725.4844,702.8 725.8125,702.45 Q726.1406,702.1 726.5125,702.1 Q727.1687,702.1 727.5844,702.4937 Q728,702.8875 728,703.8062 L728,705.9937 Q728,706.9125 727.6062,707.3062 Q727.2125,707.7 726.6,707.7 Q726.0531,707.7 725.7031,707.4594 Q725.3531,707.2187 725.2,706.5844 Q725.1344,706.1469 724.8937,705.9062 Q724.4562,705.4469 723.6687,705.1844 Q722.8812,704.9 722.0937,704.9 Q721.1094,704.9 720.2781,705.2937 Q719.4687,705.6875 718.8344,706.5625 Q718.2,707.4375 718.2,708.6406 L718.2,709.9312 Q718.2,711.375 719.3812,712.3375 Q720.5625,713.3 722.6625,713.3 Q723.9094,713.3 724.7844,713.0156 Q725.2875,712.8625 725.8562,712.3594 Q726.2281,712.075 726.425,711.9875 Q726.6219,711.9 726.8625,711.9 Q727.3219,711.9 727.65,712.2719 Q728,712.6219 728,713.125 Q728,713.6062 727.5187,714.175 Q726.8187,715.0062 725.7031,715.4656 Q724.2375,716.1 722.4437,716.1 Q720.3437,716.1 718.6594,715.2687 Q717.3031,714.6125 716.3406,713.1906 Q715.4,711.7687 715.4,710.0844 L715.4,708.5531 Q715.4,706.8031 716.2312,705.2719 Q717.0844,703.7406 718.55,702.9312 Q720.0375,702.1 721.7,702.1 Q722.7062,702.1 723.5812,702.45 Q724.4562,702.8 725.2,703.5 Z " fill="#000000"/><text fill="#000000" font-family="sans-serif" font-size="16.8" lengthAdjust="spacing" textLength="106.4" x="742" y="715.2742">ProposeWord</text><line style="stroke:#A80036;stroke-width:2.0999999999999996;" x1="702.8" x2="851.2" y1="730.8" y2="730.8"/><line style="stroke:#A80036;stroke-width:2.0999999999999996;" x1="702.8" x2="851.2" y1="742" y2="742"/><!--MD5=[1e8c54f5ac0ec684c0f71587f512d7a6]
class SecretWord--><rect codeLine="27" fill="#FEFECE" filter="url(#fu2vpbcm5ntu9)" height="67.2" id="SecretWord" style="stroke:#A80036;stroke-width:2.0999999999999996;" width="134.4" x="938" y="534.8"/><ellipse cx="959" cy="557.2" fill="#ADD1B2" rx="15.4" ry="15.4" style="stroke:#A80036;stroke-width:1.3999999999999997;"/><path d="M961.8,552.3 Q962.0844,551.6 962.4125,551.25 Q962.7406,550.9 963.1125,550.9 Q963.7687,550.9 964.1844,551.2937 Q964.6,551.6875 964.6,552.6062 L964.6,554.7937 Q964.6,555.7125 964.2062,556.1062 Q963.8125,556.5 963.2,556.5 Q962.6531,556.5 962.3031,556.2594 Q961.9531,556.0187 961.8,555.3844 Q961.7344,554.9469 961.4937,554.7062 Q961.0562,554.2469 960.2687,553.9844 Q959.4812,553.7 958.6937,553.7 Q957.7094,553.7 956.8781,554.0937 Q956.0687,554.4875 955.4344,555.3625 Q954.8,556.2375 954.8,557.4406 L954.8,558.7312 Q954.8,560.175 955.9812,561.1375 Q957.1625,562.1 959.2625,562.1 Q960.5094,562.1 961.3844,561.8156 Q961.8875,561.6625 962.4562,561.1594 Q962.8281,560.875 963.025,560.7875 Q963.2219,560.7 963.4625,560.7 Q963.9219,560.7 964.25,561.0719 Q964.6,561.4219 964.6,561.925 Q964.6,562.4062 964.1187,562.975 Q963.4187,563.8062 962.3031,564.2656 Q960.8375,564.9 959.0437,564.9 Q956.9437,564.9 955.2594,564.0687 Q953.9031,563.4125 952.9406,561.9906 Q952,560.5687 952,558.8844 L952,557.3531 Q952,555.6031 952.8312,554.0719 Q953.6844,552.5406 955.15,551.7312 Q956.6375,550.9 958.3,550.9 Q959.3062,550.9 960.1812,551.25 Q961.0562,551.6 961.8,552.3 Z " fill="#000000"/><text fill="#000000" font-family="sans-serif" font-size="16.8" lengthAdjust="spacing" textLength="89.6" x="978.6" y="564.0742">SecretWord</text><line style="stroke:#A80036;stroke-width:2.0999999999999996;" x1="939.4" x2="1071" y1="579.6" y2="579.6"/><line style="stroke:#A80036;stroke-width:2.0999999999999996;" x1="939.4" x2="1071" y1="590.8" y2="590.8"/><!--MD5=[7dc9f4e9588c839c0e53a881b84874c2]
class HangedPart--><rect codeLine="28" fill="#FEFECE" filter="url(#fu2vpbcm5ntu9)" height="67.2" id="HangedPart" style="stroke:#A80036;stroke-width:2.0999999999999996;" width="137.2" x="901.6" y="686"/><ellipse cx="922.6" cy="708.4" fill="#EB937F" rx="15.4" ry="15.4" style="stroke:#A80036;stroke-width:1.3999999999999997;"/><path d="M920.5,709.8 L920.5,712.6 L926.1,712.6 L926.1,711.2 L926.1,710.5219 L926.975,709.8 L927.5,709.8 L928.025,709.8 L928.9,710.5219 L928.9,711.2 L928.9,715.4 L917.7,715.4 L917.0219,715.4 L916.3,714.525 L916.3,714 L916.3,713.475 L917.0219,712.6 L917.7,712.6 L917.7,712.6 L917.7,704.2 L917.7,704.2 L917.0219,704.2 L916.3,703.325 L916.3,702.8 L916.3,702.275 L917.0219,701.4 L917.7,701.4 L928.9,701.4 L928.9,705.6 L928.9,706.2781 L928.025,707 L927.5,707 L926.975,707 L926.1,706.2781 L926.1,705.6 L926.1,704.2 L920.5,704.2 L920.5,707 L921.9,707 L921.9,706.3219 L921.9,706.3219 L922.775,705.6 L923.3,705.6 L923.825,705.6 L924.7,706.3219 L924.7,707 L924.7,709.8 L924.7,710.4781 L923.825,711.2 L923.825,711.2 L923.3,711.2 L922.775,711.2 L921.9,710.4781 L921.9,710.4781 L921.9,709.8 L920.5,709.8 Z " fill="#000000"/><text fill="#000000" font-family="sans-serif" font-size="16.8" lengthAdjust="spacing" textLength="92.4" x="942.2" y="715.2742">HangedPart</text><line style="stroke:#A80036;stroke-width:2.0999999999999996;" x1="903" x2="1037.4" y1="730.8" y2="730.8"/><line style="stroke:#A80036;stroke-width:2.0999999999999996;" x1="903" x2="1037.4" y1="742" y2="742"/><!--MD5=[dd91eae41778c45e12552e5329e240e8]
class Turn--><rect codeLine="29" fill="#FEFECE" filter="url(#fu2vpbcm5ntu9)" height="67.2" id="Turn" style="stroke:#A80036;stroke-width:2.0999999999999996;" width="79.8" x="895.3" y="383.6"/><ellipse cx="916.3" cy="406" fill="#ADD1B2" rx="15.4" ry="15.4" style="stroke:#A80036;stroke-width:1.3999999999999997;"/><path d="M919.1,401.1 Q919.3844,400.4 919.7125,400.05 Q920.0406,399.7 920.4125,399.7 Q921.0687,399.7 921.4844,400.0937 Q921.9,400.4875 921.9,401.4062 L921.9,403.5937 Q921.9,404.5125 921.5062,404.9062 Q921.1125,405.3 920.5,405.3 Q919.9531,405.3 919.6031,405.0594 Q919.2531,404.8187 919.1,404.1844 Q919.0344,403.7469 918.7937,403.5062 Q918.3562,403.0469 917.5687,402.7844 Q916.7812,402.5 915.9937,402.5 Q915.0094,402.5 914.1781,402.8937 Q913.3687,403.2875 912.7344,404.1625 Q912.1,405.0375 912.1,406.2406 L912.1,407.5312 Q912.1,408.975 913.2812,409.9375 Q914.4625,410.9 916.5625,410.9 Q917.8094,410.9 918.6844,410.6156 Q919.1875,410.4625 919.7562,409.9594 Q920.1281,409.675 920.325,409.5875 Q920.5219,409.5 920.7625,409.5 Q921.2219,409.5 921.55,409.8719 Q921.9,410.2219 921.9,410.725 Q921.9,411.2062 921.4187,411.775 Q920.7187,412.6062 919.6031,413.0656 Q918.1375,413.7 916.3437,413.7 Q914.2437,413.7 912.5594,412.8687 Q911.2031,412.2125 910.2406,410.7906 Q909.3,409.3687 909.3,407.6844 L909.3,406.1531 Q909.3,404.4031 910.1312,402.8719 Q910.9844,401.3406 912.45,400.5312 Q913.9375,399.7 915.6,399.7 Q916.6062,399.7 917.4812,400.05 Q918.3562,400.4 919.1,401.1 Z " fill="#000000"/><text fill="#000000" font-family="sans-serif" font-size="16.8" lengthAdjust="spacing" textLength="35" x="935.9" y="412.8742">Turn</text><line style="stroke:#A80036;stroke-width:2.0999999999999996;" x1="896.7" x2="973.7" y1="428.4" y2="428.4"/><line style="stroke:#A80036;stroke-width:2.0999999999999996;" x1="896.7" x2="973.7" y1="439.6" y2="439.6"/><!--MD5=[2cb47ba637a0d19583e6199456f6ad0b]
class Player--><rect codeLine="30" fill="#FEFECE" filter="url(#fu2vpbcm5ntu9)" height="67.2" id="Player" style="stroke:#A80036;stroke-width:2.0999999999999996;" width="92.4" x="796.6" y="534.8"/><ellipse cx="817.6" cy="557.2" fill="#ADD1B2" rx="15.4" ry="15.4" style="stroke:#A80036;stroke-width:1.3999999999999997;"/><path d="M820.4,552.3 Q820.6844,551.6 821.0125,551.25 Q821.3406,550.9 821.7125,550.9 Q822.3687,550.9 822.7844,551.2937 Q823.2,551.6875 823.2,552.6062 L823.2,554.7937 Q823.2,555.7125 822.8062,556.1062 Q822.4125,556.5 821.8,556.5 Q821.2531,556.5 820.9031,556.2594 Q820.5531,556.0187 820.4,555.3844 Q820.3344,554.9469 820.0937,554.7062 Q819.6562,554.2469 818.8687,553.9844 Q818.0812,553.7 817.2937,553.7 Q816.3094,553.7 815.4781,554.0937 Q814.6687,554.4875 814.0344,555.3625 Q813.4,556.2375 813.4,557.4406 L813.4,558.7312 Q813.4,560.175 814.5812,561.1375 Q815.7625,562.1 817.8625,562.1 Q819.1094,562.1 819.9844,561.8156 Q820.4875,561.6625 821.0562,561.1594 Q821.4281,560.875 821.625,560.7875 Q821.8219,560.7 822.0625,560.7 Q822.5219,560.7 822.85,561.0719 Q823.2,561.4219 823.2,561.925 Q823.2,562.4062 822.7187,562.975 Q822.0187,563.8062 820.9031,564.2656 Q819.4375,564.9 817.6437,564.9 Q815.5437,564.9 813.8594,564.0687 Q812.5031,563.4125 811.5406,561.9906 Q810.6,560.5687 810.6,558.8844 L810.6,557.3531 Q810.6,555.6031 811.4312,554.0719 Q812.2844,552.5406 813.75,551.7312 Q815.2375,550.9 816.9,550.9 Q817.9062,550.9 818.7812,551.25 Q819.6562,551.6 820.4,552.3 Z " fill="#000000"/><text fill="#000000" font-family="sans-serif" font-size="16.8" lengthAdjust="spacing" textLength="47.6" x="837.2" y="564.0742">Player</text><line style="stroke:#A80036;stroke-width:2.0999999999999996;" x1="798" x2="887.6" y1="579.6" y2="579.6"/><line style="stroke:#A80036;stroke-width:2.0999999999999996;" x1="798" x2="887.6" y1="590.8" y2="590.8"/><!--MD5=[b6dcce5e5ef3c84b0b048d11301373dd]
class Game--><rect codeLine="31" fill="#FEFECE" filter="url(#fu2vpbcm5ntu9)" height="67.2" id="Game" style="stroke:#A80036;stroke-width:2.0999999999999996;" width="92.4" x="1037.4" y="383.6"/><ellipse cx="1058.4" cy="406" fill="#ADD1B2" rx="15.4" ry="15.4" style="stroke:#A80036;stroke-width:1.3999999999999997;"/><path d="M1061.2,401.1 Q1061.4844,400.4 1061.8125,400.05 Q1062.1406,399.7 1062.5125,399.7 Q1063.1687,399.7 1063.5844,400.0937 Q1064,400.4875 1064,401.4062 L1064,403.5937 Q1064,404.5125 1063.6062,404.9062 Q1063.2125,405.3 1062.6,405.3 Q1062.0531,405.3 1061.7031,405.0594 Q1061.3531,404.8187 1061.2,404.1844 Q1061.1344,403.7469 1060.8937,403.5062 Q1060.4562,403.0469 1059.6687,402.7844 Q1058.8812,402.5 1058.0937,402.5 Q1057.1094,402.5 1056.2781,402.8937 Q1055.4687,403.2875 1054.8344,404.1625 Q1054.2,405.0375 1054.2,406.2406 L1054.2,407.5312 Q1054.2,408.975 1055.3812,409.9375 Q1056.5625,410.9 1058.6625,410.9 Q1059.9094,410.9 1060.7844,410.6156 Q1061.2875,410.4625 1061.8562,409.9594 Q1062.2281,409.675 1062.425,409.5875 Q1062.6219,409.5 1062.8625,409.5 Q1063.3219,409.5 1063.65,409.8719 Q1064,410.2219 1064,410.725 Q1064,411.2062 1063.5187,411.775 Q1062.8187,412.6062 1061.7031,413.0656 Q1060.2375,413.7 1058.4437,413.7 Q1056.3437,413.7 1054.6594,412.8687 Q1053.3031,412.2125 1052.3406,410.7906 Q1051.4,409.3687 1051.4,407.6844 L1051.4,406.1531 Q1051.4,404.4031 1052.2312,402.8719 Q1053.0844,401.3406 1054.55,400.5312 Q1056.0375,399.7 1057.7,399.7 Q1058.7062,399.7 1059.5812,400.05 Q1060.4562,400.4 1061.2,401.1 Z " fill="#000000"/><text fill="#000000" font-family="sans-serif" font-size="16.8" lengthAdjust="spacing" textLength="47.6" x="1078" y="412.8742">Game</text><line style="stroke:#A80036;stroke-width:2.0999999999999996;" x1="1038.8" x2="1128.4" y1="428.4" y2="428.4"/><line style="stroke:#A80036;stroke-width:2.0999999999999996;" x1="1038.8" x2="1128.4" y1="439.6" y2="439.6"/><!--MD5=[60d6b92408f98aed8df94d5c6e04aa63]
class State--><rect codeLine="32" fill="#FEFECE" filter="url(#fu2vpbcm5ntu9)" height="67.2" id="State" style="stroke:#A80036;stroke-width:2.0999999999999996;" width="84" x="1121.4" y="534.8"/><ellipse cx="1142.4" cy="557.2" fill="#ADD1B2" rx="15.4" ry="15.4" style="stroke:#A80036;stroke-width:1.3999999999999997;"/><path d="M1145.2,552.3 Q1145.4844,551.6 1145.8125,551.25 Q1146.1406,550.9 1146.5125,550.9 Q1147.1687,550.9 1147.5844,551.2937 Q1148,551.6875 1148,552.6062 L1148,554.7937 Q1148,555.7125 1147.6062,556.1062 Q1147.2125,556.5 1146.6,556.5 Q1146.0531,556.5 1145.7031,556.2594 Q1145.3531,556.0187 1145.2,555.3844 Q1145.1344,554.9469 1144.8937,554.7062 Q1144.4562,554.2469 1143.6687,553.9844 Q1142.8812,553.7 1142.0937,553.7 Q1141.1094,553.7 1140.2781,554.0937 Q1139.4687,554.4875 1138.8344,555.3625 Q1138.2,556.2375 1138.2,557.4406 L1138.2,558.7312 Q1138.2,560.175 1139.3812,561.1375 Q1140.5625,562.1 1142.6625,562.1 Q1143.9094,562.1 1144.7844,561.8156 Q1145.2875,561.6625 1145.8562,561.1594 Q1146.2281,560.875 1146.425,560.7875 Q1146.6219,560.7 1146.8625,560.7 Q1147.3219,560.7 1147.65,561.0719 Q1148,561.4219 1148,561.925 Q1148,562.4062 1147.5187,562.975 Q1146.8187,563.8062 1145.7031,564.2656 Q1144.2375,564.9 1142.4437,564.9 Q1140.3437,564.9 1138.6594,564.0687 Q1137.3031,563.4125 1136.3406,561.9906 Q1135.4,560.5687 1135.4,558.8844 L1135.4,557.3531 Q1135.4,555.6031 1136.2312,554.0719 Q1137.0844,552.5406 1138.55,551.7312 Q1140.0375,550.9 1141.7,550.9 Q1142.7062,550.9 1143.5812,551.25 Q1144.4562,551.6 1145.2,552.3 Z " fill="#000000"/><text fill="#000000" font-family="sans-serif" font-size="16.8" lengthAdjust="spacing" textLength="39.2" x="1162" y="564.0742">State</text><line style="stroke:#A80036;stroke-width:2.0999999999999996;" x1="1122.8" x2="1204" y1="579.6" y2="579.6"/><line style="stroke:#A80036;stroke-width:2.0999999999999996;" x1="1122.8" x2="1204" y1="590.8" y2="590.8"/><!--MD5=[167506e288131cdf3986fedef83acd94]
class StateValue--><rect codeLine="33" fill="#FEFECE" filter="url(#fu2vpbcm5ntu9)" height="67.2" id="StateValue" style="stroke:#A80036;stroke-width:2.0999999999999996;" width="127.4" x="1088.5" y="686"/><ellipse cx="1109.5" cy="708.4" fill="#EB937F" rx="15.4" ry="15.4" style="stroke:#A80036;stroke-width:1.3999999999999997;"/><path d="M1107.4,709.8 L1107.4,712.6 L1113,712.6 L1113,711.2 L1113,710.5219 L1113.875,709.8 L1114.4,709.8 L1114.925,709.8 L1115.8,710.5219 L1115.8,711.2 L1115.8,715.4 L1104.6,715.4 L1103.9219,715.4 L1103.2,714.525 L1103.2,714 L1103.2,713.475 L1103.9219,712.6 L1104.6,712.6 L1104.6,712.6 L1104.6,704.2 L1104.6,704.2 L1103.9219,704.2 L1103.2,703.325 L1103.2,702.8 L1103.2,702.275 L1103.9219,701.4 L1104.6,701.4 L1115.8,701.4 L1115.8,705.6 L1115.8,706.2781 L1114.925,707 L1114.4,707 L1113.875,707 L1113,706.2781 L1113,705.6 L1113,704.2 L1107.4,704.2 L1107.4,707 L1108.8,707 L1108.8,706.3219 L1108.8,706.3219 L1109.675,705.6 L1110.2,705.6 L1110.725,705.6 L1111.6,706.3219 L1111.6,707 L1111.6,709.8 L1111.6,710.4781 L1110.725,711.2 L1110.725,711.2 L1110.2,711.2 L1109.675,711.2 L1108.8,710.4781 L1108.8,710.4781 L1108.8,709.8 L1107.4,709.8 Z " fill="#000000"/><text fill="#000000" font-family="sans-serif" font-size="16.8" lengthAdjust="spacing" textLength="82.6" x="1129.1" y="715.2742">StateValue</text><line style="stroke:#A80036;stroke-width:2.0999999999999996;" x1="1089.9" x2="1214.5" y1="730.8" y2="730.8"/><line style="stroke:#A80036;stroke-width:2.0999999999999996;" x1="1089.9" x2="1214.5" y1="742" y2="742"/><!--MD5=[6741a2aa1692821dc3ed1fc83dbb2896]
link Logic to Game--><path codeLine="36" d="M1083.6,316.4 C1083.6,316.4 1083.6,349.552 1083.6,364.504 " fill="none" id="Logic-Game" style="stroke:#A80036;stroke-width:1.3999999999999997;"/><polygon fill="#A80036" points="1083.6,383.152,1089.2,370.552,1083.6,376.152,1078,370.552,1083.6,383.152" style="stroke:#A80036;stroke-width:1.3999999999999997;"/><line style="stroke:#A80036;stroke-width:1.3999999999999997;" x1="1083.6" x2="1083.6" y1="376.152" y2="364.952"/><polygon fill="#A80036" points="1083.6,299.6,1078,308,1083.6,316.4,1089.2,308,1083.6,299.6" style="stroke:#A80036;stroke-width:1.3999999999999997;"/><!--MD5=[98c712d6c16a4ce2e31b2930753001e2]
link Hanged to View--><path codeLine="38" d="M1013.207,103.149 C1013.207,103.149 793.408,137.802 679,170.8 C615.482,189.112 545.342,217.63 497.504,238.406 " fill="none" id="Hanged-View" style="stroke:#A80036;stroke-width:1.3999999999999997;"/><polygon fill="#A80036" points="480.312,245.966,494.1003,246.0245,486.7207,243.1502,489.595,235.7706,480.312,245.966" style="stroke:#A80036;stroke-width:1.3999999999999997;"/><line style="stroke:#A80036;stroke-width:1.3999999999999997;" x1="486.7207" x2="496.972" y1="243.1502" y2="238.637"/><polygon fill="#A80036" points="1029.84,100.786,1020.7359,96.4231,1013.207,103.149,1022.3112,107.5118,1029.84,100.786" style="stroke:#A80036;stroke-width:1.3999999999999997;"/><!--MD5=[34ad7eb222c81a08ccc175dd3309ae0c]
link Hanged to Logic--><path codeLine="39" d="M1083.6,143.122 C1083.6,143.122 1083.6,191.73 1083.6,213.444 " fill="none" id="Hanged-Logic" style="stroke:#A80036;stroke-width:1.3999999999999997;"/><polygon fill="#A80036" points="1083.6,232.19,1089.2,219.59,1083.6,225.19,1078,219.59,1083.6,232.19" style="stroke:#A80036;stroke-width:1.3999999999999997;"/><line style="stroke:#A80036;stroke-width:1.3999999999999997;" x1="1083.6" x2="1083.6" y1="225.19" y2="213.99"/><polygon fill="#A80036" points="1083.6,126.322,1078,134.722,1083.6,143.122,1089.2,134.722,1083.6,126.322" style="stroke:#A80036;stroke-width:1.3999999999999997;"/><!--MD5=[f3529716a8974626251ce6317d1f6267]
link Hanged to Controller--><path codeLine="40" d="M1137.164,116.48 C1218.42,152.46 1375.276,228.242 1488.2,322 C1508.01,338.45 1527.386,359.632 1542.52,377.692 " fill="none" id="Hanged-to-Controller" style="stroke:#A80036;stroke-width:1.3999999999999997;"/><polygon fill="#A80036" points="1547.07,383.194,1543.3106,369.928,1542.5907,377.8148,1534.7039,377.0949,1547.07,383.194" style="stroke:#A80036;stroke-width:1.3999999999999997;"/><!--MD5=[659ed500b9b8ead0181f4562a7521276]
link Logic to Controller--><path codeLine="42" d="M1143.9557,273.2327 C1143.9557,273.2327 1458.576,306.306 1488.2,322 C1508.822,332.92 1526.84,351.05 1540.854,368.466 " fill="none" id="Logic-Controller" style="stroke:#A80036;stroke-width:1.3999999999999997;"/><polygon fill="#A80036" points="1552.096,383.39,1548.9953,369.9548,1547.8874,377.7965,1540.0457,376.6885,1552.096,383.39" style="stroke:#A80036;stroke-width:1.3999999999999997;"/><line style="stroke:#A80036;stroke-width:1.3999999999999997;" x1="1547.8874" x2="1541.155" y1="377.7965" y2="368.851"/><polygon fill="#FFFFFF" points="1127.238,271.572,1135.0433,277.9749,1143.9557,273.2327,1136.1504,266.8298,1127.238,271.572" style="stroke:#A80036;stroke-width:1.3999999999999997;"/><!--MD5=[d97c95d7197a20d753a2598eef0a9990]
reverse link View to StartView--><path codeLine="43" d="M474.054,323.582 C486.388,343.7 499.87,365.694 510.58,383.152 " fill="none" id="View-backto-StartView" style="stroke:#A80036;stroke-width:1.3999999999999997;"/><polygon fill="none" points="465.626,328.594,459.34,299.6,482.342,318.346,465.626,328.594" style="stroke:#A80036;stroke-width:1.3999999999999997;"/><!--MD5=[0dfeee938dbbe881c93d2dae14981b59]
reverse link View to ProposeView--><path codeLine="44" d="M405.678,323.582 C393.526,343.7 380.254,365.694 369.712,383.152 " fill="none" id="View-backto-ProposeView" style="stroke:#A80036;stroke-width:1.3999999999999997;"/><polygon fill="none" points="397.292,318.5,420.154,299.6,414.078,328.636,397.292,318.5" style="stroke:#A80036;stroke-width:1.3999999999999997;"/><!--MD5=[f1671096ad5b49033c7e76bf4da11fbf]
reverse link View to ResumeView--><path codeLine="45" d="M371.476,279.104 C334.432,287.406 288.82,300.93 252,322 C224.196,337.918 198.072,363.132 179.592,383.404 " fill="none" id="View-backto-ResumeView" style="stroke:#A80036;stroke-width:1.3999999999999997;"/><polygon fill="none" points="369.6,269.486,399,273.504,373.506,288.68,369.6,269.486" style="stroke:#A80036;stroke-width:1.3999999999999997;"/><!--MD5=[354d6deacb49030493b7fd8cb23ebdce]
reverse link Controller to StartController--><path codeLine="47" d="M1533.546,473.48 C1520.484,489.314 1504.93,505.638 1488.2,518 C1477.042,526.246 1464.288,533.428 1451.436,539.56 " fill="none" id="Controller-backto-StartController" style="stroke:#A80036;stroke-width:1.3999999999999997;"/><polygon fill="none" points="1525.916,467.348,1550.766,451.15,1541.442,479.304,1525.916,467.348" style="stroke:#A80036;stroke-width:1.3999999999999997;"/><!--MD5=[f447e35400d120693a19fd34f2d8422e]
reverse link Controller to ProposeController--><path codeLine="48" d="M1580.726,478.828 C1583.414,497.812 1586.27,518.056 1588.58,534.352 " fill="none" id="Controller-backto-ProposeController" style="stroke:#A80036;stroke-width:1.3999999999999997;"/><polygon fill="none" points="1570.982,479.892,1576.75,450.8,1590.386,477.148,1570.982,479.892" style="stroke:#A80036;stroke-width:1.3999999999999997;"/><!--MD5=[0093c52fe06068e87ede88549f960621]
reverse link Controller to RestartController--><path codeLine="49" d="M1651.496,465.29 C1689.758,487.83 1734.74,514.318 1769.194,534.604 " fill="none" id="Controller-backto-RestartController" style="stroke:#A80036;stroke-width:1.3999999999999997;"/><polygon fill="none" points="1646.036,473.452,1626.884,450.8,1655.976,456.568,1646.036,473.452" style="stroke:#A80036;stroke-width:1.3999999999999997;"/><!--MD5=[1839f461b64dd62341b819acde30d7ff]
link Logic to Turn--><path codeLine="52" d="M1026.9473,308.7891 C1026.9473,308.7891 1016.47,317.884 1012.2,322 C997.388,336.308 982.66,353.374 970.116,368.998 " fill="none" id="Logic-Turn" style="stroke:#A80036;stroke-width:1.3999999999999997;"/><polygon fill="#A80036" points="958.818,383.39,971.0027,376.9362,963.14,377.8836,962.1926,370.0209,958.818,383.39" style="stroke:#A80036;stroke-width:1.3999999999999997;"/><line style="stroke:#A80036;stroke-width:1.3999999999999997;" x1="963.14" x2="970.046" y1="377.8836" y2="369.068"/><polygon fill="#A80036" points="1039.99,298.2,1029.939,299.147,1026.9473,308.7891,1036.9984,307.8421,1039.99,298.2" style="stroke:#A80036;stroke-width:1.3999999999999997;"/><!--MD5=[f6bf945722e30f83fc6f64ad9c21e270]
link Game to State--><path codeLine="53" d="M1108.8641,465.602 C1108.8641,465.602 1128.232,501.592 1137.08,518.042 " fill="none" id="Game-State" style="stroke:#A80036;stroke-width:1.3999999999999997;"/><polygon fill="#A80036" points="1145.844,534.352,1144.8122,520.6023,1142.5303,528.186,1134.9466,525.9041,1145.844,534.352" style="stroke:#A80036;stroke-width:1.3999999999999997;"/><line style="stroke:#A80036;stroke-width:1.3999999999999997;" x1="1142.5303" x2="1137.22" y1="528.186" y2="518.315"/><polygon fill="#FFFFFF" points="1100.918,450.8,1099.9571,460.8497,1108.8641,465.602,1109.8251,455.5523,1100.918,450.8" style="stroke:#A80036;stroke-width:1.3999999999999997;"/><!--MD5=[04ee8f1a549f099cd30b455604f649af]
link State to StateValue--><path codeLine="54" d="M1159.6896,618.7516 C1159.6896,618.7516 1157.198,651.952 1156.064,666.904 " fill="none" id="State-StateValue" style="stroke:#A80036;stroke-width:1.3999999999999997;"/><polygon fill="#A80036" points="1154.664,685.552,1161.2026,673.4126,1155.1944,678.5721,1150.0348,672.5639,1154.664,685.552" style="stroke:#A80036;stroke-width:1.3999999999999997;"/><line style="stroke:#A80036;stroke-width:1.3999999999999997;" x1="1155.1944" x2="1156.036" y1="678.5721" y2="667.401"/><polygon fill="#FFFFFF" points="1160.964,602,1154.7429,609.951,1159.6896,618.7516,1165.9107,610.8006,1160.964,602" style="stroke:#A80036;stroke-width:1.3999999999999997;"/><!--MD5=[d81713d91ad05be3b975338c4816ee0b]
link Turn to Player--><path codeLine="56" d="M906.2679,465.0588 C906.2679,465.0588 883.288,501.984 872.956,518.56 " fill="none" id="Turn-Player" style="stroke:#A80036;stroke-width:1.3999999999999997;"/><polygon fill="#A80036" points="863.128,534.352,874.544,526.6192,866.8297,528.4108,865.0381,520.6965,863.128,534.352" style="stroke:#A80036;stroke-width:1.3999999999999997;"/><line style="stroke:#A80036;stroke-width:1.3999999999999997;" x1="866.8297" x2="872.746" y1="528.4108" y2="518.903"/><polygon fill="#A80036" points="915.152,450.8,905.957,454.9681,906.2679,465.0588,915.4629,460.8908,915.152,450.8" style="stroke:#A80036;stroke-width:1.3999999999999997;"/><!--MD5=[618aa4f88f0d486e43eaa8e2e8cb2397]
link Player to ProposeWord--><path codeLine="57" d="M828.52,602 C818.51,624.596 805.042,654.948 794.402,678.958 " fill="none" id="Player-to-ProposeWord" style="stroke:#A80036;stroke-width:1.3999999999999997;"/><polygon fill="#A80036" points="791.476,685.552,801.7053,676.3064,794.3153,679.1537,791.468,671.7636,791.476,685.552" style="stroke:#A80036;stroke-width:1.3999999999999997;"/><!--MD5=[13d803242f4ca1b46cacbcbeaa7a0f51]
link Player to HangedPart--><path codeLine="58" d="M870.45,602 C890.176,624.988 916.79,655.984 937.566,680.176 " fill="none" id="Player-to-HangedPart" style="stroke:#A80036;stroke-width:1.3999999999999997;"/><polygon fill="#A80036" points="942.172,685.552,938.2239,672.3409,937.6165,680.2372,929.7202,679.6298,942.172,685.552" style="stroke:#A80036;stroke-width:1.3999999999999997;"/><!--MD5=[b316d152e17edf25a09e2c3be670efbe]
link Game to SecretWord--><path codeLine="60" d="M1066.59,450.8 C1054.648,473.396 1038.618,503.748 1025.934,527.758 " fill="none" id="Game-to-SecretWord" style="stroke:#A80036;stroke-width:1.3999999999999997;"/><polygon fill="#A80036" points="1022.448,534.352,1033.2799,525.8203,1025.714,528.1606,1023.3737,520.5947,1022.448,534.352" style="stroke:#A80036;stroke-width:1.3999999999999997;"/><!--MD5=[1af2b15dac0fdb08a4086020e06bd206]
@startuml
package "main" {
class Hanged
}

package "views"{
abstract class View
    package "console" {
        class StartView
        class ProposeView
        class ResumeView
    }
}

package "controllers"{
abstract class Controller
class StartController
class ProposeController
class RestartController
interface ControllerVisitor

}


package "models" {
class Logic
class ProposeWord
class SecretWord
enum HangedPart
class Turn
class Player
class Game
class State
enum StateValue
}

Logic *- -> Game

Hanged *- -> View
Hanged *- -> Logic
Hanged - -> Controller

Logic o- -> Controller
View <|- - StartView
View <|- - ProposeView
View <|- - ResumeView

Controller <|- - StartController
Controller <|- - ProposeController
Controller <|- - RestartController


Logic *- -> Turn
Game o- -> State
State o- -> StateValue

Turn *- -> Player
Player - -> ProposeWord
Player - -> HangedPart

Game - -> SecretWord



@enduml

PlantUML version 1.2021.7(Sun May 23 14:40:07 CEST 2021)
(GPL source distribution)
Java Runtime: OpenJDK Runtime Environment
JVM: OpenJDK 64-Bit Server VM
Default Encoding: Cp1252
Language: es
Country: ES
--></g></svg>