<?xml version="1.0" encoding="UTF-8" standalone="no"?><svg xmlns="http://www.w3.org/2000/svg" xmlns:xlink="http://www.w3.org/1999/xlink" contentScriptType="application/ecmascript" contentStyleType="text/css" height="336.6px" preserveAspectRatio="none" style="width:817px;height:336px;background:#FFFFFF;" version="1.1" viewBox="0 0 817 336" width="817.8px" zoomAndPan="magnify"><defs><filter height="300%" id="fqz5o7w14oqpa" width="300%" x="-1" y="-1"><feGaussianBlur result="blurOut" stdDeviation="1.2"/><feColorMatrix in="blurOut" result="blurOut2" type="matrix" values="0 0 0 0 0 0 0 0 0 0 0 0 0 0 0 0 0 0 .4 0"/><feOffset dx="2.4" dy="2.4" in="blurOut2" result="blurOut3"/><feBlend in="SourceGraphic" in2="blurOut3" mode="normal"/></filter></defs><g><!--MD5=[a70b0d373322012744ecc119c63f921b]
cluster main--><polygon fill="#FFFFFF" filter="url(#fqz5o7w14oqpa)" points="396,3.6,419.4,3.6,423.6,17.7656,460.8,17.7656,460.8,63.6,396,63.6,396,3.6" style="stroke:#000000;stroke-width:0.8999999999999999;"/><line style="stroke:#000000;stroke-width:0.8999999999999999;" x1="396" x2="423.6" y1="17.7656" y2="17.7656"/><text fill="#000000" font-family="sans-serif" font-size="8.4" font-weight="bold" lengthAdjust="spacing" textLength="19.8" x="398.4" y="13.5199">main</text><!--MD5=[e2a75efa8a0f57c2afae8bf75386f79c]
cluster views--><polygon fill="#FFFFFF" filter="url(#fqz5o7w14oqpa)" points="9.6,78,37.8,78,42,92.1656,276.6,92.1656,276.6,217.2,9.6,217.2,9.6,78" style="stroke:#000000;stroke-width:0.8999999999999999;"/><line style="stroke:#000000;stroke-width:0.8999999999999999;" x1="9.6" x2="42" y1="92.1656" y2="92.1656"/><text fill="#000000" font-family="sans-serif" font-size="8.4" font-weight="bold" lengthAdjust="spacing" textLength="24.6" x="12" y="87.9199">views</text><!--MD5=[4b7a55d430ce43d42ce9ebad9e6b4010]
cluster console--><polygon fill="#FFFFFF" filter="url(#fqz5o7w14oqpa)" points="24,142.8,61.2,142.8,65.4,156.9656,262.2,156.9656,262.2,202.8,24,202.8,24,142.8" style="stroke:#000000;stroke-width:0.8999999999999999;"/><line style="stroke:#000000;stroke-width:0.8999999999999999;" x1="24" x2="65.4" y1="156.9656" y2="156.9656"/><text fill="#000000" font-family="sans-serif" font-size="8.4" font-weight="bold" lengthAdjust="spacing" textLength="33.6" x="26.4" y="152.7199">console</text><!--MD5=[f4e70ef68289585296b9045165e58692]
cluster controllers--><polygon fill="#FFFFFF" filter="url(#fqz5o7w14oqpa)" points="519,142.8,568.8,142.8,573,156.9656,807.6,156.9656,807.6,267.6,519,267.6,519,142.8" style="stroke:#000000;stroke-width:0.8999999999999999;"/><line style="stroke:#000000;stroke-width:0.8999999999999999;" x1="519" x2="573" y1="156.9656" y2="156.9656"/><text fill="#000000" font-family="sans-serif" font-size="8.4" font-weight="bold" lengthAdjust="spacing" textLength="46.2" x="521.4" y="152.7199">controllers</text><!--MD5=[a60570e4b426f702ccbb0d459e3b9417]
cluster models--><polygon fill="#FFFFFF" filter="url(#fqz5o7w14oqpa)" points="291,78,325.2,78,329.4,92.1656,504.6,92.1656,504.6,332.4,291,332.4,291,78" style="stroke:#000000;stroke-width:0.8999999999999999;"/><line style="stroke:#000000;stroke-width:0.8999999999999999;" x1="291" x2="329.4" y1="92.1656" y2="92.1656"/><text fill="#000000" font-family="sans-serif" font-size="8.4" font-weight="bold" lengthAdjust="spacing" textLength="30.6" x="293.4" y="87.9199">models</text><!--MD5=[d7ec263f7daf4a6472ede7f2d3e0d6e7]
class Hanged--><rect codeLine="2" fill="#FEFECE" filter="url(#fqz5o7w14oqpa)" height="28.8" id="Hanged" style="stroke:#A80036;stroke-width:0.8999999999999999;" width="45.6" x="405.6" y="25.2"/><ellipse cx="414.6" cy="34.8" fill="#ADD1B2" rx="6.6" ry="6.6" style="stroke:#A80036;stroke-width:0.6;"/><path d="M415.8,32.7 Q415.9219,32.4 416.0625,32.25 Q416.2031,32.1 416.3625,32.1 Q416.6438,32.1 416.8219,32.2688 Q417,32.4375 417,32.8313 L417,33.7688 Q417,34.1625 416.8313,34.3313 Q416.6625,34.5 416.4,34.5 Q416.1656,34.5 416.0156,34.3969 Q415.8656,34.2937 415.8,34.0219 Q415.7719,33.8344 415.6688,33.7312 Q415.4813,33.5344 415.1438,33.4219 Q414.8063,33.3 414.4688,33.3 Q414.0469,33.3 413.6906,33.4688 Q413.3438,33.6375 413.0719,34.0125 Q412.8,34.3875 412.8,34.9031 L412.8,35.4563 Q412.8,36.075 413.3063,36.4875 Q413.8125,36.9 414.7125,36.9 Q415.2469,36.9 415.6219,36.7781 Q415.8375,36.7125 416.0813,36.4969 Q416.2406,36.375 416.325,36.3375 Q416.4094,36.3 416.5125,36.3 Q416.7094,36.3 416.85,36.4594 Q417,36.6094 417,36.825 Q417,37.0313 416.7938,37.275 Q416.4938,37.6313 416.0156,37.8281 Q415.3875,38.1 414.6188,38.1 Q413.7188,38.1 412.9969,37.7438 Q412.4156,37.4625 412.0031,36.8531 Q411.6,36.2438 411.6,35.5219 L411.6,34.8656 Q411.6,34.1156 411.9563,33.4594 Q412.3219,32.8031 412.95,32.4563 Q413.5875,32.1 414.3,32.1 Q414.7313,32.1 415.1063,32.25 Q415.4813,32.4 415.8,32.7 Z " fill="#000000"/><text fill="#000000" font-family="sans-serif" font-size="7.2" lengthAdjust="spacing" textLength="26.4" x="423" y="37.7461">Hanged</text><line style="stroke:#A80036;stroke-width:0.8999999999999999;" x1="406.2" x2="450.6" y1="44.4" y2="44.4"/><line style="stroke:#A80036;stroke-width:0.8999999999999999;" x1="406.2" x2="450.6" y1="49.2" y2="49.2"/><!--MD5=[c045e12321b83266d36d22b9096c24ea]
class View--><rect codeLine="6" fill="#FEFECE" filter="url(#fqz5o7w14oqpa)" height="28.8" id="View" style="stroke:#A80036;stroke-width:0.8999999999999999;" width="34.8" x="171" y="99.6"/><ellipse cx="180" cy="109.2" fill="#A9DCDF" rx="6.6" ry="6.6" style="stroke:#A80036;stroke-width:0.6;"/><path d="M181.05,110.1 L179.0719,110.1 L178.8094,110.7 L178.8094,110.7 L179.0906,110.7 L179.4,111.075 L179.4,111.3 L179.4,111.525 L179.0906,111.9 L178.8094,111.9 L177.675,111.9 L177.3094,111.9 L177,111.525 L177,111.3 L177,111.075 L177.3094,110.7 L177.675,110.7 L179.0625,107.1 L178.5375,107.1 L177.9094,107.1 L177.6,106.725 L177.6,106.5 L177.6,106.275 L177.9094,105.9 L178.5375,105.9 L180.7406,105.9 L182.3531,110.7 L182.6906,110.7 L182.6906,110.7 L183,111.075 L183,111.3 L183,111.525 L182.6906,111.9 L182.3531,111.9 L181.2188,111.9 L180.9094,111.9 L180.6,111.525 L180.6,111.3 L180.6,111.075 L180.9094,110.7 L181.2188,110.7 L181.2188,110.7 L181.05,110.1 Z M180.7219,108.9 L180,106.7531 L179.3813,108.9 L180.7219,108.9 Z " fill="#000000"/><text fill="#000000" font-family="sans-serif" font-size="7.2" font-style="italic" lengthAdjust="spacing" textLength="15.6" x="188.4" y="112.1461">View</text><line style="stroke:#A80036;stroke-width:0.8999999999999999;" x1="171.6" x2="205.2" y1="118.8" y2="118.8"/><line style="stroke:#A80036;stroke-width:0.8999999999999999;" x1="171.6" x2="205.2" y1="123.6" y2="123.6"/><!--MD5=[443c52daef265809fdf31be84fc8ae4a]
class StartView--><rect codeLine="8" fill="#FEFECE" filter="url(#fqz5o7w14oqpa)" height="28.8" id="StartView" style="stroke:#A80036;stroke-width:0.8999999999999999;" width="49.8" x="202.5" y="164.4"/><ellipse cx="211.5" cy="174" fill="#ADD1B2" rx="6.6" ry="6.6" style="stroke:#A80036;stroke-width:0.6;"/><path d="M212.7,171.9 Q212.8219,171.6 212.9625,171.45 Q213.1031,171.3 213.2625,171.3 Q213.5438,171.3 213.7219,171.4688 Q213.9,171.6375 213.9,172.0313 L213.9,172.9688 Q213.9,173.3625 213.7313,173.5313 Q213.5625,173.7 213.3,173.7 Q213.0656,173.7 212.9156,173.5969 Q212.7656,173.4938 212.7,173.2219 Q212.6719,173.0344 212.5688,172.9313 Q212.3813,172.7344 212.0438,172.6219 Q211.7062,172.5 211.3688,172.5 Q210.9469,172.5 210.5906,172.6688 Q210.2438,172.8375 209.9719,173.2125 Q209.7,173.5875 209.7,174.1031 L209.7,174.6563 Q209.7,175.275 210.2062,175.6875 Q210.7125,176.1 211.6125,176.1 Q212.1469,176.1 212.5219,175.9781 Q212.7375,175.9125 212.9813,175.6969 Q213.1406,175.575 213.225,175.5375 Q213.3094,175.5 213.4125,175.5 Q213.6094,175.5 213.75,175.6594 Q213.9,175.8094 213.9,176.025 Q213.9,176.2313 213.6938,176.475 Q213.3937,176.8312 212.9156,177.0281 Q212.2875,177.3 211.5187,177.3 Q210.6188,177.3 209.8969,176.9438 Q209.3156,176.6625 208.9031,176.0531 Q208.5,175.4438 208.5,174.7219 L208.5,174.0656 Q208.5,173.3156 208.8563,172.6594 Q209.2219,172.0031 209.85,171.6563 Q210.4875,171.3 211.2,171.3 Q211.6313,171.3 212.0063,171.45 Q212.3813,171.6 212.7,171.9 Z " fill="#000000"/><text fill="#000000" font-family="sans-serif" font-size="7.2" lengthAdjust="spacing" textLength="30.6" x="219.9" y="176.9461">StartView</text><line style="stroke:#A80036;stroke-width:0.8999999999999999;" x1="203.1" x2="251.7" y1="183.6" y2="183.6"/><line style="stroke:#A80036;stroke-width:0.8999999999999999;" x1="203.1" x2="251.7" y1="188.4" y2="188.4"/><!--MD5=[af548d7eeba3607a103157b84173e841]
class ProposeView--><rect codeLine="9" fill="#FEFECE" filter="url(#fqz5o7w14oqpa)" height="28.8" id="ProposeView" style="stroke:#A80036;stroke-width:0.8999999999999999;" width="63" x="118.5" y="164.4"/><ellipse cx="127.5" cy="174" fill="#ADD1B2" rx="6.6" ry="6.6" style="stroke:#A80036;stroke-width:0.6;"/><path d="M128.7,171.9 Q128.8219,171.6 128.9625,171.45 Q129.1031,171.3 129.2625,171.3 Q129.5438,171.3 129.7219,171.4688 Q129.9,171.6375 129.9,172.0313 L129.9,172.9688 Q129.9,173.3625 129.7313,173.5313 Q129.5625,173.7 129.3,173.7 Q129.0656,173.7 128.9156,173.5969 Q128.7656,173.4938 128.7,173.2219 Q128.6719,173.0344 128.5688,172.9313 Q128.3813,172.7344 128.0438,172.6219 Q127.7063,172.5 127.3687,172.5 Q126.9469,172.5 126.5906,172.6688 Q126.2437,172.8375 125.9719,173.2125 Q125.7,173.5875 125.7,174.1031 L125.7,174.6563 Q125.7,175.275 126.2063,175.6875 Q126.7125,176.1 127.6125,176.1 Q128.1469,176.1 128.5219,175.9781 Q128.7375,175.9125 128.9813,175.6969 Q129.1406,175.575 129.225,175.5375 Q129.3094,175.5 129.4125,175.5 Q129.6094,175.5 129.75,175.6594 Q129.9,175.8094 129.9,176.025 Q129.9,176.2313 129.6938,176.475 Q129.3937,176.8312 128.9156,177.0281 Q128.2875,177.3 127.5188,177.3 Q126.6187,177.3 125.8969,176.9438 Q125.3156,176.6625 124.9031,176.0531 Q124.5,175.4438 124.5,174.7219 L124.5,174.0656 Q124.5,173.3156 124.8562,172.6594 Q125.2219,172.0031 125.85,171.6563 Q126.4875,171.3 127.2,171.3 Q127.6313,171.3 128.0063,171.45 Q128.3813,171.6 128.7,171.9 Z " fill="#000000"/><text fill="#000000" font-family="sans-serif" font-size="7.2" lengthAdjust="spacing" textLength="43.8" x="135.9" y="176.9461">ProposeView</text><line style="stroke:#A80036;stroke-width:0.8999999999999999;" x1="119.1" x2="180.9" y1="183.6" y2="183.6"/><line style="stroke:#A80036;stroke-width:0.8999999999999999;" x1="119.1" x2="180.9" y1="188.4" y2="188.4"/><!--MD5=[19088a99a8c1f36e582d33ac2f8fc6dd]
class ResumeView--><rect codeLine="10" fill="#FEFECE" filter="url(#fqz5o7w14oqpa)" height="28.8" id="ResumeView" style="stroke:#A80036;stroke-width:0.8999999999999999;" width="63.6" x="33.6" y="164.4"/><ellipse cx="42.6" cy="174" fill="#ADD1B2" rx="6.6" ry="6.6" style="stroke:#A80036;stroke-width:0.6;"/><path d="M43.8,171.9 Q43.9219,171.6 44.0625,171.45 Q44.2031,171.3 44.3625,171.3 Q44.6438,171.3 44.8219,171.4688 Q45,171.6375 45,172.0313 L45,172.9688 Q45,173.3625 44.8313,173.5313 Q44.6625,173.7 44.4,173.7 Q44.1656,173.7 44.0156,173.5969 Q43.8656,173.4938 43.8,173.2219 Q43.7719,173.0344 43.6687,172.9313 Q43.4812,172.7344 43.1438,172.6219 Q42.8063,172.5 42.4688,172.5 Q42.0469,172.5 41.6906,172.6688 Q41.3438,172.8375 41.0719,173.2125 Q40.8,173.5875 40.8,174.1031 L40.8,174.6563 Q40.8,175.275 41.3063,175.6875 Q41.8125,176.1 42.7125,176.1 Q43.2469,176.1 43.6219,175.9781 Q43.8375,175.9125 44.0813,175.6969 Q44.2406,175.575 44.325,175.5375 Q44.4094,175.5 44.5125,175.5 Q44.7094,175.5 44.85,175.6594 Q45,175.8094 45,176.025 Q45,176.2313 44.7937,176.475 Q44.4938,176.8312 44.0156,177.0281 Q43.3875,177.3 42.6188,177.3 Q41.7188,177.3 40.9969,176.9438 Q40.4156,176.6625 40.0031,176.0531 Q39.6,175.4438 39.6,174.7219 L39.6,174.0656 Q39.6,173.3156 39.9563,172.6594 Q40.3219,172.0031 40.95,171.6563 Q41.5875,171.3 42.3,171.3 Q42.7312,171.3 43.1062,171.45 Q43.4812,171.6 43.8,171.9 Z " fill="#000000"/><text fill="#000000" font-family="sans-serif" font-size="7.2" lengthAdjust="spacing" textLength="44.4" x="51" y="176.9461">ResumeView</text><line style="stroke:#A80036;stroke-width:0.8999999999999999;" x1="34.2" x2="96.6" y1="183.6" y2="183.6"/><line style="stroke:#A80036;stroke-width:0.8999999999999999;" x1="34.2" x2="96.6" y1="188.4" y2="188.4"/><!--MD5=[1d7ba1c7002d54515419844fbd155368]
class Controller--><rect codeLine="15" fill="#FEFECE" filter="url(#fqz5o7w14oqpa)" height="28.8" id="Controller" style="stroke:#A80036;stroke-width:0.8999999999999999;" width="51.6" x="536.4" y="164.4"/><ellipse cx="545.4" cy="174" fill="#A9DCDF" rx="6.6" ry="6.6" style="stroke:#A80036;stroke-width:0.6;"/><path d="M546.45,174.9 L544.4719,174.9 L544.2094,175.5 L544.2094,175.5 L544.4906,175.5 L544.8,175.875 L544.8,176.1 L544.8,176.325 L544.4906,176.7 L544.2094,176.7 L543.075,176.7 L542.7094,176.7 L542.4,176.325 L542.4,176.1 L542.4,175.875 L542.7094,175.5 L543.075,175.5 L544.4625,171.9 L543.9375,171.9 L543.3094,171.9 L543,171.525 L543,171.3 L543,171.075 L543.3094,170.7 L543.9375,170.7 L546.1406,170.7 L547.7531,175.5 L548.0906,175.5 L548.0906,175.5 L548.4,175.875 L548.4,176.1 L548.4,176.325 L548.0906,176.7 L547.7531,176.7 L546.6188,176.7 L546.3094,176.7 L546,176.325 L546,176.1 L546,175.875 L546.3094,175.5 L546.6188,175.5 L546.6188,175.5 L546.45,174.9 Z M546.1219,173.7 L545.4,171.5531 L544.7813,173.7 L546.1219,173.7 Z " fill="#000000"/><text fill="#000000" font-family="sans-serif" font-size="7.2" font-style="italic" lengthAdjust="spacing" textLength="32.4" x="553.8" y="176.9461">Controller</text><line style="stroke:#A80036;stroke-width:0.8999999999999999;" x1="537" x2="587.4" y1="183.6" y2="183.6"/><line style="stroke:#A80036;stroke-width:0.8999999999999999;" x1="537" x2="587.4" y1="188.4" y2="188.4"/><!--MD5=[47c371471411cfedeee61b1a5bdaee47]
class StartController--><rect codeLine="16" fill="#FEFECE" filter="url(#fqz5o7w14oqpa)" height="28.8" id="StartController" style="stroke:#A80036;stroke-width:0.8999999999999999;" width="66.6" x="528.9" y="229.2"/><ellipse cx="537.9" cy="238.8" fill="#ADD1B2" rx="6.6" ry="6.6" style="stroke:#A80036;stroke-width:0.6;"/><path d="M539.1,236.7 Q539.2219,236.4 539.3625,236.25 Q539.5031,236.1 539.6625,236.1 Q539.9438,236.1 540.1219,236.2687 Q540.3,236.4375 540.3,236.8312 L540.3,237.7687 Q540.3,238.1625 540.1313,238.3312 Q539.9625,238.5 539.7,238.5 Q539.4656,238.5 539.3156,238.3969 Q539.1656,238.2938 539.1,238.0219 Q539.0719,237.8344 538.9688,237.7313 Q538.7813,237.5344 538.4438,237.4219 Q538.1062,237.3 537.7688,237.3 Q537.3469,237.3 536.9906,237.4688 Q536.6438,237.6375 536.3719,238.0125 Q536.1,238.3875 536.1,238.9031 L536.1,239.4562 Q536.1,240.075 536.6062,240.4875 Q537.1125,240.9 538.0125,240.9 Q538.5469,240.9 538.9219,240.7781 Q539.1375,240.7125 539.3813,240.4969 Q539.5406,240.375 539.625,240.3375 Q539.7094,240.3 539.8125,240.3 Q540.0094,240.3 540.15,240.4594 Q540.3,240.6094 540.3,240.825 Q540.3,241.0313 540.0938,241.275 Q539.7937,241.6313 539.3156,241.8281 Q538.6875,242.1 537.9187,242.1 Q537.0188,242.1 536.2969,241.7437 Q535.7156,241.4625 535.3031,240.8531 Q534.9,240.2437 534.9,239.5219 L534.9,238.8656 Q534.9,238.1156 535.2563,237.4594 Q535.6219,236.8031 536.25,236.4562 Q536.8875,236.1 537.6,236.1 Q538.0313,236.1 538.4063,236.25 Q538.7813,236.4 539.1,236.7 Z " fill="#000000"/><text fill="#000000" font-family="sans-serif" font-size="7.2" lengthAdjust="spacing" textLength="47.4" x="546.3" y="241.7461">StartController</text><line style="stroke:#A80036;stroke-width:0.8999999999999999;" x1="529.5" x2="594.9" y1="248.4" y2="248.4"/><line style="stroke:#A80036;stroke-width:0.8999999999999999;" x1="529.5" x2="594.9" y1="253.2" y2="253.2"/><!--MD5=[0b95e4ee8b160a2b3b0650a9b235c496]
class ProposeController--><rect codeLine="17" fill="#FEFECE" filter="url(#fqz5o7w14oqpa)" height="28.8" id="ProposeController" style="stroke:#A80036;stroke-width:0.8999999999999999;" width="79.8" x="616.5" y="229.2"/><ellipse cx="625.5" cy="238.8" fill="#ADD1B2" rx="6.6" ry="6.6" style="stroke:#A80036;stroke-width:0.6;"/><path d="M626.7,236.7 Q626.8219,236.4 626.9625,236.25 Q627.1031,236.1 627.2625,236.1 Q627.5437,236.1 627.7219,236.2687 Q627.9,236.4375 627.9,236.8312 L627.9,237.7687 Q627.9,238.1625 627.7312,238.3312 Q627.5625,238.5 627.3,238.5 Q627.0656,238.5 626.9156,238.3969 Q626.7656,238.2938 626.7,238.0219 Q626.6719,237.8344 626.5688,237.7313 Q626.3813,237.5344 626.0437,237.4219 Q625.7063,237.3 625.3688,237.3 Q624.9469,237.3 624.5906,237.4688 Q624.2438,237.6375 623.9719,238.0125 Q623.7,238.3875 623.7,238.9031 L623.7,239.4562 Q623.7,240.075 624.2063,240.4875 Q624.7125,240.9 625.6125,240.9 Q626.1469,240.9 626.5219,240.7781 Q626.7375,240.7125 626.9812,240.4969 Q627.1406,240.375 627.225,240.3375 Q627.3094,240.3 627.4125,240.3 Q627.6094,240.3 627.75,240.4594 Q627.9,240.6094 627.9,240.825 Q627.9,241.0313 627.6938,241.275 Q627.3938,241.6313 626.9156,241.8281 Q626.2875,242.1 625.5188,242.1 Q624.6188,242.1 623.8969,241.7437 Q623.3156,241.4625 622.9031,240.8531 Q622.5,240.2437 622.5,239.5219 L622.5,238.8656 Q622.5,238.1156 622.8562,237.4594 Q623.2219,236.8031 623.85,236.4562 Q624.4875,236.1 625.2,236.1 Q625.6313,236.1 626.0063,236.25 Q626.3813,236.4 626.7,236.7 Z " fill="#000000"/><text fill="#000000" font-family="sans-serif" font-size="7.2" lengthAdjust="spacing" textLength="60.6" x="633.9" y="241.7461">ProposeController</text><line style="stroke:#A80036;stroke-width:0.8999999999999999;" x1="617.1" x2="695.7" y1="248.4" y2="248.4"/><line style="stroke:#A80036;stroke-width:0.8999999999999999;" x1="617.1" x2="695.7" y1="253.2" y2="253.2"/><!--MD5=[1a47bbf44ccee225df9b18c5b6629853]
class ResumeController--><rect codeLine="18" fill="#FEFECE" filter="url(#fqz5o7w14oqpa)" height="28.8" id="ResumeController" style="stroke:#A80036;stroke-width:0.8999999999999999;" width="80.4" x="717.6" y="229.2"/><ellipse cx="726.6" cy="238.8" fill="#ADD1B2" rx="6.6" ry="6.6" style="stroke:#A80036;stroke-width:0.6;"/><path d="M727.8,236.7 Q727.9219,236.4 728.0625,236.25 Q728.2031,236.1 728.3625,236.1 Q728.6438,236.1 728.8219,236.2687 Q729,236.4375 729,236.8312 L729,237.7687 Q729,238.1625 728.8313,238.3312 Q728.6625,238.5 728.4,238.5 Q728.1656,238.5 728.0156,238.3969 Q727.8656,238.2938 727.8,238.0219 Q727.7719,237.8344 727.6687,237.7313 Q727.4812,237.5344 727.1438,237.4219 Q726.8063,237.3 726.4688,237.3 Q726.0469,237.3 725.6906,237.4688 Q725.3438,237.6375 725.0719,238.0125 Q724.8,238.3875 724.8,238.9031 L724.8,239.4562 Q724.8,240.075 725.3063,240.4875 Q725.8125,240.9 726.7125,240.9 Q727.2469,240.9 727.6219,240.7781 Q727.8375,240.7125 728.0813,240.4969 Q728.2406,240.375 728.325,240.3375 Q728.4094,240.3 728.5125,240.3 Q728.7094,240.3 728.85,240.4594 Q729,240.6094 729,240.825 Q729,241.0313 728.7937,241.275 Q728.4938,241.6313 728.0156,241.8281 Q727.3875,242.1 726.6188,242.1 Q725.7188,242.1 724.9969,241.7437 Q724.4156,241.4625 724.0031,240.8531 Q723.6,240.2437 723.6,239.5219 L723.6,238.8656 Q723.6,238.1156 723.9563,237.4594 Q724.3219,236.8031 724.95,236.4562 Q725.5875,236.1 726.3,236.1 Q726.7312,236.1 727.1062,236.25 Q727.4812,236.4 727.8,236.7 Z " fill="#000000"/><text fill="#000000" font-family="sans-serif" font-size="7.2" lengthAdjust="spacing" textLength="61.2" x="735" y="241.7461">ResumeController</text><line style="stroke:#A80036;stroke-width:0.8999999999999999;" x1="718.2" x2="797.4" y1="248.4" y2="248.4"/><line style="stroke:#A80036;stroke-width:0.8999999999999999;" x1="718.2" x2="797.4" y1="253.2" y2="253.2"/><!--MD5=[42fa18dda7351a0ae87d9497de925436]
class Logic--><rect codeLine="24" fill="#FEFECE" filter="url(#fqz5o7w14oqpa)" height="28.8" id="Logic" style="stroke:#A80036;stroke-width:0.8999999999999999;" width="37.2" x="409.8" y="99.6"/><ellipse cx="418.8" cy="109.2" fill="#ADD1B2" rx="6.6" ry="6.6" style="stroke:#A80036;stroke-width:0.6;"/><path d="M420,107.1 Q420.1219,106.8 420.2625,106.65 Q420.4031,106.5 420.5625,106.5 Q420.8438,106.5 421.0219,106.6688 Q421.2,106.8375 421.2,107.2313 L421.2,108.1688 Q421.2,108.5625 421.0313,108.7313 Q420.8625,108.9 420.6,108.9 Q420.3656,108.9 420.2156,108.7969 Q420.0656,108.6938 420,108.4219 Q419.9719,108.2344 419.8688,108.1313 Q419.6813,107.9344 419.3438,107.8219 Q419.0062,107.7 418.6688,107.7 Q418.2469,107.7 417.8906,107.8687 Q417.5438,108.0375 417.2719,108.4125 Q417,108.7875 417,109.3031 L417,109.8563 Q417,110.475 417.5062,110.8875 Q418.0125,111.3 418.9125,111.3 Q419.4469,111.3 419.8219,111.1781 Q420.0375,111.1125 420.2813,110.8969 Q420.4406,110.775 420.525,110.7375 Q420.6094,110.7 420.7125,110.7 Q420.9094,110.7 421.05,110.8594 Q421.2,111.0094 421.2,111.225 Q421.2,111.4312 420.9938,111.675 Q420.6937,112.0313 420.2156,112.2281 Q419.5875,112.5 418.8187,112.5 Q417.9188,112.5 417.1969,112.1438 Q416.6156,111.8625 416.2031,111.2531 Q415.8,110.6438 415.8,109.9219 L415.8,109.2656 Q415.8,108.5156 416.1563,107.8594 Q416.5219,107.2031 417.15,106.8563 Q417.7875,106.5 418.5,106.5 Q418.9313,106.5 419.3063,106.65 Q419.6813,106.8 420,107.1 Z " fill="#000000"/><text fill="#000000" font-family="sans-serif" font-size="7.2" lengthAdjust="spacing" textLength="18" x="427.2" y="112.1461">Logic</text><line style="stroke:#A80036;stroke-width:0.8999999999999999;" x1="410.4" x2="446.4" y1="118.8" y2="118.8"/><line style="stroke:#A80036;stroke-width:0.8999999999999999;" x1="410.4" x2="446.4" y1="123.6" y2="123.6"/><!--MD5=[aa7c398f85d0e989819e4485701a0990]
class ProposeWord--><rect codeLine="25" fill="#FEFECE" filter="url(#fqz5o7w14oqpa)" height="28.8" id="ProposeWord" style="stroke:#A80036;stroke-width:0.8999999999999999;" width="64.8" x="300.6" y="294"/><ellipse cx="309.6" cy="303.6" fill="#ADD1B2" rx="6.6" ry="6.6" style="stroke:#A80036;stroke-width:0.6;"/><path d="M310.8,301.5 Q310.9219,301.2 311.0625,301.05 Q311.2031,300.9 311.3625,300.9 Q311.6438,300.9 311.8219,301.0687 Q312,301.2375 312,301.6312 L312,302.5687 Q312,302.9625 311.8313,303.1312 Q311.6625,303.3 311.4,303.3 Q311.1656,303.3 311.0156,303.1969 Q310.8656,303.0938 310.8,302.8219 Q310.7719,302.6344 310.6688,302.5313 Q310.4813,302.3344 310.1438,302.2219 Q309.8063,302.1 309.4688,302.1 Q309.0469,302.1 308.6906,302.2688 Q308.3438,302.4375 308.0719,302.8125 Q307.8,303.1875 307.8,303.7031 L307.8,304.2562 Q307.8,304.875 308.3063,305.2875 Q308.8125,305.7 309.7125,305.7 Q310.2469,305.7 310.6219,305.5781 Q310.8375,305.5125 311.0813,305.2969 Q311.2406,305.175 311.325,305.1375 Q311.4094,305.1 311.5125,305.1 Q311.7094,305.1 311.85,305.2594 Q312,305.4094 312,305.625 Q312,305.8313 311.7938,306.075 Q311.4938,306.4313 311.0156,306.6281 Q310.3875,306.9 309.6188,306.9 Q308.7188,306.9 307.9969,306.5438 Q307.4156,306.2625 307.0031,305.6531 Q306.6,305.0438 306.6,304.3219 L306.6,303.6656 Q306.6,302.9156 306.9563,302.2594 Q307.3219,301.6031 307.95,301.2562 Q308.5875,300.9 309.3,300.9 Q309.7313,300.9 310.1063,301.05 Q310.4813,301.2 310.8,301.5 Z " fill="#000000"/><text fill="#000000" font-family="sans-serif" font-size="7.2" lengthAdjust="spacing" textLength="45.6" x="318" y="306.5461">ProposeWord</text><line style="stroke:#A80036;stroke-width:0.8999999999999999;" x1="301.2" x2="364.8" y1="313.2" y2="313.2"/><line style="stroke:#A80036;stroke-width:0.8999999999999999;" x1="301.2" x2="364.8" y1="318" y2="318"/><!--MD5=[1e8c54f5ac0ec684c0f71587f512d7a6]
class SecretWord--><rect codeLine="26" fill="#FEFECE" filter="url(#fqz5o7w14oqpa)" height="28.8" id="SecretWord" style="stroke:#A80036;stroke-width:0.8999999999999999;" width="57.6" x="361.2" y="229.2"/><ellipse cx="370.2" cy="238.8" fill="#ADD1B2" rx="6.6" ry="6.6" style="stroke:#A80036;stroke-width:0.6;"/><path d="M371.4,236.7 Q371.5219,236.4 371.6625,236.25 Q371.8031,236.1 371.9625,236.1 Q372.2438,236.1 372.4219,236.2687 Q372.6,236.4375 372.6,236.8312 L372.6,237.7687 Q372.6,238.1625 372.4313,238.3312 Q372.2625,238.5 372,238.5 Q371.7656,238.5 371.6156,238.3969 Q371.4656,238.2938 371.4,238.0219 Q371.3719,237.8344 371.2688,237.7313 Q371.0813,237.5344 370.7438,237.4219 Q370.4063,237.3 370.0687,237.3 Q369.6469,237.3 369.2906,237.4688 Q368.9437,237.6375 368.6719,238.0125 Q368.4,238.3875 368.4,238.9031 L368.4,239.4562 Q368.4,240.075 368.9063,240.4875 Q369.4125,240.9 370.3125,240.9 Q370.8469,240.9 371.2219,240.7781 Q371.4375,240.7125 371.6813,240.4969 Q371.8406,240.375 371.925,240.3375 Q372.0094,240.3 372.1125,240.3 Q372.3094,240.3 372.45,240.4594 Q372.6,240.6094 372.6,240.825 Q372.6,241.0313 372.3938,241.275 Q372.0938,241.6313 371.6156,241.8281 Q370.9875,242.1 370.2188,242.1 Q369.3187,242.1 368.5969,241.7437 Q368.0156,241.4625 367.6031,240.8531 Q367.2,240.2437 367.2,239.5219 L367.2,238.8656 Q367.2,238.1156 367.5563,237.4594 Q367.9219,236.8031 368.55,236.4562 Q369.1875,236.1 369.9,236.1 Q370.3313,236.1 370.7063,236.25 Q371.0813,236.4 371.4,236.7 Z " fill="#000000"/><text fill="#000000" font-family="sans-serif" font-size="7.2" lengthAdjust="spacing" textLength="38.4" x="378.6" y="241.7461">SecretWord</text><line style="stroke:#A80036;stroke-width:0.8999999999999999;" x1="361.8" x2="418.2" y1="248.4" y2="248.4"/><line style="stroke:#A80036;stroke-width:0.8999999999999999;" x1="361.8" x2="418.2" y1="253.2" y2="253.2"/><!--MD5=[7dc9f4e9588c839c0e53a881b84874c2]
class HangedPart--><rect codeLine="27" fill="#FEFECE" filter="url(#fqz5o7w14oqpa)" height="28.8" id="HangedPart" style="stroke:#A80036;stroke-width:0.8999999999999999;" width="58.8" x="386.4" y="294"/><ellipse cx="395.4" cy="303.6" fill="#EB937F" rx="6.6" ry="6.6" style="stroke:#A80036;stroke-width:0.6;"/><path d="M394.5,304.2 L394.5,305.4 L396.9,305.4 L396.9,304.8 L396.9,304.5094 L397.275,304.2 L397.5,304.2 L397.725,304.2 L398.1,304.5094 L398.1,304.8 L398.1,306.6 L393.3,306.6 L393.0094,306.6 L392.7,306.225 L392.7,306 L392.7,305.775 L393.0094,305.4 L393.3,305.4 L393.3,305.4 L393.3,301.8 L393.3,301.8 L393.0094,301.8 L392.7,301.425 L392.7,301.2 L392.7,300.975 L393.0094,300.6 L393.3,300.6 L398.1,300.6 L398.1,302.4 L398.1,302.6906 L397.725,303 L397.5,303 L397.275,303 L396.9,302.6906 L396.9,302.4 L396.9,301.8 L394.5,301.8 L394.5,303 L395.1,303 L395.1,302.7094 L395.1,302.7094 L395.475,302.4 L395.7,302.4 L395.925,302.4 L396.3,302.7094 L396.3,303 L396.3,304.2 L396.3,304.4906 L395.925,304.8 L395.925,304.8 L395.7,304.8 L395.475,304.8 L395.1,304.4906 L395.1,304.4906 L395.1,304.2 L394.5,304.2 Z " fill="#000000"/><text fill="#000000" font-family="sans-serif" font-size="7.2" lengthAdjust="spacing" textLength="39.6" x="403.8" y="306.5461">HangedPart</text><line style="stroke:#A80036;stroke-width:0.8999999999999999;" x1="387" x2="444.6" y1="313.2" y2="313.2"/><line style="stroke:#A80036;stroke-width:0.8999999999999999;" x1="387" x2="444.6" y1="318" y2="318"/><!--MD5=[dd91eae41778c45e12552e5329e240e8]
class Turn--><rect codeLine="28" fill="#FEFECE" filter="url(#fqz5o7w14oqpa)" height="28.8" id="Turn" style="stroke:#A80036;stroke-width:0.8999999999999999;" width="34.2" x="311.1" y="164.4"/><ellipse cx="320.1" cy="174" fill="#ADD1B2" rx="6.6" ry="6.6" style="stroke:#A80036;stroke-width:0.6;"/><path d="M321.3,171.9 Q321.4219,171.6 321.5625,171.45 Q321.7031,171.3 321.8625,171.3 Q322.1438,171.3 322.3219,171.4688 Q322.5,171.6375 322.5,172.0313 L322.5,172.9688 Q322.5,173.3625 322.3313,173.5313 Q322.1625,173.7 321.9,173.7 Q321.6656,173.7 321.5156,173.5969 Q321.3656,173.4938 321.3,173.2219 Q321.2719,173.0344 321.1688,172.9313 Q320.9813,172.7344 320.6438,172.6219 Q320.3063,172.5 319.9688,172.5 Q319.5469,172.5 319.1906,172.6688 Q318.8438,172.8375 318.5719,173.2125 Q318.3,173.5875 318.3,174.1031 L318.3,174.6563 Q318.3,175.275 318.8063,175.6875 Q319.3125,176.1 320.2125,176.1 Q320.7469,176.1 321.1219,175.9781 Q321.3375,175.9125 321.5813,175.6969 Q321.7406,175.575 321.825,175.5375 Q321.9094,175.5 322.0125,175.5 Q322.2094,175.5 322.35,175.6594 Q322.5,175.8094 322.5,176.025 Q322.5,176.2313 322.2938,176.475 Q321.9938,176.8312 321.5156,177.0281 Q320.8875,177.3 320.1188,177.3 Q319.2188,177.3 318.4969,176.9438 Q317.9156,176.6625 317.5031,176.0531 Q317.1,175.4438 317.1,174.7219 L317.1,174.0656 Q317.1,173.3156 317.4563,172.6594 Q317.8219,172.0031 318.45,171.6563 Q319.0875,171.3 319.8,171.3 Q320.2313,171.3 320.6063,171.45 Q320.9813,171.6 321.3,171.9 Z " fill="#000000"/><text fill="#000000" font-family="sans-serif" font-size="7.2" lengthAdjust="spacing" textLength="15" x="328.5" y="176.9461">Turn</text><line style="stroke:#A80036;stroke-width:0.8999999999999999;" x1="311.7" x2="344.7" y1="183.6" y2="183.6"/><line style="stroke:#A80036;stroke-width:0.8999999999999999;" x1="311.7" x2="344.7" y1="188.4" y2="188.4"/><!--MD5=[2cb47ba637a0d19583e6199456f6ad0b]
class Player--><rect codeLine="29" fill="#FEFECE" filter="url(#fqz5o7w14oqpa)" height="28.8" id="Player" style="stroke:#A80036;stroke-width:0.8999999999999999;" width="39.6" x="300.6" y="229.2"/><ellipse cx="309.6" cy="238.8" fill="#ADD1B2" rx="6.6" ry="6.6" style="stroke:#A80036;stroke-width:0.6;"/><path d="M310.8,236.7 Q310.9219,236.4 311.0625,236.25 Q311.2031,236.1 311.3625,236.1 Q311.6438,236.1 311.8219,236.2687 Q312,236.4375 312,236.8312 L312,237.7687 Q312,238.1625 311.8313,238.3312 Q311.6625,238.5 311.4,238.5 Q311.1656,238.5 311.0156,238.3969 Q310.8656,238.2938 310.8,238.0219 Q310.7719,237.8344 310.6688,237.7313 Q310.4813,237.5344 310.1438,237.4219 Q309.8063,237.3 309.4688,237.3 Q309.0469,237.3 308.6906,237.4688 Q308.3438,237.6375 308.0719,238.0125 Q307.8,238.3875 307.8,238.9031 L307.8,239.4562 Q307.8,240.075 308.3063,240.4875 Q308.8125,240.9 309.7125,240.9 Q310.2469,240.9 310.6219,240.7781 Q310.8375,240.7125 311.0813,240.4969 Q311.2406,240.375 311.325,240.3375 Q311.4094,240.3 311.5125,240.3 Q311.7094,240.3 311.85,240.4594 Q312,240.6094 312,240.825 Q312,241.0313 311.7938,241.275 Q311.4938,241.6313 311.0156,241.8281 Q310.3875,242.1 309.6188,242.1 Q308.7188,242.1 307.9969,241.7437 Q307.4156,241.4625 307.0031,240.8531 Q306.6,240.2437 306.6,239.5219 L306.6,238.8656 Q306.6,238.1156 306.9563,237.4594 Q307.3219,236.8031 307.95,236.4562 Q308.5875,236.1 309.3,236.1 Q309.7313,236.1 310.1063,236.25 Q310.4813,236.4 310.8,236.7 Z " fill="#000000"/><text fill="#000000" font-family="sans-serif" font-size="7.2" lengthAdjust="spacing" textLength="20.4" x="318" y="241.7461">Player</text><line style="stroke:#A80036;stroke-width:0.8999999999999999;" x1="301.2" x2="339.6" y1="248.4" y2="248.4"/><line style="stroke:#A80036;stroke-width:0.8999999999999999;" x1="301.2" x2="339.6" y1="253.2" y2="253.2"/><!--MD5=[b6dcce5e5ef3c84b0b048d11301373dd]
class Game--><rect codeLine="30" fill="#FEFECE" filter="url(#fqz5o7w14oqpa)" height="28.8" id="Game" style="stroke:#A80036;stroke-width:0.8999999999999999;" width="39.6" x="375" y="164.4"/><ellipse cx="384" cy="174" fill="#ADD1B2" rx="6.6" ry="6.6" style="stroke:#A80036;stroke-width:0.6;"/><path d="M385.2,171.9 Q385.3219,171.6 385.4625,171.45 Q385.6031,171.3 385.7625,171.3 Q386.0438,171.3 386.2219,171.4688 Q386.4,171.6375 386.4,172.0313 L386.4,172.9688 Q386.4,173.3625 386.2313,173.5313 Q386.0625,173.7 385.8,173.7 Q385.5656,173.7 385.4156,173.5969 Q385.2656,173.4938 385.2,173.2219 Q385.1719,173.0344 385.0687,172.9313 Q384.8812,172.7344 384.5438,172.6219 Q384.2063,172.5 383.8688,172.5 Q383.4469,172.5 383.0906,172.6688 Q382.7438,172.8375 382.4719,173.2125 Q382.2,173.5875 382.2,174.1031 L382.2,174.6563 Q382.2,175.275 382.7063,175.6875 Q383.2125,176.1 384.1125,176.1 Q384.6469,176.1 385.0219,175.9781 Q385.2375,175.9125 385.4813,175.6969 Q385.6406,175.575 385.725,175.5375 Q385.8094,175.5 385.9125,175.5 Q386.1094,175.5 386.25,175.6594 Q386.4,175.8094 386.4,176.025 Q386.4,176.2313 386.1937,176.475 Q385.8938,176.8312 385.4156,177.0281 Q384.7875,177.3 384.0188,177.3 Q383.1188,177.3 382.3969,176.9438 Q381.8156,176.6625 381.4031,176.0531 Q381,175.4438 381,174.7219 L381,174.0656 Q381,173.3156 381.3563,172.6594 Q381.7219,172.0031 382.35,171.6563 Q382.9875,171.3 383.7,171.3 Q384.1312,171.3 384.5062,171.45 Q384.8812,171.6 385.2,171.9 Z " fill="#000000"/><text fill="#000000" font-family="sans-serif" font-size="7.2" lengthAdjust="spacing" textLength="20.4" x="392.4" y="176.9461">Game</text><line style="stroke:#A80036;stroke-width:0.8999999999999999;" x1="375.6" x2="414" y1="183.6" y2="183.6"/><line style="stroke:#A80036;stroke-width:0.8999999999999999;" x1="375.6" x2="414" y1="188.4" y2="188.4"/><!--MD5=[60d6b92408f98aed8df94d5c6e04aa63]
class State--><rect codeLine="31" fill="#FEFECE" filter="url(#fqz5o7w14oqpa)" height="28.8" id="State" style="stroke:#A80036;stroke-width:0.8999999999999999;" width="36" x="444.6" y="164.4"/><ellipse cx="453.6" cy="174" fill="#ADD1B2" rx="6.6" ry="6.6" style="stroke:#A80036;stroke-width:0.6;"/><path d="M454.8,171.9 Q454.9219,171.6 455.0625,171.45 Q455.2031,171.3 455.3625,171.3 Q455.6438,171.3 455.8219,171.4688 Q456,171.6375 456,172.0313 L456,172.9688 Q456,173.3625 455.8313,173.5313 Q455.6625,173.7 455.4,173.7 Q455.1656,173.7 455.0156,173.5969 Q454.8656,173.4938 454.8,173.2219 Q454.7719,173.0344 454.6688,172.9313 Q454.4813,172.7344 454.1438,172.6219 Q453.8063,172.5 453.4688,172.5 Q453.0469,172.5 452.6906,172.6688 Q452.3438,172.8375 452.0719,173.2125 Q451.8,173.5875 451.8,174.1031 L451.8,174.6563 Q451.8,175.275 452.3063,175.6875 Q452.8125,176.1 453.7125,176.1 Q454.2469,176.1 454.6219,175.9781 Q454.8375,175.9125 455.0813,175.6969 Q455.2406,175.575 455.325,175.5375 Q455.4094,175.5 455.5125,175.5 Q455.7094,175.5 455.85,175.6594 Q456,175.8094 456,176.025 Q456,176.2313 455.7938,176.475 Q455.4938,176.8312 455.0156,177.0281 Q454.3875,177.3 453.6188,177.3 Q452.7188,177.3 451.9969,176.9438 Q451.4156,176.6625 451.0031,176.0531 Q450.6,175.4438 450.6,174.7219 L450.6,174.0656 Q450.6,173.3156 450.9563,172.6594 Q451.3219,172.0031 451.95,171.6563 Q452.5875,171.3 453.3,171.3 Q453.7313,171.3 454.1063,171.45 Q454.4813,171.6 454.8,171.9 Z " fill="#000000"/><text fill="#000000" font-family="sans-serif" font-size="7.2" lengthAdjust="spacing" textLength="16.8" x="462" y="176.9461">State</text><line style="stroke:#A80036;stroke-width:0.8999999999999999;" x1="445.2" x2="480" y1="183.6" y2="183.6"/><line style="stroke:#A80036;stroke-width:0.8999999999999999;" x1="445.2" x2="480" y1="188.4" y2="188.4"/><!--MD5=[167506e288131cdf3986fedef83acd94]
class StateValue--><rect codeLine="32" fill="#FEFECE" filter="url(#fqz5o7w14oqpa)" height="28.8" id="StateValue" style="stroke:#A80036;stroke-width:0.8999999999999999;" width="54.6" x="440.1" y="229.2"/><ellipse cx="449.1" cy="238.8" fill="#EB937F" rx="6.6" ry="6.6" style="stroke:#A80036;stroke-width:0.6;"/><path d="M448.2,239.4 L448.2,240.6 L450.6,240.6 L450.6,240 L450.6,239.7094 L450.975,239.4 L451.2,239.4 L451.425,239.4 L451.8,239.7094 L451.8,240 L451.8,241.8 L447,241.8 L446.7094,241.8 L446.4,241.425 L446.4,241.2 L446.4,240.975 L446.7094,240.6 L447,240.6 L447,240.6 L447,237 L447,237 L446.7094,237 L446.4,236.625 L446.4,236.4 L446.4,236.175 L446.7094,235.8 L447,235.8 L451.8,235.8 L451.8,237.6 L451.8,237.8906 L451.425,238.2 L451.2,238.2 L450.975,238.2 L450.6,237.8906 L450.6,237.6 L450.6,237 L448.2,237 L448.2,238.2 L448.8,238.2 L448.8,237.9094 L448.8,237.9094 L449.175,237.6 L449.4,237.6 L449.625,237.6 L450,237.9094 L450,238.2 L450,239.4 L450,239.6906 L449.625,240 L449.625,240 L449.4,240 L449.175,240 L448.8,239.6906 L448.8,239.6906 L448.8,239.4 L448.2,239.4 Z " fill="#000000"/><text fill="#000000" font-family="sans-serif" font-size="7.2" lengthAdjust="spacing" textLength="35.4" x="457.5" y="241.7461">StateValue</text><line style="stroke:#A80036;stroke-width:0.8999999999999999;" x1="440.7" x2="494.1" y1="248.4" y2="248.4"/><line style="stroke:#A80036;stroke-width:0.8999999999999999;" x1="440.7" x2="494.1" y1="253.2" y2="253.2"/><!--MD5=[6741a2aa1692821dc3ed1fc83dbb2896]
link Logic to Game--><path codeLine="35" d="M417.7485,134.7671 C417.7485,134.7671 409.53,150.312 405.846,157.29 " fill="none" id="Logic-Game" style="stroke:#A80036;stroke-width:0.6;"/><polygon fill="#A80036" points="402.192,164.208,406.8355,160.5532,403.5926,161.555,402.5908,158.3122,402.192,164.208" style="stroke:#A80036;stroke-width:0.6;"/><line style="stroke:#A80036;stroke-width:0.6;" x1="403.5926" x2="405.837" y1="161.555" y2="157.311"/><polygon fill="#A80036" points="421.11,128.4,417.3069,130.4631,417.7485,134.7671,421.5516,132.7041,421.11,128.4" style="stroke:#A80036;stroke-width:0.6;"/><!--MD5=[98c712d6c16a4ce2e31b2930753001e2]
link Hanged to View--><path codeLine="37" d="M398.4768,46.1441 C398.4768,46.1441 327.18,61.824 291,73.2 C263.976,81.696 233.886,93.816 213.318,102.522 " fill="none" id="Hanged-View" style="stroke:#A80036;stroke-width:0.6;"/><polygon fill="#A80036" points="205.926,105.678,211.8347,105.761,208.6843,104.4982,209.9471,101.3478,205.926,105.678" style="stroke:#A80036;stroke-width:0.6;"/><line style="stroke:#A80036;stroke-width:0.6;" x1="208.6843" x2="213.102" y1="104.4982" y2="102.615"/><polygon fill="#A80036" points="405.528,44.688,401.517,43.0657,398.4768,46.1441,402.4878,47.7665,405.528,44.688" style="stroke:#A80036;stroke-width:0.6;"/><!--MD5=[34ad7eb222c81a08ccc175dd3309ae0c]
link Hanged to Logic--><path codeLine="38" d="M428.4,61.338 C428.4,61.338 428.4,82.17 428.4,91.476 " fill="none" id="Hanged-Logic" style="stroke:#A80036;stroke-width:0.6;"/><polygon fill="#A80036" points="428.4,99.51,430.8,94.11,428.4,96.51,426,94.11,428.4,99.51" style="stroke:#A80036;stroke-width:0.6;"/><line style="stroke:#A80036;stroke-width:0.6;" x1="428.4" x2="428.4" y1="96.51" y2="91.71"/><polygon fill="#A80036" points="428.4,54.138,426,57.738,428.4,61.338,430.8,57.738,428.4,54.138" style="stroke:#A80036;stroke-width:0.6;"/><!--MD5=[f3529716a8974626251ce6317d1f6267]
link Hanged to Controller--><path codeLine="39" d="M451.272,45.804 C467.676,50.766 489.468,59.412 504.6,73.2 C531.738,97.926 548.844,138.492 556.842,161.292 " fill="none" id="Hanged-to-Controller" style="stroke:#A80036;stroke-width:0.6;"/><polygon fill="#A80036" points="557.868,164.25,558.3787,158.3628,556.8911,161.4135,553.8404,159.9259,557.868,164.25" style="stroke:#A80036;stroke-width:0.6;"/><!--MD5=[659ed500b9b8ead0181f4562a7521276]
link Logic to Controller--><path codeLine="41" d="M454.0026,120.3441 C454.0026,120.3441 488.73,130.266 504.6,138 C516.648,143.874 528.972,152.118 539.106,159.606 " fill="none" id="Logic-Controller" style="stroke:#A80036;stroke-width:0.6;"/><polygon fill="#A80036" points="545.43,164.394,542.5704,159.2226,543.0371,162.5845,539.6753,163.0512,545.43,164.394" style="stroke:#A80036;stroke-width:0.6;"/><line style="stroke:#A80036;stroke-width:0.6;" x1="543.0371" x2="539.211" y1="162.5845" y2="159.684"/><polygon fill="#FFFFFF" points="447.018,118.596,449.9276,121.7982,454.0026,120.3441,451.093,117.1419,447.018,118.596" style="stroke:#A80036;stroke-width:0.6;"/><!--MD5=[d97c95d7197a20d753a2598eef0a9990]
reverse link View to StartView--><path codeLine="42" d="M203.166,138.678 C208.452,147.3 214.23,156.726 218.82,164.208 " fill="none" id="View-backto-StartView" style="stroke:#A80036;stroke-width:0.6;"/><polygon fill="none" points="199.554,140.826,196.86,128.4,206.718,136.434,199.554,140.826" style="stroke:#A80036;stroke-width:0.6;"/><!--MD5=[0dfeee938dbbe881c93d2dae14981b59]
reverse link View to ProposeView--><path codeLine="43" d="M173.862,138.678 C168.654,147.3 162.966,156.726 158.448,164.208 " fill="none" id="View-backto-ProposeView" style="stroke:#A80036;stroke-width:0.6;"/><polygon fill="none" points="170.268,136.5,180.066,128.4,177.462,140.844,170.268,136.5" style="stroke:#A80036;stroke-width:0.6;"/><!--MD5=[f1671096ad5b49033c7e76bf4da11fbf]
reverse link View to ResumeView--><path codeLine="44" d="M159.204,119.616 C143.328,123.174 123.78,128.97 108,138 C96.084,144.822 84.888,155.628 76.968,164.316 " fill="none" id="View-backto-ResumeView" style="stroke:#A80036;stroke-width:0.6;"/><polygon fill="none" points="158.4,115.494,171,117.216,160.074,123.72,158.4,115.494" style="stroke:#A80036;stroke-width:0.6;"/><!--MD5=[354d6deacb49030493b7fd8cb23ebdce]
reverse link Controller to StartController--><path codeLine="46" d="M562.2,205.212 C562.2,213.348 562.2,222.024 562.2,229.008 " fill="none" id="Controller-backto-StartController" style="stroke:#A80036;stroke-width:0.6;"/><polygon fill="none" points="558,205.2,562.2,193.2,566.4,205.2,558,205.2" style="stroke:#A80036;stroke-width:0.6;"/><!--MD5=[f447e35400d120693a19fd34f2d8422e]
reverse link Controller to ProposeController--><path codeLine="47" d="M592.662,199.968 C606.786,209.502 623.202,220.59 635.838,229.116 " fill="none" id="Controller-backto-ProposeController" style="stroke:#A80036;stroke-width:0.6;"/><polygon fill="none" points="590.238,203.394,582.642,193.2,594.936,196.434,590.238,203.394" style="stroke:#A80036;stroke-width:0.6;"/><!--MD5=[dfabfd7c269c7ef3ab5bdd4c723fcdb8]
reverse link Controller to ResumeController--><path codeLine="48" d="M599.616,191.568 C633.342,202.53 682.818,218.622 717.432,229.872 " fill="none" id="Controller-backto-ResumeController" style="stroke:#A80036;stroke-width:0.6;"/><polygon fill="none" points="598.29,195.552,588.174,187.848,600.882,187.56,598.29,195.552" style="stroke:#A80036;stroke-width:0.6;"/><!--MD5=[1839f461b64dd62341b819acde30d7ff]
link Logic to Turn--><path codeLine="50" d="M402.6412,120.8406 C402.6412,120.8406 375.564,130.308 364.2,138 C356.16,143.442 348.726,151.068 342.732,158.214 " fill="none" id="Logic-Turn" style="stroke:#A80036;stroke-width:0.6;"/><polygon fill="#A80036" points="337.854,164.304,343.1038,161.5911,339.7301,161.963,339.3582,158.5893,337.854,164.304" style="stroke:#A80036;stroke-width:0.6;"/><line style="stroke:#A80036;stroke-width:0.6;" x1="339.7301" x2="342.726" y1="161.963" y2="158.217"/><polygon fill="#A80036" points="409.56,118.848,405.4364,117.538,402.6412,120.8406,406.7648,122.1506,409.56,118.848" style="stroke:#A80036;stroke-width:0.6;"/><!--MD5=[153babd62505a2f5355991eb7c8026e3]
link Logic to State--><path codeLine="51" d="M439.2275,134.7437 C439.2275,134.7437 447.528,150.168 451.32,157.218 " fill="none" id="Logic-State" style="stroke:#A80036;stroke-width:0.6;"/><polygon fill="#A80036" points="455.076,164.208,454.6338,158.3153,453.6559,161.5654,450.4057,160.5875,455.076,164.208" style="stroke:#A80036;stroke-width:0.6;"/><line style="stroke:#A80036;stroke-width:0.6;" x1="453.6559" x2="451.38" y1="161.5654" y2="157.335"/><polygon fill="#FFFFFF" points="435.822,128.4,435.4102,132.707,439.2275,134.7437,439.6393,130.4367,435.822,128.4" style="stroke:#A80036;stroke-width:0.6;"/><!--MD5=[04ee8f1a549f099cd30b455604f649af]
link State to StateValue--><path codeLine="52" d="M464.1902,200.3793 C464.1902,200.3793 465.258,214.608 465.744,221.016 " fill="none" id="State-StateValue" style="stroke:#A80036;stroke-width:0.6;"/><polygon fill="#A80036" points="466.344,229.008,468.3279,223.4417,466.1167,226.0166,463.5417,223.8054,466.344,229.008" style="stroke:#A80036;stroke-width:0.6;"/><line style="stroke:#A80036;stroke-width:0.6;" x1="466.1167" x2="465.756" y1="226.0166" y2="221.229"/><polygon fill="#FFFFFF" points="463.644,193.2,461.524,196.9717,464.1902,200.3793,466.3102,196.6076,463.644,193.2" style="stroke:#A80036;stroke-width:0.6;"/><!--MD5=[d81713d91ad05be3b975338c4816ee0b]
link Turn to Player--><path codeLine="54" d="M325.6296,200.3462 C325.6296,200.3462 323.862,214.764 323.07,221.232 " fill="none" id="Turn-Player" style="stroke:#A80036;stroke-width:0.6;"/><polygon fill="#A80036" points="322.116,229.008,325.1569,223.9412,322.482,226.0304,320.3928,223.3555,322.116,229.008" style="stroke:#A80036;stroke-width:0.6;"/><line style="stroke:#A80036;stroke-width:0.6;" x1="322.482" x2="323.067" y1="226.0304" y2="221.265"/><polygon fill="#A80036" points="326.508,193.2,323.6867,196.4803,325.6296,200.3462,328.4509,197.0659,326.508,193.2" style="stroke:#A80036;stroke-width:0.6;"/><!--MD5=[618aa4f88f0d486e43eaa8e2e8cb2397]
link Player to ProposeWord--><path codeLine="55" d="M323.136,258 C325.038,267.6 327.588,280.47 329.616,290.718 " fill="none" id="Player-to-ProposeWord" style="stroke:#A80036;stroke-width:0.6;"/><polygon fill="#A80036" points="330.228,293.808,331.5321,288.0444,329.6446,290.8653,326.8237,288.9778,330.228,293.808" style="stroke:#A80036;stroke-width:0.6;"/><!--MD5=[13d803242f4ca1b46cacbcbeaa7a0f51]
link Player to HangedPart--><path codeLine="56" d="M333.786,258.192 C338.76,262.998 344.604,268.218 350.4,272.4 C360.678,279.822 372.69,286.752 383.598,292.488 " fill="none" id="Player-to-HangedPart" style="stroke:#A80036;stroke-width:0.6;"/><polygon fill="#A80036" points="386.346,293.916,382.6717,289.2879,383.6872,292.5265,380.4485,293.542,386.346,293.916" style="stroke:#A80036;stroke-width:0.6;"/><!--MD5=[b316d152e17edf25a09e2c3be670efbe]
link Game to SecretWord--><path codeLine="58" d="M393.756,193.2 C393.036,202.8 392.064,215.67 391.29,225.918 " fill="none" id="Game-to-SecretWord" style="stroke:#A80036;stroke-width:0.6;"/><polygon fill="#A80036" points="391.056,229.008,393.8505,223.8012,391.2789,226.0163,389.0638,223.4446,391.056,229.008" style="stroke:#A80036;stroke-width:0.6;"/><!--MD5=[2c8e8a002a23ee852c8b5fa27a1d7e81]
@startuml
package "main" {
class Hanged
}

package "views"{
abstract class View
    package "console" {
        class StartView
        class ProposeView
        class ResumeView
    }
}

package "controllers"{
abstract class Controller
class StartController
class ProposeController
class ResumeController

}


package "models" {
class Logic
class ProposeWord
class SecretWord
enum HangedPart
class Turn
class Player
class Game
class State
enum StateValue
}

Logic *- -> Game

Hanged *- -> View
Hanged *- -> Logic
Hanged - -> Controller

Logic o- -> Controller
View <|- - StartView
View <|- - ProposeView
View <|- - ResumeView

Controller <|- - StartController
Controller <|- - ProposeController
Controller <|- - ResumeController

Logic *- -> Turn
Logic o- -> State
State o- -> StateValue

Turn *- -> Player
Player - -> ProposeWord
Player - -> HangedPart

Game - -> SecretWord



@enduml

PlantUML version 1.2021.7(Sun May 23 14:40:07 CEST 2021)
(GPL source distribution)
Java Runtime: OpenJDK Runtime Environment
JVM: OpenJDK 64-Bit Server VM
Default Encoding: Cp1252
Language: es
Country: ES
--></g></svg>