<?xml version="1.0" encoding="UTF-8" standalone="no"?><svg xmlns="http://www.w3.org/2000/svg" xmlns:xlink="http://www.w3.org/1999/xlink" contentScriptType="application/ecmascript" contentStyleType="text/css" height="280.5px" preserveAspectRatio="none" style="width:676px;height:280px;background:#FFFFFF;" version="1.1" viewBox="0 0 676 280" width="676px" zoomAndPan="magnify"><defs><filter height="300%" id="f1k6hy99yrl15j" width="300%" x="-1" y="-1"><feGaussianBlur result="blurOut" stdDeviation="1.0"/><feColorMatrix in="blurOut" result="blurOut2" type="matrix" values="0 0 0 0 0 0 0 0 0 0 0 0 0 0 0 0 0 0 .4 0"/><feOffset dx="2.0" dy="2.0" in="blurOut2" result="blurOut3"/><feBlend in="SourceGraphic" in2="blurOut3" mode="normal"/></filter></defs><g><!--MD5=[a70b0d373322012744ecc119c63f921b]
cluster main--><polygon fill="#FFFFFF" filter="url(#f1k6hy99yrl15j)" points="330,3,349.5,3,353,14.8047,384,14.8047,384,53,330,53,330,3" style="stroke:#000000;stroke-width:0.75;"/><line style="stroke:#000000;stroke-width:0.75;" x1="330" x2="353" y1="14.8047" y2="14.8047"/><text fill="#000000" font-family="sans-serif" font-size="7" font-weight="bold" lengthAdjust="spacing" textLength="16.5" x="332" y="11.2666">main</text><!--MD5=[e2a75efa8a0f57c2afae8bf75386f79c]
cluster views--><polygon fill="#FFFFFF" filter="url(#f1k6hy99yrl15j)" points="8,65,31.5,65,35,76.8047,230.5,76.8047,230.5,235,8,235,8,65" style="stroke:#000000;stroke-width:0.75;"/><line style="stroke:#000000;stroke-width:0.75;" x1="8" x2="35" y1="76.8047" y2="76.8047"/><text fill="#000000" font-family="sans-serif" font-size="7" font-weight="bold" lengthAdjust="spacing" textLength="20.5" x="10" y="73.2666">views</text><!--MD5=[4b7a55d430ce43d42ce9ebad9e6b4010]
cluster console--><polygon fill="#FFFFFF" filter="url(#f1k6hy99yrl15j)" points="20,119,51,119,54.5,130.8047,218.5,130.8047,218.5,223,20,223,20,119" style="stroke:#000000;stroke-width:0.75;"/><line style="stroke:#000000;stroke-width:0.75;" x1="20" x2="54.5" y1="130.8047" y2="130.8047"/><text fill="#000000" font-family="sans-serif" font-size="7" font-weight="bold" lengthAdjust="spacing" textLength="28" x="22" y="127.2666">console</text><!--MD5=[f4e70ef68289585296b9045165e58692]
cluster controllers--><polygon fill="#FFFFFF" filter="url(#f1k6hy99yrl15j)" points="242.5,65,284,65,287.5,76.8047,479,76.8047,479,169,242.5,169,242.5,65" style="stroke:#000000;stroke-width:0.75;"/><line style="stroke:#000000;stroke-width:0.75;" x1="242.5" x2="287.5" y1="76.8047" y2="76.8047"/><text fill="#000000" font-family="sans-serif" font-size="7" font-weight="bold" lengthAdjust="spacing" textLength="38.5" x="244.5" y="73.2666">controllers</text><!--MD5=[a60570e4b426f702ccbb0d459e3b9417]
cluster models--><polygon fill="#FFFFFF" filter="url(#f1k6hy99yrl15j)" points="491,65,519.5,65,523,76.8047,667.5,76.8047,667.5,277,491,277,491,65" style="stroke:#000000;stroke-width:0.75;"/><line style="stroke:#000000;stroke-width:0.75;" x1="491" x2="523" y1="76.8047" y2="76.8047"/><text fill="#000000" font-family="sans-serif" font-size="7" font-weight="bold" lengthAdjust="spacing" textLength="25.5" x="493" y="73.2666">models</text><!--MD5=[c52f45833d539af9e29a9d34b8b7302b]
cluster utils--><polygon fill="#FFFFFF" filter="url(#f1k6hy99yrl15j)" points="420.5,3,438.5,3,442,14.8047,489.5,14.8047,489.5,53,420.5,53,420.5,3" style="stroke:#000000;stroke-width:0.75;"/><line style="stroke:#000000;stroke-width:0.75;" x1="420.5" x2="442" y1="14.8047" y2="14.8047"/><text fill="#000000" font-family="sans-serif" font-size="7" font-weight="bold" lengthAdjust="spacing" textLength="15" x="422.5" y="11.2666">utils</text><!--MD5=[67cd15ce44b6dd54f77054b62c31bf42]
cluster types--><polygon fill="#FFFFFF" filter="url(#f1k6hy99yrl15j)" points="514,3,536,3,539.5,14.8047,655,14.8047,655,53,514,53,514,3" style="stroke:#000000;stroke-width:0.75;"/><line style="stroke:#000000;stroke-width:0.75;" x1="514" x2="539.5" y1="14.8047" y2="14.8047"/><text fill="#000000" font-family="sans-serif" font-size="7" font-weight="bold" lengthAdjust="spacing" textLength="19" x="516" y="11.2666">types</text><!--MD5=[d7ec263f7daf4a6472ede7f2d3e0d6e7]
class Hanged--><rect codeLine="2" fill="#FEFECE" filter="url(#f1k6hy99yrl15j)" height="24" id="Hanged" style="stroke:#A80036;stroke-width:0.75;" width="38" x="338" y="21"/><ellipse cx="345.5" cy="29" fill="#ADD1B2" rx="5.5" ry="5.5" style="stroke:#A80036;stroke-width:0.5;"/><path d="M346.5,27.25 Q346.6016,27 346.7188,26.875 Q346.8359,26.75 346.9688,26.75 Q347.2031,26.75 347.3516,26.8906 Q347.5,27.0313 347.5,27.3594 L347.5,28.1406 Q347.5,28.4688 347.3594,28.6094 Q347.2188,28.75 347,28.75 Q346.8047,28.75 346.6797,28.6641 Q346.5547,28.5781 346.5,28.3516 Q346.4766,28.1953 346.3906,28.1094 Q346.2344,27.9453 345.9531,27.8516 Q345.6719,27.75 345.3906,27.75 Q345.0391,27.75 344.7422,27.8906 Q344.4531,28.0313 344.2266,28.3438 Q344,28.6563 344,29.0859 L344,29.5469 Q344,30.0625 344.4219,30.4063 Q344.8438,30.75 345.5938,30.75 Q346.0391,30.75 346.3516,30.6484 Q346.5313,30.5938 346.7344,30.4141 Q346.8672,30.3125 346.9375,30.2813 Q347.0078,30.25 347.0938,30.25 Q347.2578,30.25 347.375,30.3828 Q347.5,30.5078 347.5,30.6875 Q347.5,30.8594 347.3281,31.0625 Q347.0781,31.3594 346.6797,31.5234 Q346.1563,31.75 345.5156,31.75 Q344.7656,31.75 344.1641,31.4531 Q343.6797,31.2188 343.3359,30.7109 Q343,30.2031 343,29.6016 L343,29.0547 Q343,28.4297 343.2969,27.8828 Q343.6016,27.3359 344.125,27.0469 Q344.6563,26.75 345.25,26.75 Q345.6094,26.75 345.9219,26.875 Q346.2344,27 346.5,27.25 Z " fill="#000000"/><text fill="#000000" font-family="sans-serif" font-size="6" lengthAdjust="spacing" textLength="22" x="352.5" y="31.4551">Hanged</text><line style="stroke:#A80036;stroke-width:0.75;" x1="338.5" x2="375.5" y1="37" y2="37"/><line style="stroke:#A80036;stroke-width:0.75;" x1="338.5" x2="375.5" y1="41" y2="41"/><!--MD5=[c045e12321b83266d36d22b9096c24ea]
class View--><rect codeLine="6" fill="#FEFECE" filter="url(#f1k6hy99yrl15j)" height="24" id="View" style="stroke:#A80036;stroke-width:0.75;" width="29" x="169.5" y="83"/><ellipse cx="177" cy="91" fill="#A9DCDF" rx="5.5" ry="5.5" style="stroke:#A80036;stroke-width:0.5;"/><path d="M177.875,91.75 L176.2266,91.75 L176.0078,92.25 L176.0078,92.25 L176.2422,92.25 L176.5,92.5625 L176.5,92.75 L176.5,92.9375 L176.2422,93.25 L176.0078,93.25 L175.0625,93.25 L174.7578,93.25 L174.5,92.9375 L174.5,92.75 L174.5,92.5625 L174.7578,92.25 L175.0625,92.25 L176.2188,89.25 L175.7813,89.25 L175.2578,89.25 L175,88.9375 L175,88.75 L175,88.5625 L175.2578,88.25 L175.7813,88.25 L177.6172,88.25 L178.9609,92.25 L179.2422,92.25 L179.2422,92.25 L179.5,92.5625 L179.5,92.75 L179.5,92.9375 L179.2422,93.25 L178.9609,93.25 L178.0156,93.25 L177.7578,93.25 L177.5,92.9375 L177.5,92.75 L177.5,92.5625 L177.7578,92.25 L178.0156,92.25 L178.0156,92.25 L177.875,91.75 Z M177.6016,90.75 L177,88.9609 L176.4844,90.75 L177.6016,90.75 Z " fill="#000000"/><text fill="#000000" font-family="sans-serif" font-size="6" font-style="italic" lengthAdjust="spacing" textLength="13" x="184" y="93.4551">View</text><line style="stroke:#A80036;stroke-width:0.75;" x1="170" x2="198" y1="99" y2="99"/><line style="stroke:#A80036;stroke-width:0.75;" x1="170" x2="198" y1="103" y2="103"/><!--MD5=[51d729737bd84a4c43136dd336c2eea1]
class ConsoleView--><rect codeLine="39" fill="#FEFECE" filter="url(#f1k6hy99yrl15j)" height="24" id="ConsoleView" style="stroke:#A80036;stroke-width:0.75;" width="52.5" x="110.75" y="137"/><ellipse cx="118.25" cy="145" fill="#ADD1B2" rx="5.5" ry="5.5" style="stroke:#A80036;stroke-width:0.5;"/><path d="M119.25,143.25 Q119.3516,143 119.4688,142.875 Q119.5859,142.75 119.7188,142.75 Q119.9531,142.75 120.1016,142.8906 Q120.25,143.0313 120.25,143.3594 L120.25,144.1406 Q120.25,144.4688 120.1094,144.6094 Q119.9688,144.75 119.75,144.75 Q119.5547,144.75 119.4297,144.6641 Q119.3047,144.5781 119.25,144.3516 Q119.2266,144.1953 119.1406,144.1094 Q118.9844,143.9453 118.7031,143.8516 Q118.4219,143.75 118.1406,143.75 Q117.7891,143.75 117.4922,143.8906 Q117.2031,144.0313 116.9766,144.3438 Q116.75,144.6563 116.75,145.0859 L116.75,145.5469 Q116.75,146.0625 117.1719,146.4063 Q117.5938,146.75 118.3438,146.75 Q118.7891,146.75 119.1016,146.6484 Q119.2813,146.5938 119.4844,146.4141 Q119.6172,146.3125 119.6875,146.2813 Q119.7578,146.25 119.8438,146.25 Q120.0078,146.25 120.125,146.3828 Q120.25,146.5078 120.25,146.6875 Q120.25,146.8594 120.0781,147.0625 Q119.8281,147.3594 119.4297,147.5234 Q118.9063,147.75 118.2656,147.75 Q117.5156,147.75 116.9141,147.4531 Q116.4297,147.2188 116.0859,146.7109 Q115.75,146.2031 115.75,145.6016 L115.75,145.0547 Q115.75,144.4297 116.0469,143.8828 Q116.3516,143.3359 116.875,143.0469 Q117.4063,142.75 118,142.75 Q118.3594,142.75 118.6719,142.875 Q118.9844,143 119.25,143.25 Z " fill="#000000"/><text fill="#000000" font-family="sans-serif" font-size="6" lengthAdjust="spacing" textLength="36.5" x="125.25" y="147.4551">ConsoleView</text><line style="stroke:#A80036;stroke-width:0.75;" x1="111.25" x2="162.75" y1="153" y2="153"/><line style="stroke:#A80036;stroke-width:0.75;" x1="111.25" x2="162.75" y1="157" y2="157"/><!--MD5=[443c52daef265809fdf31be84fc8ae4a]
class StartView--><rect codeLine="9" fill="#FEFECE" filter="url(#f1k6hy99yrl15j)" height="24" id="StartView" style="stroke:#A80036;stroke-width:0.75;" width="41.5" x="28.25" y="191"/><ellipse cx="35.75" cy="199" fill="#ADD1B2" rx="5.5" ry="5.5" style="stroke:#A80036;stroke-width:0.5;"/><path d="M36.75,197.25 Q36.8516,197 36.9688,196.875 Q37.0859,196.75 37.2188,196.75 Q37.4531,196.75 37.6016,196.8906 Q37.75,197.0313 37.75,197.3594 L37.75,198.1406 Q37.75,198.4688 37.6094,198.6094 Q37.4688,198.75 37.25,198.75 Q37.0547,198.75 36.9297,198.6641 Q36.8047,198.5781 36.75,198.3516 Q36.7266,198.1953 36.6406,198.1094 Q36.4844,197.9453 36.2031,197.8516 Q35.9219,197.75 35.6406,197.75 Q35.2891,197.75 34.9922,197.8906 Q34.7031,198.0313 34.4766,198.3438 Q34.25,198.6563 34.25,199.0859 L34.25,199.5469 Q34.25,200.0625 34.6719,200.4063 Q35.0938,200.75 35.8438,200.75 Q36.2891,200.75 36.6016,200.6484 Q36.7813,200.5938 36.9844,200.4141 Q37.1172,200.3125 37.1875,200.2813 Q37.2578,200.25 37.3438,200.25 Q37.5078,200.25 37.625,200.3828 Q37.75,200.5078 37.75,200.6875 Q37.75,200.8594 37.5781,201.0625 Q37.3281,201.3594 36.9297,201.5234 Q36.4063,201.75 35.7656,201.75 Q35.0156,201.75 34.4141,201.4531 Q33.9297,201.2188 33.5859,200.7109 Q33.25,200.2031 33.25,199.6016 L33.25,199.0547 Q33.25,198.4297 33.5469,197.8828 Q33.8516,197.3359 34.375,197.0469 Q34.9063,196.75 35.5,196.75 Q35.8594,196.75 36.1719,196.875 Q36.4844,197 36.75,197.25 Z " fill="#000000"/><text fill="#000000" font-family="sans-serif" font-size="6" lengthAdjust="spacing" textLength="25.5" x="42.75" y="201.4551">StartView</text><line style="stroke:#A80036;stroke-width:0.75;" x1="28.75" x2="69.25" y1="207" y2="207"/><line style="stroke:#A80036;stroke-width:0.75;" x1="28.75" x2="69.25" y1="211" y2="211"/><!--MD5=[af548d7eeba3607a103157b84173e841]
class ProposeView--><rect codeLine="10" fill="#FEFECE" filter="url(#f1k6hy99yrl15j)" height="24" id="ProposeView" style="stroke:#A80036;stroke-width:0.75;" width="52.5" x="87.25" y="191"/><ellipse cx="94.75" cy="199" fill="#ADD1B2" rx="5.5" ry="5.5" style="stroke:#A80036;stroke-width:0.5;"/><path d="M95.75,197.25 Q95.8516,197 95.9688,196.875 Q96.0859,196.75 96.2188,196.75 Q96.4531,196.75 96.6016,196.8906 Q96.75,197.0313 96.75,197.3594 L96.75,198.1406 Q96.75,198.4688 96.6094,198.6094 Q96.4688,198.75 96.25,198.75 Q96.0547,198.75 95.9297,198.6641 Q95.8047,198.5781 95.75,198.3516 Q95.7266,198.1953 95.6406,198.1094 Q95.4844,197.9453 95.2031,197.8516 Q94.9219,197.75 94.6406,197.75 Q94.2891,197.75 93.9922,197.8906 Q93.7031,198.0313 93.4766,198.3438 Q93.25,198.6563 93.25,199.0859 L93.25,199.5469 Q93.25,200.0625 93.6719,200.4063 Q94.0938,200.75 94.8438,200.75 Q95.2891,200.75 95.6016,200.6484 Q95.7813,200.5938 95.9844,200.4141 Q96.1172,200.3125 96.1875,200.2813 Q96.2578,200.25 96.3438,200.25 Q96.5078,200.25 96.625,200.3828 Q96.75,200.5078 96.75,200.6875 Q96.75,200.8594 96.5781,201.0625 Q96.3281,201.3594 95.9297,201.5234 Q95.4063,201.75 94.7656,201.75 Q94.0156,201.75 93.4141,201.4531 Q92.9297,201.2188 92.5859,200.7109 Q92.25,200.2031 92.25,199.6016 L92.25,199.0547 Q92.25,198.4297 92.5469,197.8828 Q92.8516,197.3359 93.375,197.0469 Q93.9063,196.75 94.5,196.75 Q94.8594,196.75 95.1719,196.875 Q95.4844,197 95.75,197.25 Z " fill="#000000"/><text fill="#000000" font-family="sans-serif" font-size="6" lengthAdjust="spacing" textLength="36.5" x="101.75" y="201.4551">ProposeView</text><line style="stroke:#A80036;stroke-width:0.75;" x1="87.75" x2="139.25" y1="207" y2="207"/><line style="stroke:#A80036;stroke-width:0.75;" x1="87.75" x2="139.25" y1="211" y2="211"/><!--MD5=[19088a99a8c1f36e582d33ac2f8fc6dd]
class ResumeView--><rect codeLine="11" fill="#FEFECE" filter="url(#f1k6hy99yrl15j)" height="24" id="ResumeView" style="stroke:#A80036;stroke-width:0.75;" width="53" x="157.5" y="191"/><ellipse cx="165" cy="199" fill="#ADD1B2" rx="5.5" ry="5.5" style="stroke:#A80036;stroke-width:0.5;"/><path d="M166,197.25 Q166.1016,197 166.2188,196.875 Q166.3359,196.75 166.4688,196.75 Q166.7031,196.75 166.8516,196.8906 Q167,197.0313 167,197.3594 L167,198.1406 Q167,198.4688 166.8594,198.6094 Q166.7188,198.75 166.5,198.75 Q166.3047,198.75 166.1797,198.6641 Q166.0547,198.5781 166,198.3516 Q165.9766,198.1953 165.8906,198.1094 Q165.7344,197.9453 165.4531,197.8516 Q165.1719,197.75 164.8906,197.75 Q164.5391,197.75 164.2422,197.8906 Q163.9531,198.0313 163.7266,198.3438 Q163.5,198.6563 163.5,199.0859 L163.5,199.5469 Q163.5,200.0625 163.9219,200.4063 Q164.3438,200.75 165.0938,200.75 Q165.5391,200.75 165.8516,200.6484 Q166.0313,200.5938 166.2344,200.4141 Q166.3672,200.3125 166.4375,200.2813 Q166.5078,200.25 166.5938,200.25 Q166.7578,200.25 166.875,200.3828 Q167,200.5078 167,200.6875 Q167,200.8594 166.8281,201.0625 Q166.5781,201.3594 166.1797,201.5234 Q165.6563,201.75 165.0156,201.75 Q164.2656,201.75 163.6641,201.4531 Q163.1797,201.2188 162.8359,200.7109 Q162.5,200.2031 162.5,199.6016 L162.5,199.0547 Q162.5,198.4297 162.7969,197.8828 Q163.1016,197.3359 163.625,197.0469 Q164.1563,196.75 164.75,196.75 Q165.1094,196.75 165.4219,196.875 Q165.7344,197 166,197.25 Z " fill="#000000"/><text fill="#000000" font-family="sans-serif" font-size="6" lengthAdjust="spacing" textLength="37" x="172" y="201.4551">ResumeView</text><line style="stroke:#A80036;stroke-width:0.75;" x1="158" x2="210" y1="207" y2="207"/><line style="stroke:#A80036;stroke-width:0.75;" x1="158" x2="210" y1="211" y2="211"/><!--MD5=[1d7ba1c7002d54515419844fbd155368]
class Controller--><rect codeLine="16" fill="#FEFECE" filter="url(#f1k6hy99yrl15j)" height="24" id="Controller" style="stroke:#A80036;stroke-width:0.75;" width="43" x="335.5" y="83"/><ellipse cx="343" cy="91" fill="#A9DCDF" rx="5.5" ry="5.5" style="stroke:#A80036;stroke-width:0.5;"/><path d="M343.875,91.75 L342.2266,91.75 L342.0078,92.25 L342.0078,92.25 L342.2422,92.25 L342.5,92.5625 L342.5,92.75 L342.5,92.9375 L342.2422,93.25 L342.0078,93.25 L341.0625,93.25 L340.7578,93.25 L340.5,92.9375 L340.5,92.75 L340.5,92.5625 L340.7578,92.25 L341.0625,92.25 L342.2188,89.25 L341.7813,89.25 L341.2578,89.25 L341,88.9375 L341,88.75 L341,88.5625 L341.2578,88.25 L341.7813,88.25 L343.6172,88.25 L344.9609,92.25 L345.2422,92.25 L345.2422,92.25 L345.5,92.5625 L345.5,92.75 L345.5,92.9375 L345.2422,93.25 L344.9609,93.25 L344.0156,93.25 L343.7578,93.25 L343.5,92.9375 L343.5,92.75 L343.5,92.5625 L343.7578,92.25 L344.0156,92.25 L344.0156,92.25 L343.875,91.75 Z M343.6016,90.75 L343,88.9609 L342.4844,90.75 L343.6016,90.75 Z " fill="#000000"/><text fill="#000000" font-family="sans-serif" font-size="6" font-style="italic" lengthAdjust="spacing" textLength="27" x="350" y="93.4551">Controller</text><line style="stroke:#A80036;stroke-width:0.75;" x1="336" x2="378" y1="99" y2="99"/><line style="stroke:#A80036;stroke-width:0.75;" x1="336" x2="378" y1="103" y2="103"/><!--MD5=[47c371471411cfedeee61b1a5bdaee47]
class StartController--><rect codeLine="17" fill="#FEFECE" filter="url(#f1k6hy99yrl15j)" height="24" id="StartController" style="stroke:#A80036;stroke-width:0.75;" width="55.5" x="250.75" y="137"/><ellipse cx="258.25" cy="145" fill="#ADD1B2" rx="5.5" ry="5.5" style="stroke:#A80036;stroke-width:0.5;"/><path d="M259.25,143.25 Q259.3516,143 259.4688,142.875 Q259.5859,142.75 259.7188,142.75 Q259.9531,142.75 260.1016,142.8906 Q260.25,143.0313 260.25,143.3594 L260.25,144.1406 Q260.25,144.4688 260.1094,144.6094 Q259.9688,144.75 259.75,144.75 Q259.5547,144.75 259.4297,144.6641 Q259.3047,144.5781 259.25,144.3516 Q259.2266,144.1953 259.1406,144.1094 Q258.9844,143.9453 258.7031,143.8516 Q258.4219,143.75 258.1406,143.75 Q257.7891,143.75 257.4922,143.8906 Q257.2031,144.0313 256.9766,144.3438 Q256.75,144.6563 256.75,145.0859 L256.75,145.5469 Q256.75,146.0625 257.1719,146.4063 Q257.5938,146.75 258.3438,146.75 Q258.7891,146.75 259.1016,146.6484 Q259.2813,146.5938 259.4844,146.4141 Q259.6172,146.3125 259.6875,146.2813 Q259.7578,146.25 259.8438,146.25 Q260.0078,146.25 260.125,146.3828 Q260.25,146.5078 260.25,146.6875 Q260.25,146.8594 260.0781,147.0625 Q259.8281,147.3594 259.4297,147.5234 Q258.9063,147.75 258.2656,147.75 Q257.5156,147.75 256.9141,147.4531 Q256.4297,147.2188 256.0859,146.7109 Q255.75,146.2031 255.75,145.6016 L255.75,145.0547 Q255.75,144.4297 256.0469,143.8828 Q256.3516,143.3359 256.875,143.0469 Q257.4063,142.75 258,142.75 Q258.3594,142.75 258.6719,142.875 Q258.9844,143 259.25,143.25 Z " fill="#000000"/><text fill="#000000" font-family="sans-serif" font-size="6" lengthAdjust="spacing" textLength="39.5" x="265.25" y="147.4551">StartController</text><line style="stroke:#A80036;stroke-width:0.75;" x1="251.25" x2="305.75" y1="153" y2="153"/><line style="stroke:#A80036;stroke-width:0.75;" x1="251.25" x2="305.75" y1="157" y2="157"/><!--MD5=[0b95e4ee8b160a2b3b0650a9b235c496]
class ProposeController--><rect codeLine="18" fill="#FEFECE" filter="url(#f1k6hy99yrl15j)" height="24" id="ProposeController" style="stroke:#A80036;stroke-width:0.75;" width="66.5" x="323.75" y="137"/><ellipse cx="331.25" cy="145" fill="#ADD1B2" rx="5.5" ry="5.5" style="stroke:#A80036;stroke-width:0.5;"/><path d="M332.25,143.25 Q332.3516,143 332.4688,142.875 Q332.5859,142.75 332.7188,142.75 Q332.9531,142.75 333.1016,142.8906 Q333.25,143.0313 333.25,143.3594 L333.25,144.1406 Q333.25,144.4688 333.1094,144.6094 Q332.9688,144.75 332.75,144.75 Q332.5547,144.75 332.4297,144.6641 Q332.3047,144.5781 332.25,144.3516 Q332.2266,144.1953 332.1406,144.1094 Q331.9844,143.9453 331.7031,143.8516 Q331.4219,143.75 331.1406,143.75 Q330.7891,143.75 330.4922,143.8906 Q330.2031,144.0313 329.9766,144.3438 Q329.75,144.6563 329.75,145.0859 L329.75,145.5469 Q329.75,146.0625 330.1719,146.4063 Q330.5938,146.75 331.3438,146.75 Q331.7891,146.75 332.1016,146.6484 Q332.2813,146.5938 332.4844,146.4141 Q332.6172,146.3125 332.6875,146.2813 Q332.7578,146.25 332.8438,146.25 Q333.0078,146.25 333.125,146.3828 Q333.25,146.5078 333.25,146.6875 Q333.25,146.8594 333.0781,147.0625 Q332.8281,147.3594 332.4297,147.5234 Q331.9063,147.75 331.2656,147.75 Q330.5156,147.75 329.9141,147.4531 Q329.4297,147.2188 329.0859,146.7109 Q328.75,146.2031 328.75,145.6016 L328.75,145.0547 Q328.75,144.4297 329.0469,143.8828 Q329.3516,143.3359 329.875,143.0469 Q330.4063,142.75 331,142.75 Q331.3594,142.75 331.6719,142.875 Q331.9844,143 332.25,143.25 Z " fill="#000000"/><text fill="#000000" font-family="sans-serif" font-size="6" lengthAdjust="spacing" textLength="50.5" x="338.25" y="147.4551">ProposeController</text><line style="stroke:#A80036;stroke-width:0.75;" x1="324.25" x2="389.75" y1="153" y2="153"/><line style="stroke:#A80036;stroke-width:0.75;" x1="324.25" x2="389.75" y1="157" y2="157"/><!--MD5=[838266453f24f703931192fe235907f4]
class RestartController--><rect codeLine="19" fill="#FEFECE" filter="url(#f1k6hy99yrl15j)" height="24" id="RestartController" style="stroke:#A80036;stroke-width:0.75;" width="63" x="408" y="137"/><ellipse cx="415.5" cy="145" fill="#ADD1B2" rx="5.5" ry="5.5" style="stroke:#A80036;stroke-width:0.5;"/><path d="M416.5,143.25 Q416.6016,143 416.7188,142.875 Q416.8359,142.75 416.9688,142.75 Q417.2031,142.75 417.3516,142.8906 Q417.5,143.0313 417.5,143.3594 L417.5,144.1406 Q417.5,144.4688 417.3594,144.6094 Q417.2188,144.75 417,144.75 Q416.8047,144.75 416.6797,144.6641 Q416.5547,144.5781 416.5,144.3516 Q416.4766,144.1953 416.3906,144.1094 Q416.2344,143.9453 415.9531,143.8516 Q415.6719,143.75 415.3906,143.75 Q415.0391,143.75 414.7422,143.8906 Q414.4531,144.0313 414.2266,144.3438 Q414,144.6563 414,145.0859 L414,145.5469 Q414,146.0625 414.4219,146.4063 Q414.8438,146.75 415.5938,146.75 Q416.0391,146.75 416.3516,146.6484 Q416.5313,146.5938 416.7344,146.4141 Q416.8672,146.3125 416.9375,146.2813 Q417.0078,146.25 417.0938,146.25 Q417.2578,146.25 417.375,146.3828 Q417.5,146.5078 417.5,146.6875 Q417.5,146.8594 417.3281,147.0625 Q417.0781,147.3594 416.6797,147.5234 Q416.1563,147.75 415.5156,147.75 Q414.7656,147.75 414.1641,147.4531 Q413.6797,147.2188 413.3359,146.7109 Q413,146.2031 413,145.6016 L413,145.0547 Q413,144.4297 413.2969,143.8828 Q413.6016,143.3359 414.125,143.0469 Q414.6563,142.75 415.25,142.75 Q415.6094,142.75 415.9219,142.875 Q416.2344,143 416.5,143.25 Z " fill="#000000"/><text fill="#000000" font-family="sans-serif" font-size="6" lengthAdjust="spacing" textLength="47" x="422.5" y="147.4551">RestartController</text><line style="stroke:#A80036;stroke-width:0.75;" x1="408.5" x2="470.5" y1="153" y2="153"/><line style="stroke:#A80036;stroke-width:0.75;" x1="408.5" x2="470.5" y1="157" y2="157"/><!--MD5=[202eb055b61e3635d6abeb6d1809ebdd]
class ControllerVisitor--><rect codeLine="20" fill="#FEFECE" filter="url(#f1k6hy99yrl15j)" height="24" id="ControllerVisitor" style="stroke:#A80036;stroke-width:0.75;" width="60" x="254.5" y="83"/><ellipse cx="262" cy="91" fill="#B4A7E5" rx="5.5" ry="5.5" style="stroke:#A80036;stroke-width:0.5;"/><path d="M262.5,89.5 L262.5,92.5 L263.5,92.5 L263.7422,92.5 L264,92.8125 L264,93 L264,93.1875 L263.7422,93.5 L263.5,93.5 L260.5,93.5 L260.2578,93.5 L260,93.1875 L260,93 L260,92.8125 L260.2578,92.5 L260.5,92.5 L261.5,92.5 L261.5,89.5 L260.5,89.5 L260.2578,89.5 L260,89.1875 L260,89 L260,88.8125 L260.2578,88.5 L260.5,88.5 L263.5,88.5 L263.7422,88.5 L264,88.8125 L264,89 L264,89.1875 L263.7422,89.5 L263.5,89.5 L262.5,89.5 Z " fill="#000000"/><text fill="#000000" font-family="sans-serif" font-size="6" font-style="italic" lengthAdjust="spacing" textLength="44" x="269" y="93.4551">ControllerVisitor</text><line style="stroke:#A80036;stroke-width:0.75;" x1="255" x2="314" y1="99" y2="99"/><line style="stroke:#A80036;stroke-width:0.75;" x1="255" x2="314" y1="103" y2="103"/><!--MD5=[42fa18dda7351a0ae87d9497de925436]
class Logic--><rect codeLine="26" fill="#FEFECE" filter="url(#f1k6hy99yrl15j)" height="24" id="Logic" style="stroke:#A80036;stroke-width:0.75;" width="31" x="508" y="83"/><ellipse cx="515.5" cy="91" fill="#ADD1B2" rx="5.5" ry="5.5" style="stroke:#A80036;stroke-width:0.5;"/><path d="M516.5,89.25 Q516.6016,89 516.7188,88.875 Q516.8359,88.75 516.9688,88.75 Q517.2031,88.75 517.3516,88.8906 Q517.5,89.0313 517.5,89.3594 L517.5,90.1406 Q517.5,90.4688 517.3594,90.6094 Q517.2188,90.75 517,90.75 Q516.8047,90.75 516.6797,90.6641 Q516.5547,90.5781 516.5,90.3516 Q516.4766,90.1953 516.3906,90.1094 Q516.2344,89.9453 515.9531,89.8516 Q515.6719,89.75 515.3906,89.75 Q515.0391,89.75 514.7422,89.8906 Q514.4531,90.0313 514.2266,90.3438 Q514,90.6563 514,91.0859 L514,91.5469 Q514,92.0625 514.4219,92.4063 Q514.8438,92.75 515.5938,92.75 Q516.0391,92.75 516.3516,92.6484 Q516.5313,92.5938 516.7344,92.4141 Q516.8672,92.3125 516.9375,92.2813 Q517.0078,92.25 517.0938,92.25 Q517.2578,92.25 517.375,92.3828 Q517.5,92.5078 517.5,92.6875 Q517.5,92.8594 517.3281,93.0625 Q517.0781,93.3594 516.6797,93.5234 Q516.1563,93.75 515.5156,93.75 Q514.7656,93.75 514.1641,93.4531 Q513.6797,93.2188 513.3359,92.7109 Q513,92.2031 513,91.6016 L513,91.0547 Q513,90.4297 513.2969,89.8828 Q513.6016,89.3359 514.125,89.0469 Q514.6563,88.75 515.25,88.75 Q515.6094,88.75 515.9219,88.875 Q516.2344,89 516.5,89.25 Z " fill="#000000"/><text fill="#000000" font-family="sans-serif" font-size="6" lengthAdjust="spacing" textLength="15" x="522.5" y="93.4551">Logic</text><line style="stroke:#A80036;stroke-width:0.75;" x1="508.5" x2="538.5" y1="99" y2="99"/><line style="stroke:#A80036;stroke-width:0.75;" x1="508.5" x2="538.5" y1="103" y2="103"/><!--MD5=[5a5a8b3a661705821451d8f0afdb3b5f]
class Secret--><rect codeLine="27" fill="#FEFECE" filter="url(#f1k6hy99yrl15j)" height="24" id="Secret" style="stroke:#A80036;stroke-width:0.75;" width="33.5" x="564.25" y="191"/><ellipse cx="571.75" cy="199" fill="#ADD1B2" rx="5.5" ry="5.5" style="stroke:#A80036;stroke-width:0.5;"/><path d="M572.75,197.25 Q572.8516,197 572.9688,196.875 Q573.0859,196.75 573.2188,196.75 Q573.4531,196.75 573.6016,196.8906 Q573.75,197.0313 573.75,197.3594 L573.75,198.1406 Q573.75,198.4688 573.6094,198.6094 Q573.4688,198.75 573.25,198.75 Q573.0547,198.75 572.9297,198.6641 Q572.8047,198.5781 572.75,198.3516 Q572.7266,198.1953 572.6406,198.1094 Q572.4844,197.9453 572.2031,197.8516 Q571.9219,197.75 571.6406,197.75 Q571.2891,197.75 570.9922,197.8906 Q570.7031,198.0313 570.4766,198.3438 Q570.25,198.6563 570.25,199.0859 L570.25,199.5469 Q570.25,200.0625 570.6719,200.4063 Q571.0938,200.75 571.8438,200.75 Q572.2891,200.75 572.6016,200.6484 Q572.7813,200.5938 572.9844,200.4141 Q573.1172,200.3125 573.1875,200.2813 Q573.2578,200.25 573.3438,200.25 Q573.5078,200.25 573.625,200.3828 Q573.75,200.5078 573.75,200.6875 Q573.75,200.8594 573.5781,201.0625 Q573.3281,201.3594 572.9297,201.5234 Q572.4063,201.75 571.7656,201.75 Q571.0156,201.75 570.4141,201.4531 Q569.9297,201.2188 569.5859,200.7109 Q569.25,200.2031 569.25,199.6016 L569.25,199.0547 Q569.25,198.4297 569.5469,197.8828 Q569.8516,197.3359 570.375,197.0469 Q570.9063,196.75 571.5,196.75 Q571.8594,196.75 572.1719,196.875 Q572.4844,197 572.75,197.25 Z " fill="#000000"/><text fill="#000000" font-family="sans-serif" font-size="6" lengthAdjust="spacing" textLength="17.5" x="578.75" y="201.4551">Secret</text><line style="stroke:#A80036;stroke-width:0.75;" x1="564.75" x2="597.25" y1="207" y2="207"/><line style="stroke:#A80036;stroke-width:0.75;" x1="564.75" x2="597.25" y1="211" y2="211"/><!--MD5=[07513b2cfa2016c46090541be20532fe]
class Word--><rect codeLine="28" fill="#FEFECE" filter="url(#f1k6hy99yrl15j)" height="24" id="Word" style="stroke:#A80036;stroke-width:0.75;" width="30.5" x="565.75" y="245"/><ellipse cx="573.25" cy="253" fill="#ADD1B2" rx="5.5" ry="5.5" style="stroke:#A80036;stroke-width:0.5;"/><path d="M574.25,251.25 Q574.3516,251 574.4688,250.875 Q574.5859,250.75 574.7188,250.75 Q574.9531,250.75 575.1016,250.8906 Q575.25,251.0313 575.25,251.3594 L575.25,252.1406 Q575.25,252.4688 575.1094,252.6094 Q574.9688,252.75 574.75,252.75 Q574.5547,252.75 574.4297,252.6641 Q574.3047,252.5781 574.25,252.3516 Q574.2266,252.1953 574.1406,252.1094 Q573.9844,251.9453 573.7031,251.8516 Q573.4219,251.75 573.1406,251.75 Q572.7891,251.75 572.4922,251.8906 Q572.2031,252.0313 571.9766,252.3438 Q571.75,252.6563 571.75,253.0859 L571.75,253.5469 Q571.75,254.0625 572.1719,254.4063 Q572.5938,254.75 573.3438,254.75 Q573.7891,254.75 574.1016,254.6484 Q574.2813,254.5938 574.4844,254.4141 Q574.6172,254.3125 574.6875,254.2813 Q574.7578,254.25 574.8438,254.25 Q575.0078,254.25 575.125,254.3828 Q575.25,254.5078 575.25,254.6875 Q575.25,254.8594 575.0781,255.0625 Q574.8281,255.3594 574.4297,255.5234 Q573.9063,255.75 573.2656,255.75 Q572.5156,255.75 571.9141,255.4531 Q571.4297,255.2188 571.0859,254.7109 Q570.75,254.2031 570.75,253.6016 L570.75,253.0547 Q570.75,252.4297 571.0469,251.8828 Q571.3516,251.3359 571.875,251.0469 Q572.4063,250.75 573,250.75 Q573.3594,250.75 573.6719,250.875 Q573.9844,251 574.25,251.25 Z " fill="#000000"/><text fill="#000000" font-family="sans-serif" font-size="6" lengthAdjust="spacing" textLength="14.5" x="580.25" y="255.4551">Word</text><line style="stroke:#A80036;stroke-width:0.75;" x1="566.25" x2="595.75" y1="261" y2="261"/><line style="stroke:#A80036;stroke-width:0.75;" x1="566.25" x2="595.75" y1="265" y2="265"/><!--MD5=[7dc9f4e9588c839c0e53a881b84874c2]
class HangedPart--><rect codeLine="29" fill="#FEFECE" filter="url(#f1k6hy99yrl15j)" height="24" id="HangedPart" style="stroke:#A80036;stroke-width:0.75;" width="49" x="499" y="245"/><ellipse cx="506.5" cy="253" fill="#EB937F" rx="5.5" ry="5.5" style="stroke:#A80036;stroke-width:0.5;"/><path d="M505.75,253.5 L505.75,254.5 L507.75,254.5 L507.75,254 L507.75,253.7578 L508.0625,253.5 L508.25,253.5 L508.4375,253.5 L508.75,253.7578 L508.75,254 L508.75,255.5 L504.75,255.5 L504.5078,255.5 L504.25,255.1875 L504.25,255 L504.25,254.8125 L504.5078,254.5 L504.75,254.5 L504.75,254.5 L504.75,251.5 L504.75,251.5 L504.5078,251.5 L504.25,251.1875 L504.25,251 L504.25,250.8125 L504.5078,250.5 L504.75,250.5 L508.75,250.5 L508.75,252 L508.75,252.2422 L508.4375,252.5 L508.25,252.5 L508.0625,252.5 L507.75,252.2422 L507.75,252 L507.75,251.5 L505.75,251.5 L505.75,252.5 L506.25,252.5 L506.25,252.2578 L506.25,252.2578 L506.5625,252 L506.75,252 L506.9375,252 L507.25,252.2578 L507.25,252.5 L507.25,253.5 L507.25,253.7422 L506.9375,254 L506.9375,254 L506.75,254 L506.5625,254 L506.25,253.7422 L506.25,253.7422 L506.25,253.5 L505.75,253.5 Z " fill="#000000"/><text fill="#000000" font-family="sans-serif" font-size="6" lengthAdjust="spacing" textLength="33" x="513.5" y="255.4551">HangedPart</text><line style="stroke:#A80036;stroke-width:0.75;" x1="499.5" x2="547.5" y1="261" y2="261"/><line style="stroke:#A80036;stroke-width:0.75;" x1="499.5" x2="547.5" y1="265" y2="265"/><!--MD5=[dd91eae41778c45e12552e5329e240e8]
class Turn--><rect codeLine="30" fill="#FEFECE" filter="url(#f1k6hy99yrl15j)" height="24" id="Turn" style="stroke:#A80036;stroke-width:0.75;" width="28.5" x="509.25" y="137"/><ellipse cx="516.75" cy="145" fill="#ADD1B2" rx="5.5" ry="5.5" style="stroke:#A80036;stroke-width:0.5;"/><path d="M517.75,143.25 Q517.8516,143 517.9688,142.875 Q518.0859,142.75 518.2188,142.75 Q518.4531,142.75 518.6016,142.8906 Q518.75,143.0313 518.75,143.3594 L518.75,144.1406 Q518.75,144.4688 518.6094,144.6094 Q518.4688,144.75 518.25,144.75 Q518.0547,144.75 517.9297,144.6641 Q517.8047,144.5781 517.75,144.3516 Q517.7266,144.1953 517.6406,144.1094 Q517.4844,143.9453 517.2031,143.8516 Q516.9219,143.75 516.6406,143.75 Q516.2891,143.75 515.9922,143.8906 Q515.7031,144.0313 515.4766,144.3438 Q515.25,144.6563 515.25,145.0859 L515.25,145.5469 Q515.25,146.0625 515.6719,146.4063 Q516.0938,146.75 516.8438,146.75 Q517.2891,146.75 517.6016,146.6484 Q517.7813,146.5938 517.9844,146.4141 Q518.1172,146.3125 518.1875,146.2813 Q518.2578,146.25 518.3438,146.25 Q518.5078,146.25 518.625,146.3828 Q518.75,146.5078 518.75,146.6875 Q518.75,146.8594 518.5781,147.0625 Q518.3281,147.3594 517.9297,147.5234 Q517.4063,147.75 516.7656,147.75 Q516.0156,147.75 515.4141,147.4531 Q514.9297,147.2188 514.5859,146.7109 Q514.25,146.2031 514.25,145.6016 L514.25,145.0547 Q514.25,144.4297 514.5469,143.8828 Q514.8516,143.3359 515.375,143.0469 Q515.9063,142.75 516.5,142.75 Q516.8594,142.75 517.1719,142.875 Q517.4844,143 517.75,143.25 Z " fill="#000000"/><text fill="#000000" font-family="sans-serif" font-size="6" lengthAdjust="spacing" textLength="12.5" x="523.75" y="147.4551">Turn</text><line style="stroke:#A80036;stroke-width:0.75;" x1="509.75" x2="537.25" y1="153" y2="153"/><line style="stroke:#A80036;stroke-width:0.75;" x1="509.75" x2="537.25" y1="157" y2="157"/><!--MD5=[2cb47ba637a0d19583e6199456f6ad0b]
class Player--><rect codeLine="31" fill="#FEFECE" filter="url(#f1k6hy99yrl15j)" height="24" id="Player" style="stroke:#A80036;stroke-width:0.75;" width="33" x="507" y="191"/><ellipse cx="514.5" cy="199" fill="#ADD1B2" rx="5.5" ry="5.5" style="stroke:#A80036;stroke-width:0.5;"/><path d="M515.5,197.25 Q515.6016,197 515.7188,196.875 Q515.8359,196.75 515.9688,196.75 Q516.2031,196.75 516.3516,196.8906 Q516.5,197.0313 516.5,197.3594 L516.5,198.1406 Q516.5,198.4688 516.3594,198.6094 Q516.2188,198.75 516,198.75 Q515.8047,198.75 515.6797,198.6641 Q515.5547,198.5781 515.5,198.3516 Q515.4766,198.1953 515.3906,198.1094 Q515.2344,197.9453 514.9531,197.8516 Q514.6719,197.75 514.3906,197.75 Q514.0391,197.75 513.7422,197.8906 Q513.4531,198.0313 513.2266,198.3438 Q513,198.6563 513,199.0859 L513,199.5469 Q513,200.0625 513.4219,200.4063 Q513.8438,200.75 514.5938,200.75 Q515.0391,200.75 515.3516,200.6484 Q515.5313,200.5938 515.7344,200.4141 Q515.8672,200.3125 515.9375,200.2813 Q516.0078,200.25 516.0938,200.25 Q516.2578,200.25 516.375,200.3828 Q516.5,200.5078 516.5,200.6875 Q516.5,200.8594 516.3281,201.0625 Q516.0781,201.3594 515.6797,201.5234 Q515.1563,201.75 514.5156,201.75 Q513.7656,201.75 513.1641,201.4531 Q512.6797,201.2188 512.3359,200.7109 Q512,200.2031 512,199.6016 L512,199.0547 Q512,198.4297 512.2969,197.8828 Q512.6016,197.3359 513.125,197.0469 Q513.6563,196.75 514.25,196.75 Q514.6094,196.75 514.9219,196.875 Q515.2344,197 515.5,197.25 Z " fill="#000000"/><text fill="#000000" font-family="sans-serif" font-size="6" lengthAdjust="spacing" textLength="17" x="521.5" y="201.4551">Player</text><line style="stroke:#A80036;stroke-width:0.75;" x1="507.5" x2="539.5" y1="207" y2="207"/><line style="stroke:#A80036;stroke-width:0.75;" x1="507.5" x2="539.5" y1="211" y2="211"/><!--MD5=[b6dcce5e5ef3c84b0b048d11301373dd]
class Game--><rect codeLine="32" fill="#FEFECE" filter="url(#f1k6hy99yrl15j)" height="24" id="Game" style="stroke:#A80036;stroke-width:0.75;" width="33" x="564.5" y="137"/><ellipse cx="572" cy="145" fill="#ADD1B2" rx="5.5" ry="5.5" style="stroke:#A80036;stroke-width:0.5;"/><path d="M573,143.25 Q573.1016,143 573.2188,142.875 Q573.3359,142.75 573.4688,142.75 Q573.7031,142.75 573.8516,142.8906 Q574,143.0313 574,143.3594 L574,144.1406 Q574,144.4688 573.8594,144.6094 Q573.7188,144.75 573.5,144.75 Q573.3047,144.75 573.1797,144.6641 Q573.0547,144.5781 573,144.3516 Q572.9766,144.1953 572.8906,144.1094 Q572.7344,143.9453 572.4531,143.8516 Q572.1719,143.75 571.8906,143.75 Q571.5391,143.75 571.2422,143.8906 Q570.9531,144.0313 570.7266,144.3438 Q570.5,144.6563 570.5,145.0859 L570.5,145.5469 Q570.5,146.0625 570.9219,146.4063 Q571.3438,146.75 572.0938,146.75 Q572.5391,146.75 572.8516,146.6484 Q573.0313,146.5938 573.2344,146.4141 Q573.3672,146.3125 573.4375,146.2813 Q573.5078,146.25 573.5938,146.25 Q573.7578,146.25 573.875,146.3828 Q574,146.5078 574,146.6875 Q574,146.8594 573.8281,147.0625 Q573.5781,147.3594 573.1797,147.5234 Q572.6563,147.75 572.0156,147.75 Q571.2656,147.75 570.6641,147.4531 Q570.1797,147.2188 569.8359,146.7109 Q569.5,146.2031 569.5,145.6016 L569.5,145.0547 Q569.5,144.4297 569.7969,143.8828 Q570.1016,143.3359 570.625,143.0469 Q571.1563,142.75 571.75,142.75 Q572.1094,142.75 572.4219,142.875 Q572.7344,143 573,143.25 Z " fill="#000000"/><text fill="#000000" font-family="sans-serif" font-size="6" lengthAdjust="spacing" textLength="17" x="579" y="147.4551">Game</text><line style="stroke:#A80036;stroke-width:0.75;" x1="565" x2="597" y1="153" y2="153"/><line style="stroke:#A80036;stroke-width:0.75;" x1="565" x2="597" y1="157" y2="157"/><!--MD5=[60d6b92408f98aed8df94d5c6e04aa63]
class State--><rect codeLine="33" fill="#FEFECE" filter="url(#f1k6hy99yrl15j)" height="24" id="State" style="stroke:#A80036;stroke-width:0.75;" width="30" x="618.5" y="191"/><ellipse cx="626" cy="199" fill="#ADD1B2" rx="5.5" ry="5.5" style="stroke:#A80036;stroke-width:0.5;"/><path d="M627,197.25 Q627.1016,197 627.2188,196.875 Q627.3359,196.75 627.4688,196.75 Q627.7031,196.75 627.8516,196.8906 Q628,197.0313 628,197.3594 L628,198.1406 Q628,198.4688 627.8594,198.6094 Q627.7188,198.75 627.5,198.75 Q627.3047,198.75 627.1797,198.6641 Q627.0547,198.5781 627,198.3516 Q626.9766,198.1953 626.8906,198.1094 Q626.7344,197.9453 626.4531,197.8516 Q626.1719,197.75 625.8906,197.75 Q625.5391,197.75 625.2422,197.8906 Q624.9531,198.0313 624.7266,198.3438 Q624.5,198.6563 624.5,199.0859 L624.5,199.5469 Q624.5,200.0625 624.9219,200.4063 Q625.3438,200.75 626.0938,200.75 Q626.5391,200.75 626.8516,200.6484 Q627.0313,200.5938 627.2344,200.4141 Q627.3672,200.3125 627.4375,200.2813 Q627.5078,200.25 627.5938,200.25 Q627.7578,200.25 627.875,200.3828 Q628,200.5078 628,200.6875 Q628,200.8594 627.8281,201.0625 Q627.5781,201.3594 627.1797,201.5234 Q626.6563,201.75 626.0156,201.75 Q625.2656,201.75 624.6641,201.4531 Q624.1797,201.2188 623.8359,200.7109 Q623.5,200.2031 623.5,199.6016 L623.5,199.0547 Q623.5,198.4297 623.7969,197.8828 Q624.1016,197.3359 624.625,197.0469 Q625.1563,196.75 625.75,196.75 Q626.1094,196.75 626.4219,196.875 Q626.7344,197 627,197.25 Z " fill="#000000"/><text fill="#000000" font-family="sans-serif" font-size="6" lengthAdjust="spacing" textLength="14" x="633" y="201.4551">State</text><line style="stroke:#A80036;stroke-width:0.75;" x1="619" x2="648" y1="207" y2="207"/><line style="stroke:#A80036;stroke-width:0.75;" x1="619" x2="648" y1="211" y2="211"/><!--MD5=[167506e288131cdf3986fedef83acd94]
class StateValue--><rect codeLine="34" fill="#FEFECE" filter="url(#f1k6hy99yrl15j)" height="24" id="StateValue" style="stroke:#A80036;stroke-width:0.75;" width="45.5" x="613.75" y="245"/><ellipse cx="621.25" cy="253" fill="#EB937F" rx="5.5" ry="5.5" style="stroke:#A80036;stroke-width:0.5;"/><path d="M620.5,253.5 L620.5,254.5 L622.5,254.5 L622.5,254 L622.5,253.7578 L622.8125,253.5 L623,253.5 L623.1875,253.5 L623.5,253.7578 L623.5,254 L623.5,255.5 L619.5,255.5 L619.2578,255.5 L619,255.1875 L619,255 L619,254.8125 L619.2578,254.5 L619.5,254.5 L619.5,254.5 L619.5,251.5 L619.5,251.5 L619.2578,251.5 L619,251.1875 L619,251 L619,250.8125 L619.2578,250.5 L619.5,250.5 L623.5,250.5 L623.5,252 L623.5,252.2422 L623.1875,252.5 L623,252.5 L622.8125,252.5 L622.5,252.2422 L622.5,252 L622.5,251.5 L620.5,251.5 L620.5,252.5 L621,252.5 L621,252.2578 L621,252.2578 L621.3125,252 L621.5,252 L621.6875,252 L622,252.2578 L622,252.5 L622,253.5 L622,253.7422 L621.6875,254 L621.6875,254 L621.5,254 L621.3125,254 L621,253.7422 L621,253.7422 L621,253.5 L620.5,253.5 Z " fill="#000000"/><text fill="#000000" font-family="sans-serif" font-size="6" lengthAdjust="spacing" textLength="29.5" x="628.25" y="255.4551">StateValue</text><line style="stroke:#A80036;stroke-width:0.75;" x1="614.25" x2="658.75" y1="261" y2="261"/><line style="stroke:#A80036;stroke-width:0.75;" x1="614.25" x2="658.75" y1="265" y2="265"/><!--MD5=[d93cf99d2b92276f27fe8dbf15140505]
class YesNoDialog--><rect codeLine="40" fill="#FEFECE" filter="url(#f1k6hy99yrl15j)" height="24" id="YesNoDialog" style="stroke:#A80036;stroke-width:0.75;" width="52.5" x="428.75" y="21"/><ellipse cx="436.25" cy="29" fill="#ADD1B2" rx="5.5" ry="5.5" style="stroke:#A80036;stroke-width:0.5;"/><path d="M437.25,27.25 Q437.3516,27 437.4688,26.875 Q437.5859,26.75 437.7188,26.75 Q437.9531,26.75 438.1016,26.8906 Q438.25,27.0313 438.25,27.3594 L438.25,28.1406 Q438.25,28.4688 438.1094,28.6094 Q437.9688,28.75 437.75,28.75 Q437.5547,28.75 437.4297,28.6641 Q437.3047,28.5781 437.25,28.3516 Q437.2266,28.1953 437.1406,28.1094 Q436.9844,27.9453 436.7031,27.8516 Q436.4219,27.75 436.1406,27.75 Q435.7891,27.75 435.4922,27.8906 Q435.2031,28.0313 434.9766,28.3438 Q434.75,28.6563 434.75,29.0859 L434.75,29.5469 Q434.75,30.0625 435.1719,30.4063 Q435.5938,30.75 436.3438,30.75 Q436.7891,30.75 437.1016,30.6484 Q437.2813,30.5938 437.4844,30.4141 Q437.6172,30.3125 437.6875,30.2813 Q437.7578,30.25 437.8438,30.25 Q438.0078,30.25 438.125,30.3828 Q438.25,30.5078 438.25,30.6875 Q438.25,30.8594 438.0781,31.0625 Q437.8281,31.3594 437.4297,31.5234 Q436.9063,31.75 436.2656,31.75 Q435.5156,31.75 434.9141,31.4531 Q434.4297,31.2188 434.0859,30.7109 Q433.75,30.2031 433.75,29.6016 L433.75,29.0547 Q433.75,28.4297 434.0469,27.8828 Q434.3516,27.3359 434.875,27.0469 Q435.4063,26.75 436,26.75 Q436.3594,26.75 436.6719,26.875 Q436.9844,27 437.25,27.25 Z " fill="#000000"/><text fill="#000000" font-family="sans-serif" font-size="6" lengthAdjust="spacing" textLength="36.5" x="443.25" y="31.4551">YesNoDialog</text><line style="stroke:#A80036;stroke-width:0.75;" x1="429.25" x2="480.75" y1="37" y2="37"/><line style="stroke:#A80036;stroke-width:0.75;" x1="429.25" x2="480.75" y1="41" y2="41"/><!--MD5=[8b97926f196f3e332d3d85bb69739925]
class HangedParts--><rect codeLine="45" fill="#FEFECE" filter="url(#f1k6hy99yrl15j)" height="24" id="HangedParts" style="stroke:#A80036;stroke-width:0.75;" width="52.5" x="594.25" y="21"/><ellipse cx="601.75" cy="29" fill="#EB937F" rx="5.5" ry="5.5" style="stroke:#A80036;stroke-width:0.5;"/><path d="M601,29.5 L601,30.5 L603,30.5 L603,30 L603,29.7578 L603.3125,29.5 L603.5,29.5 L603.6875,29.5 L604,29.7578 L604,30 L604,31.5 L600,31.5 L599.7578,31.5 L599.5,31.1875 L599.5,31 L599.5,30.8125 L599.7578,30.5 L600,30.5 L600,30.5 L600,27.5 L600,27.5 L599.7578,27.5 L599.5,27.1875 L599.5,27 L599.5,26.8125 L599.7578,26.5 L600,26.5 L604,26.5 L604,28 L604,28.2422 L603.6875,28.5 L603.5,28.5 L603.3125,28.5 L603,28.2422 L603,28 L603,27.5 L601,27.5 L601,28.5 L601.5,28.5 L601.5,28.2578 L601.5,28.2578 L601.8125,28 L602,28 L602.1875,28 L602.5,28.2578 L602.5,28.5 L602.5,29.5 L602.5,29.7422 L602.1875,30 L602.1875,30 L602,30 L601.8125,30 L601.5,29.7422 L601.5,29.7422 L601.5,29.5 L601,29.5 Z " fill="#000000"/><text fill="#000000" font-family="sans-serif" font-size="6" lengthAdjust="spacing" textLength="36.5" x="608.75" y="31.4551">HangedParts</text><line style="stroke:#A80036;stroke-width:0.75;" x1="594.75" x2="646.25" y1="37" y2="37"/><line style="stroke:#A80036;stroke-width:0.75;" x1="594.75" x2="646.25" y1="41" y2="41"/><!--MD5=[49feb4884a66ed250f9a27795111a05a]
class MessageView--><rect codeLine="46" fill="#FEFECE" filter="url(#f1k6hy99yrl15j)" height="24" id="MessageView" style="stroke:#A80036;stroke-width:0.75;" width="54.5" x="522.25" y="21"/><ellipse cx="529.75" cy="29" fill="#EB937F" rx="5.5" ry="5.5" style="stroke:#A80036;stroke-width:0.5;"/><path d="M529,29.5 L529,30.5 L531,30.5 L531,30 L531,29.7578 L531.3125,29.5 L531.5,29.5 L531.6875,29.5 L532,29.7578 L532,30 L532,31.5 L528,31.5 L527.7578,31.5 L527.5,31.1875 L527.5,31 L527.5,30.8125 L527.7578,30.5 L528,30.5 L528,30.5 L528,27.5 L528,27.5 L527.7578,27.5 L527.5,27.1875 L527.5,27 L527.5,26.8125 L527.7578,26.5 L528,26.5 L532,26.5 L532,28 L532,28.2422 L531.6875,28.5 L531.5,28.5 L531.3125,28.5 L531,28.2422 L531,28 L531,27.5 L529,27.5 L529,28.5 L529.5,28.5 L529.5,28.2578 L529.5,28.2578 L529.8125,28 L530,28 L530.1875,28 L530.5,28.2578 L530.5,28.5 L530.5,29.5 L530.5,29.7422 L530.1875,30 L530.1875,30 L530,30 L529.8125,30 L529.5,29.7422 L529.5,29.7422 L529.5,29.5 L529,29.5 Z " fill="#000000"/><text fill="#000000" font-family="sans-serif" font-size="6" lengthAdjust="spacing" textLength="38.5" x="536.75" y="31.4551">MessageView</text><line style="stroke:#A80036;stroke-width:0.75;" x1="522.75" x2="576.25" y1="37" y2="37"/><line style="stroke:#A80036;stroke-width:0.75;" x1="522.75" x2="576.25" y1="41" y2="41"/><!--MD5=[6741a2aa1692821dc3ed1fc83dbb2896]
link Logic to Game--><path codeLine="50" d="M542.0361,111.0265 C542.0361,111.0265 545.2,113.82 546.5,115 C552.575,120.51 559.065,126.725 564.76,132.29 " fill="none" id="Logic-Game" style="stroke:#A80036;stroke-width:0.5;"/><polygon fill="#A80036" points="569.53,136.98,567.723,132.3991,567.7472,135.2274,564.9189,135.2516,569.53,136.98" style="stroke:#A80036;stroke-width:0.5;"/><line style="stroke:#A80036;stroke-width:0.5;" x1="567.7472" x2="564.895" y1="135.2274" y2="132.4225"/><polygon fill="#A80036" points="537.495,107.105,538.4584,110.5795,542.0361,111.0265,541.0727,107.5521,537.495,107.105" style="stroke:#A80036;stroke-width:0.5;"/><!--MD5=[98c712d6c16a4ce2e31b2930753001e2]
link Hanged to View--><path codeLine="52" d="M331.9426,37.4066 C331.9426,37.4066 271.965,49.305 242.5,61 C229.13,66.305 215.115,74.24 204.155,81.055 " fill="none" id="Hanged-View" style="stroke:#A80036;stroke-width:0.5;"/><polygon fill="#A80036" points="198.56,84.6,203.4314,83.8792,200.6713,83.2612,201.2893,80.5011,198.56,84.6" style="stroke:#A80036;stroke-width:0.5;"/><line style="stroke:#A80036;stroke-width:0.5;" x1="200.6713" x2="204.0525" y1="83.2612" y2="81.12"/><polygon fill="#A80036" points="337.855,36.385,334.5583,34.925,331.9426,37.4066,335.2394,38.8666,337.855,36.385" style="stroke:#A80036;stroke-width:0.5;"/><!--MD5=[34ad7eb222c81a08ccc175dd3309ae0c]
link Hanged to Logic--><path codeLine="53" d="M381.5738,44.4578 C381.5738,44.4578 407.505,54.21 420.5,57 C445.98,62.465 454.58,51.9 479,61 C489.235,64.815 499.1,71.785 506.93,78.38 " fill="none" id="Hanged-Logic" style="stroke:#A80036;stroke-width:0.5;"/><polygon fill="#A80036" points="512.005,82.845,509.9479,78.3708,510.1282,81.1935,507.3055,81.3738,512.005,82.845" style="stroke:#A80036;stroke-width:0.5;"/><line style="stroke:#A80036;stroke-width:0.5;" x1="510.1282" x2="507.1225" y1="81.1935" y2="78.5525"/><polygon fill="#A80036" points="376.025,42.175,378.0384,45.166,381.5738,44.4578,379.5603,41.4668,376.025,42.175" style="stroke:#A80036;stroke-width:0.5;"/><!--MD5=[f3529716a8974626251ce6317d1f6267]
link Hanged to Controller--><path codeLine="54" d="M357,45.115 C357,55.125 357,69.6 357,80.295 " fill="none" id="Hanged-to-Controller" style="stroke:#A80036;stroke-width:0.5;"/><polygon fill="#A80036" points="357,82.925,359,78.425,357,80.425,355,78.425,357,82.925" style="stroke:#A80036;stroke-width:0.5;"/><!--MD5=[a63dd7f30baaeb88fc8dd2ca46e0cc37]
reverse link View to ConsoleView--><path codeLine="56" d="M167.05,114.615 C160.455,122.05 153.115,130.325 147.34,136.84 " fill="none" id="View-backto-ConsoleView" style="stroke:#A80036;stroke-width:0.5;"/><polygon fill="none" points="164.55,112.16,173.8,107,169.785,116.805,164.55,112.16" style="stroke:#A80036;stroke-width:0.5;"/><!--MD5=[2b3d48df6f113d7f7650f0ea2726d5e1]
link ConsoleView to StartView--><path codeLine="57" d="M112.763,164.0918 C112.763,164.0918 85.855,180.305 73.88,187.515 " fill="none" id="ConsoleView-StartView" style="stroke:#A80036;stroke-width:0.5;"/><polygon fill="#A80036" points="68.21,190.93,73.0968,190.3224,70.3518,189.6405,71.0336,186.8955,68.21,190.93" style="stroke:#A80036;stroke-width:0.5;"/><line style="stroke:#A80036;stroke-width:0.5;" x1="70.3518" x2="73.7775" y1="189.6405" y2="187.5775"/><polygon fill="#A80036" points="117.905,161,114.3034,160.8319,112.763,164.0918,116.3646,164.2599,117.905,161" style="stroke:#A80036;stroke-width:0.5;"/><!--MD5=[009b3bb15e28457eebaf81855c3c56af]
link ConsoleView to ProposeView--><path codeLine="58" d="M129.4675,166.4848 C129.4675,166.4848 123.865,179.125 121.305,184.89 " fill="none" id="ConsoleView-ProposeView" style="stroke:#A80036;stroke-width:0.5;"/><polygon fill="#A80036" points="118.67,190.84,122.3227,187.5373,119.6836,188.5547,118.6662,185.9156,118.67,190.84" style="stroke:#A80036;stroke-width:0.5;"/><line style="stroke:#A80036;stroke-width:0.5;" x1="119.6836" x2="121.305" y1="188.5547" y2="184.8975"/><polygon fill="#A80036" points="131.9,161,128.8555,162.9315,129.4675,166.4848,132.512,164.5532,131.9,161" style="stroke:#A80036;stroke-width:0.5;"/><!--MD5=[fa8503f33b2b65994679c53598b796d7]
link ConsoleView to ResumeView--><path codeLine="59" d="M151.1813,165.4888 C151.1813,165.4888 163.72,179.63 169.345,185.975 " fill="none" id="ConsoleView-ResumeView" style="stroke:#A80036;stroke-width:0.5;"/><polygon fill="#A80036" points="173.66,190.84,172.1703,186.1463,172.0011,188.9697,169.1778,188.8005,173.66,190.84" style="stroke:#A80036;stroke-width:0.5;"/><line style="stroke:#A80036;stroke-width:0.5;" x1="172.0011" x2="169.3475" y1="188.9697" y2="185.975"/><polygon fill="#A80036" points="147.2,161,147.6944,164.5715,151.1813,165.4888,150.6869,161.9173,147.2,161" style="stroke:#A80036;stroke-width:0.5;"/><!--MD5=[354d6deacb49030493b7fd8cb23ebdce]
reverse link Controller to StartController--><path codeLine="61" d="M326.31,108.39 C322.4,110.425 318.535,112.64 315,115 C305.555,121.305 296.15,130.015 289.25,136.97 " fill="none" id="Controller-backto-StartController" style="stroke:#A80036;stroke-width:0.5;"/><polygon fill="none" points="324.855,105.21,335.38,104.005,327.905,111.51,324.855,105.21" style="stroke:#A80036;stroke-width:0.5;"/><!--MD5=[f447e35400d120693a19fd34f2d8422e]
reverse link Controller to ProposeController--><path codeLine="62" d="M357,117.01 C357,123.79 357,131.02 357,136.84 " fill="none" id="Controller-backto-ProposeController" style="stroke:#A80036;stroke-width:0.5;"/><polygon fill="none" points="353.5,117,357,107,360.5,117,353.5,117" style="stroke:#A80036;stroke-width:0.5;"/><!--MD5=[0093c52fe06068e87ede88549f960621]
reverse link Controller to RestartController--><path codeLine="63" d="M387.86,108.71 C391.695,110.675 395.495,112.785 399,115 C409.11,121.38 419.48,130 427.195,136.9 " fill="none" id="Controller-backto-RestartController" style="stroke:#A80036;stroke-width:0.5;"/><polygon fill="none" points="386.195,111.795,378.71,104.295,389.235,105.49,386.195,111.795" style="stroke:#A80036;stroke-width:0.5;"/><!--MD5=[1839f461b64dd62341b819acde30d7ff]
link Logic to Turn--><path codeLine="66" d="M523.5,113 C523.5,113 523.5,124.84 523.5,130.18 " fill="none" id="Logic-Turn" style="stroke:#A80036;stroke-width:0.5;"/><polygon fill="#A80036" points="523.5,136.84,525.5,132.34,523.5,134.34,521.5,132.34,523.5,136.84" style="stroke:#A80036;stroke-width:0.5;"/><line style="stroke:#A80036;stroke-width:0.5;" x1="523.5" x2="523.5" y1="134.34" y2="130.34"/><polygon fill="#A80036" points="523.5,107,521.5,110,523.5,113,525.5,110,523.5,107" style="stroke:#A80036;stroke-width:0.5;"/><!--MD5=[f6bf945722e30f83fc6f64ad9c21e270]
link Game to State--><path codeLine="67" d="M596.6161,165.2591 C596.6161,165.2591 610.875,179.66 617.27,186.115 " fill="none" id="Game-State" style="stroke:#A80036;stroke-width:0.5;"/><polygon fill="#A80036" points="621.95,190.84,620.2037,186.2356,620.1905,189.064,617.3621,189.0508,621.95,190.84" style="stroke:#A80036;stroke-width:0.5;"/><line style="stroke:#A80036;stroke-width:0.5;" x1="620.1905" x2="617.375" y1="189.064" y2="186.22"/><polygon fill="#FFFFFF" points="592.39,161,593.0834,164.5383,596.6161,165.2591,595.9228,161.7208,592.39,161" style="stroke:#A80036;stroke-width:0.5;"/><!--MD5=[04ee8f1a549f099cd30b455604f649af]
link State to StateValue--><path codeLine="68" d="M634.4927,220.9902 C634.4927,220.9902 635.16,232.84 635.465,238.18 " fill="none" id="State-StateValue" style="stroke:#A80036;stroke-width:0.5;"/><polygon fill="#A80036" points="635.84,244.84,637.5797,240.2331,635.6972,242.3441,633.5863,240.4616,635.84,244.84" style="stroke:#A80036;stroke-width:0.5;"/><line style="stroke:#A80036;stroke-width:0.5;" x1="635.6972" x2="635.4725" y1="242.3441" y2="238.35"/><polygon fill="#FFFFFF" points="634.15,215,632.3246,218.1093,634.4927,220.9902,636.3181,217.8809,634.15,215" style="stroke:#A80036;stroke-width:0.5;"/><!--MD5=[d81713d91ad05be3b975338c4816ee0b]
link Turn to Player--><path codeLine="70" d="M523.5,167 C523.5,167 523.5,178.84 523.5,184.18 " fill="none" id="Turn-Player" style="stroke:#A80036;stroke-width:0.5;"/><polygon fill="#A80036" points="523.5,190.84,525.5,186.34,523.5,188.34,521.5,186.34,523.5,190.84" style="stroke:#A80036;stroke-width:0.5;"/><line style="stroke:#A80036;stroke-width:0.5;" x1="523.5" x2="523.5" y1="188.34" y2="184.34"/><polygon fill="#A80036" points="523.5,161,521.5,164,523.5,167,525.5,164,523.5,161" style="stroke:#A80036;stroke-width:0.5;"/><!--MD5=[13d803242f4ca1b46cacbcbeaa7a0f51]
link Player to HangedPart--><path codeLine="71" d="M523.5,215 C523.5,223 523.5,233.725 523.5,242.265 " fill="none" id="Player-to-HangedPart" style="stroke:#A80036;stroke-width:0.5;"/><polygon fill="#A80036" points="523.5,244.84,525.5,240.34,523.5,242.34,521.5,240.34,523.5,244.84" style="stroke:#A80036;stroke-width:0.5;"/><!--MD5=[d479d4f4c68e65be361623e7e9cae8c8]
link Game to Secret--><path codeLine="73" d="M581,161 C581,169 581,179.725 581,188.265 " fill="none" id="Game-to-Secret" style="stroke:#A80036;stroke-width:0.5;"/><polygon fill="#A80036" points="581,190.84,583,186.34,581,188.34,579,186.34,581,190.84" style="stroke:#A80036;stroke-width:0.5;"/><!--MD5=[0c9a1e5626bad7371a717f8ab43a9499]
link Secret to Word--><path codeLine="75" d="M581,215 C581,223 581,233.725 581,242.265 " fill="none" id="Secret-to-Word" style="stroke:#A80036;stroke-width:0.5;"/><polygon fill="#A80036" points="581,244.84,583,240.34,581,242.34,579,240.34,581,244.84" style="stroke:#A80036;stroke-width:0.5;"/><!--MD5=[26b4efd62161883ef77916bcc87352e7]
@startuml
package "main" {
class Hanged
}

package "views"{
abstract class View
    package "console" {
        class ConsoleView
        class StartView
        class ProposeView
        class ResumeView
    }
}

package "controllers"{
abstract class Controller
class StartController
class ProposeController
class RestartController
interface ControllerVisitor

}


package "models" {
class Logic
class Secret
class Word
enum HangedPart
class Turn
class Player
class Game
class State
enum StateValue
}


package "utils"{
class ConsoleView
class YesNoDialog
}


package "types"{
enum HangedParts
enum MessageView
}


Logic *- -> Game

Hanged *- -> View
Hanged *- -> Logic
Hanged - -> Controller

View <|- - ConsoleView
ConsoleView *- -> StartView
ConsoleView *- -> ProposeView
ConsoleView *- -> ResumeView

Controller <|- - StartController
Controller <|- - ProposeController
Controller <|- - RestartController


Logic *- -> Turn
Game o- -> State
State o- -> StateValue

Turn *- -> Player
Player - -> HangedPart

Game - -> Secret

Secret - -> Word



@enduml

PlantUML version 1.2021.7(Sun May 23 14:40:07 CEST 2021)
(GPL source distribution)
Java Runtime: OpenJDK Runtime Environment
JVM: OpenJDK 64-Bit Server VM
Default Encoding: Cp1252
Language: es
Country: ES
--></g></svg>