<?xml version="1.0" encoding="UTF-8" standalone="no"?><svg xmlns="http://www.w3.org/2000/svg" xmlns:xlink="http://www.w3.org/1999/xlink" contentScriptType="application/ecmascript" contentStyleType="text/css" height="592px" preserveAspectRatio="none" style="width:399px;height:592px;background:#FFFFFF;" version="1.1" viewBox="0 0 399 592" width="399px" zoomAndPan="magnify"><defs><filter height="300%" id="f9mv4cefcg09m" width="300%" x="-1" y="-1"><feGaussianBlur result="blurOut" stdDeviation="2.0"/><feColorMatrix in="blurOut" result="blurOut2" type="matrix" values="0 0 0 0 0 0 0 0 0 0 0 0 0 0 0 0 0 0 .4 0"/><feOffset dx="4.0" dy="4.0" in="blurOut2" result="blurOut3"/><feBlend in="SourceGraphic" in2="blurOut3" mode="normal"/></filter></defs><g><rect fill="#FEFECE" filter="url(#f9mv4cefcg09m)" height="40" rx="12.5" ry="12.5" style="stroke:#A80036;stroke-width:1.5;" width="87" x="69.5" y="7"/><text fill="#000000" font-family="sans-serif" font-size="14" lengthAdjust="spacing" textLength="77" x="74.5" y="32.7285">OUT_GAME</text><rect fill="#FEFECE" filter="url(#f9mv4cefcg09m)" height="40" rx="12.5" ry="12.5" style="stroke:#A80036;stroke-width:1.5;" width="50" x="7" y="163"/><text fill="#000000" font-family="sans-serif" font-size="14" lengthAdjust="spacing" textLength="0" x="34" y="188.7285"/><polygon fill="#FEFECE" filter="url(#f9mv4cefcg09m)" points="112,319,124,331,112,343,100,331,112,319" style="stroke:#A80036;stroke-width:1.5;"/><rect fill="#FEFECE" filter="url(#f9mv4cefcg09m)" height="40" rx="12.5" ry="12.5" style="stroke:#A80036;stroke-width:1.5;" width="50" x="44" y="459"/><text fill="#000000" font-family="sans-serif" font-size="14" lengthAdjust="spacing" textLength="24" x="57" y="484.7285">INIT</text><rect fill="#FEFECE" filter="url(#f9mv4cefcg09m)" height="40" rx="12.5" ry="12.5" style="stroke:#A80036;stroke-width:1.5;" width="50" x="151" y="459"/><text fill="#000000" font-family="sans-serif" font-size="14" lengthAdjust="spacing" textLength="29" x="161.5" y="484.7285">EXIT</text><ellipse cx="111" cy="570" filter="url(#f9mv4cefcg09m)" rx="10" ry="10" style="stroke:#000000;stroke-width:1.0;fill:none;"/><ellipse cx="111.5" cy="570.5" fill="#000000" rx="6" ry="6" style="stroke:none;stroke-width:1.0;"/><!--MD5=[6e81f478265b9cc89836db7726250c95]
link OUT_GAME to restart--><path d="M70.98,47.14 C58.99,54.71 47.23,64.6 40,77 C25.68,101.56 25.81,135.04 28.11,157.53 " fill="none" id="OUT_GAME-to-restart" style="stroke:#008000;stroke-width:1.0;"/><polygon fill="#008000" points="28.7,162.71,31.6728,153.3205,28.1431,157.7411,23.7225,154.2115,28.7,162.71" style="stroke:#008000;stroke-width:1.0;"/><path d="M45,82 L45,124 L162,124 L162,92 L152,82 L45,82 " fill="#FFFFFF" filter="url(#f9mv4cefcg09m)" style="stroke:#008000;stroke-width:1.0;"/><path d="M152,82 L152,92 L162,92 L152,82 " fill="#FFFFFF" style="stroke:#008000;stroke-width:1.0;"/><text fill="#000000" font-family="sans-serif" font-size="13" font-weight="bold" lengthAdjust="spacing" textLength="92" x="55" y="100.4951">Player request</text><text fill="#000000" font-family="sans-serif" font-size="13" lengthAdjust="spacing" textLength="37" x="51" y="116.8467">restart</text><!--MD5=[e2e61cb6d3ace1a9e1651636ef9c1ed5]
link restart to ifEnd--><path d="M24.39,203.1 C16.81,225.52 8.46,262.93 25,289 C40.93,314.11 76.8,324.13 97.15,327.9 " fill="none" id="restart-to-ifEnd" style="stroke:#008000;stroke-width:1.0;"/><polygon fill="#008000" points="102.22,328.76,94.0231,323.3001,97.2915,327.9172,92.6745,331.1857,102.22,328.76" style="stroke:#008000;stroke-width:1.0;"/><path d="M30,238 L30,280 L162,280 L162,248 L152,238 L30,238 " fill="#FFFFFF" filter="url(#f9mv4cefcg09m)" style="stroke:#008000;stroke-width:1.0;"/><path d="M152,238 L152,248 L162,248 L152,238 " fill="#FFFFFF" style="stroke:#008000;stroke-width:1.0;"/><text fill="#000000" font-family="sans-serif" font-size="13" font-weight="bold" lengthAdjust="spacing" textLength="104" x="40" y="256.4951">System required</text><text fill="#000000" font-family="sans-serif" font-size="13" lengthAdjust="spacing" textLength="111" x="36" y="272.8467">"y" or "n" character</text><!--MD5=[2848c82b1b3a3a07bac399a859182f8c]
link ifEnd to INIT--><path d="M102,333.16 C82.73,335.99 40.8,345.21 23,373 C9.58,393.96 13.84,405.86 23,429 C26.84,438.7 33.6,447.59 40.78,455.07 " fill="none" id="ifEnd-to-INIT" style="stroke:#008000;stroke-width:1.0;"/><polygon fill="#008000" points="44.33,458.62,40.813,449.4205,40.8016,455.0773,35.1448,455.0659,44.33,458.62" style="stroke:#008000;stroke-width:1.0;"/><path d="M28,378 L28,420 L146,420 L146,388 L136,378 L28,378 " fill="#FFFFFF" filter="url(#f9mv4cefcg09m)" style="stroke:#008000;stroke-width:1.0;"/><path d="M136,378 L136,388 L146,388 L136,378 " fill="#FFFFFF" style="stroke:#008000;stroke-width:1.0;"/><text fill="#000000" font-family="sans-serif" font-size="13" font-weight="bold" lengthAdjust="spacing" textLength="93" x="38" y="396.4951">Player provide</text><text fill="#000000" font-family="sans-serif" font-size="13" lengthAdjust="spacing" textLength="75" x="34" y="412.8467">"y" character</text><!--MD5=[a9899560f5e1f1e421667c71f8c456eb]
link ifEnd to EXIT--><path d="M119.11,335.98 C129.71,342.32 149.43,355.77 159,373 C172.95,398.11 176.22,431.46 176.64,453.78 " fill="none" id="ifEnd-to-EXIT" style="stroke:#A80036;stroke-width:1.0;"/><polygon fill="#A80036" points="176.69,458.92,180.6127,449.886,176.6471,453.9202,172.613,449.9546,176.69,458.92" style="stroke:#A80036;stroke-width:1.0;"/><path d="M179,378 L179,420 L297,420 L297,388 L287,378 L179,378 " fill="#FFFFFF" filter="url(#f9mv4cefcg09m)" style="stroke:#A80036;stroke-width:1.0;"/><path d="M287,378 L287,388 L297,388 L287,378 " fill="#FFFFFF" style="stroke:#A80036;stroke-width:1.0;"/><text fill="#000000" font-family="sans-serif" font-size="13" font-weight="bold" lengthAdjust="spacing" textLength="93" x="189" y="396.4951">Player provide</text><text fill="#000000" font-family="sans-serif" font-size="13" lengthAdjust="spacing" textLength="75" x="185" y="412.8467">"n" character</text><!--MD5=[e945bd8dd08a2bd753d17dbfae1f9dfa]
link ifEnd to OUT_GAME--><path d="M120.5,327.42 C134.81,322.57 163.3,310.57 175,289 C219.92,206.17 216.07,161.8 175,77 C169.96,66.6 161.53,57.74 152.48,50.53 " fill="none" id="ifEnd-to-OUT_GAME" style="stroke:#A80036;stroke-width:1.0;"/><polygon fill="#A80036" points="148,47.13,152.7459,55.76,151.9811,50.1551,157.586,49.3902,148,47.13" style="stroke:#A80036;stroke-width:1.0;"/><text fill="#000000" font-family="sans-serif" font-size="13" lengthAdjust="spacing" textLength="183" x="208" y="188.4951">[player provide wrong character]</text><!--MD5=[835a027bf933975aa85ae878fcc58a13]
link INIT to *end--><path d="M78.11,499.31 C86.18,516.4 97.73,540.87 104.77,555.81 " fill="none" id="INIT-to-*end" style="stroke:#A80036;stroke-width:1.0;"/><polygon fill="#A80036" points="106.98,560.48,106.7716,550.6333,104.8531,555.9549,99.5315,554.0364,106.98,560.48" style="stroke:#A80036;stroke-width:1.0;"/><!--MD5=[bd19b40b84bbe903342104a02ae53ed4]
link EXIT to *end--><path d="M161.9,499.31 C149.04,516.92 130.45,542.37 119.66,557.14 " fill="none" id="EXIT-to-*end" style="stroke:#A80036;stroke-width:1.0;"/><polygon fill="#A80036" points="116.58,561.37,125.1106,556.4476,119.5226,557.3276,118.6426,551.7396,116.58,561.37" style="stroke:#A80036;stroke-width:1.0;"/><!--MD5=[f6add5cb3ffdb4302170789b0f1da1f5]
@startuml
skinparam NoteBackgroundColor white
hide empty description
state OUT_GAME
state restart as " "
state ifEnd <<choice>>
OUT_GAME -[#green]-> restart
note on link
 <b> Player request
 restart
 end note
restart -[#green]-> ifEnd
 note on link
  <b> System required
  "y" or "n" character
 end note
ifEnd -[#green]-> INIT
note on link
<b> Player provide
"y" character
end note
ifEnd - -> EXIT
note on link
<b> Player provide
"n" character
end note
ifEnd - -> OUT_GAME : [player provide wrong character]
INIT - -> [*]
EXIT - -> [*]
@enduml

PlantUML version 1.2021.11(Sat Oct 02 15:26:11 CEST 2021)
(GPL source distribution)
Java Runtime: OpenJDK Runtime Environment
JVM: OpenJDK 64-Bit Server VM
Default Encoding: Cp1252
Language: es
Country: ES
--></g></svg>