<?xml version="1.0" encoding="UTF-8" standalone="no"?><svg xmlns="http://www.w3.org/2000/svg" xmlns:xlink="http://www.w3.org/1999/xlink" contentScriptType="application/ecmascript" contentStyleType="text/css" height="1042px" preserveAspectRatio="none" style="width:474px;height:1042px;background:#FFFFFF;" version="1.1" viewBox="0 0 474 1042" width="474px" zoomAndPan="magnify"><defs><filter height="300%" id="f18oaiavlip1lv" width="300%" x="-1" y="-1"><feGaussianBlur result="blurOut" stdDeviation="2.0"/><feColorMatrix in="blurOut" result="blurOut2" type="matrix" values="0 0 0 0 0 0 0 0 0 0 0 0 0 0 0 0 0 0 .4 0"/><feOffset dx="4.0" dy="4.0" in="blurOut2" result="blurOut3"/><feBlend in="SourceGraphic" in2="blurOut3" mode="normal"/></filter></defs><g><text fill="#000000" font-family="sans-serif" font-size="18" lengthAdjust="spacing" textLength="38" x="210.995" y="18.6855">Start</text><rect fill="#FEFECE" filter="url(#f18oaiavlip1lv)" height="40" rx="12.5" ry="12.5" style="stroke:#A80036;stroke-width:1.5;" width="50" x="133.99" y="109.6406"/><text fill="#000000" font-family="sans-serif" font-size="14" lengthAdjust="spacing" textLength="24" x="146.99" y="135.3691">INIT</text><rect fill="#FEFECE" filter="url(#f18oaiavlip1lv)" height="40" rx="12.5" ry="12.5" style="stroke:#A80036;stroke-width:1.5;" width="50" x="133.99" y="265.6406"/><text fill="#000000" font-family="sans-serif" font-size="14" lengthAdjust="spacing" textLength="0" x="160.99" y="291.3691"/><rect fill="#FEFECE" filter="url(#f18oaiavlip1lv)" height="40" rx="12.5" ry="12.5" style="stroke:#A80036;stroke-width:1.5;" width="50" x="34.99" y="495.6406"/><text fill="#000000" font-family="sans-serif" font-size="14" lengthAdjust="spacing" textLength="0" x="61.99" y="521.3691"/><polygon fill="#FEFECE" filter="url(#f18oaiavlip1lv)" points="176.99,659.6406,188.99,671.6406,176.99,683.6406,164.99,671.6406,176.99,659.6406" style="stroke:#A80036;stroke-width:1.5;"/><rect fill="#FEFECE" filter="url(#f18oaiavlip1lv)" height="40" rx="12.5" ry="12.5" style="stroke:#A80036;stroke-width:1.5;" width="86" x="133.99" y="799.6406"/><text fill="#000000" font-family="sans-serif" font-size="14" lengthAdjust="spacing" textLength="76" x="138.99" y="825.3691">Show Board</text><ellipse cx="158.99" cy="38.6406" fill="#000000" filter="url(#f18oaiavlip1lv)" rx="10" ry="10" style="stroke:none;stroke-width:1.0;"/><rect fill="#FEFECE" filter="url(#f18oaiavlip1lv)" height="40" rx="12.5" ry="12.5" style="stroke:#A80036;stroke-width:1.5;" width="70" x="141.99" y="988.6406"/><text fill="#000000" font-family="sans-serif" font-size="14" lengthAdjust="spacing" textLength="60" x="146.99" y="1014.3691">IN_GAME</text><!--MD5=[de337d60c65d7a69d09434d7c5e39230]
link *start to INIT--><path d="M158.99,48.8306 C158.99,61.8206 158.99,86.0206 158.99,104.3706 " fill="none" id="*start-to-INIT" style="stroke:#A80036;stroke-width:1.0;"/><polygon fill="#A80036" points="158.99,109.3806,162.99,100.3806,158.99,104.3806,154.99,100.3806,158.99,109.3806" style="stroke:#A80036;stroke-width:1.0;"/><!--MD5=[4e6cf5cedc5023d3f74dd5ee7b81efd8]
link INIT to startedGame--><path d="M158.99,149.8306 C158.99,177.7306 158.99,229.4806 158.99,260.1106 " fill="none" id="INIT-to-startedGame" style="stroke:#008000;stroke-width:1.0;"/><polygon fill="#008000" points="158.99,265.2106,162.99,256.2106,158.99,260.2106,154.99,256.2106,158.99,265.2106" style="stroke:#008000;stroke-width:1.0;"/><path d="M163.99,184.6406 L163.99,226.6406 L292.99,226.6406 L292.99,194.6406 L282.99,184.6406 L163.99,184.6406 " fill="#FFFFFF" filter="url(#f18oaiavlip1lv)" style="stroke:#008000;stroke-width:1.0;"/><path d="M282.99,184.6406 L282.99,194.6406 L292.99,194.6406 L282.99,184.6406 " fill="#FFFFFF" style="stroke:#008000;stroke-width:1.0;"/><text fill="#000000" font-family="sans-serif" font-size="13" font-weight="bold" lengthAdjust="spacing" textLength="108" x="169.99" y="203.1357">Player request to</text><text fill="#000000" font-family="sans-serif" font-size="13" lengthAdjust="spacing" textLength="100" x="169.99" y="219.4873">start a new game</text><!--MD5=[309308812ad6d760a963826f8ffb2c84]
link startedGame to numberOfPlayers--><path d="M133.98,288.7706 C105.27,292.7006 59.4,303.8806 37.99,335.6406 C6,383.1006 30.91,454.0506 47.77,490.7406 " fill="none" id="startedGame-to-numberOfPlayers" style="stroke:#008000;stroke-width:1.0;"/><polygon fill="#008000" points="49.99,495.4706,49.7696,485.6242,47.8576,490.9482,42.5336,489.0361,49.99,495.4706" style="stroke:#008000;stroke-width:1.0;"/><path d="M42.99,340.6406 L42.99,448.6406 L241.99,448.6406 L241.99,350.6406 L231.99,340.6406 L42.99,340.6406 " fill="#FFFFFF" filter="url(#f18oaiavlip1lv)" style="stroke:#008000;stroke-width:1.0;"/><path d="M231.99,340.6406 L231.99,350.6406 L241.99,350.6406 L231.99,340.6406 " fill="#FFFFFF" style="stroke:#008000;stroke-width:1.0;"/><text fill="#000000" font-family="sans-serif" font-size="13" font-weight="bold" lengthAdjust="spacing" textLength="89" x="48.99" y="359.1357">System shows</text><text fill="#000000" font-family="sans-serif" font-size="13" lengthAdjust="spacing" textLength="178" x="48.99" y="375.4873">title required number of players</text><text fill="#000000" font-family="sans-serif" font-size="13" font-weight="bold" lengthAdjust="spacing" textLength="102" x="48.99" y="391.8389">System requires</text><text fill="#000000" font-family="sans-serif" font-size="13" lengthAdjust="spacing" textLength="103" x="48.99" y="408.1904">number of players</text><text fill="#000000" font-family="sans-serif" font-size="13" font-weight="bold" lengthAdjust="spacing" textLength="91" x="48.99" y="424.542">System allows</text><text fill="#000000" font-family="sans-serif" font-size="13" lengthAdjust="spacing" textLength="101" x="48.99" y="440.8936">only numbers &gt; 0</text><!--MD5=[a499375af50ad874e0609854c08c9b9e]
link numberOfPlayers to ifValidNumberOfPlayers--><path d="M65.3,535.6806 C72.76,559.7606 88.28,601.4506 112.99,629.6406 C127.4,646.0806 149.96,658.4106 164.09,665.0706 " fill="none" id="numberOfPlayers-to-ifValidNumberOfPlayers" style="stroke:#008000;stroke-width:1.0;"/><polygon fill="#008000" points="168.88,667.2606,162.3506,659.8872,164.3306,665.1862,159.0316,667.1662,168.88,667.2606" style="stroke:#008000;stroke-width:1.0;"/><path d="M117.99,578.6406 L117.99,620.6406 L241.99,620.6406 L241.99,588.6406 L231.99,578.6406 L117.99,578.6406 " fill="#FFFFFF" filter="url(#f18oaiavlip1lv)" style="stroke:#008000;stroke-width:1.0;"/><path d="M231.99,578.6406 L231.99,588.6406 L241.99,588.6406 L231.99,578.6406 " fill="#FFFFFF" style="stroke:#008000;stroke-width:1.0;"/><text fill="#000000" font-family="sans-serif" font-size="13" font-weight="bold" lengthAdjust="spacing" textLength="99" x="123.99" y="597.1357">Player provides</text><text fill="#000000" font-family="sans-serif" font-size="13" lengthAdjust="spacing" textLength="103" x="123.99" y="613.4873">number of players</text><!--MD5=[62cda2a3a26b89bf471ca66bc9c6aeaa]
link ifValidNumberOfPlayers to startedGame--><path d="M186.33,668.9506 C203.52,665.2706 239.8,654.7806 254.99,629.6406 C322.55,517.8006 323.22,447.0806 254.99,335.6406 C240.73,312.3506 211.52,299.6906 189.05,293.1106 " fill="none" id="ifValidNumberOfPlayers-to-startedGame" style="stroke:#A80036;stroke-width:1.0;"/><polygon fill="#A80036" points="184.07,291.7206,191.6644,297.9916,188.8862,293.064,193.8138,290.2858,184.07,291.7206" style="stroke:#A80036;stroke-width:1.0;"/><path d="M309.99,492.6406 L309.99,534.6406 L465.99,534.6406 L465.99,502.6406 L455.99,492.6406 L309.99,492.6406 " fill="#FFFFFF" filter="url(#f18oaiavlip1lv)" style="stroke:#A80036;stroke-width:1.0;"/><path d="M455.99,492.6406 L455.99,502.6406 L465.99,502.6406 L455.99,492.6406 " fill="#FFFFFF" style="stroke:#A80036;stroke-width:1.0;"/><text fill="#000000" font-family="sans-serif" font-size="13" font-weight="bold" lengthAdjust="spacing" textLength="89" x="315.99" y="511.1357">System shows</text><text fill="#000000" font-family="sans-serif" font-size="13" lengthAdjust="spacing" textLength="135" x="315.99" y="527.4873">invalid numer of players</text><!--MD5=[b962a2b57d078af9a836ea8cf2d8dccb]
link ifValidNumberOfPlayers to showBoard--><path d="M176.99,684.1006 C176.99,707.7406 176.99,762.3706 176.99,794.2706 " fill="none" id="ifValidNumberOfPlayers-to-showBoard" style="stroke:#008000;stroke-width:1.0;"/><polygon fill="#008000" points="176.99,799.5706,180.99,790.5706,176.99,794.5706,172.99,790.5706,176.99,799.5706" style="stroke:#008000;stroke-width:1.0;"/><path d="M181.99,718.6406 L181.99,760.6406 L291.99,760.6406 L291.99,728.6406 L281.99,718.6406 L181.99,718.6406 " fill="#FFFFFF" filter="url(#f18oaiavlip1lv)" style="stroke:#008000;stroke-width:1.0;"/><path d="M281.99,718.6406 L281.99,728.6406 L291.99,728.6406 L281.99,718.6406 " fill="#FFFFFF" style="stroke:#008000;stroke-width:1.0;"/><text fill="#000000" font-family="sans-serif" font-size="13" font-weight="bold" lengthAdjust="spacing" textLength="89" x="187.99" y="737.1357">System shows</text><text fill="#000000" font-family="sans-serif" font-size="13" lengthAdjust="spacing" textLength="32" x="187.99" y="753.4873">board</text><!--MD5=[ca772f2399f26b9f4992834aaa0bf004]
link showBoard to IN_GAME--><path d="M176.99,839.9506 C176.99,874.1906 176.99,945.4906 176.99,983.1406 " fill="none" id="showBoard-to-IN_GAME" style="stroke:#008000;stroke-width:1.0;"/><polygon fill="#008000" points="176.99,988.4406,180.99,979.4406,176.99,983.4406,172.99,979.4406,176.99,988.4406" style="stroke:#008000;stroke-width:1.0;"/><path d="M181.99,874.6406 L181.99,949.6406 L361.99,949.6406 L361.99,884.6406 L351.99,874.6406 L181.99,874.6406 " fill="#FFFFFF" filter="url(#f18oaiavlip1lv)" style="stroke:#008000;stroke-width:1.0;"/><path d="M351.99,874.6406 L351.99,884.6406 L361.99,884.6406 L351.99,874.6406 " fill="#FFFFFF" style="stroke:#008000;stroke-width:1.0;"/><text fill="#000000" font-family="sans-serif" font-size="13" font-weight="bold" lengthAdjust="spacing" textLength="91" x="187.99" y="893.1357">System allows</text><text fill="#000000" font-family="sans-serif" font-size="13" lengthAdjust="spacing" textLength="62" x="187.99" y="909.4873">start game</text><text fill="#000000" font-family="sans-serif" font-size="13" font-weight="bold" lengthAdjust="spacing" textLength="102" x="187.99" y="925.8389">System requires</text><text fill="#000000" font-family="sans-serif" font-size="13" lengthAdjust="spacing" textLength="159" x="187.99" y="942.1904">player propose combination</text><!--MD5=[bf9ab79ca55f483339ce91ab9d99b66c]
@startuml

title Start
skinparam NoteBackgroundColor white
hide empty description
state INIT as "INIT"
state startedGame as " "
state numberOfPlayers as " "
state ifValidNumberOfPlayers <<choice>>
state showBoard as "Show Board"

[*] - -> INIT
INIT -[#green]-> startedGame
note on link #white
  <b>Player request to
  start a new game
end note
startedGame -[#green]-> numberOfPlayers
note on link
  <b>System shows
  title required number of players
  <b>System requires
  number of players
  <b>System allows
  only numbers > 0
end note
numberOfPlayers -[#green]-> ifValidNumberOfPlayers
note on link
  <b>Player provides
  number of players
end note
ifValidNumberOfPlayers - -> startedGame
note on link
  <b>System shows
  invalid numer of players
end note
ifValidNumberOfPlayers -[#green]-> showBoard
note on link
  <b>System shows
  board
end note
showBoard -[#green]-> IN_GAME
note on link
  <b>System allows
  start game
  <b>System requires
  player propose combination
end note

@enduml

PlantUML version 1.2021.11(Sat Oct 02 15:26:11 CEST 2021)
(GPL source distribution)
Java Runtime: OpenJDK Runtime Environment
JVM: OpenJDK 64-Bit Server VM
Default Encoding: Cp1252
Language: es
Country: ES
--></g></svg>