<?xml version="1.0" encoding="UTF-8" standalone="no"?><svg xmlns="http://www.w3.org/2000/svg" xmlns:xlink="http://www.w3.org/1999/xlink" contentScriptType="application/ecmascript" contentStyleType="text/css" height="692px" preserveAspectRatio="none" style="width:300px;height:692px;background:#FFFFFF;" version="1.1" viewBox="0 0 300 692" width="300px" zoomAndPan="magnify"><defs><filter height="300%" id="f1or21n38omj3f" width="300%" x="-1" y="-1"><feGaussianBlur result="blurOut" stdDeviation="2.0"/><feColorMatrix in="blurOut" result="blurOut2" type="matrix" values="0 0 0 0 0 0 0 0 0 0 0 0 0 0 0 0 0 0 .4 0"/><feOffset dx="4.0" dy="4.0" in="blurOut2" result="blurOut3"/><feBlend in="SourceGraphic" in2="blurOut3" mode="normal"/></filter></defs><g><text fill="#000000" font-family="sans-serif" font-size="18" lengthAdjust="spacing" textLength="251" x="17.295" y="18.6855">Specification Propose use case</text><rect fill="#FEFECE" filter="url(#f1or21n38omj3f)" height="40" rx="12.5" ry="12.5" style="stroke:#A80036;stroke-width:1.5;" width="50" x="79.59" y="185.6406"/><text fill="#000000" font-family="sans-serif" font-size="14" lengthAdjust="spacing" textLength="0" x="106.59" y="211.3691"/><rect fill="#FEFECE" filter="url(#f1or21n38omj3f)" height="40" rx="12.5" ry="12.5" style="stroke:#A80036;stroke-width:1.5;" width="50" x="79.59" y="374.6406"/><text fill="#000000" font-family="sans-serif" font-size="14" lengthAdjust="spacing" textLength="0" x="106.59" y="400.3691"/><polygon fill="#FEFECE" filter="url(#f1or21n38omj3f)" points="104.59,514.6406,116.59,526.6406,104.59,538.6406,92.59,526.6406,104.59,514.6406" style="stroke:#A80036;stroke-width:1.5;"/><rect fill="#FEFECE" filter="url(#f1or21n38omj3f)" height="40" rx="12.5" ry="12.5" style="stroke:#A80036;stroke-width:1.5;" width="70" x="69.59" y="29.6406"/><text fill="#000000" font-family="sans-serif" font-size="14" lengthAdjust="spacing" textLength="60" x="74.59" y="55.3691">IN_GAME</text><rect fill="#FEFECE" filter="url(#f1or21n38omj3f)" height="40" rx="12.5" ry="12.5" style="stroke:#A80036;stroke-width:1.5;" width="87" x="61.09" y="638.6406"/><text fill="#000000" font-family="sans-serif" font-size="14" lengthAdjust="spacing" textLength="77" x="66.09" y="664.3691">OUT_GAME</text><!--MD5=[405ced330d158ddaaa2079ea4d20da71]
link IN_GAME to userRequiresCompareWord--><path d="M104.59,69.8306 C104.59,97.7306 104.59,149.4806 104.59,180.1106 " fill="none" id="IN_GAME-to-userRequiresCompareWord" style="stroke:#008000;stroke-width:1.0;"/><polygon fill="#008000" points="104.59,185.2106,108.59,176.2106,104.59,180.2106,100.59,176.2106,104.59,185.2106" style="stroke:#008000;stroke-width:1.0;"/><path d="M109.59,104.6406 L109.59,146.6406 L248.59,146.6406 L248.59,114.6406 L238.59,104.6406 L109.59,104.6406 " fill="#FFFFFF" filter="url(#f1or21n38omj3f)" style="stroke:#008000;stroke-width:1.0;"/><path d="M238.59,104.6406 L238.59,114.6406 L248.59,114.6406 L238.59,104.6406 " fill="#FFFFFF" style="stroke:#008000;stroke-width:1.0;"/><text fill="#000000" font-family="sans-serif" font-size="13" font-weight="bold" lengthAdjust="spacing" textLength="93" x="115.59" y="123.1357">Player provide</text><text fill="#000000" font-family="sans-serif" font-size="13" lengthAdjust="spacing" textLength="118" x="115.59" y="139.4873">proposed characters</text><!--MD5=[20987025f40418e2aeea5ecd51cc84fa]
link userRequiresCompareWord to compareWord--><path d="M104.59,225.9506 C104.59,260.1906 104.59,331.4906 104.59,369.1406 " fill="none" id="userRequiresCompareWord-to-compareWord" style="stroke:#008000;stroke-width:1.0;"/><polygon fill="#008000" points="104.59,374.4406,108.59,365.4406,104.59,369.4406,100.59,365.4406,104.59,374.4406" style="stroke:#008000;stroke-width:1.0;"/><path d="M109.59,260.6406 L109.59,335.6406 L262.59,335.6406 L262.59,270.6406 L252.59,260.6406 L109.59,260.6406 " fill="#FFFFFF" filter="url(#f1or21n38omj3f)" style="stroke:#008000;stroke-width:1.0;"/><path d="M252.59,260.6406 L252.59,270.6406 L262.59,270.6406 L252.59,260.6406 " fill="#FFFFFF" style="stroke:#008000;stroke-width:1.0;"/><text fill="#000000" font-family="sans-serif" font-size="13" font-weight="bold" lengthAdjust="spacing" textLength="102" x="115.59" y="279.1357">System requires</text><text fill="#000000" font-family="sans-serif" font-size="13" lengthAdjust="spacing" textLength="132" x="115.59" y="295.4873">player characters input</text><text fill="#000000" font-family="sans-serif" font-size="13" font-weight="bold" lengthAdjust="spacing" textLength="91" x="115.59" y="311.8389">System allows</text><text fill="#000000" font-family="sans-serif" font-size="13" lengthAdjust="spacing" textLength="97" x="115.59" y="328.1904">[only characters]</text><!--MD5=[65d58978530167b8f09d911105d548f7]
link compareWord to ifValidPropose--><path d="M79.21,401.9006 C58.05,408.6106 29.23,421.5606 15.59,444.6406 C6.55,459.9406 6,469.6706 15.59,484.6406 C31.93,510.1506 68.6,520.0106 89.42,523.6506 " fill="none" id="compareWord-to-ifValidPropose" style="stroke:#008000;stroke-width:1.0;"/><polygon fill="#008000" points="94.59,524.4806,86.332,519.1136,89.6524,523.6935,85.0725,527.0139,94.59,524.4806" style="stroke:#008000;stroke-width:1.0;"/><path d="M20.59,449.6406 L20.59,475.6406 L139.59,475.6406 L139.59,459.6406 L129.59,449.6406 L20.59,449.6406 " fill="#FFFFFF" filter="url(#f1or21n38omj3f)" style="stroke:#008000;stroke-width:1.0;"/><path d="M129.59,449.6406 L129.59,459.6406 L139.59,459.6406 L129.59,449.6406 " fill="#FFFFFF" style="stroke:#008000;stroke-width:1.0;"/><text fill="#000000" font-family="sans-serif" font-size="13" lengthAdjust="spacing" textLength="98" x="26.59" y="468.1357">[valid characters]</text><!--MD5=[42d3d019f703197cd8e7c0ea0fd8c3e1]
link ifValidPropose to compareWord--><path d="M112.21,521.8806 C123.5,515.8406 144.24,502.7506 152.59,484.6406 C160.03,468.5006 159.31,461.1006 152.59,444.6406 C148.49,434.6006 141.23,425.5006 133.58,417.9406 " fill="none" id="ifValidPropose-to-compareWord" style="stroke:#A80036;stroke-width:1.0;"/><polygon fill="#A80036" points="129.8,414.3606,133.5756,423.457,133.4271,417.8021,139.082,417.6536,129.8,414.3606" style="stroke:#A80036;stroke-width:1.0;"/><path d="M162.59,449.6406 L162.59,475.6406 L291.59,475.6406 L291.59,459.6406 L281.59,449.6406 L162.59,449.6406 " fill="#FFFFFF" filter="url(#f1or21n38omj3f)" style="stroke:#A80036;stroke-width:1.0;"/><path d="M281.59,449.6406 L281.59,459.6406 L291.59,459.6406 L281.59,449.6406 " fill="#FFFFFF" style="stroke:#A80036;stroke-width:1.0;"/><text fill="#000000" font-family="sans-serif" font-size="13" lengthAdjust="spacing" textLength="108" x="168.59" y="468.1357">[invalid characters]</text><!--MD5=[df623ff295717d2e1632e1caddc991c4]
link ifValidPropose to OUT_GAME--><path d="M104.59,538.7206 C104.59,559.5306 104.59,604.9006 104.59,633.1906 " fill="none" id="ifValidPropose-to-OUT_GAME" style="stroke:#008000;stroke-width:1.0;"/><polygon fill="#008000" points="104.59,638.2706,108.59,629.2706,104.59,633.2706,100.59,629.2706,104.59,638.2706" style="stroke:#008000;stroke-width:1.0;"/><path d="M109.59,573.6406 L109.59,599.6406 L182.59,599.6406 L182.59,583.6406 L172.59,573.6406 L109.59,573.6406 " fill="#FFFFFF" filter="url(#f1or21n38omj3f)" style="stroke:#008000;stroke-width:1.0;"/><path d="M172.59,573.6406 L172.59,583.6406 L182.59,583.6406 L172.59,573.6406 " fill="#FFFFFF" style="stroke:#008000;stroke-width:1.0;"/><text fill="#000000" font-family="sans-serif" font-size="13" lengthAdjust="spacing" textLength="52" x="115.59" y="592.1357">[finished]</text><!--MD5=[c6218fff1c4595ca01557b853603499c]
@startuml
title Specification Propose use case
skinparam NoteBackgroundColor white
hide empty description
state userRequiresCompareWord as " "
state compareWord as " "
state ifValidPropose <<choice>>

IN_GAME -[#green]-> userRequiresCompareWord
note on link #white
  <b>Player provide
  proposed characters
end note
userRequiresCompareWord -[#green]-> compareWord
note on link #white
  <b>System requires
  player characters input
  <b>System allows
  [only characters]
end note
compareWord -[#green]-> ifValidPropose
note on link #white
  [valid characters]
end note
ifValidPropose - -> compareWord
note on link #white
  [invalid characters]
end note
ifValidPropose -[#green]-> OUT_GAME
note on link #white
  [finished]
end note
@enduml

PlantUML version 1.2021.11(Sat Oct 02 15:26:11 CEST 2021)
(GPL source distribution)
Java Runtime: OpenJDK Runtime Environment
JVM: OpenJDK 64-Bit Server VM
Default Encoding: Cp1252
Language: es
Country: ES
--></g></svg>