<?xml version="1.0" encoding="UTF-8" standalone="no"?><svg xmlns="http://www.w3.org/2000/svg" xmlns:xlink="http://www.w3.org/1999/xlink" contentScriptType="application/ecmascript" contentStyleType="text/css" height="857px" preserveAspectRatio="none" style="width:556px;height:857px;background:#FFFFFF;" version="1.1" viewBox="0 0 556 857" width="556px" zoomAndPan="magnify"><defs><filter height="300%" id="f13il6q7ylhcci" width="300%" x="-1" y="-1"><feGaussianBlur result="blurOut" stdDeviation="2.0"/><feColorMatrix in="blurOut" result="blurOut2" type="matrix" values="0 0 0 0 0 0 0 0 0 0 0 0 0 0 0 0 0 0 .4 0"/><feOffset dx="4.0" dy="4.0" in="blurOut2" result="blurOut3"/><feBlend in="SourceGraphic" in2="blurOut3" mode="normal"/></filter></defs><g><rect fill="#FEFECE" filter="url(#f13il6q7ylhcci)" height="40" rx="12.5" ry="12.5" style="stroke:#A80036;stroke-width:1.5;" width="50" x="7.34" y="171"/><text fill="#000000" font-family="sans-serif" font-size="14" lengthAdjust="spacing" textLength="0" x="34.34" y="196.7285"/><rect fill="#FEFECE" filter="url(#f13il6q7ylhcci)" height="40" rx="12.5" ry="12.5" style="stroke:#A80036;stroke-width:1.5;" width="86" x="296.34" y="543"/><text fill="#000000" font-family="sans-serif" font-size="14" lengthAdjust="spacing" textLength="76" x="301.34" y="568.7285">Show Board</text><polygon fill="#FEFECE" filter="url(#f13il6q7ylhcci)" points="204.34,384,216.34,396,204.34,408,192.34,396,204.34,384" style="stroke:#A80036;stroke-width:1.5;"/><polygon fill="#FEFECE" filter="url(#f13il6q7ylhcci)" points="412.34,644,424.34,656,412.34,668,400.34,656,412.34,644" style="stroke:#A80036;stroke-width:1.5;"/><rect fill="#FEFECE" filter="url(#f13il6q7ylhcci)" height="40" rx="12.5" ry="12.5" style="stroke:#A80036;stroke-width:1.5;" width="70" x="169.34" y="7"/><text fill="#000000" font-family="sans-serif" font-size="14" lengthAdjust="spacing" textLength="60" x="174.34" y="32.7285">IN_GAME</text><rect fill="#FEFECE" filter="url(#f13il6q7ylhcci)" height="40" rx="12.5" ry="12.5" style="stroke:#A80036;stroke-width:1.5;" width="87" x="368.84" y="803"/><text fill="#000000" font-family="sans-serif" font-size="14" lengthAdjust="spacing" textLength="77" x="373.84" y="828.7285">OUT_GAME</text><!--MD5=[405ced330d158ddaaa2079ea4d20da71]
link IN_GAME to userRequiresCompareWord--><path d="M169.06,32.58 C122.03,39.5 42.69,54.27 25.34,77 C6,102.34 13.98,140.93 22.42,165.81 " fill="none" id="IN_GAME-to-userRequiresCompareWord" style="stroke:#008000;stroke-width:1.0;"/><polygon fill="#008000" points="24.1,170.59,24.8626,160.7707,22.4292,165.8774,17.3225,163.444,24.1,170.59" style="stroke:#008000;stroke-width:1.0;"/><path d="M30.34,82 L30.34,124 L169.34,124 L169.34,92 L159.34,82 L30.34,82 " fill="#FFFFFF" filter="url(#f13il6q7ylhcci)" style="stroke:#008000;stroke-width:1.0;"/><path d="M159.34,82 L159.34,92 L169.34,92 L159.34,82 " fill="#FFFFFF" style="stroke:#008000;stroke-width:1.0;"/><text fill="#000000" font-family="sans-serif" font-size="13" font-weight="bold" lengthAdjust="spacing" textLength="93" x="36.34" y="100.4951">Player provide</text><text fill="#000000" font-family="sans-serif" font-size="13" lengthAdjust="spacing" textLength="118" x="36.34" y="116.8467">proposed characters</text><!--MD5=[7a100e0cde2b51097145e3fdddb1db50]
link userRequiresCompareWord to ifValidPropose--><path d="M26.9,211.04 C18.7,244.21 7.45,312.94 41.34,354 C60.28,376.95 152.51,389.36 189.22,393.45 " fill="none" id="userRequiresCompareWord-to-ifValidPropose" style="stroke:#008000;stroke-width:1.0;"/><polygon fill="#008000" points="194.22,394,185.7089,389.044,189.2497,393.4557,184.838,396.9965,194.22,394" style="stroke:#008000;stroke-width:1.0;"/><path d="M46.34,254 L46.34,345 L169.34,345 L169.34,264 L159.34,254 L46.34,254 " fill="#FFFFFF" filter="url(#f13il6q7ylhcci)" style="stroke:#008000;stroke-width:1.0;"/><path d="M159.34,254 L159.34,264 L169.34,264 L159.34,254 " fill="#FFFFFF" style="stroke:#008000;stroke-width:1.0;"/><text fill="#000000" font-family="sans-serif" font-size="13" font-weight="bold" lengthAdjust="spacing" textLength="102" x="52.34" y="272.4951">System requires</text><text fill="#000000" font-family="sans-serif" font-size="13" lengthAdjust="spacing" textLength="100" x="52.34" y="288.8467">player characters</text><text fill="#000000" font-family="sans-serif" font-size="13" font-weight="bold" lengthAdjust="spacing" textLength="91" x="52.34" y="305.1982">System allows</text><text fill="#000000" font-family="sans-serif" font-size="13" lengthAdjust="spacing" textLength="97" x="52.34" y="321.5498">- only characters</text><text fill="#000000" font-family="sans-serif" font-size="13" lengthAdjust="spacing" textLength="66" x="52.34" y="337.9014">- length &gt; 0</text><!--MD5=[3d9becd0af306e753a9ba3e2c86a43a8]
link ifValidPropose to showBoard--><path d="M209.47,403.27 C227.54,425.36 288.91,500.36 320.38,538.83 " fill="none" id="ifValidPropose-to-showBoard" style="stroke:#008000;stroke-width:1.0;"/><polygon fill="#008000" points="323.7,542.88,321.112,533.3773,320.54,539.0051,314.9122,538.4332,323.7,542.88" style="stroke:#008000;stroke-width:1.0;"/><text fill="#000000" font-family="sans-serif" font-size="13" lengthAdjust="spacing" textLength="115" x="299.84" y="452.4951">[valid input propose]</text><path d="M300.34,461.3516 L300.34,503.3516 L410.34,503.3516 L410.34,471.3516 L400.34,461.3516 L300.34,461.3516 " fill="#FFFFFF" filter="url(#f13il6q7ylhcci)" style="stroke:#008000;stroke-width:1.0;"/><path d="M400.34,461.3516 L400.34,471.3516 L410.34,471.3516 L400.34,461.3516 " fill="#FFFFFF" style="stroke:#008000;stroke-width:1.0;"/><text fill="#000000" font-family="sans-serif" font-size="13" font-weight="bold" lengthAdjust="spacing" textLength="89" x="306.34" y="479.8467">System shows</text><text fill="#000000" font-family="sans-serif" font-size="13" lengthAdjust="spacing" textLength="32" x="306.34" y="496.1982">board</text><!--MD5=[1a82143de53b01955d0720f4538e8a6a]
reverse link IN_GAME to ifValidPropose--><path d="M204.34,52.56 C204.34,124.56 204.34,333.26 204.34,383.86 " fill="none" id="IN_GAME-backto-ifValidPropose" style="stroke:#A80036;stroke-width:1.0;"/><polygon fill="#A80036" points="204.34,47.21,200.34,56.21,204.34,52.21,208.34,56.21,204.34,47.21" style="stroke:#A80036;stroke-width:1.0;"/><path d="M209.34,168 L209.34,210 L398.34,210 L398.34,178 L388.34,168 L209.34,168 " fill="#FFFFFF" filter="url(#f13il6q7ylhcci)" style="stroke:#A80036;stroke-width:1.0;"/><path d="M388.34,168 L388.34,178 L398.34,178 L388.34,168 " fill="#FFFFFF" style="stroke:#A80036;stroke-width:1.0;"/><text fill="#000000" font-family="sans-serif" font-size="13" font-weight="bold" lengthAdjust="spacing" textLength="89" x="215.34" y="186.4951">System shows</text><text fill="#000000" font-family="sans-serif" font-size="13" lengthAdjust="spacing" textLength="168" x="215.34" y="202.8467">invalid player provide propose</text><!--MD5=[c7f20925480a9163a3e46de27cc22751]
link showBoard to ifEndGame--><path d="M354.82,583.3 C369.84,602.02 392.06,629.72 404.01,644.62 " fill="none" id="showBoard-to-ifEndGame" style="stroke:#008000;stroke-width:1.0;"/><polygon fill="#008000" points="407.37,648.81,404.8585,639.2868,404.2413,644.9098,398.6182,644.2927,407.37,648.81" style="stroke:#008000;stroke-width:1.0;"/><!--MD5=[d27e7a06748c0d9c643e25af11cf41cb]
reverse link IN_GAME to ifEndGame--><path d="M244.46,34.4 C316.5,48.43 460.34,89.07 460.34,190 C460.34,190 460.34,190 460.34,564 C460.34,600.08 430.45,635.88 417.85,649.38 " fill="none" id="IN_GAME-backto-ifEndGame" style="stroke:#A80036;stroke-width:1.0;"/><polygon fill="#A80036" points="239.4,33.44,247.4851,39.0642,244.3104,34.3821,248.9925,31.2075,239.4,33.44" style="stroke:#A80036;stroke-width:1.0;"/><text fill="#000000" font-family="sans-serif" font-size="13" lengthAdjust="spacing" textLength="87" x="461.34" y="401.4951">[game not end]</text><!--MD5=[fedca4ac52ca1f9bc5c1b0c24fd39cd7]
link ifEndGame to OUT_GAME--><path d="M412.34,668.08 C412.34,694.46 412.34,761.47 412.34,797.76 " fill="none" id="ifEndGame-to-OUT_GAME" style="stroke:#008000;stroke-width:1.0;"/><polygon fill="#008000" points="412.34,802.88,416.34,793.88,412.34,797.88,408.34,793.88,412.34,802.88" style="stroke:#008000;stroke-width:1.0;"/><text fill="#000000" font-family="sans-serif" font-size="13" lengthAdjust="spacing" textLength="70" x="441.34" y="712.4951">[lose or win]</text><path d="M417.34,721.3516 L417.34,763.3516 L531.34,763.3516 L531.34,731.3516 L521.34,721.3516 L417.34,721.3516 " fill="#FFFFFF" filter="url(#f13il6q7ylhcci)" style="stroke:#008000;stroke-width:1.0;"/><path d="M521.34,721.3516 L521.34,731.3516 L531.34,731.3516 L521.34,721.3516 " fill="#FFFFFF" style="stroke:#008000;stroke-width:1.0;"/><text fill="#000000" font-family="sans-serif" font-size="13" font-weight="bold" lengthAdjust="spacing" textLength="89" x="427.34" y="739.8467">System shows</text><text fill="#000000" font-family="sans-serif" font-size="13" lengthAdjust="spacing" textLength="62" x="423.34" y="756.1982">restart title</text><!--MD5=[8ddfb3ba22391ff2257e19e219176454]
@startuml
skinparam NoteBackgroundColor white
hide empty description
state userRequiresCompareWord as " "
state showBoard as "Show Board"
state ifValidPropose <<choice>>
state ifEndGame <<choice>>

IN_GAME -[#green]-> userRequiresCompareWord
note on link #white
  <b>Player provide
  proposed characters
end note
userRequiresCompareWord -[#green]-> ifValidPropose
note on link #white
  <b>System requires
  player characters
  <b>System allows
  - only characters
  - length > 0
end note
ifValidPropose -[#green]-> showBoard : [valid input propose]
note on link
  <b>System shows
  board
  end note
ifValidPropose -up-> IN_GAME
note on link #white
  <b>System shows
 board
end note
note on link #white
  <b>System shows
  invalid player provide propose
end note
showBoard -[#green]-> ifEndGame
ifEndGame -up-> IN_GAME : [game not end]
ifEndGame -[#green]-> OUT_GAME : [lose or win]
note on link #white
  <b> System shows
  restart title
end note
@enduml

PlantUML version 1.2021.11(Sat Oct 02 15:26:11 CEST 2021)
(GPL source distribution)
Java Runtime: OpenJDK Runtime Environment
JVM: OpenJDK 64-Bit Server VM
Default Encoding: Cp1252
Language: es
Country: ES
--></g></svg>