<?xml version="1.0" encoding="UTF-8" standalone="no"?><svg xmlns="http://www.w3.org/2000/svg" xmlns:xlink="http://www.w3.org/1999/xlink" contentScriptType="application/ecmascript" contentStyleType="text/css" height="1020px" preserveAspectRatio="none" style="width:474px;height:1020px;background:#FFFFFF;" version="1.1" viewBox="0 0 474 1020" width="474px" zoomAndPan="magnify"><defs><filter height="300%" id="fnex7cwy8337" width="300%" x="-1" y="-1"><feGaussianBlur result="blurOut" stdDeviation="2.0"/><feColorMatrix in="blurOut" result="blurOut2" type="matrix" values="0 0 0 0 0 0 0 0 0 0 0 0 0 0 0 0 0 0 .4 0"/><feOffset dx="4.0" dy="4.0" in="blurOut2" result="blurOut3"/><feBlend in="SourceGraphic" in2="blurOut3" mode="normal"/></filter></defs><g><rect fill="#FEFECE" filter="url(#fnex7cwy8337)" height="40" rx="12.5" ry="12.5" style="stroke:#A80036;stroke-width:1.5;" width="50" x="133.99" y="87"/><text fill="#000000" font-family="sans-serif" font-size="14" lengthAdjust="spacing" textLength="24" x="146.99" y="112.7285">INIT</text><rect fill="#FEFECE" filter="url(#fnex7cwy8337)" height="40" rx="12.5" ry="12.5" style="stroke:#A80036;stroke-width:1.5;" width="50" x="133.99" y="243"/><text fill="#000000" font-family="sans-serif" font-size="14" lengthAdjust="spacing" textLength="0" x="160.99" y="268.7285"/><rect fill="#FEFECE" filter="url(#fnex7cwy8337)" height="40" rx="12.5" ry="12.5" style="stroke:#A80036;stroke-width:1.5;" width="50" x="34.99" y="473"/><text fill="#000000" font-family="sans-serif" font-size="14" lengthAdjust="spacing" textLength="0" x="61.99" y="498.7285"/><polygon fill="#FEFECE" filter="url(#fnex7cwy8337)" points="176.99,637,188.99,649,176.99,661,164.99,649,176.99,637" style="stroke:#A80036;stroke-width:1.5;"/><rect fill="#FEFECE" filter="url(#fnex7cwy8337)" height="40" rx="12.5" ry="12.5" style="stroke:#A80036;stroke-width:1.5;" width="86" x="133.99" y="777"/><text fill="#000000" font-family="sans-serif" font-size="14" lengthAdjust="spacing" textLength="76" x="138.99" y="802.7285">Show Board</text><ellipse cx="158.99" cy="16" fill="#000000" filter="url(#fnex7cwy8337)" rx="10" ry="10" style="stroke:none;stroke-width:1.0;"/><rect fill="#FEFECE" filter="url(#fnex7cwy8337)" height="40" rx="12.5" ry="12.5" style="stroke:#A80036;stroke-width:1.5;" width="70" x="141.99" y="966"/><text fill="#000000" font-family="sans-serif" font-size="14" lengthAdjust="spacing" textLength="60" x="146.99" y="991.7285">IN_GAME</text><!--MD5=[de337d60c65d7a69d09434d7c5e39230]
link *start to INIT--><path d="M158.99,26.19 C158.99,39.18 158.99,63.38 158.99,81.73 " fill="none" id="*start-to-INIT" style="stroke:#A80036;stroke-width:1.0;"/><polygon fill="#A80036" points="158.99,86.74,162.99,77.74,158.99,81.74,154.99,77.74,158.99,86.74" style="stroke:#A80036;stroke-width:1.0;"/><!--MD5=[4e6cf5cedc5023d3f74dd5ee7b81efd8]
link INIT to startedGame--><path d="M158.99,127.19 C158.99,155.09 158.99,206.84 158.99,237.47 " fill="none" id="INIT-to-startedGame" style="stroke:#008000;stroke-width:1.0;"/><polygon fill="#008000" points="158.99,242.57,162.99,233.57,158.99,237.57,154.99,233.57,158.99,242.57" style="stroke:#008000;stroke-width:1.0;"/><path d="M163.99,162 L163.99,204 L292.99,204 L292.99,172 L282.99,162 L163.99,162 " fill="#FFFFFF" filter="url(#fnex7cwy8337)" style="stroke:#008000;stroke-width:1.0;"/><path d="M282.99,162 L282.99,172 L292.99,172 L282.99,162 " fill="#FFFFFF" style="stroke:#008000;stroke-width:1.0;"/><text fill="#000000" font-family="sans-serif" font-size="13" font-weight="bold" lengthAdjust="spacing" textLength="108" x="169.99" y="180.4951">Player request to</text><text fill="#000000" font-family="sans-serif" font-size="13" lengthAdjust="spacing" textLength="100" x="169.99" y="196.8467">start a new game</text><!--MD5=[309308812ad6d760a963826f8ffb2c84]
link startedGame to numberOfPlayers--><path d="M133.98,266.13 C105.27,270.06 59.4,281.24 37.99,313 C6,360.46 30.91,431.41 47.77,468.1 " fill="none" id="startedGame-to-numberOfPlayers" style="stroke:#008000;stroke-width:1.0;"/><polygon fill="#008000" points="49.99,472.83,49.7696,462.9836,47.8576,468.3075,42.5336,466.3955,49.99,472.83" style="stroke:#008000;stroke-width:1.0;"/><path d="M42.99,318 L42.99,426 L241.99,426 L241.99,328 L231.99,318 L42.99,318 " fill="#FFFFFF" filter="url(#fnex7cwy8337)" style="stroke:#008000;stroke-width:1.0;"/><path d="M231.99,318 L231.99,328 L241.99,328 L231.99,318 " fill="#FFFFFF" style="stroke:#008000;stroke-width:1.0;"/><text fill="#000000" font-family="sans-serif" font-size="13" font-weight="bold" lengthAdjust="spacing" textLength="89" x="48.99" y="336.4951">System shows</text><text fill="#000000" font-family="sans-serif" font-size="13" lengthAdjust="spacing" textLength="178" x="48.99" y="352.8467">title required number of players</text><text fill="#000000" font-family="sans-serif" font-size="13" font-weight="bold" lengthAdjust="spacing" textLength="102" x="48.99" y="369.1982">System requires</text><text fill="#000000" font-family="sans-serif" font-size="13" lengthAdjust="spacing" textLength="103" x="48.99" y="385.5498">number of players</text><text fill="#000000" font-family="sans-serif" font-size="13" font-weight="bold" lengthAdjust="spacing" textLength="91" x="48.99" y="401.9014">System allows</text><text fill="#000000" font-family="sans-serif" font-size="13" lengthAdjust="spacing" textLength="101" x="48.99" y="418.2529">only numbers &gt; 0</text><!--MD5=[a499375af50ad874e0609854c08c9b9e]
link numberOfPlayers to ifValidNumberOfPlayers--><path d="M65.3,513.04 C72.76,537.12 88.28,578.81 112.99,607 C127.4,623.44 149.96,635.77 164.09,642.43 " fill="none" id="numberOfPlayers-to-ifValidNumberOfPlayers" style="stroke:#008000;stroke-width:1.0;"/><polygon fill="#008000" points="168.88,644.62,162.3506,637.2466,164.3306,642.5456,159.0316,644.5256,168.88,644.62" style="stroke:#008000;stroke-width:1.0;"/><path d="M117.99,556 L117.99,598 L241.99,598 L241.99,566 L231.99,556 L117.99,556 " fill="#FFFFFF" filter="url(#fnex7cwy8337)" style="stroke:#008000;stroke-width:1.0;"/><path d="M231.99,556 L231.99,566 L241.99,566 L231.99,556 " fill="#FFFFFF" style="stroke:#008000;stroke-width:1.0;"/><text fill="#000000" font-family="sans-serif" font-size="13" font-weight="bold" lengthAdjust="spacing" textLength="99" x="123.99" y="574.4951">Player provides</text><text fill="#000000" font-family="sans-serif" font-size="13" lengthAdjust="spacing" textLength="103" x="123.99" y="590.8467">number of players</text><!--MD5=[62cda2a3a26b89bf471ca66bc9c6aeaa]
link ifValidNumberOfPlayers to startedGame--><path d="M186.33,646.31 C203.52,642.63 239.8,632.14 254.99,607 C322.55,495.16 323.22,424.44 254.99,313 C240.73,289.71 211.52,277.05 189.05,270.47 " fill="none" id="ifValidNumberOfPlayers-to-startedGame" style="stroke:#A80036;stroke-width:1.0;"/><polygon fill="#A80036" points="184.07,269.08,191.6644,275.351,188.8862,270.4234,193.8138,267.6452,184.07,269.08" style="stroke:#A80036;stroke-width:1.0;"/><path d="M309.99,470 L309.99,512 L465.99,512 L465.99,480 L455.99,470 L309.99,470 " fill="#FFFFFF" filter="url(#fnex7cwy8337)" style="stroke:#A80036;stroke-width:1.0;"/><path d="M455.99,470 L455.99,480 L465.99,480 L455.99,470 " fill="#FFFFFF" style="stroke:#A80036;stroke-width:1.0;"/><text fill="#000000" font-family="sans-serif" font-size="13" font-weight="bold" lengthAdjust="spacing" textLength="89" x="315.99" y="488.4951">System shows</text><text fill="#000000" font-family="sans-serif" font-size="13" lengthAdjust="spacing" textLength="135" x="315.99" y="504.8467">invalid numer of players</text><!--MD5=[b962a2b57d078af9a836ea8cf2d8dccb]
link ifValidNumberOfPlayers to showBoard--><path d="M176.99,661.46 C176.99,685.1 176.99,739.73 176.99,771.63 " fill="none" id="ifValidNumberOfPlayers-to-showBoard" style="stroke:#008000;stroke-width:1.0;"/><polygon fill="#008000" points="176.99,776.93,180.99,767.93,176.99,771.93,172.99,767.93,176.99,776.93" style="stroke:#008000;stroke-width:1.0;"/><path d="M181.99,696 L181.99,738 L291.99,738 L291.99,706 L281.99,696 L181.99,696 " fill="#FFFFFF" filter="url(#fnex7cwy8337)" style="stroke:#008000;stroke-width:1.0;"/><path d="M281.99,696 L281.99,706 L291.99,706 L281.99,696 " fill="#FFFFFF" style="stroke:#008000;stroke-width:1.0;"/><text fill="#000000" font-family="sans-serif" font-size="13" font-weight="bold" lengthAdjust="spacing" textLength="89" x="187.99" y="714.4951">System shows</text><text fill="#000000" font-family="sans-serif" font-size="13" lengthAdjust="spacing" textLength="32" x="187.99" y="730.8467">board</text><!--MD5=[ca772f2399f26b9f4992834aaa0bf004]
link showBoard to IN_GAME--><path d="M176.99,817.31 C176.99,851.55 176.99,922.85 176.99,960.5 " fill="none" id="showBoard-to-IN_GAME" style="stroke:#008000;stroke-width:1.0;"/><polygon fill="#008000" points="176.99,965.8,180.99,956.8,176.99,960.8,172.99,956.8,176.99,965.8" style="stroke:#008000;stroke-width:1.0;"/><path d="M181.99,852 L181.99,927 L361.99,927 L361.99,862 L351.99,852 L181.99,852 " fill="#FFFFFF" filter="url(#fnex7cwy8337)" style="stroke:#008000;stroke-width:1.0;"/><path d="M351.99,852 L351.99,862 L361.99,862 L351.99,852 " fill="#FFFFFF" style="stroke:#008000;stroke-width:1.0;"/><text fill="#000000" font-family="sans-serif" font-size="13" font-weight="bold" lengthAdjust="spacing" textLength="91" x="187.99" y="870.4951">System allows</text><text fill="#000000" font-family="sans-serif" font-size="13" lengthAdjust="spacing" textLength="62" x="187.99" y="886.8467">start game</text><text fill="#000000" font-family="sans-serif" font-size="13" font-weight="bold" lengthAdjust="spacing" textLength="102" x="187.99" y="903.1982">System requires</text><text fill="#000000" font-family="sans-serif" font-size="13" lengthAdjust="spacing" textLength="159" x="187.99" y="919.5498">player propose combination</text><!--MD5=[7b3275b112bdd922c0e601133fbaaad0]
@startuml
skinparam NoteBackgroundColor white
hide empty description
state INIT as "INIT"
state startedGame as " "
state numberOfPlayers as " "
state ifValidNumberOfPlayers <<choice>>
state showBoard as "Show Board"

[*] - -> INIT
INIT -[#green]-> startedGame
note on link #white
  <b>Player request to
  start a new game
end note
startedGame -[#green]-> numberOfPlayers
note on link
  <b>System shows
  title required number of players
  <b>System requires
  number of players
  <b>System allows
  only numbers > 0
end note
numberOfPlayers -[#green]-> ifValidNumberOfPlayers
note on link
  <b>Player provides
  number of players
end note
ifValidNumberOfPlayers - -> startedGame
note on link
  <b>System shows
  invalid numer of players
end note
ifValidNumberOfPlayers -[#green]-> showBoard
note on link
  <b>System shows
  board
end note
showBoard -[#green]-> IN_GAME
note on link
  <b>System allows
  start game
  <b>System requires
  player propose combination
end note

@enduml

PlantUML version 1.2021.11(Sat Oct 02 15:26:11 CEST 2021)
(GPL source distribution)
Java Runtime: OpenJDK Runtime Environment
JVM: OpenJDK 64-Bit Server VM
Default Encoding: Cp1252
Language: es
Country: ES
--></g></svg>