<?xml version="1.0" encoding="UTF-8" standalone="no"?><svg xmlns="http://www.w3.org/2000/svg" xmlns:xlink="http://www.w3.org/1999/xlink" contentScriptType="application/ecmascript" contentStyleType="text/css" height="844px" preserveAspectRatio="none" style="width:484px;height:844px;background:#FFFFFF;" version="1.1" viewBox="0 0 484 844" width="484px" zoomAndPan="magnify"><defs><filter height="300%" id="f19lbzx56h3d7r" width="300%" x="-1" y="-1"><feGaussianBlur result="blurOut" stdDeviation="2.0"/><feColorMatrix in="blurOut" result="blurOut2" type="matrix" values="0 0 0 0 0 0 0 0 0 0 0 0 0 0 0 0 0 0 .4 0"/><feOffset dx="4.0" dy="4.0" in="blurOut2" result="blurOut3"/><feBlend in="SourceGraphic" in2="blurOut3" mode="normal"/></filter></defs><g><text fill="#000000" font-family="sans-serif" font-size="18" lengthAdjust="spacing" textLength="251" x="109.17" y="18.6855">Specification Propose use case</text><rect fill="#FEFECE" filter="url(#f19lbzx56h3d7r)" height="40" rx="12.5" ry="12.5" style="stroke:#A80036;stroke-width:1.5;" width="50" x="7.34" y="193.6406"/><text fill="#000000" font-family="sans-serif" font-size="14" lengthAdjust="spacing" textLength="0" x="34.34" y="219.3691"/><rect fill="#FEFECE" filter="url(#f19lbzx56h3d7r)" height="40" rx="12.5" ry="12.5" style="stroke:#A80036;stroke-width:1.5;" width="86" x="245.34" y="549.6406"/><text fill="#000000" font-family="sans-serif" font-size="14" lengthAdjust="spacing" textLength="76" x="250.34" y="575.3691">Show Board</text><polygon fill="#FEFECE" filter="url(#f19lbzx56h3d7r)" points="204.34,390.6406,216.34,402.6406,204.34,414.6406,192.34,402.6406,204.34,390.6406" style="stroke:#A80036;stroke-width:1.5;"/><polygon fill="#FEFECE" filter="url(#f19lbzx56h3d7r)" points="361.34,650.6406,373.34,662.6406,361.34,674.6406,349.34,662.6406,361.34,650.6406" style="stroke:#A80036;stroke-width:1.5;"/><rect fill="#FEFECE" filter="url(#f19lbzx56h3d7r)" height="40" rx="12.5" ry="12.5" style="stroke:#A80036;stroke-width:1.5;" width="70" x="169.34" y="29.6406"/><text fill="#000000" font-family="sans-serif" font-size="14" lengthAdjust="spacing" textLength="60" x="174.34" y="55.3691">IN_GAME</text><rect fill="#FEFECE" filter="url(#f19lbzx56h3d7r)" height="40" rx="12.5" ry="12.5" style="stroke:#A80036;stroke-width:1.5;" width="87" x="317.84" y="790.6406"/><text fill="#000000" font-family="sans-serif" font-size="14" lengthAdjust="spacing" textLength="77" x="322.84" y="816.3691">OUT_GAME</text><!--MD5=[405ced330d158ddaaa2079ea4d20da71]
link IN_GAME to userRequiresCompareWord--><path d="M169.06,55.2206 C122.03,62.1406 42.69,76.9106 25.34,99.6406 C6,124.9806 13.98,163.5706 22.42,188.4506 " fill="none" id="IN_GAME-to-userRequiresCompareWord" style="stroke:#008000;stroke-width:1.0;"/><polygon fill="#008000" points="24.1,193.2306,24.8626,183.4113,22.4292,188.5181,17.3225,186.0846,24.1,193.2306" style="stroke:#008000;stroke-width:1.0;"/><path d="M30.34,104.6406 L30.34,146.6406 L169.34,146.6406 L169.34,114.6406 L159.34,104.6406 L30.34,104.6406 " fill="#FFFFFF" filter="url(#f19lbzx56h3d7r)" style="stroke:#008000;stroke-width:1.0;"/><path d="M159.34,104.6406 L159.34,114.6406 L169.34,114.6406 L159.34,104.6406 " fill="#FFFFFF" style="stroke:#008000;stroke-width:1.0;"/><text fill="#000000" font-family="sans-serif" font-size="13" font-weight="bold" lengthAdjust="spacing" textLength="93" x="36.34" y="123.1357">Player provide</text><text fill="#000000" font-family="sans-serif" font-size="13" lengthAdjust="spacing" textLength="118" x="36.34" y="139.4873">proposed characters</text><!--MD5=[7a100e0cde2b51097145e3fdddb1db50]
link userRequiresCompareWord to ifValidPropose--><path d="M27.11,233.7606 C19.99,264.3406 11.33,324.4906 41.34,360.6406 C60.35,383.5406 152.54,395.9706 189.23,400.0806 " fill="none" id="userRequiresCompareWord-to-ifValidPropose" style="stroke:#008000;stroke-width:1.0;"/><polygon fill="#008000" points="194.23,400.6306,185.7174,395.6773,189.2595,400.0879,184.849,403.63,194.23,400.6306" style="stroke:#008000;stroke-width:1.0;"/><path d="M46.34,276.6406 L46.34,351.6406 L169.34,351.6406 L169.34,286.6406 L159.34,276.6406 L46.34,276.6406 " fill="#FFFFFF" filter="url(#f19lbzx56h3d7r)" style="stroke:#008000;stroke-width:1.0;"/><path d="M159.34,276.6406 L159.34,286.6406 L169.34,286.6406 L159.34,276.6406 " fill="#FFFFFF" style="stroke:#008000;stroke-width:1.0;"/><text fill="#000000" font-family="sans-serif" font-size="13" font-weight="bold" lengthAdjust="spacing" textLength="102" x="52.34" y="295.1357">System requires</text><text fill="#000000" font-family="sans-serif" font-size="13" lengthAdjust="spacing" textLength="100" x="52.34" y="311.4873">player characters</text><text fill="#000000" font-family="sans-serif" font-size="13" font-weight="bold" lengthAdjust="spacing" textLength="91" x="52.34" y="327.8389">System allows</text><text fill="#000000" font-family="sans-serif" font-size="13" lengthAdjust="spacing" textLength="97" x="52.34" y="344.1904">[only characters]</text><!--MD5=[3d9becd0af306e753a9ba3e2c86a43a8]
link ifValidPropose to showBoard--><path d="M207.71,411.3606 C215.96,430.1606 238.1,479.6906 259.34,519.6406 C263.8,528.0406 269.01,537.0406 273.76,545.0106 " fill="none" id="ifValidPropose-to-showBoard" style="stroke:#008000;stroke-width:1.0;"/><polygon fill="#008000" points="276.35,549.3206,275.1256,539.5482,273.767,545.0395,268.2757,543.6809,276.35,549.3206" style="stroke:#008000;stroke-width:1.0;"/><text fill="#000000" font-family="sans-serif" font-size="13" lengthAdjust="spacing" textLength="115" x="263.84" y="459.1357">[valid input propose]</text><path d="M264.34,467.9922 L264.34,509.9922 L374.34,509.9922 L374.34,477.9922 L364.34,467.9922 L264.34,467.9922 " fill="#FFFFFF" filter="url(#f19lbzx56h3d7r)" style="stroke:#008000;stroke-width:1.0;"/><path d="M364.34,467.9922 L364.34,477.9922 L374.34,477.9922 L364.34,467.9922 " fill="#FFFFFF" style="stroke:#008000;stroke-width:1.0;"/><text fill="#000000" font-family="sans-serif" font-size="13" font-weight="bold" lengthAdjust="spacing" textLength="89" x="270.34" y="486.4873">System shows</text><text fill="#000000" font-family="sans-serif" font-size="13" lengthAdjust="spacing" textLength="32" x="270.34" y="502.8389">board</text><!--MD5=[1a82143de53b01955d0720f4538e8a6a]
reverse link IN_GAME to ifValidPropose--><path d="M204.34,74.9106 C204.34,144.2106 204.34,341.1606 204.34,390.3806 " fill="none" id="IN_GAME-backto-ifValidPropose" style="stroke:#A80036;stroke-width:1.0;"/><polygon fill="#A80036" points="204.34,69.7606,200.34,78.7606,204.34,74.7606,208.34,78.7606,204.34,69.7606" style="stroke:#A80036;stroke-width:1.0;"/><path d="M209.34,190.6406 L209.34,232.6406 L347.34,232.6406 L347.34,200.6406 L337.34,190.6406 L209.34,190.6406 " fill="#FFFFFF" filter="url(#f19lbzx56h3d7r)" style="stroke:#A80036;stroke-width:1.0;"/><path d="M337.34,190.6406 L337.34,200.6406 L347.34,200.6406 L337.34,190.6406 " fill="#FFFFFF" style="stroke:#A80036;stroke-width:1.0;"/><text fill="#000000" font-family="sans-serif" font-size="13" font-weight="bold" lengthAdjust="spacing" textLength="89" x="215.34" y="209.1357">System shows</text><text fill="#000000" font-family="sans-serif" font-size="13" lengthAdjust="spacing" textLength="117" x="215.34" y="225.4873">invalid input propose</text><!--MD5=[c7f20925480a9163a3e46de27cc22751]
link showBoard to ifEndGame--><path d="M303.82,589.9406 C318.84,608.6606 341.06,636.3606 353.01,651.2606 " fill="none" id="showBoard-to-ifEndGame" style="stroke:#008000;stroke-width:1.0;"/><polygon fill="#008000" points="356.37,655.4506,353.8585,645.9274,353.2413,651.5505,347.6182,650.9333,356.37,655.4506" style="stroke:#008000;stroke-width:1.0;"/><!--MD5=[d27e7a06748c0d9c643e25af11cf41cb]
reverse link IN_GAME to ifEndGame--><path d="M244.5,62.2806 C304.19,82.3406 409.34,129.4706 409.34,212.6406 C409.34,212.6406 409.34,212.6406 409.34,570.6406 C409.34,606.7206 379.45,642.5206 366.85,656.0206 " fill="none" id="IN_GAME-backto-ifEndGame" style="stroke:#A80036;stroke-width:1.0;"/><polygon fill="#A80036" points="239.58,60.6506,246.8712,67.2717,244.3277,62.2189,249.3805,59.6754,239.58,60.6506" style="stroke:#A80036;stroke-width:1.0;"/><text fill="#000000" font-family="sans-serif" font-size="13" lengthAdjust="spacing" textLength="51" x="410.34" y="408.1357">[not end]</text><!--MD5=[fedca4ac52ca1f9bc5c1b0c24fd39cd7]
link ifEndGame to OUT_GAME--><path d="M361.34,675.1006 C361.34,698.7406 361.34,753.3706 361.34,785.2706 " fill="none" id="ifEndGame-to-OUT_GAME" style="stroke:#008000;stroke-width:1.0;"/><polygon fill="#008000" points="361.34,790.5706,365.34,781.5706,361.34,785.5706,357.34,781.5706,361.34,790.5706" style="stroke:#008000;stroke-width:1.0;"/><path d="M366.34,709.6406 L366.34,751.6406 L475.34,751.6406 L475.34,719.6406 L465.34,709.6406 L366.34,709.6406 " fill="#FFFFFF" filter="url(#f19lbzx56h3d7r)" style="stroke:#008000;stroke-width:1.0;"/><path d="M465.34,709.6406 L465.34,719.6406 L475.34,719.6406 L465.34,709.6406 " fill="#FFFFFF" style="stroke:#008000;stroke-width:1.0;"/><text fill="#000000" font-family="sans-serif" font-size="13" lengthAdjust="spacing" textLength="88" x="372.34" y="728.1357">[finished game]</text><text fill="#000000" font-family="sans-serif" font-size="13" lengthAdjust="spacing" textLength="77" x="372.34" y="744.4873">[lose or win?]</text><!--MD5=[e0e9a7d0a0c7ce4eba566509fe4017ee]
@startuml
title Specification Propose use case
skinparam NoteBackgroundColor white
hide empty description
state userRequiresCompareWord as " "
state showBoard as "Show Board"
state ifValidPropose <<choice>>
state ifEndGame <<choice>>

IN_GAME -[#green]-> userRequiresCompareWord
note on link #white
  <b>Player provide
  proposed characters
end note
userRequiresCompareWord -[#green]-> ifValidPropose
note on link #white
  <b>System requires
  player characters
  <b>System allows
  [only characters]
end note
ifValidPropose -[#green]-> showBoard : [valid input propose]
note on link
  <b>System shows
  board
  end note
ifValidPropose -up-> IN_GAME
note on link #white
  <b>System shows
 board
end note
note on link #white
  <b>System shows
  invalid input propose
end note
showBoard -[#green]-> ifEndGame
ifEndGame -up-> IN_GAME : [not end]
ifEndGame -[#green]-> OUT_GAME
note on link #white
  [finished game]
  [lose or win?]
end note
@enduml

PlantUML version 1.2021.11(Sat Oct 02 15:26:11 CEST 2021)
(GPL source distribution)
Java Runtime: OpenJDK Runtime Environment
JVM: OpenJDK 64-Bit Server VM
Default Encoding: Cp1252
Language: es
Country: ES
--></g></svg>